<?xml version="1.0" encoding="utf-8"?>
<!-- Generator: Adobe Illustrator 16.0.4, SVG Export Plug-In . SVG Version: 6.00 Build 0)  -->
<!DOCTYPE svg PUBLIC "-//W3C//DTD SVG 1.1//EN" "http://www.w3.org/Graphics/SVG/1.1/DTD/svg11.dtd">
<svg version="1.1" id="Layer_1" xmlns="http://www.w3.org/2000/svg" xmlns:xlink="http://www.w3.org/1999/xlink" x="0px" y="0px"
	 width="612px" height="792px" viewBox="0 0 612 792" enable-background="new 0 0 612 792" xml:space="preserve">
<g>
	<g id="_x34_27._Network">
		<g>
			<path fill="#010101" d="M39.701,33.54c3.312,0,6-2.687,6-6c0-3.314-2.688-6.001-6-6.001c-2.611,0-4.827,1.672-5.65,4.001H23.164
				l12.74-7.355c1.033,0.847,2.355,1.355,3.797,1.355c3.312,0,6-2.687,6-6c0-3.314-2.688-6-6-6c-3.314,0-6,2.686-6,6
				c0,0.42,0.044,0.829,0.126,1.225l-16.944,9.783c-1.036-1.794-2.962-3.008-5.182-3.008c-3.313,0-6,2.686-6,6c0,3.313,2.687,6,6,6
				c2.221,0,4.146-1.215,5.182-3.009l16.944,9.783c-0.082,0.396-0.126,0.806-0.126,1.226c0,3.312,2.686,6,6,6c3.312,0,6-2.688,6-6
				c0-3.314-2.688-6-6-6c-1.441,0-2.764,0.509-3.797,1.354L23.166,29.54H34.05C34.874,31.869,37.089,33.54,39.701,33.54z
				 M39.701,25.54c1.104,0,2,0.895,2,2c0,1.104-0.896,2-2,2s-2-0.896-2-2C37.701,26.435,38.597,25.54,39.701,25.54z M39.701,11.54
				c1.104,0,2,0.895,2,2c0,1.104-0.896,2-2,2s-2-0.896-2-2C37.701,12.435,38.597,11.54,39.701,11.54z M11.701,29.54
				c-1.104,0-2-0.896-2-2c0-1.105,0.896-2,2-2s2,0.895,2,2C13.701,28.644,12.805,29.54,11.701,29.54z M39.701,39.54
				c1.104,0,2,0.895,2,2c0,1.104-0.896,2-2,2s-2-0.896-2-2C37.701,40.435,38.597,39.54,39.701,39.54z"/>
		</g>
	</g>
	<g>
	</g>
	<g>
	</g>
	<g>
	</g>
	<g>
	</g>
	<g>
	</g>
	<g>
	</g>
	<g>
	</g>
	<g>
	</g>
	<g>
	</g>
	<g>
	</g>
	<g>
	</g>
	<g>
	</g>
	<g>
	</g>
	<g>
	</g>
	<g>
	</g>
</g>
<g>
	<g>
		<polygon fill="#010101" points="43.592,27.833 35.207,19.447 35.207,25.277 10.227,25.277 10.227,19.447 4.396,25.277 
			4.375,25.277 4.375,25.298 1.841,27.833 4.375,30.366 4.375,30.387 4.396,30.387 10.227,36.217 10.227,30.387 35.207,30.387 
			35.207,36.217 		"/>
		<polygon fill="#010101" points="21.062,21.98 24.371,21.98 24.371,16.394 29.584,7.628 25.994,7.628 22.716,13.538 19.46,7.628 
			15.848,7.628 21.062,16.493 		"/>
	</g>
</g>
<g>
	<g>
		<path fill="#010101" d="M43.404,21.907l-9.433-9.434l1.558,6.067h-5.518l1.769-2.712h-8.152l-0.552,1.146l-0.548-1.146h-8.14
			l1.746,2.712h-5.528l1.558-6.067l-9.435,9.434l9.434,9.434l-1.558-6.067h9.021v2.456h6.885v-2.456h9.02l-1.558,6.067
			L43.404,21.907z M24.492,22.641v3.23h-3.004v-3.163L17.855,17.6h3.246l1.888,3.066l1.903-3.066h3.231L24.492,22.641z"/>
		<rect x="21.507" y="31.858" fill="#010101" width="3.117" height="10.534"/>
		<rect x="21.507" y="1.42" fill="#010101" width="3.117" height="11.042"/>
	</g>
</g>
<g>
	<g>
		<path fill="#010101" d="M43.289,21.907l-9.51-9.511l1.571,6.116h-6.613v-2.807H16.571v2.807h-6.348l1.57-6.116l-9.51,9.511
			l9.51,9.511l-1.57-6.116h6.232v2.328H28.86v-2.328h6.49l-1.571,6.116L43.289,21.907z M27.077,25.716h-8.787v-1.386l4.883-5.107
			h-4.768v-1.812h8.547v1.38l-4.882,5.113h5.006V25.716z"/>
		<rect x="21.228" y="31.858" fill="#010101" width="3.118" height="10.534"/>
		<rect x="21.228" y="1.42" fill="#010101" width="3.118" height="11.042"/>
	</g>
</g>
<g>
	<path fill="#010101" d="M43.396,36.24l-0.083-0.184L41.9,32.917l-0.865,2.277l-4.868-1.779c0,0,0-12.693,0-13.294
		c0-0.602-0.379-0.951-0.731-1.084s-11.192-4.258-11.192-4.258V7.671h2.433l-2.436-2.437l-0.145-0.145l-1.01-1.009l-1.157,1.157
		l-2.433,2.434h2.433v7.116l-10.977,4.191c-0.566,0.19-0.941,0.513-0.941,1.083l-0.006,13.244l-5.219,1.968l-0.864-2.274
		l-1.41,3.135l-0.085,0.189l-0.587,1.306l1.302,0.585l0.199,0.09l3.13,1.408l-0.863-2.274l5.189-1.956l11.77,4.488
		c0.414,0.177,0.663,0.122,1.033,0.002l11.629-4.435l4.984,1.822l-0.862,2.271l3.149-1.415l0.182-0.082l1.3-0.584L43.396,36.24z
		 M21.928,37.218l-9.58-3.653V21.838l9.58,3.645L21.928,37.218L21.928,37.218z M23.086,23.408L14.49,20.13l8.623-3.291l8.593,3.282
		L23.086,23.408z M33.825,33.565l-9.555,3.644V25.465l9.555-3.645V33.565z"/>
</g>
<g>
	<g>
		<path fill="#010101" d="M37.814,8.028c-8.219-8.218-21.592-8.219-29.812,0c-8.027,8.027-8.21,20.966-0.559,29.224l-4.392,4.392
			h12.009l0-12.01l-4.357,4.357c-5.855-6.456-5.67-16.473,0.558-22.702c6.421-6.421,16.869-6.421,23.29,0s6.421,16.869,0,23.289
			c-1.422,1.421-3.062,2.557-4.875,3.373l1.893,4.205c2.325-1.046,4.425-2.5,6.244-4.317C46.034,29.621,46.033,16.247,37.814,8.028z
			"/>
		<polygon fill="#010101" points="29.374,16.04 29.374,13.79 16.446,13.79 16.446,16.668 24.842,16.668 16.213,27.971 
			16.213,30.231 29.606,30.231 29.606,27.352 20.756,27.352 		"/>
	</g>
</g>
<g>
	<g>
		<path fill="#010101" d="M48.889,10.755c-0.104-0.314-0.61-0.578-0.888-0.703L26.229-0.863l-0.065-0.034
			c-0.53-0.306-1.053-0.098-1.247-0.001c-0.22,0.11-21.789,10.899-21.789,10.899c-0.079,0.025-0.767,0.245-0.92,0.816
			c-0.124,0.455-0.096,0.693-0.092,0.693l0,0l0.003,26.544c-0.008,0.046-0.067,0.462,0.169,0.871
			c0.244,0.421,0.674,0.559,0.677,0.557l21.744,10.868c0.036,0.022,0.366,0.228,0.813,0.228h0.021
			c0.447-0.008,0.78-0.201,0.795-0.211l21.762-10.881c0.141-0.063,0.469-0.225,0.632-0.414c0.09-0.079,0.229-0.285,0.229-0.969
			V11.525C48.964,11.475,48.982,11.033,48.889,10.755z M23.887,46.499L5.193,37.154V14l18.693,9.347V46.499z M25.54,20.593
			L7.205,11.399l18.333-9.165l18.335,9.192L25.54,20.593z M45.884,37.154l-18.695,9.345V23.348l18.695-9.347V37.154z"/>
	</g>
</g>
<g>
	<path fill="#010101" d="M22.521,47.999h7.037v2.339h-7.037V47.999z M12.55,50.338h7.038v-2.339H12.55V50.338z M6.109,34.521H3.77
		v7.037h2.339V34.521z M6.109,24.55H3.77v7.038h2.339V24.55z M6.109,18.11h3.509v-2.339H6.957l1.213-2.11l-2.028-1.166l-2.304,4.072
		C3.797,16.686,3.77,16.81,3.77,16.94v4.678h2.339V18.11z M22.521,18.109h7.037V15.77h-7.037V18.109z M12.55,18.109h7.038V15.77
		H12.55V18.109z M38.338,17.252l2.177-3.785l-2.029-1.166l-1.995,3.469h-4v2.34h3.508v3.508h2.339V17.252z M38.338,41.558v-6.7
		h-2.339v6.7H38.338z M35.999,31.116h2.339V24.55h-2.339V31.116z M45.357,31.725h-3.509v2.339h2.575l-1.438,2.303l2.028,1.166
		l2.375-3.854c0.192-0.282,0.309-0.482,0.309-0.785v-4.678h-2.339V31.725L45.357,31.725z M38.914,31.725h-7.037v2.339h7.037V31.725z
		 M28.945,31.725h-7.037v2.339h7.037V31.725z M13.127,32.515l-2.216,3.854l2.028,1.166l1.995-3.47h4.042v-2.339h-3.509v-3.508
		h-2.339V32.515z M15.466,18.956h-2.339v6.362h2.339V18.956z M13.127,14.672h2.339V8.311h-2.339V14.672z M28.945-0.503h-7.038v2.339
		h7.038V-0.503z M38.914-0.503h-7.037v2.339h7.037V-0.503z M46.526-0.503h-4.679v2.339h2.657l-1.325,2.303l2.027,1.166l0.149,0.041
		h2.34V0.666C47.695,0.02,47.171-0.503,46.526-0.503z M45.357,25.284h2.339v-7.038h-2.339V25.284z M45.357,15.313h2.339V8.276
		h-2.339V15.313z M11.796,7.354L9.768,6.188l-2.558,4.452l2.027,1.166L11.796,7.354z M13.127,5.345h2.339V1.835h3.509v-2.339h-4.679
		c-0.516,0-0.881,0.406-1.104,0.797l-2.359,4.041l2.028,1.166L13.127,5.345z M44.142,7.161l-2.028-1.166l-2.56,4.453l2.027,1.165
		L44.142,7.161z M35.999,44.49v3.509h-3.508v2.339h4.678c0.521,0,0.829-0.35,1.109-0.814l2.042-3.829l-1.981-1.205H35.999z
		 M39.357,42.672l2.029,1.166l2.559-4.453l-2.027-1.166L39.357,42.672z M8.246,45.697l-2.028-1.166L6.109,44.49H3.77v4.679
		c0,0.646,0.524,1.169,1.169,1.169h4.679v-2.339H6.922L8.246,45.697z M7.286,42.675l2.028,1.166l2.56-4.453l-2.028-1.166
		L7.286,42.675z"/>
</g>
<g>
	<path fill="#010101" d="M38.979,27.348c-0.459-0.461-4.816-4.684-4.816-4.684s-0.586-0.584-0.584,0.191c0,0.772,0,2.008,0,2.008
		h-6.811v-6.787c0,0,1.236,0,2.016,0.002c0.771-0.002,0.189-0.58,0.189-0.58s-4.224-4.365-4.685-4.82
		c-0.332-0.33-0.648,0.037-0.648,0.037l-4.801,4.672c0,0-0.584,0.552,0.051,0.552c0.639,0.002,2.178,0.002,2.178,0.002v6.924h-6.828
		c0,0,0-1.234,0.002-2.01c-0.002-0.771-0.584-0.191-0.584-0.191s-4.358,4.224-4.817,4.685c-0.336,0.33,0.033,0.646,0.033,0.646
		l4.672,4.801c0,0,0.553,0.586,0.553-0.055c0.006-0.635,0.006-2.176,0.006-2.176h6.963v6.991c0,0-1.539,0-2.18,0
		c-0.633,0-0.049,0.552-0.049,0.552l4.801,4.67c0,0,0.314,0.375,0.648,0.041c0.459-0.461,4.679-4.822,4.679-4.822
		s0.586-0.58-0.188-0.576c-0.774,0-2.012,0-2.012,0v-6.854l6.949,0.004c0,0,0,1.537,0,2.174c0,0.639,0.553,0.053,0.553,0.053
		l4.672-4.801C38.942,27.994,39.311,27.678,38.979,27.348z"/>
	<g>
	</g>
	<g>
	</g>
	<g>
	</g>
	<g>
	</g>
	<g>
	</g>
	<g>
	</g>
	<g>
	</g>
	<g>
	</g>
	<g>
	</g>
	<g>
	</g>
	<g>
	</g>
	<g>
	</g>
	<g>
	</g>
	<g>
	</g>
	<g>
	</g>
</g>
<g>
	<g>
		<path fill="#010101" d="M23.449,43.341h-0.006c-0.308-0.003-0.553-0.256-0.55-0.562c0.041-3.522-0.25-6.062-0.839-7.334
			c-0.227-0.486-0.645-0.892-1.048-1.281c-0.492-0.476-0.958-0.924-1.114-1.531c-0.107-0.286-0.177-0.64-0.19-0.995
			c-0.025-0.825,0.249-1.632,0.773-2.273c0.095-0.116,0.23-0.188,0.38-0.202c0.146-0.013,0.297,0.034,0.41,0.13
			c0.187,0.159,0.376,0.288,0.565,0.385c0.396,0.201,0.839,0.31,1.282,0.31l0.107-0.003c0.667-0.021,1.312-0.284,1.807-0.738
			c0.2-0.187,0.51-0.193,0.722-0.025c0.501,0.396,1.129,0.616,1.768,0.616l0.104-0.003c0.474-0.016,0.941-0.152,1.354-0.396
			c0.141-0.084,0.271-0.187,0.393-0.292c0.113-0.099,0.263-0.146,0.411-0.133c0.148,0.012,0.287,0.084,0.383,0.2
			c0.479,0.586,0.748,1.292,0.773,2.044c0.011,0.357-0.034,0.715-0.134,1.059c-0.109,0.605-0.583,1.123-1.082,1.67
			c-0.396,0.434-0.809,0.884-1.025,1.396c-0.561,1.302-0.834,3.861-0.796,7.4c0.003,0.308-0.243,0.56-0.551,0.562h-0.007
			c-0.305,0-0.554-0.246-0.557-0.55c-0.04-3.746,0.258-6.388,0.885-7.854c0.296-0.688,0.791-1.229,1.229-1.708
			c0.39-0.427,0.758-0.829,0.822-1.175c0.079-0.285,0.107-0.524,0.102-0.769c-0.011-0.325-0.09-0.641-0.231-0.927l-0.044,0.026
			c-0.577,0.342-1.229,0.532-1.892,0.556l-0.123,0.003h-0.001c-0.748,0-1.477-0.209-2.101-0.598
			c-0.633,0.457-1.393,0.72-2.181,0.745l-0.126,0.002c-0.628,0-1.245-0.147-1.797-0.431c-0.093-0.047-0.185-0.099-0.275-0.156
			c-0.166,0.337-0.248,0.711-0.236,1.09c0.008,0.236,0.054,0.475,0.139,0.701c0.096,0.357,0.449,0.699,0.825,1.063
			c0.456,0.439,0.974,0.938,1.286,1.613c0.668,1.443,0.984,4.073,0.941,7.813C24.002,43.097,23.755,43.341,23.449,43.341z"/>
		<path fill="#010101" d="M23.115,28.931c-0.535,0-1.066-0.128-1.546-0.373c-1.109-0.562-1.823-1.686-1.867-2.927
			c-0.011-0.358,0.034-0.716,0.133-1.06c0.11-0.606,0.583-1.124,1.084-1.672c0.396-0.434,0.807-0.882,1.024-1.396
			c0.56-1.302,0.834-3.861,0.796-7.4c-0.003-0.308,0.243-0.56,0.55-0.562c0.333,0.012,0.561,0.242,0.562,0.55
			c0.04,3.746-0.258,6.388-0.885,7.854c-0.296,0.688-0.791,1.229-1.229,1.706c-0.39,0.428-0.758,0.83-0.823,1.177
			c-0.079,0.285-0.107,0.524-0.101,0.768c0.028,0.836,0.511,1.593,1.26,1.974c0.345,0.176,0.73,0.266,1.119,0.249
			c0.688-0.021,1.323-0.349,1.745-0.893c0.101-0.132,0.255-0.209,0.42-0.217c0.156-0.005,0.324,0.062,0.435,0.187
			c0.459,0.515,1.106,0.782,1.805,0.772c0.387-0.013,0.768-0.126,1.103-0.324c0.72-0.432,1.15-1.22,1.122-2.059
			c-0.008-0.238-0.054-0.476-0.139-0.701c-0.097-0.357-0.449-0.701-0.826-1.063c-0.455-0.439-0.973-0.938-1.285-1.613
			c-0.668-1.444-0.984-4.073-0.941-7.813c0.003-0.309,0.201-0.547,0.562-0.55c0.308,0.003,0.553,0.256,0.55,0.562
			c-0.041,3.522,0.25,6.062,0.839,7.334c0.228,0.486,0.646,0.891,1.047,1.28c0.493,0.475,0.959,0.924,1.115,1.533
			c0.107,0.285,0.178,0.639,0.19,0.994c0.041,1.244-0.6,2.412-1.665,3.051c-0.496,0.295-1.062,0.461-1.634,0.481
			c-0.805,0.033-1.601-0.233-2.229-0.729c-0.593,0.537-1.358,0.852-2.173,0.88L23.115,28.931z"/>
	</g>
</g>
<g>
	<g>
		<path fill="#010101" d="M23.449,43.341h-0.006c-0.308-0.003-0.553-0.256-0.55-0.562c0.041-3.522-0.25-6.062-0.839-7.334
			c-0.227-0.486-0.645-0.892-1.048-1.281c-0.492-0.476-0.958-0.924-1.114-1.531c-0.107-0.286-0.177-0.64-0.19-0.995
			c-0.025-0.825,0.249-1.632,0.773-2.273c0.095-0.116,0.23-0.188,0.38-0.202c0.146-0.013,0.297,0.034,0.41,0.13
			c0.187,0.159,0.376,0.288,0.565,0.385c0.396,0.201,0.839,0.31,1.282,0.31l0.107-0.003c0.667-0.021,1.312-0.284,1.807-0.738
			c0.2-0.187,0.51-0.193,0.722-0.025c0.501,0.396,1.129,0.616,1.768,0.616l0.104-0.003c0.474-0.016,0.941-0.152,1.354-0.396
			c0.141-0.084,0.271-0.187,0.393-0.292c0.113-0.099,0.263-0.146,0.411-0.133c0.148,0.012,0.287,0.084,0.383,0.2
			c0.479,0.586,0.748,1.292,0.773,2.044c0.011,0.357-0.034,0.715-0.134,1.059c-0.109,0.605-0.583,1.123-1.082,1.67
			c-0.396,0.434-0.809,0.884-1.025,1.396c-0.561,1.302-0.834,3.861-0.796,7.4c0.003,0.308-0.243,0.56-0.551,0.562h-0.007
			c-0.305,0-0.554-0.246-0.557-0.55c-0.04-3.746,0.258-6.388,0.885-7.854c0.296-0.688,0.791-1.229,1.229-1.708
			c0.39-0.427,0.758-0.829,0.822-1.175c0.079-0.285,0.107-0.524,0.102-0.769c-0.011-0.325-0.09-0.641-0.231-0.927l-0.044,0.026
			c-0.577,0.342-1.229,0.532-1.892,0.556l-0.123,0.003h-0.001c-0.748,0-1.477-0.209-2.101-0.598
			c-0.633,0.457-1.393,0.72-2.181,0.745l-0.126,0.002c-0.628,0-1.245-0.147-1.797-0.431c-0.093-0.047-0.185-0.099-0.275-0.156
			c-0.166,0.337-0.248,0.711-0.236,1.09c0.008,0.236,0.054,0.475,0.139,0.701c0.096,0.357,0.449,0.699,0.825,1.063
			c0.456,0.439,0.974,0.938,1.286,1.613c0.668,1.443,0.984,4.073,0.941,7.813C24.002,43.097,23.755,43.341,23.449,43.341z"/>
		<path fill="#010101" d="M23.115,28.931c-0.535,0-1.066-0.128-1.546-0.373c-1.109-0.562-1.823-1.686-1.867-2.927
			c-0.011-0.358,0.034-0.716,0.133-1.06c0.11-0.606,0.583-1.124,1.084-1.672c0.396-0.434,0.807-0.882,1.024-1.396
			c0.56-1.302,0.834-3.861,0.796-7.4c-0.003-0.308,0.243-0.56,0.55-0.562c0.333,0.012,0.561,0.242,0.562,0.55
			c0.04,3.746-0.258,6.388-0.885,7.854c-0.296,0.688-0.791,1.229-1.229,1.706c-0.39,0.428-0.758,0.83-0.823,1.177
			c-0.079,0.285-0.107,0.524-0.101,0.768c0.028,0.836,0.511,1.593,1.26,1.974c0.345,0.176,0.73,0.266,1.119,0.249
			c0.688-0.021,1.323-0.349,1.745-0.893c0.101-0.132,0.255-0.209,0.42-0.217c0.156-0.005,0.324,0.062,0.435,0.187
			c0.459,0.515,1.106,0.782,1.805,0.772c0.387-0.013,0.768-0.126,1.103-0.324c0.72-0.432,1.15-1.22,1.122-2.059
			c-0.008-0.238-0.054-0.476-0.139-0.701c-0.097-0.357-0.449-0.701-0.826-1.063c-0.455-0.439-0.973-0.938-1.285-1.613
			c-0.668-1.444-0.984-4.073-0.941-7.813c0.003-0.309,0.201-0.547,0.562-0.55c0.308,0.003,0.553,0.256,0.55,0.562
			c-0.041,3.522,0.25,6.062,0.839,7.334c0.228,0.486,0.646,0.891,1.047,1.28c0.493,0.475,0.959,0.924,1.115,1.533
			c0.107,0.285,0.178,0.639,0.19,0.994c0.041,1.244-0.6,2.412-1.665,3.051c-0.496,0.295-1.062,0.461-1.634,0.481
			c-0.805,0.033-1.601-0.233-2.229-0.729c-0.593,0.537-1.358,0.852-2.173,0.88L23.115,28.931z"/>
	</g>
</g>
<g>
	<g>
		<path fill="#010101" d="M37.777,37.738c-0.001,0.001-0.003,0.003-0.004,0.005l-8.68-4.364c0.389-1.729,0.072-3.584-0.955-5.104
			l1.594-1.277c1.826,1.13,4.248,0.914,5.833-0.671c1.851-1.849,1.851-4.847,0-6.696c-1.849-1.85-4.847-1.85-6.697,0
			c-1.624,1.624-1.819,4.132-0.592,5.973l-1.5,1.201c-1.03-0.82-2.249-1.287-3.495-1.398l-0.857-7.36
			c0.678-0.314,1.316-0.745,1.875-1.305c2.562-2.562,2.562-6.718,0-9.279s-6.716-2.562-9.279,0.001
			c-2.562,2.562-2.562,6.717,0,9.278c1.1,1.1,2.494,1.725,3.93,1.88l1.519,7.153c-0.878,0.316-1.705,0.821-2.41,1.524
			c-0.331,0.331-0.617,0.689-0.863,1.066l-4.809-2.414c0.039-0.694-0.197-1.401-0.728-1.933c-0.988-0.987-2.589-0.987-3.577,0
			c-0.988,0.987-0.988,2.589,0,3.577c0.934,0.934,2.411,0.975,3.405,0.142l4.891,2.456c-0.345,1.258-0.308,2.597,0.11,3.838
			l-6.56,4.588c-2.552-1.725-6.047-1.46-8.306,0.799c-2.562,2.562-2.562,6.717,0,9.278s6.716,2.562,9.279-0.001
			c1.781-1.781,2.32-4.332,1.625-6.583l5.536-5.535c1.001,1.001,2.246,1.605,3.542,1.824l0.261,3.176
			c-0.521,0.21-1.01,0.525-1.432,0.948c-1.68,1.679-1.68,4.4-0.001,6.08c1.68,1.679,4.402,1.679,6.081,0
			c1.679-1.681,1.679-4.401-0.001-6.08c-0.743-0.743-1.691-1.139-2.663-1.225l-0.235-2.873c1.363-0.19,2.678-0.803,3.728-1.852
			c0.113-0.112,0.213-0.23,0.315-0.35l8.245,5.435c-0.208,1.909,0.417,3.893,1.879,5.354c2.561,2.562,6.717,2.562,9.278,0
			c2.562-2.562,2.562-6.718,0-9.278C44.495,35.177,40.339,35.177,37.777,37.738z"/>
	</g>
</g>
<g>
	<path fill="#010101" d="M9.64,16.194c0,2.752,2.231,4.983,4.983,4.983s4.983-2.231,4.983-4.983s-2.231-4.983-4.983-4.983
		S9.64,13.442,9.64,16.194z M25.355,7.762h-5.366c-0.383-1.533-0.767-3.066-2.3-3.066h-6.133c-1.533,0-1.917,1.533-2.3,3.066H3.891
		c-0.843,0-1.533,0.69-1.533,1.533v13.799c0,0.843,0.69,1.533,1.533,1.533h21.465c0.843,0,1.533-0.69,1.533-1.533V9.295
		C26.889,8.452,26.199,7.762,25.355,7.762z M14.623,22.998c-3.757,0-6.804-3.046-6.804-6.804s3.046-6.804,6.804-6.804
		s6.804,3.046,6.804,6.804S18.381,22.998,14.623,22.998z M25.355,12.361h-3.066v-1.533h3.066V12.361z"/>
</g>
<g>
	<path fill="#010101" d="M46.099,41.456v2.218H5.434V5.597h2.218v35.859L46.099,41.456L46.099,41.456z M14.86,17.704
		c1.378,0,2.496-1.117,2.496-2.496c0-1.378-1.118-2.495-2.496-2.495s-2.495,1.117-2.495,2.495
		C12.365,16.586,13.482,17.704,14.86,17.704z M23.178,24.635c1.378,0,2.496-1.117,2.496-2.496c0-1.378-1.118-2.495-2.496-2.495
		s-2.495,1.117-2.495,2.495C20.683,23.518,21.8,24.635,23.178,24.635z M35.933,25.234c1.377,0,2.495-1.117,2.495-2.495
		c0-1.378-1.118-2.496-2.495-2.496c-1.378,0-2.496,1.117-2.496,2.496C33.437,24.117,34.555,25.234,35.933,25.234z M38.428,31.202
		c0,1.378,1.118,2.496,2.496,2.496c1.377,0,2.495-1.117,2.495-2.496c0-1.377-1.118-2.495-2.495-2.495
		C39.545,28.707,38.428,29.824,38.428,31.202z M38.428,13.138c1.378,0,2.496-1.117,2.496-2.495s-1.118-2.496-2.496-2.496
		c-1.377,0-2.495,1.118-2.495,2.496S37.05,13.138,38.428,13.138z M14.86,31.202c1.378,0,2.496-1.117,2.496-2.495
		s-1.118-2.496-2.496-2.496s-2.495,1.118-2.495,2.496S13.482,31.202,14.86,31.202z M23.178,32.45c0,1.378,1.118,2.496,2.496,2.496
		c1.377,0,2.495-1.117,2.495-2.496c0-1.377-1.118-2.495-2.495-2.495C24.296,29.955,23.178,31.072,23.178,32.45z M28.169,17.704
		c1.378,0,2.496-1.117,2.496-2.496c0-1.378-1.118-2.495-2.496-2.495c-1.377,0-2.495,1.117-2.495,2.495
		C25.674,16.586,26.792,17.704,28.169,17.704z"/>
</g>
<g>
	<g id="_x35_0_x25__Brightness">
		<g>
			<path fill="#010101" d="M1.794,12.829c-1.012,0-1.833,0.821-1.833,1.833s0.821,1.833,1.833,1.833s1.833-0.821,1.833-1.833
				S2.806,12.829,1.794,12.829z M5.46,21.992c-1.012,0-1.833,0.821-1.833,1.833s0.821,1.833,1.833,1.833s1.833-0.821,1.833-1.833
				S6.472,21.992,5.46,21.992z M23.786,7.331c1.012,0,1.833-0.821,1.833-1.833s-0.821-1.833-1.833-1.833s-1.833,0.821-1.833,1.833
				S22.774,7.331,23.786,7.331z M5.46,7.331c1.012,0,1.833-0.821,1.833-1.833S6.472,3.665,5.46,3.665S3.627,4.486,3.627,5.498
				S4.448,7.331,5.46,7.331z M14.623,3.665c1.012,0,1.833-0.821,1.833-1.833S15.635,0,14.623,0s-1.833,0.821-1.833,1.833
				S13.611,3.665,14.623,3.665z M27.452,12.829c-1.012,0-1.833,0.821-1.833,1.833s0.821,1.833,1.833,1.833s1.833-0.821,1.833-1.833
				S28.463,12.829,27.452,12.829z M23.786,21.992c-1.012,0-1.833,0.821-1.833,1.833s0.821,1.833,1.833,1.833
				s1.833-0.821,1.833-1.833S24.798,21.992,23.786,21.992z M14.623,7.331c-4.048,0-7.331,3.282-7.331,7.331s3.282,7.331,7.331,7.331
				s7.331-3.282,7.331-7.331S18.671,7.331,14.623,7.331z M14.623,18.326c-2.025,0-3.665-1.64-3.665-3.665s1.64-3.665,3.665-3.665
				V18.326z M14.623,25.657c-1.012,0-1.833,0.821-1.833,1.833s0.821,1.833,1.833,1.833s1.833-0.821,1.833-1.833
				S15.635,25.657,14.623,25.657z"/>
		</g>
	</g>
	<g>
	</g>
	<g>
	</g>
	<g>
	</g>
	<g>
	</g>
	<g>
	</g>
	<g>
	</g>
	<g>
	</g>
	<g>
	</g>
	<g>
	</g>
	<g>
	</g>
	<g>
	</g>
	<g>
	</g>
	<g>
	</g>
	<g>
	</g>
	<g>
	</g>
</g>
<g>
	<path fill="#010101" d="M46.389,28.283c0,0.818-0.664,1.48-1.481,1.48c-0.696,0-1.277-0.483-1.435-1.132l-8.786-1.265
		c-0.225,0.82-0.57,1.59-1.02,2.289l4.376,2.771c0.487-0.543,1.192-0.887,1.98-0.887c1.471,0,2.664,1.193,2.664,2.666
		c0,1.471-1.193,2.664-2.664,2.664c-1.472,0-2.666-1.192-2.666-2.664c0-0.366,0.074-0.714,0.208-1.031l-4.417-2.797
		c-1.097,1.359-2.617,2.356-4.356,2.81l0.788,4.873c1.03,0.037,1.856,0.878,1.856,1.917c0,1.063-0.862,1.925-1.925,1.925
		s-1.925-0.862-1.925-1.925c0-0.773,0.461-1.438,1.121-1.744l-0.786-4.869c-0.401,0.059-0.807,0.1-1.223,0.1
		c-1.126,0-2.197-0.229-3.176-0.636L20,42.39c0.214,0.203,0.35,0.487,0.35,0.805c0,0.613-0.497,1.111-1.11,1.111
		s-1.11-0.497-1.11-1.111c0-0.587,0.457-1.062,1.034-1.103l3.556-9.648c-0.72-0.395-1.375-0.893-1.944-1.476l-5.476,4
		c-0.012,0.725-0.602,1.309-1.33,1.309c-0.735,0-1.332-0.596-1.332-1.332c0-0.736,0.597-1.332,1.332-1.332
		c0.411,0,0.774,0.19,1.018,0.482l5.203-3.8c-0.798-1.012-1.367-2.212-1.623-3.527l-8.115,0.761c-0.141,1.256-1.207,2.233-2.5,2.233
		c-1.39,0-2.517-1.126-2.517-2.516c0-1.39,1.127-2.518,2.517-2.518c1.181,0,2.17,0.816,2.44,1.914l8.054-0.757
		c-0.02-0.235-0.036-0.471-0.036-0.711c0-1.64,0.482-3.164,1.303-4.451l-1.791-1.35c-0.42,0.381-0.973,0.619-1.584,0.619
		c-1.308,0-2.369-1.06-2.369-2.368c0-1.309,1.061-2.369,2.369-2.369c1.309,0,2.369,1.06,2.369,2.369c0,0.375-0.095,0.725-0.25,1.04
		L20.228,20c1.125-1.405,2.698-2.43,4.503-2.872l-1.658-9.444c-0.63-0.105-1.111-0.65-1.111-1.31c0-0.736,0.596-1.332,1.332-1.332
		s1.332,0.596,1.332,1.332c0,0.497-0.275,0.925-0.679,1.155l1.656,9.437c0.359-0.047,0.723-0.081,1.094-0.081
		c0.937,0,1.835,0.159,2.674,0.446l1.895-5.285c-0.214-0.202-0.35-0.487-0.35-0.805c0-0.613,0.497-1.11,1.11-1.11
		s1.11,0.497,1.11,1.11c0,0.587-0.457,1.062-1.033,1.102l-1.907,5.321c1.282,0.602,2.388,1.52,3.212,2.658l5.906-3.375
		c-0.066-0.207-0.112-0.424-0.112-0.653c0-1.188,0.962-2.151,2.151-2.151c1.188,0,2.151,0.963,2.151,2.151
		c0,1.188-0.962,2.15-2.151,2.15c-0.639,0-1.206-0.283-1.601-0.725l-5.861,3.349c0.693,1.211,1.096,2.612,1.096,4.107
		c0,0.451-0.045,0.889-0.115,1.321l8.657,1.248c0.217-0.55,0.75-0.94,1.376-0.94C45.725,26.803,46.389,27.466,46.389,28.283z"/>
</g>
<g>
	<g id="_x35_0_x25__Brightness_1_">
		<g>
			<path fill="#010101" d="M1.794,12.829c-1.012,0-1.833,0.821-1.833,1.833s0.821,1.833,1.833,1.833s1.833-0.821,1.833-1.833
				S2.806,12.829,1.794,12.829z M5.46,7.331c1.012,0,1.833-0.821,1.833-1.833S6.472,3.665,5.46,3.665S3.627,4.486,3.627,5.498
				S4.448,7.331,5.46,7.331z M14.623,3.665c1.012,0,1.833-0.821,1.833-1.833S15.635,0,14.623,0s-1.833,0.821-1.833,1.833
				S13.611,3.665,14.623,3.665z M23.786,7.331c1.012,0,1.833-0.821,1.833-1.833s-0.821-1.833-1.833-1.833s-1.833,0.821-1.833,1.833
				S22.774,7.331,23.786,7.331z M14.623,25.657c-1.012,0-1.833,0.821-1.833,1.833s0.821,1.833,1.833,1.833s1.833-0.821,1.833-1.833
				S15.635,25.657,14.623,25.657z M23.786,21.992c-1.012,0-1.833,0.821-1.833,1.833s0.821,1.833,1.833,1.833
				s1.833-0.821,1.833-1.833S24.798,21.992,23.786,21.992z M27.452,12.829c-1.012,0-1.833,0.821-1.833,1.833
				s0.821,1.833,1.833,1.833s1.833-0.821,1.833-1.833S28.463,12.829,27.452,12.829z M14.623,7.331c-4.048,0-7.331,3.282-7.331,7.331
				s3.282,7.331,7.331,7.331s7.331-3.282,7.331-7.331S18.671,7.331,14.623,7.331z M14.623,18.326c-2.025,0-3.665-1.64-3.665-3.665
				s1.64-3.665,3.665-3.665V18.326z M5.46,21.992c-1.012,0-1.833,0.821-1.833,1.833s0.821,1.833,1.833,1.833
				s1.833-0.821,1.833-1.833S6.472,21.992,5.46,21.992z"/>
		</g>
	</g>
	<g>
	</g>
	<g>
	</g>
	<g>
	</g>
	<g>
	</g>
	<g>
	</g>
	<g>
	</g>
	<g>
	</g>
	<g>
	</g>
	<g>
	</g>
	<g>
	</g>
	<g>
	</g>
	<g>
	</g>
	<g>
	</g>
	<g>
	</g>
	<g>
	</g>
</g>
<g>
	<g>
		<path fill="#010101" d="M37.729,8.013c-8.199-8.199-21.541-8.2-29.741,0c-8.007,8.008-8.19,20.916-0.557,29.154l-4.381,4.381
			l11.98,0l0-11.98l-4.347,4.347c-5.842-6.441-5.657-16.435,0.558-22.649c6.405-6.406,16.828-6.405,23.234,0
			c6.406,6.406,6.406,16.829,0,23.234c-1.418,1.418-3.055,2.55-4.864,3.365L31.5,42.06c2.32-1.044,4.416-2.494,6.229-4.307
			C45.928,29.554,45.927,16.213,37.729,8.013z"/>
		<polygon fill="#010101" points="24.975,21.9 30.109,14.493 26.372,14.493 22.916,19.867 19.392,14.493 15.566,14.493 
			20.645,21.727 15.219,29.432 18.934,29.432 22.738,23.781 26.541,29.432 30.5,29.432 		"/>
	</g>
</g>
<g>
	<path fill="#010101" d="M47.048,33.096V13.5c1.701-0.556,2.932-2.155,2.932-4.042c0-2.349-1.905-4.254-4.254-4.254
		c-1.482,0-2.785,0.759-3.546,1.908l-12.28-4.076c0.012-0.131,0.033-0.26,0.033-0.393c0-2.35-1.905-4.255-4.254-4.255
		c-2.35,0-4.254,1.905-4.254,4.255c0,0.138,0.008,0.273,0.021,0.408L9.348,7.101C8.585,5.957,7.284,5.203,5.806,5.203
		c-2.35,0-4.254,1.905-4.254,4.254c0,2.043,1.44,3.747,3.359,4.158V32.98c-1.919,0.411-3.359,2.115-3.359,4.157
		c0,2.35,1.905,4.255,4.254,4.255c1.772,0,3.291-1.084,3.93-2.625l12.243,5.695c-0.354,0.62-0.556,1.338-0.556,2.103
		c0,2.351,1.904,4.255,4.254,4.255c2.349,0,4.254-1.904,4.254-4.255c0-0.76-0.208-1.47-0.559-2.088l12.417-5.725
		c0.636,1.549,2.158,2.642,3.936,2.642c2.349,0,4.254-1.905,4.254-4.255C49.98,35.25,48.75,33.653,47.048,33.096z M7.129,33.096
		V13.5c0.76-0.248,1.417-0.712,1.921-1.309l12.468,5.8c-0.062,0.289-0.096,0.587-0.096,0.894c0,2.042,1.439,3.747,3.359,4.158v2.808
		v2.341L8.315,33.706C7.958,33.445,7.559,33.237,7.129,33.096z M9.747,35.565l15.035-5.034v11.876
		c-0.388,0.083-0.755,0.221-1.097,0.402l-13.681-6.365C9.954,36.137,9.86,35.847,9.747,35.565z M27,42.523V30.669l14.773,4.903
		c-0.108,0.273-0.19,0.559-0.24,0.856l-13.858,6.388C27.46,42.702,27.235,42.6,27,42.523z M27,28.332v-2.75v-2.654
		c1.701-0.556,2.932-2.155,2.932-4.042c0-0.302-0.033-0.597-0.093-0.881l12.624-5.82c0.597,0.714,1.423,1.23,2.368,1.432V32.98
		c-0.597,0.127-1.147,0.381-1.623,0.73L27,28.332z M41.484,9.218c-0.005,0.081-0.012,0.159-0.012,0.24
		c0,0.243,0.022,0.48,0.061,0.712l-12.709,5.859c-0.49-0.541-1.115-0.955-1.824-1.187V6.685c0.867-0.284,1.609-0.841,2.131-1.566
		L41.484,9.218z M22.228,5.127c0.606,0.838,1.508,1.449,2.554,1.673v7.927c-0.881,0.188-1.656,0.651-2.242,1.291L9.998,10.183
		c0.04-0.236,0.063-0.478,0.063-0.726c0-0.084-0.008-0.168-0.013-0.251L22.228,5.127z"/>
</g>
<g>
	<path fill="#010101" d="M5.434,12.78l0.11,23.718c0.002,0.305,0.169,0.584,0.438,0.728l18.943,9.919
		c0.124,0.066,0.259,0.1,0.394,0.1c0,0,0.001,0,0.001,0c0.057,0.064,0.121,0.125,0.197,0.171c0.131,0.078,0.278,0.117,0.427,0.117
		c0.136,0,0.271-0.033,0.395-0.1L45.042,37.29c0.269-0.146,0.437-0.427,0.437-0.731V11.882c0-0.007-0.002-0.014-0.002-0.021
		c0-0.006,0.001-0.012,0.001-0.019c-0.001-0.023-0.01-0.045-0.012-0.068c-0.007-0.046-0.013-0.091-0.026-0.135
		c-0.01-0.03-0.022-0.058-0.036-0.087c-0.017-0.039-0.035-0.077-0.057-0.113c-0.018-0.027-0.038-0.052-0.059-0.078
		c-0.026-0.032-0.053-0.062-0.084-0.09c-0.024-0.022-0.05-0.042-0.078-0.062c-0.018-0.012-0.032-0.029-0.052-0.04
		c-0.018-0.012-0.039-0.016-0.058-0.025c-0.016-0.009-0.029-0.02-0.045-0.028L25.697,1.78c-0.225-0.095-0.479-0.085-0.698,0.023
		L5.947,11.735c-0.279,0.141-0.456,0.427-0.457,0.739c0,0.005,0.002,0.01,0.002,0.014C5.458,12.581,5.433,12.679,5.434,12.78z
		 M42.726,11.974l-16.792,9.388l-17.78-8.876l17.25-9.024L42.726,11.974z M26.775,45.306V22.798l17.04-9.523v22.786L26.775,45.306z"
		/>
</g>
<g>
	<g>
		<polygon fill="#010101" points="26.971,50.866 50.627,38.559 50.627,32.06 26.981,44.224 		"/>
		<path fill="#010101" d="M26.971,20.36V42.41l6.545-12.862l4.364,6.775l4.594-9.301l3.904,4.593l4.25-2.403V9.565L26.971,20.36z
			 M48.47,18.533c-0.345,1.69-1.685,2.845-2.993,2.579c-1.309-0.266-2.091-1.852-1.747-3.542c0.343-1.691,1.683-2.846,2.992-2.58
			C48.032,15.256,48.813,16.842,48.47,18.533z"/>
		<polygon fill="#010101" points="0.443,32.06 0.443,38.559 24.1,50.866 24.089,44.224 		"/>
		<path fill="#010101" d="M0.443,29.211l4.25,2.403l3.904-4.593l4.593,9.301l4.364-6.775L24.1,42.409V20.36L0.443,9.565V29.211z
			 M4.348,14.99c1.309-0.266,2.648,0.889,2.992,2.58c0.344,1.69-0.438,3.276-1.747,3.542c-1.309,0.266-2.648-0.889-2.992-2.579
			C2.257,16.842,3.039,15.256,4.348,14.99z"/>
		<polygon fill="#010101" points="25.621,-1.058 2.28,6.866 25.478,16.892 48.618,6.522 		"/>
	</g>
</g>
<g>
	<g>
		<path fill="#010101" d="M34.073,27.694c0.08-0.074,0.15-0.213,0.151-0.566l0-10.574c0.003-0.062,0.008-0.272-0.042-0.423
			c-0.051-0.154-0.223-0.297-0.5-0.418l-10.587-5.309l-0.061-0.03c0,0-0.308-0.182-0.67,0c-0.362,0.181-10.602,5.305-10.602,5.305
			c-0.523,0.228-0.588,0.56-0.588,0.862l0.004,10.542c-0.007,0.045-0.037,0.279,0.099,0.513c0.136,0.236,0.377,0.323,0.386,0.323
			c0,0,0,0,0,0l10.561,5.28c0.034,0.021,0.218,0.132,0.468,0.132h0.012c0.252-0.004,0.443-0.115,0.444-0.117l10.578-5.289
			C33.819,27.88,33.978,27.798,34.073,27.694z M21.762,30.994l-8.822-4.411v-8.614l8.822,4.411V30.994z M22.699,20.807l-8.617-4.32
			l8.615-4.308l8.617,4.32L22.699,20.807z M32.458,26.583l-8.822,4.411V22.38l8.822-4.411V26.583L32.458,26.583z"/>
		<polygon fill="#010101" points="33.505,0.977 33.505,4.369 40.162,4.369 40.162,11.026 43.554,11.026 43.554,0.977 		"/>
		<polygon fill="#010101" points="5.233,4.369 11.89,4.369 11.89,0.977 1.841,0.977 1.841,11.026 5.233,11.026 		"/>
		<polygon fill="#010101" points="5.233,32.641 1.841,32.641 1.841,42.69 11.89,42.69 11.89,39.298 5.233,39.298 		"/>
		<polygon fill="#010101" points="40.162,39.298 33.505,39.298 33.505,42.69 43.554,42.69 43.554,32.641 40.162,32.641 		"/>
	</g>
</g>
<g>
	<path fill="#010101" d="M2.106,27.708l0.065,14.058c0,0.181,0.1,0.346,0.259,0.432l11.229,5.879c0.073,0.04,0.153,0.06,0.233,0.06
		c0,0,0,0,0.001,0c0.034,0.038,0.071,0.073,0.117,0.101c0.078,0.046,0.165,0.069,0.252,0.069c0.081,0,0.162-0.02,0.234-0.059
		l11.086-6.012c0.102-0.055,0.174-0.145,0.217-0.247c0.045,0.086,0.112,0.162,0.202,0.21l11.228,5.879
		c0.073,0.039,0.154,0.059,0.234,0.059c0,0,0,0,0.001,0c0.034,0.038,0.071,0.074,0.116,0.101c0.079,0.047,0.166,0.07,0.253,0.07
		c0.081,0,0.161-0.02,0.234-0.059l11.086-6.013c0.159-0.085,0.259-0.252,0.259-0.434V27.174c0-0.005-0.002-0.009-0.002-0.013
		c0-0.003,0.001-0.007,0.001-0.011c-0.001-0.014-0.006-0.027-0.008-0.041c-0.004-0.027-0.008-0.054-0.016-0.081
		c-0.006-0.017-0.013-0.034-0.021-0.052c-0.011-0.023-0.021-0.045-0.035-0.066c-0.01-0.016-0.021-0.032-0.034-0.046
		c-0.016-0.019-0.032-0.037-0.051-0.054c-0.014-0.013-0.029-0.025-0.046-0.037c-0.011-0.006-0.019-0.016-0.03-0.023
		c-0.012-0.006-0.023-0.009-0.034-0.014c-0.011-0.006-0.018-0.013-0.027-0.017l-11.425-5.533c-0.045-0.019-0.094-0.021-0.143-0.026
		V6.631c0-0.004-0.001-0.009-0.001-0.012c0-0.004,0-0.007,0-0.011c0-0.014-0.006-0.027-0.008-0.041
		c-0.004-0.027-0.008-0.055-0.015-0.081C37.516,6.47,37.507,6.452,37.5,6.436c-0.011-0.023-0.02-0.046-0.034-0.067
		c-0.011-0.017-0.022-0.031-0.034-0.046c-0.016-0.019-0.032-0.037-0.051-0.054c-0.014-0.013-0.03-0.025-0.046-0.036
		c-0.011-0.008-0.02-0.018-0.031-0.025c-0.011-0.006-0.023-0.009-0.035-0.014c-0.01-0.005-0.018-0.012-0.026-0.015L25.82,0.645
		c-0.133-0.056-0.284-0.051-0.414,0.014L14.115,6.545c-0.166,0.083-0.27,0.253-0.271,0.438c0,0.003,0.001,0.006,0.001,0.009
		c-0.021,0.055-0.035,0.112-0.035,0.173l0.065,13.992c-0.059,0.007-0.118,0.017-0.172,0.044L2.411,27.088
		c-0.165,0.083-0.27,0.252-0.271,0.438c0,0.002,0.001,0.005,0.001,0.008C2.12,27.589,2.105,27.647,2.106,27.708z M35.914,6.686
		l-9.953,5.565l-10.539-5.26l10.224-5.349L35.914,6.686z M36.56,21.128l-10.1,5.316V13.103l10.1-5.646V21.128z M38.328,33.645
		L48.428,28v13.506l-10.1,5.48V33.645z M27.291,27.533l10.225-5.349l10.267,5.045l-9.953,5.564L27.291,27.533z M14.755,33.645
		L24.856,28v13.506l-10.101,5.48V33.645z M3.719,27.533l10.225-5.349L24.21,27.23l-9.954,5.564L3.719,27.533z"/>
</g>
<g>
	<path fill="#010101" d="M8.214,18.563L8.2,12.357c-0.001-0.283,0.288-0.474,0.548-0.362l5.231,2.236
		c0.145,0.062,0.238,0.204,0.239,0.361l0.014,6.206c0,0.283-0.288,0.474-0.548,0.363l-5.23-2.236
		C8.308,18.863,8.214,18.721,8.214,18.563z M20.732,11.935c0.208,0,0.394,0.166,0.394,0.393l0.014,6.206
		c0,0.157-0.093,0.3-0.237,0.362l-5.22,2.261c-0.052,0.022-0.104,0.033-0.156,0.033c-0.208,0-0.394-0.167-0.394-0.393l-0.014-6.206
		c0-0.157,0.093-0.3,0.237-0.362l5.22-2.261C20.628,11.945,20.681,11.935,20.732,11.935L20.732,11.935z M14.586,7.84
		c0.054,0,0.109,0.011,0.16,0.033l5.503,2.426c0.312,0.138,0.313,0.58,0.001,0.719l-5.492,2.452
		c-0.051,0.022-0.105,0.034-0.16,0.034c-0.054,0-0.108-0.011-0.16-0.033l-5.503-2.426c-0.312-0.138-0.313-0.58-0.002-0.719
		l5.492-2.452C14.477,7.852,14.532,7.84,14.586,7.84L14.586,7.84z M15.85,25.755v-2.973h-2.448v2.973h-2.345l3.568,3.567
		l3.568-3.567H15.85z M25.717,13.435h-2.973v2.448h2.973v2.345l3.567-3.568l-3.567-3.568V13.435z M13.396,3.567V6.54h2.448V3.567
		h2.345L14.621,0l-3.568,3.567H13.396z M3.529,15.888h2.973V13.44H3.529v-2.345l-3.567,3.568l3.567,3.568V15.888z"/>
</g>
<g>
	<g>
		<path fill="#1B1819" d="M37.562,25.611c-0.053-0.372-0.287-0.694-0.625-0.859c-0.34-0.165-0.734-0.15-1.062,0.039l-7.326,4.254
			c-0.045,0.023-0.086,0.054-0.125,0.085l-1.133,0.653c-0.351,0.2-0.563,0.573-0.563,0.979c-0.002,0.403,0.215,0.777,0.562,0.979
			l6.383,3.708c0.18,0.104,0.375,0.151,0.567,0.151c0.351,0,0.692-0.163,0.911-0.463c1.637-2.229,2.535-4.974,2.535-7.725
			C37.687,26.817,37.646,26.213,37.562,25.611z"/>
		<path fill="#1B1819" d="M16.675,18.944l7.271,4.182c0.038,0.021,0.075,0.041,0.114,0.058l1.189,0.688
			c0.176,0.102,0.369,0.149,0.563,0.149c0.195,0,0.392-0.05,0.566-0.149c0.35-0.202,0.562-0.575,0.562-0.979v-7.389
			c0-0.578-0.436-1.063-1.009-1.125c-3.338-0.357-6.729,0.629-9.393,2.693c-0.302,0.23-0.463,0.597-0.438,0.973
			C16.137,18.419,16.35,18.758,16.675,18.944z"/>
		<path fill="#1B1819" d="M28.55,27.189c0.176,0.103,0.369,0.151,0.564,0.151c0.193,0,0.393-0.051,0.564-0.153l6.385-3.708
			c0.502-0.291,0.701-0.914,0.467-1.44c-1.385-3.077-3.865-5.478-6.988-6.755c-0.35-0.144-0.744-0.104-1.061,0.106
			c-0.312,0.21-0.502,0.562-0.502,0.939v9.879C27.984,26.616,28.199,26.989,28.55,27.189z"/>
		<path fill="#1B1819" d="M32.431,35.924l-8.529-4.955c-0.35-0.203-0.778-0.205-1.133-0.002c-0.35,0.202-0.566,0.575-0.566,0.98
			v7.38c0,0.579,0.438,1.062,1.015,1.125c0.455,0.048,0.914,0.071,1.358,0.071c2.851,0,5.685-0.967,7.978-2.725
			c0.301-0.23,0.467-0.594,0.438-0.971C32.968,36.454,32.759,36.114,32.431,35.924z"/>
		<path fill="#1B1819" d="M21.814,23.093l-6.375-3.665c-0.502-0.288-1.139-0.152-1.479,0.317c-1.607,2.221-2.494,4.943-2.494,7.67
			c0,0.56,0.035,1.123,0.105,1.674c0.049,0.375,0.278,0.7,0.614,0.869c0.16,0.08,0.334,0.119,0.506,0.119
			c0.193,0,0.388-0.051,0.562-0.148l8.559-4.871c0.353-0.201,0.57-0.575,0.57-0.979C22.382,23.67,22.166,23.295,21.814,23.093z"/>
		<path fill="#1B1819" d="M20.605,27.58c-0.348-0.202-0.776-0.205-1.127-0.005l-6.438,3.665c-0.504,0.284-0.709,0.904-0.479,1.437
			c1.375,3.135,3.877,5.575,7.048,6.87c0.139,0.056,0.282,0.084,0.428,0.084c0.223,0,0.44-0.065,0.633-0.192
			c0.311-0.21,0.5-0.562,0.5-0.938V28.56C21.167,28.155,20.955,27.782,20.605,27.58z"/>
		<path fill="#1B1819" d="M24.576,10.54c-9.306,0-16.875,7.568-16.875,16.875c0,9.305,7.569,16.875,16.875,16.875
			c9.307,0,16.875-7.57,16.875-16.875C41.451,18.108,33.88,10.54,24.576,10.54z M24.576,42.025c-8.058,0-14.611-6.555-14.611-14.61
			c0-8.059,6.555-14.612,14.611-14.612c8.059,0,14.611,6.555,14.611,14.612C39.189,35.472,32.634,42.025,24.576,42.025z"/>
	</g>
</g>
<g>
	<g>
		<polygon fill="#010101" points="43.614,27.728 35.224,19.337 35.224,25.171 10.23,25.171 10.23,19.337 1.841,27.728 10.23,36.117 
			10.23,30.284 35.224,30.284 35.224,36.117 		"/>
		<polygon fill="#010101" points="18.953,21.989 22.61,16.557 26.266,21.989 30.072,21.989 24.76,14.749 29.696,7.628 26.104,7.628 
			22.781,12.794 19.394,7.628 15.716,7.628 20.598,14.582 15.383,21.989 		"/>
	</g>
</g>
<g>
	<path id="DZone_1_" fill="#010101" d="M39.95,11.167c-1.463,0-2.685,1.018-3.029,2.39L23.067,8.965
		c-0.007-0.986-0.797-1.781-1.771-1.781c-0.978,0-1.771,0.802-1.771,1.794c0,0.469,0.179,0.896,0.472,1.216L5.366,26.935
		c-0.173-0.062-0.358-0.098-0.552-0.098c-0.907,0-1.643,0.746-1.643,1.663c0,0.919,0.736,1.664,1.643,1.664
		c0.643,0,1.199-0.375,1.469-0.922l13.296,3.184c-0.04,0.197-0.063,0.402-0.063,0.611c0,1.638,1.313,2.968,2.934,2.968
		c1.617,0,2.93-1.33,2.93-2.968c0-0.299-0.044-0.588-0.125-0.859l10.183-4.209c0.286,0.29,0.682,0.472,1.12,0.472
		c0.872,0,1.58-0.716,1.58-1.603c0-0.527-0.252-0.994-0.641-1.287l1.661-8.152c0.253,0.067,0.518,0.104,0.792,0.104
		c1.727,0,3.126-1.417,3.126-3.167C43.076,12.587,41.676,11.167,39.95,11.167z M22.343,10.421l6.24,7.632l-6.337,2.573l-0.389-9.948
		C22.032,10.619,22.195,10.531,22.343,10.421z M21.291,10.772l0.394,10.082l-2.895,1.175c-0.125-0.24-0.301-0.444-0.514-0.604
		l2.441-10.755C20.897,10.734,21.089,10.77,21.291,10.772z M18.997,22.867c0-0.11-0.01-0.218-0.029-0.325l2.739-1.111l0.339,8.667
		c-0.246,0.033-0.482,0.098-0.704,0.188l-2.896-6.12C18.784,23.84,18.997,23.381,18.997,22.867z M24.243,30.691
		c-0.457-0.359-1.019-0.581-1.63-0.618l-0.347-8.869l6.677-2.709l3.021,3.696L24.243,30.691z M29.35,18.33l7.604-3.085
		c0.101,0.342,0.259,0.66,0.461,0.943l-5.167,5.688L29.35,18.33z M36.845,14.704l-7.855,3.185l-6.341-7.756
		c0.175-0.209,0.303-0.462,0.368-0.74l13.825,4.582c-0.012,0.121-0.021,0.24-0.021,0.361C36.821,14.459,36.831,14.582,36.845,14.704
		z M20.314,10.47c0.006,0.003,0.012,0.007,0.019,0.01l-2.437,10.729c-0.206-0.087-0.434-0.135-0.67-0.135
		c-0.977,0-1.771,0.804-1.771,1.793c0,0.168,0.023,0.332,0.066,0.486l-9.62,3.902c-0.048-0.042-0.098-0.083-0.151-0.122
		L20.314,10.47z M6.422,28.843c0.022-0.112,0.035-0.225,0.035-0.343c0-0.29-0.073-0.562-0.203-0.799l9.49-3.851
		c0.316,0.487,0.861,0.811,1.482,0.811c0.321,0,0.619-0.087,0.878-0.236l2.865,6.052c-0.583,0.344-1.037,0.89-1.272,1.542
		L6.422,28.843z M25.104,31.784c-0.139-0.301-0.325-0.577-0.551-0.812l7.68-8.453l2.925,3.578c-0.116,0.22-0.181,0.473-0.181,0.741
		c0,0.286,0.073,0.552,0.202,0.784L25.104,31.784z M37.113,25.34c-0.174-0.066-0.36-0.102-0.555-0.102
		c-0.454,0-0.862,0.192-1.149,0.502l-2.892-3.535l5.167-5.688c0.302,0.321,0.667,0.577,1.075,0.749L37.113,25.34z"/>
</g>
<g>
	<path fill="#010101" d="M25.7,11.54c-8.835,0.002-15.997,7.164-15.999,15.999c0.002,8.838,7.164,16,15.999,16.001
		c8.838-0.002,16-7.163,16.001-16.001C41.7,18.704,34.538,11.542,25.7,11.54z M21.231,14.286c-1.078,1.244-2.235,2.976-3.115,5.255
		h-3.889C15.925,17.113,18.37,15.253,21.231,14.286z M13.072,21.54h4.389c-0.394,1.473-0.649,3.142-0.72,5h-4.988
		C11.882,24.759,12.341,23.074,13.072,21.54z M11.752,28.541h4.988c0.071,1.858,0.326,3.526,0.72,4.999h-4.387
		C12.343,32.006,11.883,30.323,11.752,28.541z M14.23,35.54h3.887c0.879,2.275,2.034,4.007,3.112,5.25
		C18.37,39.824,15.927,37.966,14.23,35.54z M24.701,41.329c-0.94-0.704-2.991-2.499-4.433-5.789h4.433V41.329z M24.701,33.539h-5.17
		c-0.428-1.438-0.714-3.104-0.795-4.999h5.965V33.539z M24.701,26.54h-5.96c0.081-1.904,0.374-3.563,0.805-5h5.155V26.54z
		 M24.701,19.541h-4.438c0.528-1.203,1.137-2.208,1.743-3.033c0.82-1.114,1.638-1.9,2.241-2.403
		c0.174-0.145,0.322-0.259,0.454-0.356V19.541z M39.646,26.54h-4.985c-0.071-1.859-0.326-3.527-0.722-5h4.389
		C39.058,23.074,39.519,24.759,39.646,26.54z M37.173,19.541h-3.889c-0.881-2.28-2.037-4.012-3.116-5.255
		C33.033,15.253,35.478,17.113,37.173,19.541z M26.701,19.542v-5.79c0.941,0.705,2.991,2.501,4.434,5.791L26.701,19.542
		L26.701,19.542z M26.701,21.54h5.169c0.429,1.437,0.714,3.105,0.795,5h-5.964V21.54z M26.701,28.54h5.959
		c-0.081,1.902-0.374,3.562-0.805,4.999h-5.154V28.54z M27.154,40.976c-0.174,0.145-0.322,0.257-0.453,0.355v-5.79h4.438
		c-0.526,1.202-1.138,2.206-1.744,3.031C28.576,39.685,27.757,40.474,27.154,40.976z M30.171,40.79
		c1.077-1.243,2.232-2.975,3.112-5.25h3.888C35.474,37.966,33.032,39.824,30.171,40.79z M38.327,33.539h-4.386
		c0.393-1.472,0.648-3.14,0.72-4.999h4.985C39.517,30.321,39.058,32.005,38.327,33.539z"/>
</g>
<g>
	<path fill="#010101" d="M2.284,1.42v41.457h41.457V1.42H2.284z M5.261,4.28h8.24l-2.48,2.48l5.956,5.937l-3.279,3.297l-5.955-5.955
		l-2.48,2.481V4.28z M29.81,15.352v13.594H16.215V15.352H29.81z M13.5,40.017h-8.24v-8.239l2.48,2.481l5.955-5.959l3.279,3.283
		l-5.956,5.955L13.5,40.017z M40.765,40.017h-8.24l2.481-2.48l-5.956-5.955l3.28-3.283l5.955,5.959l2.48-2.481V40.017z
		 M40.765,12.52l-2.48-2.481l-5.955,5.959l-3.28-3.279l5.956-5.958l-2.481-2.48h8.24V12.52z"/>
</g>
<g>
	<path fill="#010101" d="M43.588,21.851l-8.385-8.385v5.83h-5.44c-0.754-2.069-2.394-3.708-4.46-4.462V9.362h5.83L22.75,0.977
		l-8.385,8.385h5.83v5.472c-2.066,0.755-3.706,2.394-4.461,4.462h-5.507v-5.83l-5.83,5.83H4.375v0.021l-2.534,2.533l2.534,2.534
		v0.021h0.021l5.83,5.831v-5.831h5.494c0.749,2.083,2.395,3.737,4.475,4.496v5.439h-5.831l5.831,5.831v0.09h0.09l2.465,2.464
		l2.464-2.464h0.09v-0.09l5.831-5.831h-5.831V28.9c2.081-0.758,3.726-2.412,4.475-4.496h5.424v5.831L43.588,21.851z"/>
</g>
<g>
	<g id="c71_play">
		<path fill="#010101" d="M15.263,19.868v-2.265h2.268v2.265H15.263z M19.87,19.868v-2.265h2.27v2.265H19.87z M24.668,19.868v-2.265
			h2.271v2.265H24.668z M29.277,19.868v-2.265h2.268v2.265H29.277z M33.691,19.868v-2.265h2.27v2.265H33.691z M15.429,32.973V21.231
			h20.135v11.74L15.429,32.973L15.429,32.973z M15.263,36.604v-2.271h2.268v2.271H15.263z M19.87,36.604v-2.271h2.27v2.271H19.87z
			 M24.668,36.604v-2.271h2.271v2.271H24.668z M29.277,36.604v-2.271h2.268v2.271H29.277z M33.691,36.604v-2.271h2.27v2.271H33.691z
			 M37.58,16.54H13.272c-0.315,0-0.572,0.209-0.572,0.472V37.13c0,0.257,0.257,0.472,0.572,0.472H37.58
			c0.316,0,0.572-0.215,0.572-0.472V17.012C38.152,16.749,37.896,16.54,37.58,16.54z"/>
		<path fill="#010101" d="M23.014,22.821c0.067-0.031,0.145-0.022,0.205,0.021l6.382,4.074c0.043,0.038,0.07,0.095,0.07,0.151
			c0,0.059-0.027,0.113-0.07,0.15l-6.382,4.075c-0.037,0.027-0.078,0.042-0.122,0.042l-0.083-0.02
			c-0.065-0.029-0.108-0.1-0.108-0.171v-8.15C22.906,22.921,22.949,22.854,23.014,22.821z"/>
	</g>
	<g id="Capa_1">
	</g>
</g>
<g>
	<path fill="#010101" d="M25.355,5.462v1.533h-3.066V5.462H6.957v1.533H3.891V5.462H2.357V23.86h1.533v-1.533h3.066v1.533h15.332
		v-1.533h3.066v1.533h1.533V5.462H25.355z M6.957,19.261H3.891v-3.066h3.066V19.261z M6.957,13.128H3.891v-3.066h3.066V13.128z
		 M25.355,19.261h-3.066v-3.066h3.066V19.261z M25.355,13.128h-3.066v-3.066h3.066V13.128z"/>
</g>
<g>
	<g>
		<path fill="#010101" d="M34.892,2.307v2.887H10.8V2.307H1.841v39.821H10.8V39.54h24.092v2.588h8.959V2.307H34.892z M33.996,9.018
			v15.219l-2.567-3.333c-0.246-0.32-0.624-0.505-1.035-0.495c-0.404,0.01-0.779,0.212-1.011,0.543l-7.141,10.245l-3.977-7.173
			c-0.214-0.386-0.613-0.633-1.053-0.652c-0.438-0.023-0.86,0.19-1.107,0.557l-4.409,6.515V9.018H33.996z M8.561,37.448H3.782
			v-7.466h4.778V37.448z M8.561,25.204H3.782v-7.466h4.778V25.204z M8.561,12.661H3.782V5.194h4.778V12.661z M42.01,37.448h-4.778
			v-7.466h4.778V37.448z M42.01,25.204h-4.778v-7.466h4.778V25.204z M42.01,12.661h-4.778V5.194h4.778V12.661z"/>
		<circle fill="#010101" cx="26.569" cy="15.906" r="2.926"/>
	</g>
</g>
<g>
	<path fill="#010101" d="M10.404,12.54c0.867,0,8.979,0.131,8.979,0.131s1.102,0,0.369,0.732c-0.73,0.729-1.9,1.893-1.9,1.893
		s0.32,0.318,0.803,0.805c1.475,1.472,6.652,6.652,7.895,7.896c0.025,0.023,0.057,0.055,0.074,0.074
		c1.267,1.262,7.232,7.229,8.701,8.705c0.49,0.479,0.806,0.805,0.806,0.805s1.168-1.17,1.899-1.904
		c0.729-0.729,0.728,0.371,0.728,0.371s0.131,8.111,0.133,8.978c-0.002,0.629-0.648,0.575-0.648,0.575l-8.953,0.128
		c0,0-1.073,0.026-0.475-0.572c0.604-0.603,2.057-2.06,2.057-2.06s-0.35-0.35-0.895-0.895c-1.525-1.525-7.387-7.389-8.685-8.689
		c-0.053-0.03-0.086-0.071-0.098-0.09c-0.021-0.014-0.057-0.039-0.08-0.086c-1.271-1.272-6.357-6.354-7.887-7.881
		c-0.542-0.547-0.893-0.898-0.893-0.898s-1.453,1.455-2.059,2.061c-0.601,0.598-0.574-0.48-0.574-0.48l0.121-8.948
		C9.822,13.188,9.775,12.54,10.404,12.54z"/>
	<path fill="#010101" d="M38.187,12.54c-0.867,0-8.978,0.131-8.978,0.131s-1.104,0-0.37,0.732c0.733,0.729,1.899,1.893,1.899,1.893
		s-0.317,0.318-0.801,0.805c-1.478,1.472-6.656,6.652-7.896,7.896c-0.025,0.023-0.055,0.055-0.072,0.074
		c-1.268,1.262-7.232,7.229-8.707,8.705c-0.482,0.479-0.803,0.805-0.803,0.805s-1.164-1.17-1.896-1.904
		c-0.734-0.729-0.732,0.371-0.732,0.371s-0.127,8.111-0.131,8.977c0.004,0.629,0.652,0.575,0.652,0.575l8.951,0.127
		c0,0,1.074,0.027,0.477-0.571c-0.605-0.603-2.061-2.06-2.061-2.06s0.354-0.35,0.896-0.895c1.523-1.525,7.385-7.389,8.687-8.689
		c0.053-0.03,0.084-0.071,0.096-0.09c0.018-0.014,0.055-0.039,0.082-0.086c1.268-1.272,6.354-6.354,7.887-7.881
		c0.541-0.547,0.892-0.898,0.892-0.898s1.455,1.455,2.061,2.062c0.603,0.598,0.57-0.48,0.57-0.48l-0.125-8.948
		C38.763,13.188,38.816,12.54,38.187,12.54z"/>
	<g>
	</g>
	<g>
	</g>
	<g>
	</g>
	<g>
	</g>
	<g>
	</g>
	<g>
	</g>
	<g>
	</g>
	<g>
	</g>
	<g>
	</g>
	<g>
	</g>
	<g>
	</g>
	<g>
	</g>
	<g>
	</g>
	<g>
	</g>
	<g>
	</g>
</g>
<g>
	<path fill="#010101" d="M44.948,12.614l0.029-0.07L26.22,5.042l-8.826,3.41l-0.057-0.024l-0.025,0.057L6.608,12.621l-0.062-0.025
		v0.048l-0.003,0.001l0.003,0.008v24.06l18.537,7.312v0.029h1.374v-0.029l18.536-7.312V12.597L44.948,12.614z M43.62,25.12
		l-7.797,2.858V17.69l7.797-3.076V25.12z M25.083,21.385V31.42l-7.94-2.872V18.252L25.083,21.385z M18.063,17.14l7.979-3.317
		l7.429,3.319l-7.703,3.038L18.063,17.14z M26.457,21.385l7.994-3.153v10.25l-7.994,2.932V21.385z M35.259,16.436l-7.473-3.339
		l7.297-3.035l8.118,3.241L35.259,16.436z M26.203,6.517l7.056,2.816l-7.196,2.993l-6.9-3.083L26.203,6.517z M17.359,9.941
		l6.96,3.109l-8.09,3.364l-7.724-3.046L17.359,9.941z M15.77,17.711v10.34l-7.851-2.839V14.614L15.77,17.711z M7.919,26.672
		l7.851,2.84v9.362l-7.851-3.096V26.672z M17.142,39.417v-9.408l7.94,2.873v9.667L17.142,39.417z M26.457,32.876l7.994-2.931v9.45
		l-7.994,3.153V32.876z M35.824,38.853v-9.412l7.796-2.859v9.196L35.824,38.853z"/>
</g>
<g>
	<path fill="#010101" d="M11.004,3.194H0.067V14.13h10.937V3.194z M9.23,12.357h-7.39v-7.39h7.39V12.357z M0.067,40.733h10.937
		V29.797H0.067V40.733z M1.841,31.571h7.39v7.389h-7.39V31.571z M34.43,29.797v10.937h10.937V29.797H34.43z M43.593,38.96h-7.39
		v-7.389h7.39V38.96z M17.249,27.366h10.937V16.429H17.249V27.366z M19.022,18.203h7.39v7.39h-7.39V18.203z M6.977,20.789h8.314
		v2.217H6.977v5.203H4.76V15.764h2.217V20.789z M38.79,23.006h-9.2v-2.217h10.309v0.008h1.108v7.412H38.79V23.006z"/>
</g>
<g>
	<g>
		<path fill="#010101" d="M23.451,38.646c0,0,0.217,5.012,0.325,5.992l1.744,0.219c0,0,2.724-4.688,1.416-5.886
			C26.936,38.972,23.559,37.121,23.451,38.646z"/>
		<path fill="#010101" d="M29.168,38.864c-2.178,0.223-0.271,5.774-0.271,5.774l1.852-0.108
			C30.641,38.89,30.504,38.727,29.168,38.864z"/>
		<path fill="#010101" d="M29.988,35.568c-2.343-2.125-5.584-0.817-5.584-0.817c-2.342,1.062-0.299,2.562-0.299,2.562
			c1.715,1.116,4.217,0.966,5.557,0.545C31.648,37.232,29.988,35.568,29.988,35.568z"/>
		<path fill="#010101" d="M22.306,33.797c0,0-0.708,0.327-3.216-2.506c0,0,0.273-1.688-1.143-1.253c0,0-2.125,1.146-0.764,1.961
			c0,0,0.545,0.272,0.98,0.272l2.342,2.344c0,0,0.219,1.743,1.361,1.198C21.869,35.813,23.886,34.233,22.306,33.797z"/>
		<path fill="#010101" d="M16.531,28.893l-1.472-1.798c0,0,0.708-1.523-0.817-1.145c0,0-2.016,0.871-1.035,1.579
			c0,0,0.545,0.219,0.928,0.164l1.361,1.688c0,0-0.381,2.018,1.416,0.816C16.912,30.201,18.545,28.893,16.531,28.893z"/>
		<path fill="#010101" d="M13.916,25.244c-0.023-0.408-0.649-0.928-0.981-1.31c-1.19-1.363-1.319-0.111-1.198,0.164
			C12.99,26.932,13.949,25.858,13.916,25.244z"/>
		<path fill="#010101" d="M32.547,27.095c-0.553-0.015-1.271,0.029-1.198,1.906c0.039,0.993-0.89,3.979-1.58,3.65
			c-0.478-0.227-0.56-1.757,0.928-5.014c0.184-0.402,1.494-1.302-0.546-1.688c-0.558-0.106-1.577-0.691-1.146,1.962
			c0.189,1.157-0.184,3.656-1.252,4.521c0,0-0.926-0.653-0.437-5.121c0,0,1.603-1.679,0.327-2.288
			c-0.511-0.243-1.947-0.853-2.125,0.764c-0.045,0.402,0.109,1.089,0.545,1.524c0,0,0.489,5.773-0.709,5.121
			c0,0-1.633-3.485-1.088-5.666c0,0,0.996-2.018-1.199-2.018c-0.164,0-1.957-0.297-0.489,2.289c0.6,1.058,1.197,3.541,0.979,5.121
			c-0.097,0.704-1.144,1.961,2.289,1.688c0,0,2.562,0.056,3.269,0.326c0,0,2.233,1.091,2.016-0.815c0,0,0.164-2.888,1.637-4.358
			C32.766,29.003,34.783,27.15,32.547,27.095z"/>
		<path fill="#010101" d="M35.027,22.765c-1.033-0.547-0.845,0.789-0.845,0.789c-0.026,0.817-0.518,1.606-0.79,1.718
			c-0.146,0.059-0.355,0.19-0.489,0.244c-1.444,0.571,1.062,1.524,1.062,1.524c0.654-0.218,0.213-0.751,0.219-1.008
			c0.007-0.272,0.416-0.704,0.572-0.926c0.701-0.998,0.791-0.854,1.115-1.062C36.713,23.501,35.027,22.765,35.027,22.765z"/>
		<path fill="#010101" d="M36.526,19.314c-0.839-0.287-0.54,0.689-0.54,0.689c0.075,0.616-0.199,1.268-0.391,1.379
			c-0.104,0.062-0.244,0.188-0.339,0.242c-1.016,0.6,0.976,1.021,0.976,1.021c0.465-0.241,0.07-0.589,0.045-0.782
			c-0.027-0.204,0.229-0.576,0.32-0.763c0.407-0.829,0.493-0.731,0.713-0.929C37.877,19.667,36.526,19.314,36.526,19.314z"/>
		<path fill="#010101" d="M32.79,19.741c0.4-0.362-0.061-0.635-0.127-0.833c-0.07-0.208,0.099-0.658,0.146-0.875
			c0.217-0.97,0.32-0.888,0.492-1.145c0.443-0.667-0.953-0.721-0.953-0.721c-0.883-0.104-0.375,0.854-0.375,0.854
			c0.208,0.63,0.082,1.377-0.079,1.542l-0.277,0.334C30.756,19.768,32.79,19.741,32.79,19.741z"/>
		<path fill="#010101" d="M27.871,18.269c0.467-0.474-0.068-0.825-0.146-1.084c-0.083-0.272,0.11-0.859,0.17-1.144
			c0.251-1.264,0.375-1.156,0.573-1.49c0.516-0.87-1.11-0.938-1.11-0.938c-1.027-0.135-0.438,1.112-0.438,1.112
			c0.242,0.819,0.097,1.796-0.094,2.011c-0.102,0.116-0.229,0.33-0.322,0.435C25.501,18.305,27.871,18.269,27.871,18.269z"/>
		<path fill="#010101" d="M21.15,14.142c-1.025,0.146-0.124,1.19-0.124,1.19c0.452,0.727,0.572,1.704,0.447,1.961
			c-0.065,0.14-0.134,0.38-0.194,0.506c-0.662,1.358,1.611,0.691,1.611,0.691c0.322-0.58-0.289-0.778-0.434-1.006
			c-0.152-0.24-0.121-0.858-0.142-1.146c-0.095-1.284,0.054-1.214,0.154-1.589C22.735,13.774,21.15,14.142,21.15,14.142z"/>
		<path fill="#010101" d="M22.225,13.449c0.52-0.415-0.232-0.726-0.377-0.952c-0.152-0.24-0.092-0.695-0.113-0.981
			c-0.023-0.307-0.271-0.683-0.654-0.545c-0.645,0.228,0.018,1.36-0.106,1.617c-0.066,0.14-0.229,0.212-0.275,0.345
			C20.345,13.885,21.881,13.722,22.225,13.449z"/>
		<path fill="#010101" d="M28.326,13.095c0.381-0.205,0.066-0.656-0.033-0.906c-0.105-0.267,0.037-0.701,0.065-0.987
			c0.032-0.305-0.146-0.719-0.544-0.654c-0.674,0.108-0.229,1.342-0.396,1.571c-0.092,0.125-0.262,0.168-0.334,0.288
			C26.563,13.279,27.94,13.302,28.326,13.095z"/>
		<path fill="#010101" d="M33.447,15.655c0.381-0.205,0.066-0.657-0.033-0.907c-0.105-0.265,0.037-0.701,0.066-0.986
			c0.031-0.306-0.146-0.72-0.545-0.653c-0.674,0.107-0.229,1.342-0.396,1.571c-0.092,0.124-0.263,0.168-0.334,0.287
			C31.684,15.84,33.061,15.863,33.447,15.655z"/>
		<path fill="#010101" d="M37.537,17.685c-0.105-0.265,0.037-0.699,0.066-0.985c0.032-0.306-0.146-0.72-0.544-0.654
			c-0.675,0.108-0.229,1.343-0.397,1.571c-0.092,0.125-0.262,0.168-0.332,0.288c-0.521,0.874,0.855,0.896,1.242,0.688
			C37.951,18.388,37.637,17.936,37.537,17.685z"/>
		<path fill="#010101" d="M25.955,23.146c-1.03,1.535,2.067,0.838,2.067,0.838c0.491-0.653-0.256-0.911-0.405-1.181
			c-0.16-0.285-0.033-0.997-0.019-1.329c0.062-1.486,0.236-1.397,0.421-1.825c0.475-1.115-1.602-0.728-1.602-0.728
			c-1.32,0.119-0.271,1.173-0.271,1.173c0.367,0.634,0.329,2.215,0.137,2.506C26.177,22.759,26.051,23.004,25.955,23.146z"/>
		<path fill="#010101" d="M21.799,19.164c-1.295,0.291-0.115,1.197-0.115,1.197c0.445,0.578,0.616,2.15,0.463,2.465
			c-0.084,0.17-0.177,0.43-0.253,0.583c-0.821,1.659,2.159,0.561,2.159,0.561c0.4-0.713-0.373-0.869-0.559-1.115
			c-0.193-0.263-0.162-0.984-0.19-1.315c-0.134-1.481,0.054-1.417,0.178-1.865C23.807,18.504,21.799,19.164,21.799,19.164z"/>
		<path fill="#010101" d="M31.35,25.326c0.418-0.461-0.055-0.883-0.108-1.172c-0.119-0.607,0.119-2.04,0.627-2.397
			c0.444-0.312,0.682-0.708,0.488-1.008c-0.443-0.699-1.396-0.646-1.771-0.326c-0.543,0.464,0.109,1.172,0.109,1.172
			s-0.062,2.31-0.626,2.506c-0.545,0.19-0.595,0.646-0.382,0.872C30.205,25.516,31,25.708,31.35,25.326z"/>
	</g>
</g>
<g>
	<g>
		<path fill="#010101" d="M24.656,18.54c-3.86,0-7-3.14-7-7c0-3.859,3.14-7,7-7c3.859,0,7,3.141,7,7
			C31.656,15.4,28.515,18.54,24.656,18.54z"/>
	</g>
	<g>
		<path fill="#010101" d="M7.701,18.54c-3.86,0-7-3.14-7-7c0-3.859,3.14-7,7-7s7,3.141,7,7C14.701,15.4,11.561,18.54,7.701,18.54z"
			/>
	</g>
	<g>
		<path fill="#010101" d="M41.972,18.54c-3.859,0-7-3.14-7-7c0-3.859,3.141-7,7-7c3.858,0,7,3.141,7,7
			C48.972,15.4,45.832,18.54,41.972,18.54z"/>
	</g>
	<g>
		<path fill="#010101" d="M24.657,35.369c-3.86,0-7-3.141-7-7s3.14-7,7-7c3.858,0,7,3.142,7,7
			C31.657,32.229,28.515,35.369,24.657,35.369z"/>
	</g>
	<g>
		<path fill="#010101" d="M7.702,35.369c-3.86,0-7-3.141-7-7s3.14-7,7-7s7,3.142,7,7C14.702,32.229,11.562,35.369,7.702,35.369z"/>
	</g>
	<g>
		<path fill="#010101" d="M41.972,35.369c-3.858,0-7-3.141-7-7s3.142-7,7-7c3.859,0,7,3.142,7,7
			C48.972,32.229,45.833,35.369,41.972,35.369z"/>
	</g>
	<g>
		<path fill="#010101" d="M24.657,52.145c-3.86,0-7-3.142-7-7c0-3.859,3.14-7,7-7c3.858,0,7,3.141,7,7
			C31.657,49.003,28.515,52.145,24.657,52.145z"/>
	</g>
	<g>
		<path fill="#010101" d="M7.702,52.145c-3.86,0-7-3.142-7-7c0-3.859,3.14-7,7-7s7,3.141,7,7
			C14.702,49.003,11.562,52.145,7.702,52.145z"/>
	</g>
	<g>
		<path fill="#010101" d="M41.972,52.145c-3.858,0-7-3.142-7-7c0-3.859,3.142-7,7-7c3.859,0,7,3.141,7,7
			C48.972,49.003,45.833,52.145,41.972,52.145z"/>
	</g>
</g>
<g>
	<path fill="#010101" d="M19.572,25.835c-0.118-2.082,1.118-4.148,2.316-5.188c2.947-2.556,5.758-6.366,5.945-6.774
		c0.088-0.261,0.363-0.393,0.628-0.305c0.264,0.087,0.399,0.383,0.312,0.646c-0.17,0.509-3.196,4.559-6.23,7.189
		c-1.021,0.886-2.073,2.632-1.974,4.376c0.078,1.378,0.854,2.582,2.31,3.58c1.262,0.866,4.064,1.441,6.208-0.702
		c0.393-0.391,1.48-1.859-0.896-4.372c-1.456-1.537-1.205-3.47,0.838-6.457c0.862-1.262,2.153-3.168,2.153-3.168l0.827,0.562
		c0,0-1.293,1.907-2.154,3.171c-2.162,3.162-1.729,4.37-0.938,5.205c2.384,2.518,2.018,4.63,0.878,5.768
		c-1.306,1.308-2.82,1.769-4.196,1.769c-1.332,0-2.532-0.433-3.284-0.947C20.592,29.001,19.669,27.538,19.572,25.835z
		 M31.281,30.802c-0.193-0.674-0.745-0.857-0.808-0.876c-0.157-0.05-0.326-0.016-0.454,0.086c-1.742,1.38-3.527,1.96-5.312,1.729
		c-3.137-0.411-5.269-3.222-5.289-3.25c-0.131-0.176-0.361-0.247-0.567-0.173c-0.075,0.026-0.744,0.283-1.029,1.124
		c-0.344,1.015,0.046,2.393,1.157,4.089c0.348,0.531,0.77,1.037,1.217,1.572c1.49,1.785,3.18,3.809,3.075,7.886
		c-0.007,0.276,0.211,0.507,0.487,0.514c0.004,0,0.009,0,0.013,0c0.271,0,0.493-0.216,0.5-0.486
		c0.114-4.455-1.783-6.728-3.308-8.553c-0.428-0.513-0.832-0.996-1.148-1.479c-1.209-1.849-1.179-2.797-1.054-3.197
		c0.042-0.136,0.104-0.237,0.167-0.315c0.75,0.858,2.791,2.885,5.641,3.262c1.945,0.255,3.877-0.309,5.743-1.684
		c0.006,0.018,0.011,0.035,0.016,0.055c0.071,0.304,0.021,1.258-1.987,3.536c-1.339,1.521-1.248,4.941,0.21,7.963
		c0.121,0.249,0.42,0.354,0.668,0.231c0.248-0.119,0.354-0.419,0.232-0.669c-1.272-2.635-1.431-5.649-0.36-6.866
		C30.856,33.292,31.573,31.821,31.281,30.802z M25.521,28.185c-0.271,0.05-0.452,0.311-0.403,0.581
		c0.044,0.241,0.254,0.411,0.491,0.411c0.03,0,0.06-0.004,0.09-0.008c1.29-0.233,2.101-0.771,2.414-1.6
		c0.557-1.473-0.801-3.215-0.858-3.288c-0.172-0.218-0.484-0.255-0.702-0.083c-0.216,0.171-0.254,0.485-0.083,0.702
		c0.3,0.379,1.007,1.535,0.708,2.317C26.995,27.693,26.438,28.019,25.521,28.185z"/>
</g>
<g>
	<path fill="#010101" d="M30.679,19.23c0.184-0.49,0.729-0.742,1.217-0.56l8.185,3.02c0.491,0.181,0.742,0.726,0.562,1.216
		c-0.143,0.382-0.504,0.62-0.89,0.62c-0.108,0-0.22-0.02-0.327-0.061l-8.184-3.019C30.75,20.266,30.5,19.721,30.679,19.23z
		 M21.68,16.98c-6.345,1.305-10.979,5.381-10.979,10.215c0,4.833,4.635,8.909,10.979,10.214V16.98z M40.08,29.326l-8.184-3.02
		c-0.487-0.182-1.034,0.069-1.217,0.562c-0.181,0.491,0.069,1.035,0.562,1.216l8.186,3.019c0.105,0.041,0.217,0.061,0.326,0.061
		c0.385,0,0.746-0.237,0.889-0.62C40.822,30.051,40.571,29.506,40.08,29.326z M26.027,19.248V16.54c-1.171,0-2.306,0.1-3.4,0.271
		v20.767c1.095,0.173,2.229,0.271,3.4,0.271v-2.709c1.581-0.254,2.834-3.709,2.834-7.946C28.861,22.958,27.608,19.502,26.027,19.248
		z M40.08,36.962l-8.184-3.02c-0.487-0.183-1.034,0.068-1.217,0.562c-0.181,0.491,0.069,1.035,0.562,1.216l8.186,3.021
		c0.105,0.039,0.217,0.059,0.326,0.059c0.385,0,0.746-0.236,0.889-0.62C40.822,37.688,40.571,37.144,40.08,36.962z"/>
</g>
<g>
	<g>
		<path fill="#010101" d="M21.681,17.982c-6.346,1.303-10.98,5.38-10.98,10.214s4.635,8.911,10.979,10.213L21.681,17.982
			L21.681,17.982z"/>
		<path fill="#010101" d="M39.753,27.248H31.57c-0.523,0-0.947,0.424-0.947,0.947s0.424,0.948,0.947,0.948h8.184
			c0.523,0,0.947-0.425,0.947-0.947S40.277,27.248,39.753,27.248z"/>
		<path fill="#010101" d="M31.57,21.506h8.184c0.523,0,0.947-0.424,0.947-0.946c0-0.523-0.424-0.947-0.947-0.947H31.57
			c-0.523,0-0.947,0.424-0.947,0.947C30.623,21.082,31.046,21.506,31.57,21.506z"/>
		<path fill="#010101" d="M26.028,20.248V17.54c-1.171,0-2.306,0.1-3.4,0.272v20.766c1.095,0.174,2.229,0.273,3.4,0.273v-2.709
			c1.582-0.254,2.833-3.709,2.833-7.947C28.861,23.96,27.609,20.503,26.028,20.248z"/>
		<path fill="#010101" d="M39.753,34.886H31.57c-0.523,0-0.947,0.424-0.947,0.946c0,0.523,0.424,0.947,0.947,0.947h8.184
			c0.523,0,0.947-0.424,0.947-0.947C40.701,35.31,40.277,34.886,39.753,34.886z"/>
	</g>
</g>
<g>
	<g>
		<g>
			<path fill="#010101" d="M2.701,43.93c-0.55,0-1,0.45-1,1v2.7c0,0.55,0.45,1,1,1h45c0.55,0,1-0.45,1-1v-2.7c0-0.55-0.45-1-1-1
				H2.701z"/>
		</g>
		<g>
			<path fill="#010101" d="M20.929,42.303c0.55,0,1.206-0.4,1.456-0.891l2.018-3.936c0.252-0.489,0.057-1.095-0.433-1.346
				l-1.917-0.983c-0.489-0.251-1.095-0.056-1.346,0.434l-0.169,0.33c-0.251,0.49-0.661,0.49-0.912,0L5.896,9.138
				C5.646,8.648,5.04,8.452,4.551,8.703l-1.92,0.983c-0.491,0.251-0.686,0.856-0.434,1.346l15.578,30.38
				c0.252,0.489,0.907,0.891,1.457,0.891H20.929z"/>
		</g>
		<g>
			<path fill="#010101" d="M48.375,10.698c0.157-0.306-0.114-0.761-0.604-1.012l-1.92-0.983c-0.49-0.251-1.019-0.207-1.174,0.099
				c-0.156,0.305,0.116,0.76,0.605,1.011l1.918,0.984C47.689,11.048,48.218,11.004,48.375,10.698z"/>
		</g>
		<g>
			<path fill="#010101" d="M33.039,31.497c-0.251,0.49-0.056,1.096,0.434,1.347l1.92,0.982c0.49,0.251,1.097,0.057,1.348-0.434
				l0.268-0.522c0.252-0.489,0.057-1.096-0.434-1.347l-1.92-0.984c-0.489-0.251-1.096-0.056-1.346,0.435L33.039,31.497z"/>
		</g>
		<g>
			<path fill="#010101" d="M39.367,28.264c0.252-0.489,0.057-1.096-0.434-1.347l-1.918-0.982c-0.488-0.251-1.094-0.056-1.346,0.434
				l-0.269,0.523c-0.251,0.49-0.056,1.096,0.434,1.347l1.917,0.982c0.489,0.251,1.096,0.056,1.348-0.434L39.367,28.264z"/>
		</g>
		<g>
			<path fill="#010101" d="M46.454,14.445c0.251-0.49,0.056-1.096-0.435-1.347l-1.918-0.983c-0.488-0.251-1.094-0.056-1.346,0.434
				l-0.271,0.524c-0.25,0.489-0.056,1.095,0.434,1.347l1.921,0.982c0.489,0.251,1.096,0.056,1.346-0.434L46.454,14.445z"/>
		</g>
		<g>
			<path fill="#010101" d="M44.091,19.052c0.25-0.489,0.057-1.096-0.434-1.347l-1.918-0.983c-0.489-0.251-1.096-0.057-1.346,0.434
				l-0.27,0.523c-0.251,0.489-0.056,1.095,0.434,1.346l1.918,0.983c0.49,0.251,1.096,0.056,1.348-0.435L44.091,19.052z"/>
		</g>
		<g>
			<path fill="#010101" d="M40.117,24.615c0.488,0.251,1.096,0.057,1.346-0.434l0.268-0.523c0.252-0.49,0.057-1.095-0.434-1.346
				l-1.918-0.984c-0.49-0.251-1.096-0.056-1.348,0.435l-0.268,0.521c-0.252,0.489-0.058,1.096,0.433,1.347L40.117,24.615z"/>
		</g>
		<g>
			<path fill="#010101" d="M38.138,10.698c0.156-0.306-0.115-0.761-0.604-1.012l-1.919-0.983c-0.49-0.251-1.02-0.207-1.176,0.099
				c-0.156,0.305,0.115,0.76,0.604,1.011l1.919,0.984C37.453,11.048,37.98,11.004,38.138,10.698z"/>
		</g>
		<g>
			<path fill="#010101" d="M22.604,31.879c-0.145,0.278,0.057,0.671,0.445,0.87c0.388,0.2,0.912,0.764,1.164,1.252l3.801,7.411
				c0.252,0.489,0.906,0.891,1.457,0.891h1.696c0.55,0,1.205-0.4,1.456-0.891l2.018-3.936c0.252-0.489,0.057-1.095-0.434-1.346
				l-1.919-0.983c-0.489-0.251-1.096-0.056-1.346,0.433l-0.17,0.331c-0.25,0.489-0.661,0.489-0.912,0l-3.358-6.551
				c-0.251-0.489-0.056-0.685,0.433-0.434l0.576,0.295c0.488,0.251,1.096,0.056,1.346-0.435l0.27-0.523
				c0.25-0.489,0.057-1.096-0.434-1.347l-1.918-0.982c-0.489-0.251-1.045-0.155-1.233,0.213c-0.188,0.369-0.55,0.27-0.8-0.22
				l-8.611-16.79c-0.25-0.489-0.856-0.686-1.346-0.435l-1.918,0.983c-0.49,0.251-0.686,0.855-0.434,1.346L22.41,30.48
				C22.66,30.97,22.748,31.6,22.604,31.879z"/>
		</g>
		<g>
			<path fill="#010101" d="M36.216,14.445c0.25-0.49,0.055-1.096-0.435-1.347l-1.917-0.983c-0.489-0.251-1.096-0.056-1.346,0.434
				l-0.271,0.524c-0.252,0.489-0.057,1.095,0.435,1.347l1.918,0.982c0.49,0.251,1.096,0.056,1.347-0.434L36.216,14.445z"/>
		</g>
		<g>
			<path fill="#010101" d="M31.492,23.659c0.251-0.489,0.057-1.096-0.434-1.347l-1.918-0.984c-0.488-0.251-1.094-0.056-1.347,0.434
				l-0.27,0.522c-0.253,0.489-0.058,1.096,0.433,1.347l1.92,0.984c0.489,0.251,1.096,0.057,1.346-0.433L31.492,23.659z"/>
		</g>
		<g>
			<path fill="#010101" d="M33.855,19.052c0.252-0.489,0.057-1.095-0.434-1.346L31.5,16.722c-0.489-0.251-1.095-0.057-1.346,0.434
				l-0.269,0.523c-0.252,0.489-0.057,1.095,0.434,1.346l1.918,0.983c0.488,0.251,1.095,0.056,1.347-0.434L33.855,19.052z"/>
		</g>
	</g>
</g>
<g>
	<path fill="#010101" d="M47.201,26.448v15.298c0,2.646-2.154,4.798-4.799,4.798H8.016c-2.647,0-4.8-2.152-4.8-4.798V7.396
		c0-2.646,2.153-4.798,4.8-4.798h15.339c-0.826,0.847-1.375,1.965-1.495,3.208H8.015c-0.878,0-1.592,0.713-1.592,1.59v34.349
		c0,0.877,0.714,1.591,1.592,1.591h34.386c0.878,0,1.592-0.714,1.592-1.591V27.94C45.2,27.825,46.321,27.305,47.201,26.448z
		 M28.561,7.081h10.486L22.073,24.055c-0.939,0.939-0.939,2.463,0,3.402c0.939,0.939,2.463,0.939,3.402,0l16.974-16.974V20.97
		c0,1.328,1.077,2.405,2.406,2.405c0.664,0,1.265-0.269,1.701-0.704c0.436-0.437,0.705-1.037,0.705-1.701V4.675
		c0-1.329-1.077-2.405-2.405-2.405H28.561c-1.328,0-2.405,1.076-2.405,2.406C26.155,6.004,27.232,7.081,28.561,7.081z"/>
</g>
<g>
	<g id="Node">
		<g>
			<path fill="#010101" d="M37.701,35.54c-0.738,0-1.424,0.215-2.02,0.566l-6.547-6.55c0.351-0.593,0.566-1.276,0.566-2.017
				c0-1.404-0.73-2.638-1.829-3.352l1.56-4.677c0.09,0.007,0.177,0.028,0.27,0.028c2.206,0,4-1.795,4-4c0-2.206-1.794-4-4-4
				s-4,1.794-4,4c0,1.405,0.73,2.637,1.829,3.352l-1.559,4.677c-0.09-0.007-0.177-0.028-0.27-0.028c-2.206,0-4,1.794-4,4
				c0,0.46,0.094,0.895,0.237,1.307l-5.015,3.344c-0.729-0.996-1.897-1.65-3.222-1.65c-2.206,0-4,1.795-4,4s1.794,4,4,4s4-1.795,4-4
				c0-0.148-0.028-0.29-0.044-0.436l5.391-3.595c0.708,0.634,1.631,1.03,2.653,1.03c0.738,0,1.424-0.215,2.02-0.566l6.547,6.55
				c-0.351,0.593-0.566,1.277-0.566,2.017c0,2.205,1.794,4,4,4s4-1.795,4-4S39.907,35.54,37.701,35.54z M13.701,36.54
				c-1.103,0-2-0.896-2-2s0.897-2,2-2s2,0.896,2,2S14.804,36.54,13.701,36.54z M25.701,29.54c-1.103,0-2-0.896-2-2s0.897-2,2-2
				c1.104,0,2,0.896,2,2S26.804,29.54,25.701,29.54z M27.701,15.54c0-1.104,0.896-2,2-2s2,0.896,2,2c0,1.103-0.896,2-2,2
				S27.701,16.643,27.701,15.54z M37.701,41.54c-1.104,0-2-0.896-2-2s0.896-2,2-2s2,0.896,2,2S38.804,41.54,37.701,41.54z"/>
		</g>
	</g>
</g>
<g>
	<g>
		<path fill="#010101" d="M14.585,0.814c-7.641,0-13.856,6.216-13.856,13.856c0,7.64,6.216,13.856,13.856,13.856
			c7.64,0,13.856-6.216,13.856-13.856C28.441,7.03,22.225,0.814,14.585,0.814z M14.585,27.159V2.183
			c6.886,0,12.488,5.602,12.488,12.488C27.073,21.557,21.471,27.159,14.585,27.159z"/>
	</g>
</g>
<g>
	<g id="_x33__13_">
		<g>
			<path fill="#010101" d="M27.452,12.864l-5.498,3.666c0-1.112-0.506-2.097-1.289-2.769c1.863-1.123,3.121-3.145,3.121-5.478
				c0-3.542-2.872-6.414-6.414-6.414s-6.414,2.872-6.414,6.414c0,1.797,0.743,3.417,1.934,4.582H9.531
				c0.877-0.974,1.427-2.25,1.427-3.665c0-3.037-2.461-5.498-5.498-5.498s-5.498,2.461-5.498,5.498c0,1.657,0.749,3.125,1.908,4.132
				c-1.132,0.624-1.908,1.814-1.908,3.198v7.331c0,2.024,1.641,3.665,3.665,3.665h14.661c2.024,0,3.666-1.641,3.666-3.665
				l5.498,3.665c1.012,0,1.833-0.82,1.833-1.833V14.697C29.284,13.685,28.464,12.864,27.452,12.864z M5.46,12.864
				c-2.024,0-3.666-1.641-3.666-3.665c0-2.024,1.641-3.666,3.666-3.666c2.024,0,3.665,1.641,3.665,3.666
				C9.125,11.223,7.484,12.864,5.46,12.864z M17.372,12.875c-2.537,0-4.592-2.056-4.592-4.592c0-2.536,2.056-4.591,4.592-4.591
				s4.592,2.055,4.592,4.591C21.964,10.819,19.908,12.875,17.372,12.875z"/>
		</g>
	</g>
	<g>
	</g>
	<g>
	</g>
	<g>
	</g>
	<g>
	</g>
	<g>
	</g>
	<g>
	</g>
	<g>
	</g>
	<g>
	</g>
	<g>
	</g>
	<g>
	</g>
	<g>
	</g>
	<g>
	</g>
	<g>
	</g>
	<g>
	</g>
	<g>
	</g>
</g>
<g>
	<g>
		<path fill="#010101" d="M43.075,21.907l-9.357-9.358l1.545,6.018h-5.443l-4.481-4.482l-2.562,2.562l-2.562-2.562l-4.484,4.482
			H10.54l1.545-6.018l-9.357,9.358l9.357,9.357l-1.545-6.018h5.189l4.483,4.482l2.562-2.562l2.562,2.562l4.481-4.482h5.444
			l-1.545,6.018L43.075,21.907z M27.361,24.469l-2.023,2.024l-2.562-2.562l-2.562,2.562l-2.024-2.024l2.561-2.562l-2.562-2.562
			l2.025-2.024l2.562,2.562l2.562-2.562l2.023,2.024l-2.562,2.562L27.361,24.469z"/>
		<g>
			<rect x="21.215" y="31.858" fill="#010101" width="3.118" height="10.534"/>
			<rect x="21.215" y="1.42" fill="#010101" width="3.118" height="11.042"/>
		</g>
	</g>
</g>
<g>
	<g>
		<polygon fill="#010101" points="43.868,27.966 35.427,19.525 35.427,25.394 10.282,25.394 10.282,19.525 4.413,25.394 
			4.391,25.394 4.391,25.415 1.841,27.966 4.391,30.516 4.391,30.538 4.413,30.538 10.282,36.406 10.282,30.538 35.427,30.538 
			35.427,36.406 		"/>
		<polygon fill="#010101" points="28.74,19.546 20.961,19.546 28.535,9.604 28.535,7.628 17.174,7.628 17.174,10.157 24.553,10.157 
			16.969,20.09 16.969,22.076 28.74,22.076 		"/>
	</g>
</g>
<g>
	<g>
		<path fill="#010101" d="M14.623,7.335c1.841,0,3.332-1.492,3.332-3.332c0-1.841-1.491-3.332-3.332-3.332s-3.332,1.491-3.332,3.332
			C11.291,5.843,12.782,7.335,14.623,7.335z M14.623,2.003c1.104,0,1.999,0.896,1.999,2s-0.896,1.999-1.999,1.999
			s-1.999-0.896-1.999-1.999S13.52,2.003,14.623,2.003z"/>
		<path fill="#010101" d="M3.294,7.335c1.841,0,3.332-1.492,3.332-3.332c0-1.841-1.491-3.332-3.332-3.332s-3.332,1.491-3.332,3.332
			C-0.038,5.843,1.453,7.335,3.294,7.335z M3.294,2.003c1.104,0,2,0.896,2,2s-0.896,1.999-2,1.999S1.295,5.106,1.295,4.003
			S2.19,2.003,3.294,2.003z"/>
		<path fill="#010101" d="M25.952,28.66c1.841,0,3.332-1.491,3.332-3.332s-1.491-3.332-3.332-3.332s-3.332,1.491-3.332,3.332
			S24.111,28.66,25.952,28.66z M25.952,23.329c1.104,0,1.999,0.896,1.999,1.999s-0.896,1.999-1.999,1.999s-2-0.896-2-1.999
			S24.849,23.329,25.952,23.329z"/>
		<path fill="#010101" d="M3.294,17.998c1.841,0,3.332-1.491,3.332-3.332s-1.491-3.332-3.332-3.332s-3.332,1.491-3.332,3.332
			S1.453,17.998,3.294,17.998z M3.294,12.666c1.104,0,2,0.896,2,2s-0.896,1.999-2,1.999s-1.999-0.896-1.999-1.999
			S2.19,12.666,3.294,12.666z"/>
		<path fill="#010101" d="M25.952,7.335c1.841,0,3.332-1.492,3.332-3.332c0-1.841-1.491-3.332-3.332-3.332S22.62,2.162,22.62,4.003
			C22.62,5.843,24.111,7.335,25.952,7.335z M25.952,2.003c1.104,0,1.999,0.896,1.999,2s-0.896,1.999-1.999,1.999s-2-0.896-2-1.999
			S24.849,2.003,25.952,2.003z"/>
		<path fill="#010101" d="M14.623,17.998c1.841,0,3.332-1.491,3.332-3.332s-1.491-3.332-3.332-3.332s-3.332,1.491-3.332,3.332
			S12.782,17.998,14.623,17.998z M14.623,12.666c1.104,0,1.999,0.896,1.999,2s-0.896,1.999-1.999,1.999s-1.999-0.896-1.999-1.999
			S13.52,12.666,14.623,12.666z"/>
		<path fill="#010101" d="M25.952,17.998c1.841,0,3.332-1.491,3.332-3.332s-1.491-3.332-3.332-3.332s-3.332,1.491-3.332,3.332
			S24.111,17.998,25.952,17.998z M25.952,12.666c1.104,0,1.999,0.896,1.999,2s-0.896,1.999-1.999,1.999s-2-0.896-2-1.999
			S24.849,12.666,25.952,12.666z"/>
		<path fill="#010101" d="M14.623,28.66c1.841,0,3.332-1.491,3.332-3.332s-1.491-3.332-3.332-3.332s-3.332,1.491-3.332,3.332
			S12.782,28.66,14.623,28.66z M14.623,23.329c1.104,0,1.999,0.896,1.999,1.999s-0.896,1.999-1.999,1.999s-1.999-0.896-1.999-1.999
			S13.52,23.329,14.623,23.329z"/>
		<path fill="#010101" d="M3.294,28.66c1.841,0,3.332-1.491,3.332-3.332s-1.491-3.332-3.332-3.332s-3.332,1.491-3.332,3.332
			S1.453,28.66,3.294,28.66z M3.294,23.329c1.104,0,2,0.896,2,1.999s-0.896,1.999-2,1.999s-1.999-0.896-1.999-1.999
			S2.19,23.329,3.294,23.329z"/>
	</g>
	<g>
	</g>
	<g>
	</g>
	<g>
	</g>
	<g>
	</g>
	<g>
	</g>
	<g>
	</g>
	<g>
	</g>
	<g>
	</g>
	<g>
	</g>
	<g>
	</g>
	<g>
	</g>
	<g>
	</g>
	<g>
	</g>
	<g>
	</g>
	<g>
	</g>
</g>
<g>
	<g>
		<path fill="#010101" d="M25.758,7.814c-4.394,0-7.969,3.574-7.969,7.969c0,4.395,3.575,7.97,7.969,7.97s7.97-3.575,7.97-7.97
			C33.729,11.39,30.152,7.814,25.758,7.814z"/>
		<path fill="#010101" d="M15.622,41.385c4.395,0,7.97-3.574,7.97-7.969c0-4.395-3.575-7.969-7.97-7.969
			c-4.395,0-7.97,3.575-7.97,7.969C7.652,37.811,11.227,41.385,15.622,41.385z"/>
		<path fill="#010101" d="M35.778,25.446c-4.395,0-7.97,3.574-7.97,7.97c0,4.395,3.575,7.969,7.97,7.969
			c4.395,0,7.969-3.574,7.969-7.969C43.749,29.022,40.173,25.446,35.778,25.446z"/>
	</g>
</g>
<g>
	<g>
		<polygon fill="#010101" points="32.55,13.54 17.875,13.54 25.215,26.251 		"/>
		<polygon fill="#010101" points="16.04,14.599 8.701,27.312 23.379,27.312 		"/>
		<polygon fill="#010101" points="41.725,27.312 34.386,14.599 27.046,27.312 		"/>
		<polygon fill="#010101" points="34.386,42.142 41.725,29.429 27.046,29.429 		"/>
		<polygon fill="#010101" points="8.701,29.429 16.04,42.142 23.379,29.429 		"/>
		<polygon fill="#010101" points="17.875,43.2 32.55,43.2 25.215,30.489 		"/>
	</g>
</g>
<g>
	<g>
		<path fill="#010101" d="M46.946,23.977L40.188,10.77l-0.131-0.111L27.146,6.687l-8.676,3.376l-5.585-6.426l-0.296,0L5.982,4.451
			l-4.585,6.046l-0.205,0.271l-0.094,0.323l-2.705,9.272l-0.099,0.339l0.09,0.27l3.999,12.304l12.209,6.964l0.234-0.007l7.908-5.282
			l0.201-0.124l11.742-6.599l0.22-0.082l11.919-3.858L46.946,23.977z M46.302,23.692l-13.354-4.538l6.993-7.893L46.302,23.692z
			 M22.54,34.328l-9.172-5.291l9.912-2.125L22.54,34.328z M7.029,18.125l3.56-6.745l3.627,9.545L7.029,18.125z M32.099,18.754
			l-5.782-3.126l-0.005-0.23l0.935-7.722L32.099,18.754z M27.523,7.201l12.074,3.779l-6.973,7.87L27.523,7.201z M14.427,24.021
			l0.722-2.466l8.092,4.913l-10.152,2.176L14.427,24.021z M15.463,21.227l10.313-5.312L23.407,26.05L15.463,21.227z M18.251,10.574
			l7.393,4.911L15.362,20.78L18.251,10.574z M14.823,21.058l-0.069,0.036l-3.734-9.826l6.759-0.657L14.823,21.058z M14.672,21.579
			l-0.657,2.27l-1.333,4.557L7.231,18.68L14.672,21.579z M23.824,26.213l2.372-10.147l5.974,3.231l-8.198,6.938L23.824,26.213z
			 M32.428,19.659l1.914,8.074l-9.785-1.414L32.428,19.659z M25.899,15.12l-7.034-4.737l7.995-3.194L25.899,15.12z M17.956,10.148
			l-7.08,0.688l0.099-0.188h-0.067l1.945-6.362L17.956,10.148z M6.223,4.868l6.223-0.766l-2.001,6.546H1.839L6.223,4.868z
			 M10.24,11.092l-3.552,6.73l-4.861-6.73H10.24z M1.479,11.368l4.876,6.751l-7.501,2.251L1.479,11.368z M6.623,18.501l5.57,9.937
			l-13.115-7.674L6.623,18.501z M-1.079,21.188l13.25,7.752l-9.414,3.819L-1.079,21.188z M12.636,29.229l0.16,0.287l1.614,10.108
			L3.124,33.088L12.636,29.229z M14.867,39.673l-1.627-10.198l9.067,5.23L14.867,39.673z M22.989,34.29l0.746-7.475l0.317-0.068
			l0.054-0.045l9.851,1.424L22.989,34.29z M32.868,19.595l13.176,4.478l-11.25,3.642L32.868,19.595z"/>
	</g>
</g>
<g>
	<path fill="#010101" d="M36.698,31.63v-8.18c2.837-0.476,5.003-2.938,5.003-5.91c0-3.313-2.688-6-6-6c-3.316,0-6,2.687-6,6
		c0,0.609,0.092,1.196,0.262,1.75l-9.424,4.711c-1.091-1.489-2.849-2.461-4.838-2.461c-3.314,0-6,2.687-6,6c0,3.312,2.686,6,6,6
		c1.99,0,3.748-0.973,4.839-2.464l9.423,4.712c-0.17,0.555-0.262,1.143-0.262,1.752c0,3.312,2.684,6,6,6c3.312,0,6-2.688,6-6
		C41.701,34.567,39.535,32.104,36.698,31.63z M34.7,31.631c-1.573,0.266-2.935,1.141-3.838,2.372l-9.422-4.712
		c0.169-0.554,0.261-1.142,0.261-1.751c0-0.61-0.092-1.199-0.262-1.753l9.422-4.71c0.902,1.235,2.266,2.109,3.839,2.374V31.631z"/>
</g>
<g>
	<path fill="#010101" d="M37.701,38.617v0.962c0,0.531-0.43,0.962-0.962,0.962h-0.962c-0.531,0-0.963-0.43-0.963-0.962
		s0.431-0.962,0.963-0.962c0-0.531,0.43-0.962,0.962-0.962S37.701,38.085,37.701,38.617z M36.739,26.078
		c-0.531,0-0.962,0.43-0.962,0.961v2c0,0.531,0.43,0.961,0.962,0.961s0.962-0.429,0.962-0.96v-2
		C37.701,26.509,37.271,26.078,36.739,26.078z M36.739,20.29c-0.531,0-0.962,0.431-0.962,0.962v2c0,0.531,0.43,0.962,0.962,0.962
		s0.962-0.432,0.962-0.963v-2C37.701,20.72,37.271,20.29,36.739,20.29z M36.739,31.866c-0.531,0-0.962,0.43-0.962,0.962v2
		c0,0.531,0.43,0.962,0.962,0.962s0.962-0.43,0.962-0.962v-2C37.701,32.296,37.271,31.866,36.739,31.866z M36.739,15.54h-0.962
		c-0.531,0-0.963,0.431-0.963,0.962s0.431,0.962,0.963,0.962c0,0.531,0.43,0.962,0.962,0.962s0.962-0.432,0.962-0.963v-0.961
		C37.701,15.971,37.271,15.54,36.739,15.54z M29.989,17.463h2c0.53,0,0.962-0.431,0.962-0.962s-0.43-0.961-0.962-0.961h-2
		c-0.531,0-0.962,0.431-0.962,0.962S29.457,17.463,29.989,17.463z M18.412,17.463h2c0.531,0,0.962-0.431,0.962-0.962
		s-0.431-0.961-0.962-0.961h-2c-0.531,0-0.961,0.431-0.961,0.962S17.881,17.463,18.412,17.463z M24.201,17.463h2
		c0.531,0,0.961-0.431,0.961-0.962s-0.43-0.961-0.961-0.961h-2c-0.531,0-0.961,0.431-0.961,0.962S23.67,17.463,24.201,17.463z
		 M13.663,18.425c0.531,0,0.962-0.431,0.962-0.962c0.531,0,0.962-0.431,0.962-0.962s-0.432-0.961-0.963-0.961h-0.961
		c-0.531,0-0.962,0.431-0.962,0.962v0.962C12.701,17.994,13.132,18.425,13.663,18.425z M13.663,24.213
		c0.531,0,0.962-0.431,0.962-0.962v-2c0-0.531-0.431-0.962-0.962-0.962c-0.531,0-0.962,0.431-0.962,0.962v2
		C12.701,23.782,13.132,24.213,13.663,24.213z M31.989,38.617h-2c-0.531,0-0.962,0.43-0.962,0.962s0.43,0.962,0.962,0.962h2
		c0.53,0,0.962-0.43,0.962-0.962S32.521,38.617,31.989,38.617z M33.376,19.445l-5.949,0.743c-0.264,0.031-0.324,0.213-0.139,0.398
		l2.038,2.038l-6.375,6.376h-8.328V27.04c0-0.531-0.431-0.961-0.962-0.961c-0.531,0-0.961,0.43-0.961,0.961v2
		c0,0.171,0.056,0.323,0.134,0.461c-0.078,0.139-0.134,0.291-0.134,0.462v2.865v2v3.789v0.962c0,0.531,0.431,0.962,0.962,0.962
		h0.962h3.788h2h2.866c0.171,0,0.323-0.056,0.462-0.134c0.137,0.077,0.289,0.133,0.46,0.133h2c0.531,0,0.961-0.43,0.961-0.962
		s-0.43-0.962-0.961-0.962h-1.962V30.29l6.376-6.377l2.036,2.036c0.188,0.187,0.366,0.125,0.399-0.138l0.743-5.95
		C33.828,19.601,33.64,19.412,33.376,19.445z"/>
</g>
<g>
	<g id="c188_arrow">
		<path id="_x3C_Group_x3E__6_" fill="#010101" d="M24.98,15.543c0.013,0,0.015,0,0.019,0c0.007,0,0.007,0,0.009,0c0,0,0,0,0.004,0
			l0,0c0.002,0,0.008,0,0.01,0c0.004,0,0.004,0,0.004,0s0,0,0.003,0c0.026-0.006,0.035-0.002,0.054-0.002
			c3.205,0,6.32,1.271,8.621,3.503l2.536-2.569c0.122-0.123,0.31-0.159,0.461-0.094c0.159,0.065,0.265,0.219,0.265,0.393v8.351
			c0,0.234-0.19,0.424-0.423,0.424h-8.245c-0.006,0-0.014,0-0.02,0c-0.236,0-0.424-0.188-0.424-0.424
			c0-0.159,0.084-0.296,0.212-0.367l2.499-2.533c-1.482-1.432-3.418-2.213-5.539-2.213c-4.332,0.022-7.858,3.572-7.858,7.971
			c0.034,4.327,3.58,7.849,7.979,7.849l-0.009,4.468h-0.06c-6.781-0.002-12.335-5.518-12.378-12.38
			C12.701,21.149,18.204,15.602,24.98,15.543z"/>
	</g>
	<g id="Capa_1_1_">
	</g>
</g>
<g>
	<path fill="#010101" d="M25.506,42.804c-7.061,0-12.805-5.75-12.805-12.809c0-7.059,5.744-12.806,12.805-12.806
		c0.469,0,0.943,0.026,1.414,0.079v-2.069c0-0.267,0.164-0.508,0.406-0.611c0.252-0.098,0.531-0.043,0.723,0.148l4.537,4.547
		c0.258,0.258,0.258,0.67,0,0.932l-4.535,4.558c-0.192,0.188-0.473,0.245-0.725,0.143c-0.242-0.104-0.406-0.344-0.406-0.609v-2.296
		c-0.469-0.086-0.941-0.125-1.414-0.125c-4.473,0-8.113,3.64-8.113,8.111c0,4.471,3.641,8.113,8.113,8.113s8.111-3.644,8.111-8.113
		c0-0.363,0.295-0.66,0.662-0.66h3.369c0.365,0,0.662,0.297,0.662,0.66C38.31,37.054,32.562,42.804,25.506,42.804z"/>
	<g>
	</g>
	<g>
	</g>
	<g>
	</g>
	<g>
	</g>
	<g>
	</g>
	<g>
	</g>
	<g>
	</g>
	<g>
	</g>
	<g>
	</g>
	<g>
	</g>
	<g>
	</g>
	<g>
	</g>
	<g>
	</g>
	<g>
	</g>
	<g>
	</g>
</g>
<g>
	<g>
		<path fill="#010101" d="M37.87,8.038C29.639-0.193,16.245-0.194,8.013,8.037c-8.04,8.04-8.223,20.999-0.56,29.27l-4.398,4.399
			l12.028-0.001l0-12.027l-4.364,4.364c-5.864-6.467-5.679-16.499,0.56-22.738c6.431-6.431,16.895-6.43,23.326,0
			c6.431,6.431,6.432,16.895,0,23.326c-1.423,1.423-3.066,2.56-4.883,3.378l1.896,4.211c2.329-1.049,4.433-2.503,6.253-4.324
			C46.103,29.664,46.102,16.269,37.87,8.038z"/>
		<polygon fill="#010101" points="26.762,13.679 22.943,20.566 19.148,13.679 14.94,13.679 21.014,24.01 21.014,30.404 
			24.872,30.404 24.872,23.895 30.945,13.679 		"/>
	</g>
</g>
<g>
	<g>
		<polygon fill="#010101" points="15.019,16.681 15.019,21.594 19.273,19.138 		"/>
		<polygon fill="#010101" points="15.019,22.821 15.019,27.733 19.273,25.277 		"/>
		<polygon fill="#010101" points="15.019,35.103 15.019,40.015 19.273,37.559 		"/>
		<polygon fill="#010101" points="15.374,40.63 19.628,43.086 19.628,38.174 		"/>
		<polygon fill="#010101" points="15.374,28.348 19.628,30.805 19.628,25.892 		"/>
		<polygon fill="#010101" points="15.374,22.208 19.628,24.664 19.628,19.751 		"/>
		<polygon fill="#010101" points="15.374,16.066 19.628,18.522 19.628,13.61 		"/>
		<polygon fill="#010101" points="20.337,13.61 20.337,18.522 24.592,16.066 		"/>
		<polygon fill="#010101" points="20.337,19.751 20.337,24.664 24.592,22.208 		"/>
		<polygon fill="#010101" points="20.337,25.892 20.337,30.805 24.592,28.348 		"/>
		<polygon fill="#010101" points="20.337,32.032 20.337,36.944 24.592,34.488 		"/>
		<polygon fill="#010101" points="20.337,38.174 20.337,43.086 24.592,40.63 		"/>
		<polygon fill="#010101" points="20.692,43.699 24.946,46.155 24.946,41.244 		"/>
		<polygon fill="#010101" points="20.692,37.559 24.946,40.015 24.946,35.103 		"/>
		<polygon fill="#010101" points="20.692,31.419 24.946,33.875 24.946,28.962 		"/>
		<polygon fill="#010101" points="20.692,25.277 24.946,27.733 24.946,22.821 		"/>
		<polygon fill="#010101" points="20.692,12.996 24.946,15.453 24.946,10.54 		"/>
		<polygon fill="#010101" points="9.701,19.751 9.701,24.664 13.955,22.208 		"/>
		<polygon fill="#010101" points="9.701,25.892 9.701,30.805 13.955,28.348 		"/>
		<polygon fill="#010101" points="9.701,32.032 9.701,36.944 13.955,34.488 		"/>
		<polygon fill="#010101" points="10.055,37.559 14.31,40.015 14.31,35.103 		"/>
		<polygon fill="#010101" points="10.055,31.419 14.31,33.875 14.31,28.962 		"/>
		<polygon fill="#010101" points="10.055,25.277 14.31,27.733 14.31,22.821 		"/>
		<polygon fill="#010101" points="10.055,19.138 14.31,21.594 14.31,16.681 		"/>
		<polygon fill="#010101" points="25.655,10.54 25.655,15.453 29.909,12.996 		"/>
		<polygon fill="#010101" points="25.655,22.821 25.655,27.733 29.909,25.277 		"/>
		<polygon fill="#010101" points="25.655,28.962 25.655,33.875 29.909,31.419 		"/>
		<polygon fill="#010101" points="25.655,35.103 25.655,40.015 29.909,37.559 		"/>
		<polygon fill="#010101" points="25.655,41.244 25.655,46.155 29.909,43.699 		"/>
		<polygon fill="#010101" points="26.01,40.63 30.263,43.086 30.263,38.174 		"/>
		<polygon fill="#010101" points="26.01,34.488 30.263,36.944 30.263,32.032 		"/>
		<polygon fill="#010101" points="26.01,28.348 30.263,30.805 30.263,25.892 		"/>
		<polygon fill="#010101" points="26.01,22.208 30.263,24.664 30.263,19.751 		"/>
		<polygon fill="#010101" points="26.01,16.066 30.263,18.522 30.263,13.61 		"/>
		<polygon fill="#010101" points="30.972,13.61 30.972,18.522 35.228,16.066 		"/>
		<polygon fill="#010101" points="30.972,19.751 30.972,24.664 35.228,22.208 		"/>
		<polygon fill="#010101" points="30.972,25.892 30.972,30.805 35.228,28.348 		"/>
		<polygon fill="#010101" points="30.972,38.174 30.972,43.086 35.228,40.63 		"/>
		<polygon fill="#010101" points="31.328,37.559 35.582,40.015 35.582,35.103 		"/>
		<polygon fill="#010101" points="31.328,25.277 35.582,27.733 35.582,22.821 		"/>
		<polygon fill="#010101" points="31.328,19.138 35.582,21.594 35.582,16.681 		"/>
		<polygon fill="#010101" points="36.291,16.681 36.291,21.594 40.544,19.138 		"/>
		<polygon fill="#010101" points="36.291,22.821 36.291,27.733 40.544,25.277 		"/>
		<polygon fill="#010101" points="36.291,28.962 36.291,33.875 40.544,31.419 		"/>
		<polygon fill="#010101" points="36.291,35.103 36.291,40.015 40.544,37.559 		"/>
		<polygon fill="#010101" points="36.646,34.488 40.901,36.944 40.901,32.032 		"/>
		<polygon fill="#010101" points="36.646,28.348 40.901,30.805 40.901,25.892 		"/>
		<polygon fill="#010101" points="36.646,22.208 40.901,24.664 40.901,19.751 		"/>
	</g>
</g>
<g>
	<path fill="#010101" d="M8.761,7.26v34.38h34.38V7.26H8.761z M42.032,23.896H26.505V8.369h15.527V23.896z M25.396,8.369v15.527
		H9.87V8.369H25.396z M9.87,25.005h15.527v15.527H9.87V25.005z M26.505,40.532V25.005h15.527v15.527H26.505z"/>
</g>
<g>
	<g>
		<path fill="#010101" d="M1.841,0.977v11.315v30.585h30.585h11.315v-41.9H1.841z M28.686,39.137H5.581V16.032h23.105V39.137z
			 M40,39.137h-7.575V12.292H5.581V4.717h34.42L40,39.137L40,39.137z"/>
		<polygon fill="#010101" points="15.168,36.883 19.195,36.883 19.195,30.087 25.535,19.423 21.169,19.423 17.182,26.612 
			13.221,19.423 8.827,19.423 15.168,30.207 		"/>
	</g>
</g>
<g>
	<path fill="#010101" d="M51.642,25.767H41.71c-0.138,0-0.269,0.021-0.398,0.041c-0.416-2.885-1.551-5.534-3.223-7.768
		c0.108-0.08,0.217-0.162,0.312-0.258l7.023-7.023c0.47-0.471,0.728-1.094,0.728-1.758s-0.258-1.287-0.728-1.758
		c-0.471-0.469-1.096-0.729-1.758-0.729c-0.664,0-1.289,0.261-1.758,0.729l-7.023,7.022c-0.098,0.097-0.18,0.203-0.258,0.313
		c-2.233-1.672-4.883-2.81-7.77-3.226c0.021-0.129,0.039-0.26,0.039-0.396V1.026c0-1.371-1.114-2.486-2.484-2.486
		c-1.371,0-2.486,1.115-2.486,2.486v9.932c0,0.137,0.02,0.268,0.041,0.396c-2.887,0.418-5.535,1.554-7.77,3.226
		c-0.078-0.107-0.16-0.215-0.257-0.313L6.92,7.243C6.449,6.774,5.826,6.514,5.162,6.514c-0.664,0-1.288,0.261-1.758,0.729
		C2.935,7.714,2.675,8.337,2.675,9.001s0.26,1.287,0.729,1.758l7.023,7.023c0.097,0.096,0.203,0.178,0.313,0.258
		c-1.672,2.231-2.807,4.883-3.223,7.768c-0.131-0.021-0.262-0.041-0.398-0.041h-9.932c-1.371,0-2.486,1.115-2.486,2.486
		s1.115,2.486,2.486,2.486h9.932c0.137,0,0.268-0.019,0.398-0.039c0.416,2.885,1.551,5.533,3.224,7.768
		c-0.108,0.078-0.216,0.16-0.313,0.256l-7.022,7.023c-0.47,0.471-0.728,1.094-0.728,1.758s0.258,1.287,0.728,1.758
		c0.47,0.47,1.094,0.729,1.758,0.729c0.663,0,1.288-0.26,1.757-0.729l7.023-7.022c0.098-0.097,0.18-0.203,0.258-0.313
		c2.232,1.672,4.882,2.808,7.768,3.226c-0.021,0.129-0.041,0.26-0.041,0.396v9.932c0,1.371,1.115,2.486,2.486,2.486
		c1.37,0,2.484-1.115,2.484-2.486v-9.932c0-0.137-0.019-0.268-0.039-0.396c2.886-0.416,5.535-1.554,7.769-3.226
		c0.08,0.109,0.162,0.217,0.258,0.313l7.022,7.022c0.472,0.47,1.095,0.729,1.759,0.729s1.287-0.26,1.758-0.729
		c0.469-0.471,0.729-1.094,0.729-1.758s-0.26-1.287-0.729-1.758l-7.023-7.021c-0.098-0.098-0.204-0.18-0.312-0.258
		c1.672-2.233,2.807-4.883,3.223-7.768c0.131,0.021,0.262,0.039,0.398,0.039h9.932c1.371,0,2.486-1.115,2.486-2.486
		S53.013,25.767,51.642,25.767z M36.029,28.253c0,6.404-5.21,11.613-11.614,11.613c-6.404,0-11.614-5.209-11.614-11.613
		s5.21-11.613,11.614-11.613C30.819,16.64,36.029,21.849,36.029,28.253z"/>
</g>
<g>
	<g>
		<path fill="#010101" d="M25.608,44.28c-1.186,0-2.15-0.964-2.15-2.149v-6.162c-1.545-0.294-3.022-0.908-4.322-1.794l-4.36,4.359
			c-0.811,0.813-2.227,0.814-3.039,0c-0.406-0.407-0.629-0.946-0.629-1.52s0.224-1.114,0.629-1.52l4.359-4.36
			c-0.888-1.303-1.501-2.781-1.795-4.323H8.138c-1.186,0-2.15-0.964-2.15-2.149s0.964-2.15,2.15-2.15h6.163
			c0.294-1.544,0.907-3.022,1.793-4.323l-4.36-4.36c-0.406-0.409-0.63-0.948-0.63-1.52c0-0.571,0.224-1.111,0.629-1.518
			c0.817-0.815,2.225-0.814,3.041-0.002l4.36,4.36c1.302-0.886,2.78-1.5,4.323-1.794V7.191c0-1.186,0.964-2.149,2.149-2.149
			c1.185,0,2.148,0.964,2.148,2.149v6.162c1.544,0.293,3.022,0.907,4.326,1.795l4.36-4.359c0.812-0.812,2.227-0.813,3.039,0
			c0.406,0.405,0.63,0.946,0.63,1.52c0,0.575-0.224,1.115-0.63,1.52l-4.359,4.36c0.887,1.302,1.5,2.779,1.793,4.322h6.163
			c1.186,0,2.15,0.964,2.15,2.15c0,1.185-0.964,2.149-2.15,2.149h-6.161c-0.293,1.544-0.908,3.022-1.795,4.325l4.36,4.358
			c0.406,0.406,0.629,0.947,0.629,1.52c0,0.572-0.223,1.112-0.629,1.519c-0.812,0.814-2.227,0.814-3.04,0l-4.36-4.359
			c-1.302,0.888-2.78,1.502-4.323,1.795v6.162C27.756,43.315,26.792,44.28,25.608,44.28z"/>
	</g>
</g>
<g>
	<g>
		<circle fill="#010101" cx="25.395" cy="28.477" r="8.308"/>
		<path fill="#010101" d="M44.073,32.896l-8.406-6.534l4.736-9.637l-10.111,2.493L25.873,9.54l-4.498,9.289l-10.328-2.905
			l4.29,9.497l-8.636,6.381l10.306,2.886c0,0-1.512-2.355-1.891-4.391c-0.343-1.849,0.155-4.379,0.251-4.832
			c0.029-0.065,1.069-2.414,2.355-3.95c1.306-1.559,3.734-2.661,3.734-2.661l-0.025-0.009c0.358-0.086,2.57-0.597,4.441-0.597
			c1.747,0,3.761,0.773,4.308,0.997c0.002,0.001,2.148,1.324,3.418,2.914c1.269,1.589,2.004,4.336,2.004,4.336l0.024-0.053
			c0.081,0.545,0.364,2.756-0.036,4.479c-0.463,1.98-2.162,4.26-2.162,4.26l0.016-0.003c-0.346,0.347-1.986,1.947-3.613,2.742
			c-1.828,0.895-4.668,1.012-4.668,1.012l8.491,6.813l-0.136-10.583L44.073,32.896z"/>
		<path fill="#010101" d="M17.007,34.663l0.201,10.885l7.954-6.615c0,0-2.533-0.496-4.389-1.332
			C18.917,36.769,17.007,34.663,17.007,34.663z"/>
	</g>
	<g>
	</g>
	<g>
	</g>
	<g>
	</g>
	<g>
	</g>
	<g>
	</g>
	<g>
	</g>
	<g>
	</g>
	<g>
	</g>
	<g>
	</g>
	<g>
	</g>
	<g>
	</g>
	<g>
	</g>
	<g>
	</g>
	<g>
	</g>
	<g>
	</g>
</g>
<g>
	<g>
		<circle fill="#010101" cx="25.395" cy="28.477" r="8.308"/>
		<path fill="#010101" d="M44.073,32.896l-8.406-6.534l4.736-9.637l-10.111,2.493L25.873,9.54l-4.498,9.289l-10.328-2.905
			l4.29,9.497l-8.636,6.381l10.306,2.886c0,0-1.512-2.355-1.891-4.391c-0.343-1.849,0.155-4.379,0.251-4.832
			c0.029-0.065,1.069-2.414,2.355-3.95c1.306-1.559,3.734-2.661,3.734-2.661l-0.025-0.009c0.358-0.086,2.57-0.597,4.441-0.597
			c1.747,0,3.761,0.773,4.308,0.997c0.002,0.001,2.148,1.324,3.418,2.914c1.269,1.589,2.004,4.336,2.004,4.336l0.024-0.053
			c0.081,0.545,0.364,2.756-0.036,4.479c-0.463,1.98-2.162,4.26-2.162,4.26l0.016-0.003c-0.346,0.347-1.986,1.947-3.613,2.742
			c-1.828,0.895-4.668,1.012-4.668,1.012l8.491,6.813l-0.136-10.583L44.073,32.896z"/>
		<path fill="#010101" d="M17.007,34.663l0.201,10.885l7.954-6.615c0,0-2.533-0.496-4.389-1.332
			C18.917,36.769,17.007,34.663,17.007,34.663z"/>
	</g>
	<g>
	</g>
	<g>
	</g>
	<g>
	</g>
	<g>
	</g>
	<g>
	</g>
	<g>
	</g>
	<g>
	</g>
	<g>
	</g>
	<g>
	</g>
	<g>
	</g>
	<g>
	</g>
	<g>
	</g>
	<g>
	</g>
	<g>
	</g>
	<g>
	</g>
</g>
<g>
	<g>
		<circle fill="#010101" cx="22.959" cy="22.864" r="11.416"/>
		<polygon fill="#010101" points="36.742,6.438 28.465,8.619 36.032,14.969 		"/>
		<polygon fill="#010101" points="38.049,25.219 44.077,19.14 36.333,15.491 		"/>
		<polygon fill="#010101" points="33.004,34.367 41.531,33.585 37.944,25.812 		"/>
		<polygon fill="#010101" points="30.294,43.015 32.543,34.755 23.26,38.133 		"/>
		<polygon fill="#010101" points="15.625,43.015 22.658,38.133 13.375,34.755 		"/>
		<polygon fill="#010101" points="4.389,33.585 12.913,34.368 7.974,25.812 		"/>
		<polygon fill="#010101" points="9.584,15.49 1.841,19.14 7.869,25.219 		"/>
		<polygon fill="#010101" points="17.454,8.619 9.175,6.438 9.886,14.969 		"/>
		<polygon fill="#010101" points="22.959,1.42 18.02,8.413 27.898,8.413 		"/>
	</g>
</g>
<g>
	<g>
		<path fill="#010101" d="M11.418,22.114c0-3.048,1.565-5.727,3.934-7.287c-1.375-0.905-3.019-1.436-4.789-1.436
			c-4.817,0-8.722,3.905-8.722,8.722c0,4.817,3.905,8.722,8.723,8.722c1.77,0,3.413-0.531,4.789-1.437
			C12.983,27.84,11.418,25.162,11.418,22.114z"/>
		<path fill="#010101" d="M23.914,22.114c0-3.048,1.565-5.727,3.934-7.287c-1.375-0.905-3.019-1.436-4.788-1.436
			c-4.817,0-8.722,3.905-8.722,8.722c0,4.817,3.905,8.722,8.722,8.722c1.77,0,3.413-0.531,4.788-1.437
			C25.479,27.84,23.914,25.162,23.914,22.114z"/>
		<circle fill="#010101" cx="35.555" cy="22.114" r="8.722"/>
	</g>
</g>
<g>
	<g>
		<polygon fill="#010101" points="2.284,26.002 11.694,30.473 11.694,19.111 2.284,14.642 		"/>
		<polygon fill="#010101" points="22.62,14.642 13.21,19.111 13.21,29.749 22.62,20.353 		"/>
		<polygon fill="#010101" points="12.452,7.932 2.297,12.756 12.452,17.607 22.608,12.783 		"/>
		<polygon fill="#010101" points="30.008,17.172 30.008,37.618 43.957,31.123 		"/>
		<polygon fill="#010101" points="28.22,37.618 28.22,17.172 14.271,31.123 		"/>
		<path fill="#010101" d="M37.955,15.157c0-4.886-3.975-8.859-8.86-8.859c-3.089,0-5.875,1.55-7.504,4.161l2.677,1.353l0,6.987
			l4.843-4.846l6.827,6.825C37.241,19.196,37.955,17.209,37.955,15.157z"/>
	</g>
</g>
<g>
	<g>
		<path fill="#010101" d="M1.841,0.977v11.315v30.585h30.585h11.315v-41.9H1.841z M28.686,39.137H5.581V16.032h23.105V39.137z
			 M40,39.137h-7.575V12.292H5.581V4.717h34.42L40,39.137L40,39.137z"/>
		<polygon fill="#010101" points="23.96,33.303 14.706,33.303 23.715,21.476 23.715,19.124 10.199,19.124 10.199,22.133 
			18.978,22.133 9.955,33.951 9.955,36.313 23.96,36.313 		"/>
	</g>
</g>
<g>
	<g>
		<path fill="#010101" d="M1.841,0.977v11.315v30.585h30.585h11.315v-41.9H1.841z M28.686,39.137H5.581V16.032h23.105V39.137z
			 M40,39.137h-7.575V12.292H5.581V4.717h34.42L40,39.137L40,39.137z"/>
		<polygon fill="#010101" points="12.292,36.082 16.278,30.159 20.265,36.082 24.415,36.082 18.623,28.188 24.004,20.424 
			20.087,20.424 16.464,26.057 12.771,20.424 8.762,20.424 14.084,28.006 8.398,36.082 		"/>
	</g>
</g>
<g>
	<path fill="#010101" d="M14.585,4.408c-0.563,0-1.115,0.047-1.653,0.134c0.236,0.089,0.531,0.137,0.933,0.118
		c1.383-0.066,2.241,0.198,1.251,0.594s-0.805,0.816-0.343,0.849c0.461,0.033,1.538-0.46,1.895-0.026
		c0.369,0.447-0.414,1.181,0.053,1.974c0.694,1.18-1.679,1.45-2.278,2.334c-0.578,0.853-0.904,1.767-0.245,2.992
		c0.659,1.225,0.814,0.485,1.974,0.619c2.286,0.265,1.602,2.054,4.418,2.615c1.078,0.214,0.337,2.555-1.554,3.683
		c-1.822,1.087-1.247,2.334-3.836,3.166c-0.622,0.2-1.096,0.085-0.614-0.607c0.934-1.343,0.853-2.839,0-3.509
		c-0.853-0.67-1.81-0.816-1.579-1.848c0.23-1.031,1.123-1.392,1.187-2.319c0.062-0.895-1.357-3.938-3.131-3.336
		c-1.013,0.345-2.972-0.944-2.868-2.631c0.12-1.96,1.622-2.261,1.285-3.427c-0.001-0.003,0-0.007,0-0.011
		c-3.081,1.771-5.157,5.093-5.157,8.901c0,5.668,4.595,10.263,10.263,10.263c5.668,0,10.263-4.595,10.263-10.263
		S20.253,4.408,14.585,4.408z"/>
</g>
</svg>
