<?xml version="1.0" encoding="utf-8"?>
<!-- Generator: Adobe Illustrator 16.0.4, SVG Export Plug-In . SVG Version: 6.00 Build 0)  -->
<!DOCTYPE svg PUBLIC "-//W3C//DTD SVG 1.1//EN" "http://www.w3.org/Graphics/SVG/1.1/DTD/svg11.dtd">
<svg version="1.1" xmlns="http://www.w3.org/2000/svg" xmlns:xlink="http://www.w3.org/1999/xlink" x="0px" y="0px" width="24px"
	 height="24px" viewBox="0 0 24 24" enable-background="new 0 0 24 24" xml:space="preserve">
<g id="Layer_2">
	<g>
		<g>
			<path d="M18.27,16.566c0,0-0.002,0-0.002,0.002l-4.049-2.037c0.182-0.807,0.033-1.672-0.445-2.381l0.742-0.596
				c0.854,0.527,1.982,0.426,2.721-0.313c0.865-0.863,0.865-2.262,0-3.125c-0.861-0.863-2.26-0.863-3.125,0
				c-0.756,0.758-0.848,1.93-0.275,2.789l-0.699,0.56c-0.481-0.382-1.05-0.601-1.631-0.652l-0.4-3.435
				c0.316-0.146,0.614-0.348,0.875-0.608c1.196-1.196,1.196-3.135,0-4.331s-3.134-1.196-4.33,0c-1.196,1.196-1.196,3.135,0,4.331
				C8.163,7.28,8.814,7.572,9.483,7.644l0.709,3.338c-0.41,0.148-0.796,0.384-1.125,0.712c-0.154,0.154-0.288,0.321-0.403,0.497
				l-2.244-1.126c0.019-0.324-0.092-0.653-0.34-0.901c-0.461-0.461-1.208-0.461-1.669,0c-0.461,0.461-0.461,1.208,0,1.669
				c0.436,0.436,1.125,0.455,1.589,0.066l2.283,1.146c-0.161,0.588-0.144,1.211,0.052,1.791l-3.062,2.141
				c-1.191-0.805-2.822-0.682-3.876,0.373c-1.195,1.195-1.195,3.133,0,4.33c1.195,1.195,3.134,1.195,4.33-0.002
				c0.832-0.83,1.083-2.021,0.759-3.072l2.584-2.582c0.466,0.467,1.048,0.75,1.652,0.852l0.123,1.482
				c-0.244,0.098-0.471,0.244-0.668,0.441c-0.784,0.785-0.784,2.055-0.001,2.838c0.784,0.783,2.055,0.783,2.838,0
				c0.783-0.785,0.783-2.053,0-2.838c-0.348-0.346-0.79-0.531-1.244-0.57l-0.11-1.342c0.636-0.088,1.25-0.373,1.74-0.863
				c0.053-0.053,0.1-0.107,0.148-0.164l3.848,2.537c-0.098,0.891,0.191,1.816,0.875,2.498c1.195,1.195,3.135,1.195,4.332,0
				c1.195-1.195,1.195-3.135,0-4.33C21.404,15.371,19.467,15.371,18.27,16.566z"/>
		</g>
	</g>
	<g>
		<path d="M23.499,14.084c0,0.459-0.371,0.832-0.831,0.832c-0.392,0-0.717-0.271-0.807-0.635l-4.934-0.711
			c-0.126,0.459-0.32,0.893-0.571,1.285l2.456,1.557c0.274-0.307,0.67-0.498,1.111-0.498c0.827,0,1.497,0.67,1.497,1.496
			s-0.67,1.496-1.497,1.496c-0.825,0-1.495-0.67-1.495-1.496c0-0.205,0.041-0.4,0.116-0.578l-2.48-1.572
			c-0.615,0.764-1.469,1.324-2.445,1.58l0.441,2.734c0.578,0.021,1.042,0.494,1.042,1.076c0,0.598-0.484,1.082-1.079,1.082
			c-0.598,0-1.082-0.484-1.082-1.082c0-0.434,0.26-0.807,0.631-0.979l-0.442-2.734c-0.226,0.033-0.452,0.057-0.687,0.057
			c-0.632,0-1.234-0.129-1.784-0.357l-1.978,5.369c0.121,0.113,0.196,0.273,0.196,0.453c0,0.344-0.278,0.623-0.623,0.623
			S7.63,22.803,7.63,22.459c0-0.33,0.257-0.598,0.58-0.621l1.998-5.418c-0.404-0.221-0.772-0.5-1.092-0.828l-3.075,2.246
			c-0.006,0.408-0.337,0.734-0.747,0.734c-0.413,0-0.748-0.334-0.748-0.746c0-0.414,0.334-0.748,0.748-0.748
			c0.231,0,0.435,0.105,0.572,0.27l2.921-2.133c-0.449-0.568-0.768-1.242-0.911-1.98l-4.557,0.428
			c-0.079,0.705-0.678,1.252-1.404,1.252c-0.781,0-1.414-0.631-1.414-1.412c0-0.779,0.633-1.414,1.414-1.414
			c0.664,0,1.219,0.457,1.37,1.074l4.523-0.424c-0.011-0.133-0.021-0.266-0.021-0.4c0-0.921,0.271-1.777,0.732-2.5L7.514,9.082
			c-0.236,0.214-0.546,0.347-0.89,0.347c-0.735,0-1.331-0.595-1.331-1.331c0-0.733,0.596-1.33,1.331-1.33s1.331,0.596,1.331,1.33
			c0,0.211-0.054,0.408-0.141,0.585l0.995,0.75c0.632-0.79,1.515-1.364,2.529-1.612l-0.931-5.303
			c-0.354-0.06-0.624-0.365-0.624-0.735c0-0.414,0.334-0.749,0.748-0.749s0.748,0.335,0.748,0.749c0,0.279-0.155,0.519-0.382,0.647
			l0.93,5.298c0.202-0.026,0.407-0.045,0.615-0.045c0.524,0,1.03,0.09,1.501,0.251l1.063-2.967c-0.12-0.113-0.197-0.274-0.197-0.452
			c0-0.344,0.281-0.623,0.625-0.623c0.345,0,0.624,0.279,0.624,0.623c0,0.33-0.257,0.597-0.58,0.62l-1.073,2.987
			c0.721,0.338,1.342,0.854,1.805,1.494l3.316-1.896c-0.037-0.116-0.062-0.239-0.062-0.367c0-0.668,0.539-1.209,1.207-1.209
			c0.666,0,1.207,0.541,1.207,1.209c0,0.666-0.541,1.207-1.207,1.207c-0.359,0-0.678-0.159-0.898-0.407l-3.29,1.88
			c0.389,0.681,0.613,1.467,0.613,2.307c0,0.253-0.026,0.5-0.063,0.742l4.86,0.701c0.124-0.309,0.421-0.529,0.773-0.529
			C23.126,13.252,23.499,13.625,23.499,14.084z"/>
	</g>
	<g>
		<path d="M1.95,6.113l0.056,11.904c0.001,0.154,0.084,0.293,0.22,0.365l9.509,4.98c0.062,0.033,0.129,0.049,0.197,0.049
			c0.001,0,0.001,0,0.001,0c0.028,0.033,0.061,0.062,0.099,0.086c0.066,0.039,0.14,0.059,0.214,0.059
			c0.069,0,0.136-0.018,0.199-0.049l9.389-5.092c0.135-0.074,0.219-0.215,0.219-0.367V5.662c0-0.003-0.002-0.007-0.002-0.011
			c0-0.003,0.002-0.005,0.002-0.009c-0.002-0.011-0.006-0.022-0.006-0.034c-0.004-0.023-0.008-0.047-0.016-0.067
			c-0.004-0.017-0.01-0.03-0.016-0.045c-0.01-0.019-0.018-0.037-0.029-0.056c-0.01-0.013-0.02-0.026-0.029-0.039
			c-0.014-0.016-0.029-0.031-0.043-0.045c-0.012-0.011-0.025-0.021-0.039-0.031c-0.01-0.007-0.016-0.015-0.025-0.021
			c-0.01-0.005-0.02-0.008-0.029-0.012c-0.008-0.004-0.016-0.01-0.023-0.014l-9.674-4.687c-0.113-0.048-0.241-0.042-0.351,0.012
			L2.208,5.588C2.067,5.659,1.979,5.803,1.979,5.96c0,0.002,0.001,0.004,0.001,0.006C1.962,6.013,1.95,6.062,1.95,6.113z
			 M20.67,5.709l-8.43,4.712L3.316,5.965l8.658-4.529L20.67,5.709z M12.662,22.439V11.141l8.553-4.78v11.438L12.662,22.439z"/>
	</g>
	<g>
		<path id="DZone_2_" d="M21.698,6.048c-0.844,0-1.548,0.587-1.746,1.376l-7.983-2.646c-0.004-0.567-0.459-1.025-1.021-1.025
			c-0.564,0-1.021,0.461-1.021,1.033c0,0.271,0.104,0.517,0.272,0.702l-8.434,9.647C1.666,15.1,1.56,15.08,1.448,15.08
			c-0.522,0-0.946,0.43-0.946,0.957c0,0.531,0.424,0.961,0.946,0.961c0.371,0,0.692-0.217,0.847-0.531l7.664,1.834
			c-0.024,0.113-0.038,0.23-0.038,0.352c0,0.945,0.758,1.711,1.691,1.711c0.933,0,1.689-0.766,1.689-1.711
			c0-0.172-0.024-0.338-0.071-0.494l5.869-2.428c0.163,0.168,0.392,0.273,0.644,0.273c0.504,0,0.912-0.414,0.912-0.924
			c0-0.305-0.146-0.574-0.371-0.742l0.958-4.699c0.146,0.038,0.3,0.06,0.457,0.06c0.996,0,1.801-0.816,1.801-1.825
			C23.501,6.867,22.694,6.048,21.698,6.048z M11.551,5.619l3.596,4.398L11.495,11.5l-0.224-5.733
			C11.373,5.732,11.465,5.681,11.551,5.619z M10.944,5.82l0.228,5.811l-1.668,0.677c-0.072-0.138-0.174-0.256-0.297-0.348
			l1.407-6.198C10.718,5.798,10.828,5.819,10.944,5.82z M9.622,12.791c0-0.062-0.006-0.127-0.016-0.188l1.578-0.64l0.196,4.998
			c-0.142,0.018-0.278,0.055-0.406,0.107l-1.669-3.529C9.5,13.352,9.622,13.088,9.622,12.791z M12.646,17.301
			c-0.263-0.207-0.587-0.336-0.939-0.355l-0.199-5.113l3.848-1.561l1.74,2.129L12.646,17.301z M15.59,10.176l4.381-1.778
			c0.06,0.197,0.149,0.38,0.268,0.544l-2.979,3.277L15.59,10.176z M19.909,8.085l-4.527,1.836l-3.655-4.47
			c0.102-0.121,0.176-0.265,0.213-0.426l7.968,2.641c-0.008,0.069-0.014,0.138-0.014,0.208C19.894,7.945,19.899,8.016,19.909,8.085z
			 M10.381,5.647c0.004,0,0.007,0.004,0.011,0.005l-1.405,6.184c-0.118-0.05-0.25-0.079-0.386-0.079
			c-0.563,0-1.021,0.464-1.021,1.034c0,0.098,0.013,0.191,0.038,0.279l-5.544,2.25c-0.028-0.025-0.056-0.049-0.087-0.07
			L10.381,5.647z M2.375,16.236c0.013-0.066,0.021-0.131,0.021-0.199c0-0.166-0.043-0.324-0.118-0.461l5.47-2.219
			c0.182,0.281,0.497,0.469,0.854,0.469c0.184,0,0.356-0.051,0.505-0.137l1.651,3.488c-0.335,0.197-0.597,0.514-0.732,0.889
			L2.375,16.236z M13.142,17.93c-0.081-0.172-0.188-0.332-0.316-0.467l4.425-4.873l1.686,2.062
			c-0.067,0.127-0.103,0.273-0.103,0.428c0,0.164,0.041,0.318,0.116,0.451L13.142,17.93z M20.064,14.217
			c-0.102-0.039-0.21-0.061-0.32-0.061c-0.262,0-0.498,0.111-0.664,0.291l-1.666-2.039l2.978-3.277
			c0.174,0.184,0.386,0.331,0.62,0.43L20.064,14.217z"/>
	</g>
	<g>
		<path d="M12,0.56C5.649,0.562,0.503,5.708,0.501,12.057c0.001,6.352,5.148,11.5,11.498,11.5c6.35-0.002,11.498-5.148,11.5-11.5
			C23.497,5.708,18.35,0.562,12,0.56z M8.788,2.533C8.015,3.427,7.183,4.671,6.549,6.309H3.755C4.975,4.564,6.732,3.229,8.788,2.533
			z M2.924,7.746h3.153c-0.282,1.058-0.466,2.257-0.517,3.594H1.977C2.069,10.06,2.399,8.849,2.924,7.746z M1.977,12.777h3.584
			c0.051,1.336,0.234,2.535,0.517,3.592H2.926C2.4,15.268,2.07,14.059,1.977,12.777z M3.758,17.807h2.793
			c0.632,1.635,1.462,2.881,2.236,3.773C6.732,20.887,4.976,19.551,3.758,17.807z M11.283,21.969
			c-0.677-0.508-2.15-1.797-3.187-4.162h3.187V21.969z M11.283,16.369H7.567c-0.309-1.033-0.514-2.23-0.571-3.594h4.287V16.369z
			 M11.283,11.34H6.999c0.059-1.369,0.27-2.562,0.578-3.594h3.706V11.34z M11.283,6.309H8.092c0.38-0.865,0.818-1.587,1.254-2.18
			c0.589-0.8,1.176-1.365,1.61-1.727c0.125-0.104,0.231-0.187,0.327-0.256V6.309z M22.022,11.34h-3.583
			c-0.05-1.336-0.235-2.536-0.518-3.594h3.153C21.601,8.849,21.933,10.06,22.022,11.34z M20.246,6.309h-2.795
			c-0.634-1.639-1.465-2.882-2.24-3.776C17.271,3.229,19.027,4.564,20.246,6.309z M12.721,6.31V2.148
			c0.675,0.507,2.148,1.799,3.185,4.163L12.721,6.31L12.721,6.31z M12.721,7.746h3.713c0.309,1.031,0.513,2.231,0.57,3.594h-4.283
			V7.746z M12.721,12.775h4.282c-0.061,1.369-0.27,2.561-0.579,3.594h-3.703V12.775z M13.046,21.713
			c-0.126,0.104-0.231,0.186-0.325,0.256v-4.16h3.187c-0.378,0.863-0.817,1.584-1.252,2.178
			C14.068,20.785,13.479,21.354,13.046,21.713z M15.213,21.58c0.773-0.893,1.604-2.139,2.237-3.773h2.794
			C19.023,19.551,17.269,20.887,15.213,21.58z M21.073,16.369h-3.15c0.281-1.057,0.467-2.256,0.517-3.594h3.583
			C21.931,14.057,21.601,15.268,21.073,16.369z"/>
	</g>
	<g>
		<g id="c71_play">
			<path d="M2.814,3.508V1.462h2.05v2.046H2.814z M6.978,3.508V1.462h2.051v2.046H6.978z M11.313,3.508V1.462h2.053v2.046H11.313z
				 M15.479,3.508V1.462h2.048v2.046H15.479z M19.467,3.508V1.462h2.05v2.046H19.467z M2.964,15.35V4.739h18.195v10.608H2.964V15.35
				z M2.814,18.631v-2.054h2.05v2.054H2.814z M6.978,18.631v-2.054h2.051v2.054H6.978z M11.313,18.631v-2.054h2.053v2.054H11.313z
				 M15.479,18.631v-2.054h2.048v2.054H15.479z M19.467,18.631v-2.054h2.05v2.054H19.467z M22.98,0.501H1.016
				C0.731,0.501,0.5,0.689,0.5,0.927v18.179c0,0.232,0.231,0.427,0.516,0.427H22.98c0.286,0,0.517-0.194,0.517-0.427V0.927
				C23.497,0.689,23.267,0.501,22.98,0.501z"/>
			<path d="M9.818,6.176c0.061-0.028,0.131-0.02,0.186,0.021l5.767,3.681c0.04,0.034,0.064,0.085,0.064,0.137
				s-0.024,0.103-0.064,0.136l-5.767,3.683c-0.033,0.024-0.07,0.039-0.111,0.039l-0.074-0.018c-0.059-0.027-0.097-0.091-0.097-0.155
				V6.333C9.722,6.266,9.76,6.206,9.818,6.176z"/>
		</g>
		<g id="Capa_1">
		</g>
	</g>
	<g>
		<path d="M22.062,3.434v1.438h-2.875V3.434H4.813v1.438H1.939V3.434H0.501v17.248h1.438v-1.438h2.875v1.438h14.373v-1.438h2.875
			v1.438h1.438V3.434H22.062z M4.813,16.371H1.939v-2.877h2.875V16.371z M4.813,10.62H1.939V7.746h2.875V10.62z M22.062,16.371
			h-2.875v-2.877h2.875V16.371z M22.062,10.62h-2.875V7.746h2.875V10.62z"/>
	</g>
	<g>
		<g>
			<path d="M11.914,7.388c-1.839,0-3.335-1.497-3.335-3.335s1.496-3.335,3.335-3.335c1.84,0,3.335,1.496,3.335,3.335
				S13.754,7.388,11.914,7.388z"/>
		</g>
		<g>
			<path d="M3.836,7.388c-1.839,0-3.335-1.497-3.335-3.335s1.496-3.335,3.335-3.335c1.838,0,3.335,1.496,3.335,3.335
				S5.675,7.388,3.836,7.388z"/>
		</g>
		<g>
			<path d="M20.163,7.388c-1.838,0-3.335-1.497-3.335-3.335s1.497-3.335,3.335-3.335s3.336,1.496,3.336,3.335
				S22.003,7.388,20.163,7.388z"/>
		</g>
		<g>
			<path d="M11.914,15.404c-1.839,0-3.335-1.496-3.335-3.333c0-1.839,1.496-3.335,3.335-3.335c1.84,0,3.335,1.498,3.335,3.335
				C15.249,13.908,13.754,15.404,11.914,15.404z"/>
		</g>
		<g>
			<path d="M3.836,15.404c-1.839,0-3.335-1.496-3.335-3.333c0-1.839,1.496-3.335,3.335-3.335c1.839,0,3.335,1.498,3.335,3.335
				C7.171,13.908,5.676,15.404,3.836,15.404z"/>
		</g>
		<g>
			<path d="M20.163,15.404c-1.838,0-3.335-1.496-3.335-3.333c0-1.839,1.497-3.335,3.335-3.335c1.84,0,3.336,1.498,3.336,3.335
				C23.499,13.908,22.003,15.404,20.163,15.404z"/>
		</g>
		<g>
			<path d="M11.914,23.398c-1.839,0-3.335-1.496-3.335-3.336c0-1.838,1.496-3.336,3.335-3.336c1.84,0,3.335,1.498,3.335,3.336
				C15.249,21.902,13.754,23.398,11.914,23.398z"/>
		</g>
		<g>
			<path d="M3.836,23.398c-1.839,0-3.335-1.496-3.335-3.336c0-1.838,1.496-3.336,3.335-3.336c1.839,0,3.335,1.498,3.335,3.336
				C7.171,21.902,5.676,23.398,3.836,23.398z"/>
		</g>
		<g>
			<path d="M20.163,23.398c-1.838,0-3.335-1.496-3.335-3.336c0-1.838,1.497-3.336,3.335-3.336c1.84,0,3.336,1.498,3.336,3.336
				C23.499,21.902,22.003,23.398,20.163,23.398z"/>
		</g>
	</g>
	<g>
		<g>
			<g>
				<path d="M0.991,19.566c-0.27,0-0.489,0.219-0.489,0.488v1.32c0,0.27,0.22,0.49,0.489,0.49H23.01c0.268,0,0.489-0.221,0.489-0.49
					v-1.32c0-0.27-0.222-0.488-0.489-0.488H0.991z"/>
			</g>
			<g>
				<path d="M9.91,18.77c0.268,0,0.59-0.195,0.712-0.436l0.987-1.926c0.124-0.238,0.028-0.535-0.211-0.658l-0.938-0.48
					c-0.239-0.125-0.536-0.027-0.658,0.211l-0.083,0.162c-0.122,0.24-0.323,0.24-0.446,0L2.554,2.542
					C2.432,2.303,2.135,2.207,1.896,2.331l-0.94,0.481C0.717,2.934,0.621,3.23,0.744,3.469l7.623,14.865
					C8.49,18.572,8.81,18.77,9.08,18.77H9.91z"/>
			</g>
			<g>
				<path d="M23.34,3.306c0.076-0.15-0.057-0.372-0.296-0.494l-0.939-0.481c-0.239-0.124-0.498-0.102-0.575,0.048
					c-0.074,0.148,0.057,0.371,0.298,0.495l0.938,0.481C23.005,3.478,23.263,3.455,23.34,3.306z"/>
			</g>
			<g>
				<path d="M15.837,13.482c-0.124,0.24-0.028,0.535,0.211,0.658l0.939,0.482c0.24,0.123,0.535,0.027,0.659-0.213l0.131-0.256
					c0.123-0.24,0.028-0.535-0.212-0.658l-0.939-0.482c-0.239-0.123-0.537-0.027-0.658,0.213L15.837,13.482z"/>
			</g>
			<g>
				<path d="M18.932,11.901c0.124-0.239,0.028-0.537-0.211-0.659l-0.939-0.48c-0.238-0.124-0.535-0.028-0.659,0.211l-0.131,0.256
					c-0.122,0.24-0.026,0.536,0.212,0.659l0.939,0.481c0.237,0.123,0.535,0.025,0.658-0.212L18.932,11.901z"/>
			</g>
			<g>
				<path d="M22.4,5.14c0.121-0.24,0.025-0.536-0.214-0.659L21.249,4c-0.239-0.124-0.535-0.028-0.659,0.211l-0.133,0.256
					c-0.121,0.24-0.025,0.536,0.212,0.659l0.941,0.481c0.237,0.124,0.535,0.028,0.658-0.211L22.4,5.14z"/>
			</g>
			<g>
				<path d="M21.243,7.393c0.124-0.24,0.028-0.535-0.211-0.659l-0.939-0.481c-0.24-0.123-0.535-0.028-0.657,0.212l-0.133,0.255
					c-0.124,0.239-0.028,0.536,0.211,0.659l0.94,0.481c0.239,0.124,0.535,0.028,0.658-0.212L21.243,7.393z"/>
			</g>
			<g>
				<path d="M19.299,10.116c0.239,0.122,0.537,0.027,0.659-0.212l0.131-0.256c0.123-0.24,0.028-0.536-0.214-0.658l-0.938-0.483
					c-0.239-0.122-0.535-0.026-0.658,0.213l-0.132,0.255c-0.123,0.239-0.029,0.537,0.212,0.66L19.299,10.116z"/>
			</g>
			<g>
				<path d="M18.331,3.306c0.077-0.15-0.056-0.372-0.297-0.494l-0.938-0.481c-0.239-0.124-0.499-0.102-0.574,0.048
					c-0.077,0.148,0.056,0.371,0.294,0.495l0.939,0.481C17.996,3.478,18.253,3.455,18.331,3.306z"/>
			</g>
			<g>
				<path d="M10.73,13.67c-0.072,0.135,0.027,0.326,0.218,0.424c0.189,0.1,0.447,0.375,0.57,0.613l1.859,3.627
					c0.124,0.238,0.444,0.436,0.714,0.436h0.828c0.27,0,0.59-0.195,0.714-0.436l0.988-1.926c0.123-0.238,0.027-0.535-0.214-0.658
					l-0.939-0.48c-0.237-0.125-0.535-0.027-0.657,0.211l-0.084,0.162c-0.121,0.24-0.322,0.24-0.445,0l-1.643-3.206
					c-0.124-0.239-0.029-0.335,0.211-0.212l0.282,0.145c0.24,0.123,0.535,0.027,0.659-0.212l0.131-0.256
					c0.124-0.239,0.028-0.537-0.212-0.659l-0.938-0.48c-0.24-0.124-0.512-0.077-0.604,0.103c-0.092,0.182-0.269,0.133-0.391-0.106
					L7.563,2.542C7.441,2.303,7.144,2.207,6.904,2.331L5.966,2.812C5.726,2.934,5.63,3.229,5.754,3.469l4.88,9.515
					C10.757,13.225,10.8,13.533,10.73,13.67z"/>
			</g>
			<g>
				<path d="M17.39,5.14c0.124-0.24,0.028-0.536-0.213-0.659L16.241,4c-0.242-0.124-0.537-0.028-0.659,0.211l-0.133,0.256
					c-0.124,0.24-0.028,0.536,0.213,0.659L16.6,5.607c0.24,0.124,0.536,0.028,0.659-0.211L17.39,5.14z"/>
			</g>
			<g>
				<path d="M15.078,9.648c0.122-0.24,0.028-0.537-0.211-0.659l-0.939-0.483c-0.238-0.122-0.535-0.026-0.659,0.213l-0.131,0.255
					c-0.123,0.239-0.028,0.537,0.212,0.66l0.939,0.482c0.237,0.122,0.535,0.027,0.658-0.211L15.078,9.648z"/>
			</g>
			<g>
				<path d="M16.235,7.393c0.123-0.24,0.028-0.535-0.212-0.658l-0.941-0.482c-0.239-0.123-0.535-0.028-0.658,0.212l-0.132,0.255
					c-0.121,0.239-0.025,0.536,0.214,0.659l0.938,0.481c0.239,0.124,0.535,0.028,0.659-0.211L16.235,7.393z"/>
			</g>
		</g>
	</g>
	<g>
		<path d="M23.408,13.117v7.947c0,1.373-1.119,2.492-2.492,2.492H3.054c-1.375,0-2.494-1.119-2.494-2.492V3.222
			c0-1.374,1.119-2.493,2.494-2.493h7.968c-0.429,0.439-0.714,1.022-0.777,1.667H3.054c-0.457,0-0.827,0.371-0.827,0.826v17.843
			c0,0.455,0.37,0.826,0.827,0.826h17.862c0.455,0,0.826-0.371,0.826-0.826v-7.172C22.369,13.834,22.951,13.564,23.408,13.117z
			 M13.727,3.058h5.445l-8.815,8.816c-0.488,0.488-0.488,1.28,0,1.769c0.488,0.486,1.279,0.486,1.766,0l8.816-8.817v5.446
			c0,0.69,0.559,1.25,1.25,1.25c0.346,0,0.658-0.139,0.883-0.366c0.227-0.228,0.367-0.538,0.367-0.884V1.808
			c0-0.689-0.559-1.249-1.25-1.249h-8.463c-0.691,0-1.25,0.56-1.25,1.25C12.476,2.499,13.035,3.058,13.727,3.058z"/>
	</g>
	<g>
		<g>
			<path d="M11.999,5.728c1.443,0,2.613-1.172,2.613-2.614s-1.17-2.612-2.613-2.612c-1.444,0-2.613,1.17-2.613,2.612
				S10.555,5.728,11.999,5.728z M11.999,1.545c0.865,0,1.567,0.704,1.567,1.568c0,0.866-0.702,1.568-1.567,1.568
				c-0.866,0-1.568-0.702-1.568-1.568C10.431,2.249,11.133,1.545,11.999,1.545z"/>
			<path d="M3.113,5.728c1.443,0,2.613-1.172,2.613-2.614s-1.17-2.612-2.613-2.612S0.5,1.671,0.5,3.113S1.67,5.728,3.113,5.728z
				 M3.113,1.545c0.865,0,1.568,0.704,1.568,1.568c0,0.866-0.703,1.568-1.568,1.568S1.545,3.979,1.545,3.113
				C1.545,2.249,2.248,1.545,3.113,1.545z"/>
			<path d="M20.884,22.453c1.443,0,2.613-1.171,2.613-2.613c0-1.445-1.17-2.613-2.613-2.613c-1.444,0-2.612,1.168-2.612,2.613
				C18.271,21.282,19.439,22.453,20.884,22.453z M20.884,18.271c0.865,0,1.568,0.702,1.568,1.568c0,0.865-0.703,1.567-1.568,1.567
				c-0.866,0-1.568-0.702-1.568-1.567C19.315,18.974,20.018,18.271,20.884,18.271z"/>
			<path d="M3.113,14.089c1.443,0,2.613-1.168,2.613-2.613c0-1.442-1.17-2.613-2.613-2.613S0.5,10.033,0.5,11.476
				C0.5,12.921,1.67,14.089,3.113,14.089z M3.113,9.909c0.865,0,1.568,0.701,1.568,1.566s-0.703,1.568-1.568,1.568
				s-1.568-0.703-1.568-1.568S2.248,9.909,3.113,9.909z"/>
			<path d="M20.884,5.728c1.443,0,2.613-1.172,2.613-2.614s-1.17-2.612-2.613-2.612c-1.444,0-2.612,1.17-2.612,2.612
				S19.439,5.728,20.884,5.728z M20.884,1.545c0.865,0,1.568,0.704,1.568,1.568c0,0.866-0.703,1.568-1.568,1.568
				c-0.866,0-1.568-0.702-1.568-1.568C19.315,2.249,20.018,1.545,20.884,1.545z"/>
			<path d="M11.999,14.089c1.443,0,2.613-1.168,2.613-2.613c0-1.442-1.17-2.613-2.613-2.613c-1.444,0-2.613,1.171-2.613,2.613
				C9.386,12.921,10.555,14.089,11.999,14.089z M11.999,9.909c0.865,0,1.567,0.701,1.567,1.566s-0.702,1.568-1.567,1.568
				c-0.866,0-1.568-0.703-1.568-1.568S11.133,9.909,11.999,9.909z"/>
			<path d="M20.884,14.089c1.443,0,2.613-1.168,2.613-2.613c0-1.442-1.17-2.613-2.613-2.613c-1.444,0-2.612,1.171-2.612,2.613
				C18.271,12.921,19.439,14.089,20.884,14.089z M20.884,9.909c0.865,0,1.568,0.701,1.568,1.566s-0.703,1.568-1.568,1.568
				c-0.866,0-1.568-0.703-1.568-1.568S20.018,9.909,20.884,9.909z"/>
			<path d="M11.999,22.453c1.443,0,2.613-1.171,2.613-2.613c0-1.445-1.17-2.613-2.613-2.613c-1.444,0-2.613,1.168-2.613,2.613
				C9.386,21.282,10.555,22.453,11.999,22.453z M11.999,18.271c0.865,0,1.567,0.702,1.567,1.568c0,0.865-0.702,1.567-1.567,1.567
				c-0.866,0-1.568-0.702-1.568-1.567C10.431,18.974,11.133,18.271,11.999,18.271z"/>
			<path d="M3.113,22.453c1.443,0,2.613-1.171,2.613-2.613c0-1.445-1.17-2.613-2.613-2.613S0.5,18.395,0.5,19.84
				C0.5,21.282,1.67,22.453,3.113,22.453z M3.113,18.271c0.865,0,1.568,0.702,1.568,1.568c0,0.865-0.703,1.567-1.568,1.567
				s-1.568-0.702-1.568-1.567C1.545,18.974,2.248,18.271,3.113,18.271z"/>
		</g>
	</g>
	<g>
		<g>
			<polygon points="17.111,1.73 6.891,1.73 12.002,10.582"/>
			<polygon points="5.612,2.468 0.501,11.32 10.724,11.32"/>
			<polygon points="23.499,11.32 18.39,2.468 13.278,11.32"/>
			<polygon points="18.39,21.648 23.499,12.795 13.278,12.795"/>
			<polygon points="0.501,12.795 5.612,21.648 10.724,12.795"/>
			<polygon points="6.891,22.385 17.111,22.385 12.002,13.533"/>
		</g>
	</g>
	<g>
		<g>
			<path d="M23.499,13.02l-3.195-6.242l-0.062-0.052l-6.104-1.878l-4.1,1.597L7.398,3.406H7.259L4.136,3.791L1.968,6.649
				L1.872,6.777L1.827,6.93l-1.278,4.382l-0.047,0.161l0.042,0.127l1.891,5.817l5.771,3.291l0.111-0.004l3.738-2.496l0.095-0.059
				l5.548-3.121l0.105-0.039l5.635-1.822L23.499,13.02z M23.193,12.885l-6.311-2.144l3.305-3.731L23.193,12.885z M11.962,17.914
				l-4.335-2.5l4.686-1.006L11.962,17.914z M4.631,10.254l1.682-3.188l1.714,4.512L4.631,10.254z M16.482,10.552l-2.734-1.478
				l-0.002-0.108l0.441-3.65L16.482,10.552z M14.318,5.091l5.707,1.786l-3.296,3.72L14.318,5.091z M8.127,13.041l0.342-1.165
				l3.824,2.321l-4.798,1.029L8.127,13.041z M8.618,11.721l4.874-2.511L12.372,14L8.618,11.721z M9.935,6.685l3.495,2.322
				L8.57,11.51L9.935,6.685z M8.315,11.641l-0.033,0.017L6.517,7.013l3.195-0.311L8.315,11.641z M8.244,11.887l-0.31,1.074
				l-0.63,2.152l-2.578-4.597L8.244,11.887z M12.57,14.078l1.119-4.797l2.824,1.527l-3.874,3.28L12.57,14.078z M16.638,10.979
				l0.903,3.817l-4.624-0.668L16.638,10.979z M13.55,8.833l-3.324-2.239l3.778-1.509L13.55,8.833z M9.795,6.484L6.449,6.81
				l0.047-0.089H6.464l0.919-3.007L9.795,6.484z M4.25,3.988l2.942-0.362L6.245,6.721H2.178L4.25,3.988z M6.149,6.93L4.47,10.112
				L2.171,6.93H6.149z M2.007,7.061l2.304,3.192l-3.545,1.063L2.007,7.061z M4.439,10.433l2.633,4.696l-6.199-3.626L4.439,10.433z
				 M0.798,11.703l6.262,3.665l-4.448,1.805L0.798,11.703z M7.282,15.504l0.076,0.135l0.763,4.779l-5.335-3.09L7.282,15.504z
				 M8.336,20.441l-0.77-4.82l4.287,2.473L8.336,20.441z M12.175,17.896l0.353-3.535l0.15-0.031l0.025-0.021l4.655,0.674
				L12.175,17.896z M16.846,10.951l6.227,2.114l-5.317,1.723L16.846,10.951z"/>
		</g>
	</g>
	<g>
		<g>
			<polygon points="5.36,4.523 5.36,7.697 8.108,6.109"/>
			<polygon points="5.36,8.488 5.36,11.661 8.108,10.075"/>
			<polygon points="5.36,16.42 5.36,19.592 8.108,18.006"/>
			<polygon points="5.59,19.988 8.337,21.576 8.337,18.402"/>
			<polygon points="5.59,12.058 8.337,13.645 8.337,10.472"/>
			<polygon points="5.59,8.092 8.337,9.679 8.337,6.506"/>
			<polygon points="5.59,4.126 8.337,5.713 8.337,2.541"/>
			<polygon points="8.795,2.541 8.795,5.713 11.542,4.126"/>
			<polygon points="8.795,6.506 8.795,9.679 11.542,8.092"/>
			<polygon points="8.795,10.472 8.795,13.645 11.542,12.058"/>
			<polygon points="8.795,14.438 8.795,17.609 11.542,16.023"/>
			<polygon points="8.795,18.402 8.795,21.576 11.542,19.988"/>
			<polygon points="9.024,21.971 11.771,23.557 11.771,20.387"/>
			<polygon points="9.024,18.006 11.771,19.592 11.771,16.42"/>
			<polygon points="9.024,14.041 11.771,15.627 11.771,12.454"/>
			<polygon points="9.024,10.075 11.771,11.661 11.771,8.488"/>
			<polygon points="9.024,2.144 11.771,3.731 11.771,0.559"/>
			<polygon points="1.927,6.506 1.927,9.679 4.674,8.092"/>
			<polygon points="1.927,10.472 1.927,13.645 4.674,12.058"/>
			<polygon points="1.927,14.438 1.927,17.609 4.674,16.023"/>
			<polygon points="2.156,18.006 4.903,19.592 4.903,16.42"/>
			<polygon points="2.156,14.041 4.903,15.627 4.903,12.454"/>
			<polygon points="2.156,10.075 4.903,11.661 4.903,8.488"/>
			<polygon points="2.156,6.109 4.903,7.697 4.903,4.523"/>
			<polygon points="12.228,0.559 12.228,3.731 14.975,2.144"/>
			<polygon points="12.228,8.488 12.228,11.661 14.975,10.075"/>
			<polygon points="12.228,12.454 12.228,15.627 14.975,14.041"/>
			<polygon points="12.228,16.42 12.228,19.592 14.975,18.006"/>
			<polygon points="12.228,20.387 12.228,23.557 14.975,21.971"/>
			<polygon points="12.458,19.988 15.203,21.576 15.203,18.402"/>
			<polygon points="12.458,16.023 15.203,17.609 15.203,14.438"/>
			<polygon points="12.458,12.058 15.203,13.645 15.203,10.472"/>
			<polygon points="12.458,8.092 15.203,9.679 15.203,6.506"/>
			<polygon points="12.458,4.126 15.203,5.713 15.203,2.541"/>
			<polygon points="15.662,2.541 15.662,5.713 18.41,4.126"/>
			<polygon points="15.662,6.506 15.662,9.679 18.41,8.092"/>
			<polygon points="15.662,10.472 15.662,13.645 18.41,12.058"/>
			<polygon points="15.662,18.402 15.662,21.576 18.41,19.988"/>
			<polygon points="15.893,18.006 18.639,19.592 18.639,16.42"/>
			<polygon points="15.893,10.075 18.639,11.661 18.639,8.488"/>
			<polygon points="15.893,6.109 18.639,7.697 18.639,4.523"/>
			<polygon points="19.096,4.523 19.096,7.697 21.846,6.109"/>
			<polygon points="19.096,8.488 19.096,11.661 21.846,10.075"/>
			<polygon points="19.096,12.454 19.096,15.627 21.846,14.041"/>
			<polygon points="19.096,16.42 19.096,19.592 21.846,18.006"/>
			<polygon points="19.328,16.023 22.074,17.609 22.074,14.438"/>
			<polygon points="19.328,12.058 22.074,13.645 22.074,10.472"/>
			<polygon points="19.328,8.092 22.074,9.679 22.074,6.506"/>
		</g>
	</g>
	<g>
		<path d="M0.501,0.559v22.998h22.998V0.559H0.501z M22.758,11.686H12.372V1.3h10.386V11.686z M11.63,1.3v10.386H1.244V1.3H11.63z
			 M1.244,12.428H11.63v10.386H1.244V12.428z M12.372,22.814V12.428h10.386v10.386H12.372z"/>
	</g>
</g>
<g id="scene">
	<g id="point-cloud">
		<path d="M2.35,9.212c1.02,0,1.848-0.828,1.848-1.848S3.37,5.516,2.35,5.516c-1.021,0-1.849,0.828-1.849,1.848
			S1.329,9.212,2.35,9.212z M8.509,14.346c1.021,0,1.849-0.826,1.849-1.847c0-1.021-0.827-1.849-1.849-1.849
			c-1.02,0-1.847,0.828-1.847,1.849C6.662,13.52,7.49,14.346,8.509,14.346z M17.957,14.789c1.018,0,1.847-0.826,1.847-1.848
			c0-1.02-0.829-1.847-1.847-1.847c-1.021,0-1.85,0.828-1.85,1.847C16.107,13.963,16.936,14.789,17.957,14.789z M19.804,19.209
			c0,1.021,0.828,1.848,1.848,1.848c1.021,0,1.848-0.826,1.848-1.848c0-1.02-0.827-1.848-1.848-1.848
			C20.632,17.361,19.804,18.189,19.804,19.209z M19.804,5.832c1.021,0,1.848-0.828,1.848-1.849c0-1.02-0.827-1.848-1.848-1.848
			c-1.02,0-1.847,0.828-1.847,1.848C17.957,5.003,18.784,5.832,19.804,5.832z M2.35,19.209c1.02,0,1.848-0.828,1.848-1.848
			s-0.828-1.85-1.848-1.85c-1.021,0-1.849,0.83-1.849,1.85S1.329,19.209,2.35,19.209z M8.509,20.133
			c0,1.021,0.829,1.848,1.849,1.848s1.848-0.826,1.848-1.848c0-1.02-0.829-1.848-1.848-1.848S8.509,19.113,8.509,20.133z
			 M12.206,9.212c1.021,0,1.849-0.828,1.849-1.848s-0.827-1.848-1.849-1.848c-1.021,0-1.848,0.828-1.848,1.848
			S11.185,9.212,12.206,9.212z"/>
	</g>
	<g id="geometry-cube_2_">
		<path d="M21.335,15.783V7.188c0.747-0.245,1.286-0.945,1.286-1.774c0-1.03-0.835-1.866-1.866-1.866
			c-0.649,0-1.22,0.333-1.555,0.837l-5.387-1.788c0.006-0.056,0.015-0.113,0.015-0.172c0-1.03-0.836-1.866-1.866-1.866
			c-1.031,0-1.866,0.835-1.866,1.866c0,0.061,0.003,0.12,0.008,0.18L4.799,4.38C4.465,3.879,3.894,3.547,3.246,3.547
			c-1.031,0-1.867,0.836-1.867,1.866c0,0.896,0.632,1.644,1.473,1.825v8.494c-0.841,0.18-1.473,0.928-1.473,1.822
			c0,1.031,0.836,1.867,1.867,1.867c0.777,0,1.443-0.477,1.724-1.152l5.37,2.498c-0.155,0.273-0.243,0.588-0.243,0.924
			c0,1.029,0.835,1.865,1.866,1.865c1.03,0,1.866-0.836,1.866-1.865c0-0.334-0.092-0.645-0.244-0.916l5.445-2.512
			c0.279,0.68,0.945,1.158,1.726,1.158c1.031,0,1.866-0.836,1.866-1.867C22.621,16.727,22.082,16.027,21.335,15.783z M3.826,15.783
			V7.188c0.333-0.109,0.621-0.312,0.843-0.574l5.469,2.543c-0.027,0.127-0.042,0.258-0.042,0.393c0,0.896,0.631,1.644,1.472,1.823
			v1.231v1.029l-7.222,2.418C4.189,15.936,4.015,15.846,3.826,15.783z M4.974,16.865l6.594-2.207v5.209
			c-0.17,0.037-0.33,0.098-0.48,0.176l-6.001-2.791C5.065,17.117,5.024,16.99,4.974,16.865z M12.542,19.918v-5.199l6.48,2.15
			c-0.049,0.119-0.085,0.244-0.105,0.375l-6.079,2.803C12.744,19.996,12.645,19.951,12.542,19.918z M12.542,13.693v-1.208v-1.164
			c0.746-0.243,1.286-0.945,1.286-1.772c0-0.133-0.015-0.262-0.041-0.387l5.538-2.553c0.262,0.312,0.623,0.54,1.037,0.629v8.494
			c-0.261,0.055-0.502,0.166-0.711,0.32L12.542,13.693z M18.895,5.309c-0.002,0.036-0.005,0.07-0.005,0.105
			c0,0.106,0.009,0.211,0.027,0.312l-5.575,2.57c-0.215-0.237-0.488-0.418-0.8-0.52V4.198c0.38-0.125,0.706-0.369,0.935-0.688
			L18.895,5.309z M10.449,3.515c0.266,0.368,0.662,0.635,1.12,0.734v3.476c-0.386,0.083-0.726,0.287-0.983,0.567l-5.5-2.561
			c0.018-0.103,0.027-0.209,0.027-0.318c0-0.037-0.003-0.073-0.005-0.11L10.449,3.515z"/>
	</g>
	<g id="geometry-triangle_2_">
		<path d="M19.904,14.998v-5.88C21.941,8.776,23.5,7.007,23.5,4.872c0-2.381-1.932-4.312-4.312-4.312
			c-2.383,0-4.312,1.931-4.312,4.312c0,0.438,0.066,0.859,0.189,1.258L8.292,9.515C7.507,8.444,6.243,7.746,4.813,7.746
			c-2.38,0-4.312,1.93-4.312,4.312c0,2.38,1.932,4.312,4.312,4.312c1.43,0,2.695-0.697,3.479-1.77l6.773,3.385
			c-0.123,0.398-0.189,0.822-0.189,1.26c0,2.381,1.93,4.312,4.312,4.312c2.381,0,4.312-1.932,4.312-4.312
			C23.5,17.107,21.941,15.338,19.904,14.998z M18.467,14.998c-1.129,0.191-2.107,0.82-2.758,1.705l-6.771-3.387
			c0.122-0.398,0.188-0.821,0.188-1.259c0-0.439-0.066-0.862-0.189-1.26l6.772-3.385c0.648,0.887,1.629,1.516,2.758,1.706V14.998z"
			/>
	</g>
	<g id="points">
		<g>
			<path d="M12.038,1.364c-2.8,0-5.077,2.278-5.077,5.078s2.277,5.077,5.077,5.077c2.799,0,5.079-2.277,5.079-5.077
				S14.837,1.364,12.038,1.364z"/>
			<path d="M5.58,22.752c2.8,0,5.078-2.275,5.078-5.076c0-2.799-2.278-5.078-5.078-5.078c-2.8,0-5.078,2.279-5.078,5.078
				S2.779,22.752,5.58,22.752z"/>
			<path d="M18.421,12.598c-2.8,0-5.077,2.277-5.077,5.078c0,2.799,2.277,5.076,5.077,5.076s5.078-2.277,5.078-5.076
				S21.221,12.598,18.421,12.598z"/>
		</g>
	</g>
	<g id="hierarchy3">
		<path d="M6.054,2.529H0.501v5.553h5.553V2.529z M5.154,7.182H1.402V3.429h3.752V7.182z M0.501,21.586h5.553v-5.551H0.501V21.586z
			 M1.402,16.936h3.752v3.752H1.402V16.936z M17.947,16.035v5.551h5.552v-5.551H17.947z M22.599,20.688h-3.751v-3.752h3.751V20.688z
			 M9.224,14.801h5.553V9.249H9.224V14.801z M10.125,10.15h3.752v3.75h-3.752V10.15z M4.01,11.462h4.221v1.126H4.01v2.641H2.884
			V8.911H4.01V11.462z M20.16,12.588h-4.67v-1.126h5.232v0.003h0.563v3.763H20.16V12.588z"/>
	</g>
	<g id="hierarchy2">
		<g id="Node_2_">
			<g>
				<path d="M20.625,17.807c-0.529,0-1.023,0.154-1.451,0.408l-4.705-4.707c0.25-0.428,0.406-0.918,0.406-1.45
					c0-1.01-0.523-1.895-1.314-2.408l1.121-3.361c0.064,0.004,0.127,0.021,0.193,0.021c1.586,0,2.875-1.291,2.875-2.875
					c0-1.585-1.289-2.875-2.875-2.875s-2.874,1.29-2.874,2.875c0,1.01,0.523,1.894,1.313,2.409l-1.12,3.36
					c-0.064-0.004-0.127-0.02-0.193-0.02c-1.586,0-2.875,1.289-2.875,2.874c0,0.33,0.067,0.644,0.17,0.938L5.692,15.4
					c-0.524-0.717-1.363-1.186-2.316-1.186c-1.584,0-2.875,1.289-2.875,2.873c0,1.586,1.29,2.875,2.875,2.875
					c1.586,0,2.875-1.289,2.875-2.875c0-0.105-0.02-0.207-0.031-0.312l3.874-2.582c0.509,0.453,1.172,0.738,1.908,0.738
					c0.528,0,1.022-0.154,1.452-0.406l4.705,4.707c-0.254,0.426-0.408,0.918-0.408,1.449c0,1.584,1.289,2.875,2.875,2.875
					c1.584,0,2.875-1.291,2.875-2.875S22.209,17.807,20.625,17.807z M3.376,18.525c-0.792,0-1.437-0.645-1.437-1.438
					s0.646-1.438,1.437-1.438c0.793,0,1.437,0.645,1.437,1.438S4.169,18.525,3.376,18.525z M12.001,13.496
					c-0.793,0-1.438-0.646-1.438-1.438c0-0.793,0.644-1.438,1.438-1.438c0.792,0,1.436,0.645,1.436,1.438
					C13.438,12.85,12.794,13.496,12.001,13.496z M13.438,3.434c0-0.793,0.646-1.437,1.438-1.437c0.793,0,1.438,0.644,1.438,1.437
					c0,0.792-0.645,1.438-1.438,1.438C14.084,4.872,13.438,4.226,13.438,3.434z M20.625,22.119c-0.795,0-1.438-0.645-1.438-1.438
					s0.643-1.438,1.438-1.438c0.793,0,1.438,0.645,1.438,1.438S21.418,22.119,20.625,22.119z"/>
			</g>
		</g>
	</g>
	<g id="hierarchy">
		<g id="_x34_27._Network">
				<path d="M20.048,15.449c1.905,0,3.449-1.545,3.449-3.45c0-1.904-1.544-3.449-3.449-3.449c-1.501,0-2.776,0.961-3.249,2.299
					H10.54l7.325-4.229c0.593,0.486,1.354,0.779,2.183,0.779c1.905,0,3.449-1.545,3.449-3.449c0-1.906-1.544-3.449-3.449-3.449
					s-3.45,1.543-3.45,3.449c0,0.241,0.024,0.477,0.071,0.704l-9.74,5.625C6.333,9.248,5.226,8.55,3.949,8.55
					c-1.905,0-3.449,1.545-3.449,3.449c0,1.905,1.544,3.45,3.449,3.45c1.277,0,2.384-0.698,2.979-1.729l9.74,5.624
					c-0.047,0.229-0.071,0.464-0.071,0.705c0,1.904,1.545,3.45,3.45,3.45s3.449-1.546,3.449-3.45c0-1.905-1.544-3.45-3.449-3.45
					c-0.829,0-1.59,0.292-2.183,0.779l-7.324-4.229h6.258C17.271,14.488,18.547,15.449,20.048,15.449z M20.048,10.849
					c0.634,0,1.148,0.516,1.148,1.15s-0.515,1.15-1.148,1.15c-0.635,0-1.149-0.516-1.149-1.15S19.413,10.849,20.048,10.849z
					 M20.048,2.801c0.634,0,1.148,0.514,1.148,1.149c0,0.634-0.515,1.149-1.148,1.149c-0.635,0-1.149-0.516-1.149-1.149
					C18.898,3.314,19.413,2.801,20.048,2.801z M3.949,13.149c-0.635,0-1.149-0.516-1.149-1.15s0.515-1.15,1.149-1.15
					s1.149,0.516,1.149,1.15S4.584,13.149,3.949,13.149z M20.048,18.899c0.634,0,1.148,0.514,1.148,1.149
					c0,0.635-0.515,1.149-1.148,1.149c-0.635,0-1.149-0.515-1.149-1.149C18.898,19.413,19.413,18.899,20.048,18.899z"/>
			</g>
	</g>
	<g id="skeleton">
		<g>
			<path d="M9.863,21.385c0,0-0.626,0.289-2.84-2.211c0,0,0.242-1.49-1.008-1.105c0,0-1.876,1.01-0.674,1.73
				c0,0,0.48,0.24,0.864,0.24l2.066,2.068c0,0,0.194,1.539,1.202,1.059C9.478,23.166,11.258,21.771,9.863,21.385z"/>
			<path d="M4.766,17.057l-1.301-1.586c0,0,0.627-1.346-0.72-1.012c0,0-1.779,0.77-0.914,1.395c0,0,0.481,0.193,0.819,0.145
				l1.201,1.49c0,0-0.336,1.779,1.25,0.719C5.102,18.211,6.543,17.057,4.766,17.057z"/>
			<path d="M2.457,13.836c-0.021-0.359-0.572-0.818-0.865-1.156c-1.052-1.202-1.164-0.098-1.059,0.146
				C1.64,15.326,2.486,14.379,2.457,13.836z"/>
			<path d="M18.902,15.471c-0.488-0.016-1.121,0.025-1.058,1.682c0.035,0.877-0.786,3.512-1.395,3.223
				c-0.423-0.201-0.494-1.551,0.82-4.426c0.16-0.355,1.319-1.15-0.483-1.492c-0.492-0.092-1.391-0.609-1.013,1.734
				c0.167,1.02-0.16,3.227-1.104,3.99c0,0-0.818-0.578-0.386-4.52c0,0,1.415-1.484,0.288-2.021
				c-0.449-0.213-1.719-0.752-1.876,0.674c-0.039,0.355,0.096,0.963,0.481,1.348c0,0,0.433,5.096-0.625,4.52
				c0,0-1.442-3.078-0.962-5c0,0,0.88-1.781-1.058-1.781c-0.146,0-1.728-0.262-0.432,2.02c0.529,0.932,1.057,3.125,0.864,4.52
				c-0.086,0.623-1.01,1.73,2.021,1.49c0,0,2.262,0.051,2.885,0.287c0,0,1.971,0.965,1.78-0.719c0,0,0.146-2.549,1.444-3.848
				C19.095,17.154,20.877,15.52,18.902,15.471z"/>
			<path d="M21.092,11.648c-0.911-0.483-0.747,0.696-0.747,0.696c-0.022,0.72-0.456,1.417-0.696,1.517
				c-0.129,0.051-0.314,0.168-0.432,0.213c-1.274,0.506,0.938,1.348,0.938,1.348c0.576-0.193,0.188-0.664,0.192-0.889
				c0.006-0.242,0.367-0.623,0.506-0.818c0.617-0.881,0.698-0.756,0.984-0.938C22.58,12.297,21.092,11.648,21.092,11.648z"/>
			<path d="M22.415,8.602c-0.741-0.253-0.478,0.608-0.478,0.608c0.065,0.546-0.176,1.119-0.344,1.219
				c-0.094,0.054-0.216,0.167-0.302,0.213c-0.895,0.529,0.863,0.902,0.863,0.902c0.411-0.212,0.063-0.52,0.041-0.69
				c-0.026-0.181,0.202-0.508,0.282-0.674c0.359-0.731,0.435-0.645,0.629-0.819C23.607,8.914,22.415,8.602,22.415,8.602z"/>
			<path d="M19.115,8.979c0.354-0.32-0.054-0.561-0.11-0.735c-0.063-0.184,0.086-0.582,0.129-0.773
				c0.191-0.855,0.281-0.783,0.433-1.011c0.394-0.588-0.84-0.636-0.84-0.636c-0.781-0.091-0.332,0.756-0.332,0.756
				c0.186,0.554,0.073,1.215-0.069,1.36L18.08,8.234C17.322,9.002,19.115,8.979,19.115,8.979z"/>
			<path d="M14.775,7.68c0.412-0.419-0.06-0.729-0.129-0.958c-0.073-0.241,0.097-0.758,0.149-1.009
				c0.223-1.116,0.331-1.021,0.507-1.315c0.455-0.768-0.98-0.828-0.98-0.828c-0.905-0.119-0.388,0.981-0.388,0.981
				c0.214,0.724,0.085,1.585-0.082,1.774c-0.09,0.104-0.202,0.292-0.284,0.385C12.683,7.71,14.775,7.68,14.775,7.68z"/>
			<path d="M8.842,4.037c-0.904,0.127-0.11,1.05-0.11,1.05c0.4,0.641,0.506,1.505,0.396,1.731C9.07,6.941,9.009,7.154,8.956,7.264
				c-0.584,1.2,1.423,0.61,1.423,0.61c0.283-0.512-0.256-0.686-0.384-0.888C9.861,6.775,9.888,6.23,9.87,5.974
				c-0.084-1.132,0.047-1.07,0.137-1.401C10.241,3.713,8.842,4.037,8.842,4.037z"/>
			<path d="M9.791,3.425c0.46-0.365-0.204-0.64-0.333-0.839c-0.134-0.212-0.081-0.613-0.1-0.868
				C9.338,1.447,9.119,1.116,8.781,1.237C8.212,1.439,8.798,2.438,8.688,2.665C8.63,2.789,8.485,2.852,8.445,2.97
				C8.133,3.809,9.487,3.666,9.791,3.425z"/>
			<path d="M15.176,3.113c0.337-0.181,0.06-0.58-0.028-0.8c-0.094-0.237,0.032-0.62,0.057-0.872c0.029-0.27-0.129-0.635-0.479-0.579
				c-0.595,0.098-0.204,1.185-0.35,1.389c-0.081,0.111-0.23,0.148-0.294,0.253C13.62,3.275,14.835,3.295,15.176,3.113z"/>
			<path d="M19.697,5.373c0.335-0.182,0.059-0.581-0.029-0.802c-0.094-0.232,0.033-0.618,0.058-0.871
				c0.028-0.268-0.129-0.633-0.479-0.575c-0.595,0.095-0.204,1.184-0.35,1.385c-0.082,0.11-0.234,0.149-0.296,0.254
				C18.141,5.535,19.355,5.556,19.697,5.373z"/>
			<path d="M23.308,7.164c-0.094-0.234,0.032-0.618,0.059-0.87c0.027-0.27-0.13-0.635-0.481-0.579
				c-0.595,0.098-0.202,1.187-0.35,1.389c-0.081,0.11-0.23,0.148-0.292,0.253C21.78,8.13,22.997,8.148,23.34,7.964
				C23.673,7.786,23.396,7.385,23.308,7.164z"/>
			<path d="M13.083,11.984c-0.908,1.355,1.825,0.738,1.825,0.738c0.435-0.575-0.227-0.802-0.357-1.04
				c-0.143-0.252-0.03-0.882-0.017-1.175c0.054-1.312,0.207-1.233,0.372-1.609c0.419-0.985-1.415-0.644-1.415-0.644
				c-1.165,0.104-0.239,1.037-0.239,1.037c0.325,0.558,0.29,1.954,0.121,2.212C13.28,11.643,13.168,11.858,13.083,11.984z"/>
			<path d="M9.415,8.469C8.272,8.726,9.312,9.526,9.312,9.526c0.394,0.51,0.546,1.898,0.409,2.175
				c-0.073,0.151-0.155,0.38-0.223,0.517c-0.725,1.464,1.905,0.494,1.905,0.494c0.354-0.628-0.329-0.766-0.493-0.984
				c-0.171-0.232-0.143-0.869-0.167-1.162c-0.119-1.307,0.047-1.249,0.157-1.647C11.188,7.886,9.415,8.469,9.415,8.469z"/>
			<path d="M17.845,13.908c0.368-0.406-0.047-0.779-0.094-1.033c-0.104-0.537,0.104-1.801,0.552-2.117
				c0.392-0.276,0.604-0.626,0.433-0.89c-0.391-0.617-1.233-0.57-1.564-0.288c-0.479,0.409,0.098,1.034,0.098,1.034
				s-0.055,2.037-0.555,2.211c-0.48,0.168-0.523,0.572-0.335,0.77C16.834,14.074,17.536,14.246,17.845,13.908z"/>
		</g>
	</g>
	<g id="bone2">
		<path d="M7.945,9.996c-0.09-1.598,0.858-3.185,1.778-3.983c2.263-1.961,4.419-4.886,4.564-5.199
			c0.068-0.2,0.279-0.302,0.481-0.234c0.202,0.066,0.308,0.294,0.239,0.495c-0.13,0.393-2.452,3.499-4.782,5.519
			C9.442,7.274,8.635,8.614,8.71,9.952c0.06,1.058,0.656,1.982,1.773,2.749c0.969,0.664,3.12,1.107,4.767-0.541
			c0.301-0.299,1.136-1.426-0.688-3.354c-1.116-1.18-0.925-2.664,0.644-4.957c0.662-0.967,1.652-2.431,1.652-2.431l0.635,0.433
			c0,0-0.992,1.462-1.653,2.433c-1.659,2.428-1.327,3.354-0.72,3.995c1.828,1.932,1.549,3.555,0.674,4.427
			c-1.002,1.006-2.166,1.359-3.221,1.359c-1.023,0-1.944-0.334-2.521-0.727C8.728,12.426,8.02,11.304,7.945,9.996z M16.933,13.809
			c-0.147-0.516-0.572-0.658-0.62-0.672c-0.12-0.039-0.25-0.014-0.348,0.064c-1.338,1.061-2.707,1.506-4.078,1.326
			c-2.408-0.312-4.045-2.472-4.06-2.494c-0.101-0.135-0.277-0.188-0.436-0.131c-0.058,0.019-0.571,0.217-0.79,0.861
			c-0.264,0.779,0.035,1.836,0.888,3.139c0.268,0.408,0.591,0.797,0.934,1.207c1.144,1.371,2.441,2.924,2.36,6.053
			c-0.005,0.213,0.162,0.391,0.375,0.395c0.003,0,0.006,0,0.01,0c0.208,0,0.378-0.164,0.384-0.373
			c0.087-3.42-1.369-5.162-2.539-6.564c-0.328-0.393-0.639-0.766-0.881-1.135c-0.928-1.42-0.906-2.146-0.81-2.455
			c0.033-0.105,0.081-0.184,0.129-0.242c0.575,0.66,2.143,2.213,4.33,2.504c1.493,0.195,2.977-0.238,4.407-1.293
			c0.005,0.014,0.01,0.027,0.012,0.041c0.057,0.234,0.018,0.967-1.523,2.715c-1.028,1.168-0.959,3.795,0.16,6.113
			c0.093,0.191,0.322,0.271,0.513,0.176c0.19-0.09,0.272-0.32,0.179-0.512c-0.977-2.021-1.098-4.338-0.275-5.271
			C16.606,15.721,17.156,14.592,16.933,13.809z M12.511,11.8c-0.207,0.037-0.346,0.238-0.309,0.445
			c0.034,0.186,0.194,0.316,0.376,0.316c0.023,0,0.047-0.002,0.068-0.006c0.992-0.179,1.613-0.592,1.854-1.227
			c0.428-1.131-0.615-2.468-0.658-2.525c-0.132-0.166-0.371-0.194-0.539-0.063c-0.166,0.131-0.195,0.372-0.063,0.539
			c0.229,0.29,0.772,1.178,0.543,1.78C13.643,11.422,13.215,11.672,12.511,11.8z"/>
	</g>
	<g id="bone">
		<g>
			<path d="M10.558,23.555h-0.004c-0.238-0.002-0.427-0.197-0.424-0.434c0.031-2.719-0.193-4.678-0.647-5.658
				c-0.176-0.377-0.498-0.689-0.81-0.99c-0.379-0.367-0.738-0.713-0.859-1.182c-0.083-0.221-0.137-0.494-0.147-0.768
				c-0.019-0.637,0.192-1.26,0.597-1.756c0.073-0.088,0.177-0.145,0.292-0.154c0.113-0.012,0.229,0.025,0.317,0.1
				c0.144,0.123,0.29,0.223,0.436,0.297c0.306,0.154,0.648,0.24,0.99,0.24l0.082-0.004c0.516-0.018,1.013-0.219,1.395-0.57
				c0.154-0.143,0.395-0.148,0.557-0.02c0.387,0.307,0.871,0.477,1.364,0.477l0.079-0.002c0.367-0.014,0.728-0.119,1.045-0.307
				c0.109-0.064,0.21-0.143,0.303-0.225c0.088-0.078,0.204-0.114,0.318-0.103c0.115,0.009,0.222,0.066,0.295,0.154
				c0.369,0.453,0.578,0.998,0.598,1.578c0.008,0.277-0.027,0.553-0.104,0.816c-0.084,0.469-0.448,0.867-0.835,1.289
				c-0.305,0.336-0.623,0.682-0.791,1.078c-0.433,1.004-0.644,2.98-0.613,5.711c0.002,0.236-0.188,0.432-0.426,0.434h-0.006
				c-0.234,0-0.426-0.189-0.43-0.424c-0.029-2.891,0.199-4.93,0.684-6.061c0.229-0.531,0.61-0.949,0.949-1.318
				c0.301-0.33,0.585-0.641,0.635-0.908c0.061-0.219,0.082-0.402,0.078-0.592c-0.009-0.252-0.069-0.494-0.18-0.715l-0.033,0.021
				c-0.445,0.264-0.947,0.408-1.46,0.428l-0.095,0.002l0,0c-0.578,0-1.141-0.16-1.623-0.461c-0.488,0.354-1.074,0.555-1.682,0.574
				l-0.098,0.002c-0.484,0-0.96-0.113-1.386-0.332c-0.072-0.035-0.143-0.076-0.213-0.119c-0.128,0.258-0.191,0.547-0.182,0.84
				c0.006,0.182,0.042,0.367,0.107,0.541c0.074,0.275,0.347,0.539,0.637,0.82C9.62,16.193,10.02,16.58,10.26,17.1
				c0.516,1.113,0.759,3.145,0.726,6.031C10.985,23.367,10.795,23.555,10.558,23.555z"/>
			<path d="M10.3,12.436c-0.413,0-0.823-0.101-1.193-0.289c-0.855-0.435-1.407-1.301-1.441-2.259C7.659,9.612,7.693,9.336,7.77,9.07
				c0.084-0.468,0.449-0.867,0.836-1.29C8.912,7.446,9.229,7.1,9.396,6.703c0.433-1.005,0.644-2.98,0.614-5.71
				c-0.002-0.238,0.188-0.432,0.424-0.434c0.258,0.009,0.433,0.187,0.434,0.423c0.031,2.892-0.199,4.931-0.683,6.061
				c-0.229,0.531-0.611,0.95-0.949,1.317C8.936,8.689,8.652,9,8.602,9.267c-0.06,0.22-0.082,0.405-0.078,0.592
				c0.022,0.645,0.395,1.229,0.972,1.524c0.266,0.135,0.563,0.204,0.864,0.191c0.531-0.017,1.021-0.269,1.347-0.689
				c0.078-0.101,0.197-0.161,0.324-0.167c0.121-0.003,0.25,0.048,0.336,0.145c0.354,0.396,0.854,0.603,1.393,0.595
				c0.299-0.009,0.592-0.097,0.85-0.251c0.557-0.333,0.889-0.939,0.867-1.588c-0.006-0.184-0.043-0.366-0.107-0.542
				c-0.075-0.275-0.347-0.541-0.638-0.82c-0.351-0.339-0.751-0.725-0.991-1.245c-0.516-1.116-0.76-3.145-0.727-6.03
				c0.001-0.238,0.155-0.422,0.434-0.423c0.237,0.001,0.428,0.196,0.424,0.434c-0.031,2.717,0.193,4.676,0.648,5.659
				c0.175,0.375,0.497,0.688,0.808,0.987c0.38,0.367,0.739,0.713,0.86,1.183c0.083,0.221,0.137,0.493,0.146,0.768
				c0.031,0.96-0.463,1.862-1.284,2.354c-0.383,0.227-0.819,0.356-1.262,0.372c-0.62,0.025-1.235-0.181-1.72-0.562
				c-0.458,0.414-1.048,0.656-1.677,0.68L10.3,12.436z"/>
		</g>
	</g>
	<g id="parent">
		<path d="M16.6,15.891c-0.875,2.516-3.286,4.379-6.243,4.379c-3.613,0-6.57-2.957-6.57-6.57c0-2.847,1.862-5.255,4.38-6.242
			c0-0.109,0-0.219,0-0.328c0-1.095,0.219-2.189,0.547-3.176c-4.6,0.766-8.213,4.818-8.213,9.745c0,5.477,4.38,9.857,9.855,9.857
			c4.929,0,8.979-3.615,9.749-8.215c-0.986,0.328-2.081,0.549-3.176,0.549C16.819,15.891,16.709,15.891,16.6,15.891z"/>
		<path d="M16.93,0.559c-3.616,0-6.573,2.956-6.573,6.571c0,3.612,2.957,6.569,6.573,6.569c3.612,0,6.569-2.957,6.569-6.569
			C23.499,3.515,20.542,0.559,16.93,0.559z M16.93,10.415c-1.864,0-3.287-1.424-3.287-3.285c0-1.863,1.423-3.285,3.287-3.285
			c1.86,0,3.284,1.422,3.284,3.285C20.214,8.99,18.79,10.415,16.93,10.415z"/>
	</g>
	<g id="group5">
		<path d="M12,10.333c2.528,0,4.599-2.07,4.599-4.599c0-2.531-2.071-4.6-4.599-4.6c-2.531,0-4.6,2.069-4.6,4.6
			C7.4,8.263,9.47,10.333,12,10.333z M12,3.435c1.264,0,2.299,1.034,2.299,2.3c0,1.264-1.035,2.299-2.299,2.299
			c-1.265,0-2.3-1.036-2.3-2.299C9.7,4.468,10.735,3.435,12,3.435z M5.101,13.783c-2.53,0-4.599,2.066-4.599,4.598
			c0,2.529,2.069,4.6,4.599,4.6c2.53,0,4.6-2.07,4.6-4.6C9.7,15.85,7.631,13.783,5.101,13.783z M5.101,20.682
			c-1.266,0-2.299-1.035-2.299-2.301c0-1.264,1.034-2.299,2.299-2.299s2.3,1.035,2.3,2.299C7.4,19.646,6.366,20.682,5.101,20.682z
			 M12,11.598c-1.151,0-2.186,1.035-2.186,2.185c0,1.148,1.035,2.184,2.186,2.184c1.15,0,2.185-1.035,2.185-2.184
			C14.186,12.633,13.15,11.598,12,11.598z M18.9,13.783c-2.532,0-4.601,2.066-4.601,4.598c0,2.529,2.068,4.6,4.601,4.6
			c2.528,0,4.599-2.07,4.599-4.6C23.499,15.85,21.429,13.783,18.9,13.783z M18.9,20.682c-1.266,0-2.301-1.035-2.301-2.301
			c0-1.264,1.035-2.299,2.301-2.299c1.263,0,2.3,1.035,2.3,2.299C21.2,19.646,20.163,20.682,18.9,20.682z"/>
	</g>
	<g id="group4">
		<path d="M8.55,12.058c-1.266,0-2.3,1.036-2.3,2.299s1.034,2.299,2.3,2.299c1.265,0,2.299-1.035,2.299-2.299
			S9.815,12.058,8.55,12.058z M14.3,8.608c0-1.265-1.035-2.3-2.299-2.3c-1.265,0-2.3,1.035-2.3,2.3c0,1.265,1.035,2.299,2.3,2.299
			C13.265,10.908,14.3,9.873,14.3,8.608z M12,0.559c-6.325,0-11.499,5.175-11.499,11.499c0,6.323,5.174,11.499,11.499,11.499
			s11.499-5.176,11.499-11.499C23.499,5.734,18.325,0.559,12,0.559z M12,21.256c-5.06,0-9.199-4.139-9.199-9.198
			c0-5.06,4.14-9.199,9.199-9.199c5.06,0,9.2,4.139,9.2,9.199C21.2,17.117,17.061,21.256,12,21.256z M15.451,12.058
			c-1.266,0-2.301,1.036-2.301,2.299s1.035,2.299,2.301,2.299c1.263,0,2.298-1.035,2.298-2.299S16.714,12.058,15.451,12.058z"/>
	</g>
	<g id="group3">
		<path d="M0.597,13.625l0.032,6.777c0,0.086,0.048,0.166,0.125,0.207l5.415,2.836c0.035,0.018,0.073,0.027,0.112,0.027
			c0,0,0,0,0.001,0c0.016,0.018,0.034,0.035,0.056,0.049c0.037,0.021,0.08,0.033,0.122,0.033c0.039,0,0.077-0.01,0.113-0.029
			l5.345-2.898c0.049-0.025,0.084-0.068,0.104-0.117c0.021,0.041,0.054,0.078,0.097,0.1l5.414,2.836
			c0.035,0.018,0.074,0.027,0.113,0.027l0,0c0.016,0.018,0.033,0.035,0.055,0.049c0.037,0.023,0.08,0.035,0.123,0.035
			c0.039,0,0.078-0.01,0.111-0.029l5.346-2.9c0.076-0.041,0.125-0.121,0.125-0.207v-7.051c0-0.002,0-0.006,0-0.006
			c0-0.002,0-0.004,0-0.006c0-0.008-0.002-0.014-0.004-0.02c-0.002-0.014-0.004-0.025-0.008-0.039
			c-0.002-0.01-0.006-0.018-0.01-0.025c-0.006-0.01-0.01-0.021-0.018-0.031c-0.004-0.008-0.01-0.016-0.016-0.023
			c-0.008-0.01-0.018-0.018-0.023-0.025c-0.008-0.008-0.016-0.012-0.025-0.018c-0.002-0.004-0.006-0.008-0.012-0.012
			c-0.006-0.002-0.012-0.004-0.018-0.006c-0.006-0.004-0.01-0.008-0.012-0.01l-5.51-2.667c-0.023-0.009-0.045-0.011-0.068-0.013
			V3.464c0-0.002,0-0.004,0-0.006s0-0.003,0-0.005c0-0.007-0.004-0.013-0.004-0.021c-0.002-0.013-0.004-0.026-0.008-0.038
			c-0.002-0.008-0.006-0.017-0.01-0.025c-0.004-0.011-0.01-0.022-0.016-0.032c-0.006-0.008-0.012-0.016-0.018-0.022
			c-0.01-0.009-0.016-0.019-0.023-0.026c-0.008-0.007-0.016-0.013-0.021-0.018c-0.006-0.004-0.012-0.007-0.018-0.011
			c-0.004-0.004-0.012-0.005-0.016-0.007c-0.004-0.002-0.008-0.006-0.012-0.008l-5.508-2.667c-0.064-0.028-0.137-0.025-0.199,0.007
			L6.387,3.423C6.306,3.462,6.256,3.544,6.256,3.634c0,0,0,0.002,0,0.004c-0.01,0.026-0.018,0.054-0.018,0.084l0.032,6.745
			c-0.028,0.003-0.057,0.007-0.083,0.021l-5.444,2.837c-0.079,0.041-0.13,0.123-0.131,0.211c0,0.002,0.001,0.004,0.001,0.004
			C0.603,13.568,0.597,13.596,0.597,13.625z M16.896,3.49l-4.799,2.683L7.016,3.638l4.93-2.579L16.896,3.49z M17.209,10.453
			l-4.872,2.563V6.584l4.872-2.722V10.453z M18.061,16.486l4.867-2.719v6.51l-4.867,2.643V16.486z M12.738,13.541l4.93-2.579
			l4.951,2.434l-4.801,2.68L12.738,13.541z M6.695,16.486l4.869-2.719v6.51L6.695,22.92V16.486z M1.375,13.541l4.929-2.579
			l4.95,2.434l-4.799,2.68L1.375,13.541z"/>
	</g>
	<g id="group2">
		<g>
			<polygon points="0.501,14.289 5.694,16.756 5.694,10.486 0.501,8.02"/>
			<polygon points="11.724,8.02 6.532,10.486 6.532,16.357 11.724,11.172"/>
			<polygon points="6.112,4.317 0.509,6.979 6.112,9.657 11.718,6.994"/>
			<polygon points="15.801,9.416 15.801,20.699 23.5,17.115"/>
			<polygon points="14.814,20.699 14.814,9.416 7.116,17.115"/>
			<path d="M20.186,8.304c0-2.695-2.193-4.889-4.887-4.889c-1.705,0-3.244,0.855-4.143,2.296l1.477,0.746v3.856l2.674-2.674
				l3.766,3.767C19.791,10.533,20.186,9.437,20.186,8.304z"/>
		</g>
	</g>
	<g id="group">
		<g>
			<path d="M5.691,12.058c0-1.652,0.848-3.104,2.132-3.948C7.078,7.619,6.187,7.332,5.228,7.332c-2.61,0-4.727,2.117-4.727,4.727
				s2.116,4.725,4.727,4.725c0.958,0,1.85-0.287,2.595-0.777C6.539,15.162,5.691,13.709,5.691,12.058z"/>
			<path d="M12.464,12.058c0-1.652,0.848-3.104,2.132-3.948C13.851,7.619,12.96,7.332,12,7.332c-2.61,0-4.727,2.117-4.727,4.727
				S9.391,16.783,12,16.783c0.959,0,1.85-0.287,2.595-0.777C13.312,15.162,12.464,13.709,12.464,12.058z"/>
			<circle cx="18.773" cy="12.057" r="4.726"/>
		</g>
	</g>
	<g id="hemisphere-light2">
		<g>
			<path d="M0.501,12.057c0,6.342,5.158,11.5,11.499,11.5c6.34,0,11.499-5.158,11.499-11.5c0-6.339-5.158-11.498-11.499-11.498
				C5.66,0.559,0.501,5.717,0.501,12.057z M22.362,12.057H1.637C1.637,6.344,6.286,1.695,12,1.695
				C17.714,1.695,22.362,6.344,22.362,12.057z"/>
		</g>
	</g>
	<g id="hemisphere-light">
		<g id="_x35_0_x25__Brightness_2_">
			<g>
				<path d="M13.436,1.938c0-0.795-0.644-1.438-1.437-1.438c-0.795,0-1.438,0.643-1.438,1.438c0,0.793,0.643,1.437,1.438,1.437
					C12.792,3.375,13.436,2.731,13.436,1.938z M17.747,4.812c0,0.794,0.644,1.438,1.438,1.438s1.438-0.644,1.438-1.438
					s-0.644-1.438-1.438-1.438S17.747,4.019,17.747,4.812z M20.622,11.999c0,0.795,0.644,1.438,1.438,1.438
					c0.793,0,1.438-0.644,1.438-1.438c0-0.793-0.645-1.438-1.438-1.438C21.266,10.562,20.622,11.206,20.622,11.999z M17.747,19.187
					c0,0.794,0.644,1.438,1.438,1.438s1.438-0.644,1.438-1.438s-0.644-1.438-1.438-1.438S17.747,18.393,17.747,19.187z
					 M3.373,11.999c0-0.793-0.644-1.438-1.437-1.438S0.5,11.206,0.5,11.999c0,0.795,0.644,1.438,1.437,1.438
					S3.373,12.794,3.373,11.999z M6.249,19.187c0-0.794-0.644-1.438-1.438-1.438c-0.793,0-1.438,0.644-1.438,1.438
					s0.646,1.438,1.438,1.438C5.605,20.624,6.249,19.98,6.249,19.187z M13.436,22.062c0-0.794-0.644-1.438-1.437-1.438
					c-0.795,0-1.438,0.644-1.438,1.438c0,0.793,0.643,1.438,1.438,1.438C12.792,23.499,13.436,22.854,13.436,22.062z M17.747,11.999
					c0-3.174-2.575-5.749-5.748-5.749c-3.176,0-5.75,2.575-5.75,5.749c0,3.176,2.574,5.75,5.75,5.75
					C15.172,17.749,17.747,15.175,17.747,11.999z M9.124,11.999c0-1.587,1.286-2.875,2.875-2.875c1.586,0,2.874,1.288,2.874,2.875
					H9.124z M6.249,4.812c0-0.794-0.644-1.438-1.438-1.438c-0.793,0-1.438,0.644-1.438,1.438S4.019,6.25,4.812,6.25
					C5.605,6.25,6.249,5.606,6.249,4.812z"/>
			</g>
		</g>
	</g>
	<g id="spot-light2">
		<path d="M16.248,5.408l6.273-2.313c0.083-0.032,0.169-0.047,0.251-0.047c0.296,0,0.572,0.184,0.682,0.475
			c0.138,0.376-0.053,0.794-0.431,0.932L16.75,6.771c-0.374,0.139-0.792-0.055-0.933-0.43C15.68,5.965,15.872,5.547,16.248,5.408z
			 M8.918,4.344c-4.864,1-8.417,4.124-8.417,7.83s3.553,6.829,8.417,7.831V4.344z M12.251,6.082V4.006
			c-0.898,0-1.768,0.077-2.607,0.208v15.919c0.839,0.133,1.708,0.209,2.607,0.209v-2.078c1.211-0.193,2.173-2.844,2.173-6.09
			C14.424,8.926,13.462,6.276,12.251,6.082z M23.023,19.66l-6.273-2.314c-0.374-0.139-0.794,0.053-0.933,0.43
			c-0.14,0.377,0.053,0.795,0.431,0.932l6.275,2.316c0.081,0.029,0.167,0.045,0.249,0.045c0.296,0,0.572-0.182,0.682-0.477
			C23.592,20.217,23.399,19.801,23.023,19.66z M22.772,11.447h-6.273c-0.4,0-0.725,0.326-0.725,0.726
			c0,0.401,0.324,0.727,0.725,0.727h6.273c0.402,0,0.727-0.326,0.727-0.726C23.499,11.774,23.175,11.447,22.772,11.447z"/>
	</g>
	<g id="directional-light2">
		<g>
			<path d="M8.918,4.229c-4.864,1-8.417,4.125-8.417,7.83c0,3.706,3.553,6.831,8.417,7.829V4.229L8.918,4.229z"/>
			<path d="M22.772,11.331h-6.273c-0.4,0-0.725,0.326-0.725,0.726c0,0.401,0.324,0.726,0.725,0.726h6.273
				c0.402,0,0.727-0.325,0.727-0.725S23.175,11.331,22.772,11.331z"/>
			<path d="M16.499,6.929h6.273c0.402,0,0.727-0.324,0.727-0.724c0-0.402-0.324-0.726-0.727-0.726h-6.273
				c-0.4,0-0.725,0.324-0.725,0.726C15.774,6.605,16.099,6.929,16.499,6.929z"/>
			<path d="M12.251,5.965V3.89c-0.898,0-1.768,0.077-2.607,0.209v15.917c0.84,0.135,1.708,0.211,2.607,0.211v-2.078
				c1.212-0.193,2.173-2.842,2.173-6.091C14.424,8.811,13.463,6.161,12.251,5.965z"/>
			<path d="M22.772,17.186h-6.273c-0.4,0-0.725,0.326-0.725,0.727s0.324,0.725,0.725,0.725h6.273c0.402,0,0.727-0.324,0.727-0.725
				S23.175,17.186,22.772,17.186z"/>
		</g>
	</g>
	<g id="spot-light">
		<path d="M15.75,3.917l6.476-3.104c0.096-0.048,0.197-0.077,0.298-0.085c0.361-0.036,0.721,0.154,0.888,0.497
			c0.213,0.442,0.027,0.972-0.414,1.185l-6.476,3.107c-0.438,0.213-0.97,0.026-1.187-0.413C15.123,4.663,15.307,4.133,15.75,3.917z
			 M22.609,11.103H18.38c-0.488,0-0.887,0.399-0.887,0.889c0,0.491,0.398,0.889,0.887,0.889h4.229c0.492,0,0.89-0.398,0.89-0.888
			C23.499,11.504,23.102,11.103,22.609,11.103z M8.507,3.986c-4.422,0-8.006,3.586-8.006,8.006c0,4.422,3.584,8.006,8.006,8.006
			c4.42,0,8.006-3.584,8.006-8.006C16.514,7.572,12.928,3.986,8.507,3.986z M8.507,17.801c-3.208,0-5.809-2.6-5.809-5.809
			c0-3.208,2.601-5.809,5.809-5.809c3.208,0,5.809,2.601,5.809,5.809C14.316,15.201,11.715,17.801,8.507,17.801z M15.335,18.791
			c0.217-0.441,0.749-0.627,1.187-0.412l6.476,3.104c0.441,0.215,0.627,0.744,0.414,1.188c-0.167,0.342-0.526,0.531-0.888,0.496
			c-0.101-0.01-0.202-0.037,0.351,0.225l-6.476-3.102C15.307,19.762,15.123,19.23,15.335,18.791z"/>
	</g>
	<g id="directional-light">
		<g>
			<path d="M16.439,4.873h5.874c0.653,0,1.186-0.398,1.186-0.893c0-0.497-0.532-0.896-1.186-0.896h-5.874
				c-0.653,0-1.184,0.399-1.184,0.896C15.256,4.475,15.786,4.873,16.439,4.873z"/>
			<path d="M22.313,19.24h-5.874c-0.653,0-1.184,0.4-1.184,0.895c0,0.496,0.53,0.896,1.184,0.896h5.874
				c0.653,0,1.186-0.4,1.186-0.896C23.499,19.641,22.967,19.24,22.313,19.24z"/>
			<path d="M8.58,3.979c-4.462,0-8.079,3.618-8.079,8.08c0,4.461,3.617,8.079,8.079,8.079c4.46,0,8.078-3.617,8.078-8.079
				C16.658,7.596,13.04,3.979,8.58,3.979z M8.58,17.92c-3.237,0-5.862-2.625-5.862-5.862c0-3.238,2.625-5.862,5.862-5.862
				c3.237,0,5.862,2.624,5.862,5.862C14.442,15.295,11.817,17.92,8.58,17.92z"/>
			<path d="M22.313,11.162l-3.176-0.002c-0.653,0-1.185,0.402-1.185,0.896c0,0.497,0.531,0.897,1.185,0.897l3.176,0.002
				c0.653,0,1.186-0.402,1.186-0.897C23.499,11.564,22.967,11.162,22.313,11.162z"/>
		</g>
	</g>
	<g id="point-light">
		<path d="M22.537,11.095h-3.843c-0.055,0-0.104,0.008-0.155,0.016c-0.161-1.116-0.599-2.141-1.246-3.006
			c0.041-0.031,0.084-0.062,0.119-0.099l2.72-2.718c0.182-0.183,0.28-0.424,0.28-0.68c0-0.257-0.099-0.498-0.28-0.681
			c-0.184-0.181-0.425-0.282-0.682-0.282c-0.256,0-0.498,0.101-0.679,0.282l-2.718,2.718c-0.039,0.037-0.071,0.079-0.102,0.122
			c-0.864-0.646-1.888-1.087-3.005-1.249c0.007-0.049,0.015-0.1,0.015-0.152V1.521c0-0.531-0.433-0.962-0.961-0.962
			c-0.531,0-0.963,0.431-0.963,0.962v3.844c0,0.052,0.008,0.103,0.016,0.152C9.937,5.68,8.911,6.12,8.046,6.766
			c-0.03-0.042-0.062-0.083-0.1-0.122L5.23,3.927C5.048,3.746,4.807,3.645,4.55,3.645S4.051,3.746,3.869,3.927
			C3.688,4.109,3.587,4.351,3.587,4.607c0,0.256,0.101,0.498,0.282,0.68l2.718,2.718c0.037,0.037,0.079,0.068,0.121,0.099
			c-0.647,0.864-1.086,1.89-1.248,3.006c-0.05-0.007-0.101-0.016-0.154-0.016H1.463c-0.531,0-0.962,0.431-0.962,0.963
			c0,0.53,0.431,0.961,0.962,0.961h3.844c0.053,0,0.104-0.008,0.154-0.016c0.161,1.117,0.601,2.143,1.248,3.006
			c-0.042,0.031-0.083,0.062-0.121,0.1L3.87,18.828c-0.182,0.182-0.282,0.422-0.282,0.68c0,0.256,0.1,0.498,0.282,0.68
			s0.423,0.281,0.681,0.281c0.256,0,0.498-0.1,0.68-0.281l2.717-2.717c0.039-0.037,0.07-0.078,0.1-0.121
			c0.864,0.646,1.89,1.086,3.006,1.248c-0.007,0.049-0.016,0.1-0.016,0.152v3.844c0,0.531,0.432,0.963,0.963,0.963
			s0.961-0.432,0.961-0.963V18.75c0-0.053-0.008-0.104-0.015-0.152c1.117-0.162,2.141-0.602,3.005-1.248
			c0.032,0.041,0.064,0.084,0.102,0.121l2.716,2.717c0.183,0.182,0.425,0.281,0.681,0.281c0.259,0,0.498-0.1,0.682-0.281
			c0.182-0.182,0.28-0.424,0.28-0.68c0-0.258-0.099-0.498-0.28-0.68l-2.72-2.719c-0.037-0.037-0.078-0.068-0.119-0.1
			c0.647-0.863,1.085-1.889,1.246-3.006c0.051,0.008,0.101,0.016,0.155,0.016h3.843c0.531,0,0.962-0.432,0.962-0.961
			C23.499,11.526,23.068,11.095,22.537,11.095z M16.495,12.058c0,2.477-2.018,4.493-4.495,4.493c-2.478,0-4.495-2.016-4.495-4.493
			c0-2.479,2.017-4.495,4.495-4.495C14.478,7.563,16.495,9.579,16.495,12.058z"/>
	</g>
	<g id="point-light2">
		<g>
			<path d="M12,23.557c-0.695,0-1.259-0.564-1.259-1.26v-3.611c-0.906-0.172-1.772-0.533-2.534-1.053l-2.556,2.555
				c-0.475,0.477-1.305,0.479-1.781,0c-0.238-0.238-0.368-0.555-0.368-0.889c0-0.338,0.13-0.654,0.368-0.893l2.555-2.555
				c-0.521-0.764-0.88-1.631-1.052-2.533H1.762c-0.695,0-1.26-0.564-1.26-1.26c0-0.694,0.565-1.26,1.26-1.26h3.612
				c0.173-0.906,0.531-1.772,1.051-2.534L3.869,5.708C3.631,5.47,3.5,5.153,3.5,4.819c0-0.336,0.132-0.652,0.37-0.891
				C4.348,3.451,5.173,3.451,5.65,3.927l2.556,2.556c0.762-0.52,1.629-0.879,2.533-1.052V1.819c0-0.695,0.566-1.26,1.261-1.26
				c0.694,0,1.259,0.565,1.259,1.26v3.612c0.903,0.171,1.771,0.532,2.533,1.052l2.557-2.556c0.476-0.476,1.305-0.476,1.782,0
				C20.369,4.165,20.5,4.482,20.5,4.819c0,0.336-0.131,0.652-0.368,0.89l-2.555,2.556c0.519,0.764,0.878,1.628,1.05,2.533h3.612
				c0.694,0,1.26,0.565,1.26,1.261c0,0.694-0.565,1.26-1.26,1.26h-3.61c-0.174,0.904-0.533,1.77-1.052,2.533l2.555,2.555
				c0.237,0.238,0.368,0.555,0.368,0.891s-0.131,0.652-0.368,0.891c-0.478,0.477-1.305,0.477-1.782,0l-2.557-2.555
				c-0.762,0.52-1.628,0.881-2.531,1.053v3.611C13.26,22.992,12.695,23.557,12,23.557z"/>
		</g>
	</g>
	<g id="sun-light2">
		<g>
			<circle cx="12.003" cy="12.154" r="5.112"/>
			<path d="M23.497,14.873l-5.174-4.021l2.916-5.932l-6.223,1.535l-2.719-5.955L9.53,6.216L3.174,4.429l2.641,5.846L0.5,14.201
				l6.342,1.774c0,0-0.931-1.449-1.164-2.701c-0.211-1.139,0.096-2.695,0.155-2.975C5.85,10.261,6.49,8.815,7.282,7.868
				c0.803-0.957,2.297-1.637,2.297-1.637L9.564,6.227c0.22-0.054,1.581-0.368,2.732-0.368c1.074,0,2.313,0.477,2.65,0.614
				c0.002,0.001,1.323,0.815,2.104,1.793c0.78,0.979,1.233,2.669,1.233,2.669l0.016-0.032c0.05,0.335,0.225,1.696-0.022,2.756
				c-0.285,1.219-1.331,2.622-1.331,2.622l0.01-0.003c-0.212,0.214-1.223,1.198-2.224,1.688c-1.125,0.55-2.872,0.622-2.872,0.622
				l5.225,4.193l-0.083-6.514L23.497,14.873z"/>
			<path d="M6.842,15.961l0.123,6.698l4.896-4.07c0,0-1.559-0.306-2.701-0.82C8.017,17.257,6.842,15.961,6.842,15.961z"/>
		</g>
	</g>
	<g id="sun-light">
		<g>
			<circle cx="12.001" cy="12.409" r="6.216"/>
			<polygon points="19.507,3.466 14.998,4.653 19.119,8.111"/>
			<polygon points="20.218,13.693 23.499,10.383 19.284,8.395"/>
			<polygon points="17.471,18.674 22.113,18.248 20.16,14.016"/>
			<polygon points="15.994,23.381 17.22,18.885 12.165,20.725"/>
			<polygon points="8.007,23.381 11.837,20.725 6.782,18.885"/>
			<polygon points="1.889,18.248 6.53,18.674 3.842,14.016"/>
			<polygon points="4.718,8.395 0.501,10.383 3.785,13.693"/>
			<polygon points="9.003,4.653 4.496,3.466 4.883,8.111"/>
			<polygon points="12.001,0.734 9.312,4.541 14.691,4.541"/>
		</g>
	</g>
	<g id="box-mesh">
		<path d="M23.308,5.022l0.017-0.042L12.268,0.559l-5.203,2.01L7.031,2.555L7.016,2.587L0.706,5.026L0.668,5.011V5.04L0.667,5.041
			l0.001,0.005v14.182l10.927,4.311v0.018h0.811v-0.018l10.926-4.311V5.012L23.308,5.022z M22.524,12.394l-4.596,1.686V8.015
			l4.596-1.813V12.394z M11.597,10.192v5.917l-4.682-1.693v-6.07L11.597,10.192z M7.459,7.69l4.703-1.956l4.379,1.957l-4.541,1.791
			L7.459,7.69z M12.407,10.192l4.711-1.859v6.044l-4.711,1.727V10.192z M17.597,7.275l-4.405-1.969l4.301-1.789l4.785,1.911
			L17.597,7.275z M12.257,1.428l4.159,1.661l-4.242,1.763L8.106,3.035L12.257,1.428z M7.044,3.446l4.104,1.833L6.377,7.263
			L1.825,5.468L7.044,3.446z M6.106,8.027v6.096l-4.627-1.674V6.201L6.106,8.027z M1.479,13.311l4.627,1.674v5.518l-4.627-1.824
			V13.311z M6.916,20.822v-5.545l4.68,1.693v5.697L6.916,20.822z M12.407,16.967l4.711-1.727v5.568l-4.711,1.859V16.967z
			 M17.929,20.49v-5.549l4.596-1.686v5.422L17.929,20.49z"/>
	</g>
	<g id="box">
		<g>
			<path d="M22.4,5.82c-0.045-0.14-0.271-0.257-0.395-0.312l-9.697-4.862L12.28,0.63c-0.236-0.137-0.47-0.043-0.556,0
				C11.627,0.679,2.02,5.484,2.02,5.484c-0.035,0.011-0.341,0.11-0.41,0.364C1.556,6.05,1.568,6.157,1.57,6.157l0,0l0.001,11.822
				C1.568,18,1.541,18.186,1.646,18.367c0.108,0.188,0.301,0.248,0.302,0.248l9.684,4.84c0.017,0.01,0.164,0.102,0.363,0.102h0.009
				c0.199-0.004,0.348-0.09,0.354-0.094l9.692-4.846c0.062-0.029,0.209-0.102,0.281-0.186c0.041-0.035,0.104-0.127,0.104-0.432
				V6.163C22.436,6.14,22.443,5.943,22.4,5.82z M11.266,21.74L2.94,17.578V7.265l8.326,4.165V21.74z M12.002,10.201L3.836,6.106
				l8.165-4.082l8.167,4.095L12.002,10.201z M21.062,17.578l-8.325,4.162V11.429l8.325-4.164V17.578z"/>
		</g>
	</g>
	<g id="cube-camera">
		<path d="M9.726,10.755l4.197-7.206C13.31,3.46,12.612,3.376,12,3.376c-2.099,0-4.022,0.694-5.509,1.997l3.235,5.469V10.755
			L9.726,10.755z M20.305,9.455c-0.785-2.519-2.709-4.604-5.246-5.473l-3.147,5.473H20.305z M20.57,10.321h-6.56l0.265,0.434
			l4.195,7.204c1.4-1.561,2.273-3.646,2.273-5.903C20.744,11.448,20.656,10.841,20.57,10.321z M8.939,12.056l-3.41-5.903
			C4.13,7.716,3.256,9.799,3.256,12.056c0,0.608,0.088,1.217,0.174,1.737h6.558L8.939,12.056z M3.693,14.66
			c0.788,2.518,2.71,4.602,5.246,5.469l3.236-5.469H3.693z M13.486,14.66l-3.41,5.904C10.688,20.74,11.3,20.74,12,20.74
			c2.098,0,4.023-0.695,5.508-2l-3.232-5.467L13.486,14.66z"/>
		<path d="M22.4,5.82c-0.045-0.14-0.271-0.256-0.395-0.312l-9.697-4.862L12.28,0.63c-0.236-0.137-0.47-0.043-0.556,0
			C11.626,0.679,2.02,5.485,2.02,5.485C1.985,5.496,1.679,5.594,1.61,5.848C1.555,6.05,1.567,6.157,1.569,6.157l0.001,11.822
			C1.567,18,1.541,18.186,1.646,18.367c0.108,0.188,0.301,0.248,0.302,0.248l9.684,4.84c0.017,0.01,0.164,0.102,0.363,0.102h0.009
			c0.199-0.004,0.348-0.09,0.354-0.094l9.693-4.846c0.062-0.029,0.209-0.102,0.281-0.186c0.041-0.035,0.104-0.127,0.104-0.432V6.163
			C22.436,6.14,22.443,5.943,22.4,5.82z M21.062,17.578l-3.625,1.812c-0.854,0.633-1.818,1.125-2.867,1.432l-1.834,0.918v-0.582
			c-0.243,0.02-0.488,0.037-0.736,0.037s-0.492-0.018-0.735-0.037v0.582l-1.832-0.916c-1.051-0.309-2.019-0.801-2.875-1.438
			L2.94,17.578v-4.385c-0.046-0.373-0.078-0.75-0.078-1.135s0.032-0.764,0.078-1.138V7.265l0.995,0.498
			C4.164,7.336,4.43,6.934,4.72,6.55L3.836,6.106L6.49,4.779c0.892-0.675,1.908-1.192,3.013-1.504L12,2.024l2.484,1.247
			c1.123,0.316,2.156,0.842,3.059,1.533l2.625,1.316l-0.879,0.439c0.287,0.382,0.551,0.781,0.777,1.206l0.996-0.498v3.667
			c0.045,0.369,0.076,0.743,0.076,1.125s-0.031,0.754-0.076,1.124V17.578z"/>
	</g>
	<g id="cube-camera2">
		<path d="M4.697,15.092l-2.1,3.537c0.966,1.512,2.212,2.652,3.571,3.281c0.398,0.18,0.854,0.312,1.249,0.426l-2.72-7.17V15.092z
			 M6.11,16.883l2.042,5.436c1.645,0.039,2.891-1.104,3.403-2.939L6.11,16.883z M11.836,17.365c0-1.857-0.566-3.828-1.474-5.526
			l-2.721,4.677l-0.167,0.281l4.247,1.945C11.782,18.338,11.836,17.865,11.836,17.365z M4.866,12.742l-4.25-1.951
			c-0.057,0.406-0.114,0.875-0.114,1.377c0,1.857,0.566,3.832,1.474,5.531l2.209-3.844L4.866,12.742z M6.284,12.68L4.186,7.222
			c-1.645-0.041-2.889,1.101-3.399,2.936L6.284,12.68z M7.641,14.439l2.101-3.529C8.775,9.393,7.529,8.253,6.168,7.627
			C5.718,7.424,5.32,7.24,4.923,7.199l2.211,5.869L7.641,14.439z M9.573,4.519l3.885-2.674c-0.565-0.032-1.214-0.065-1.781-0.065
			c-1.941,0-3.72,0.26-5.097,0.742l2.993,2.033V4.519z M19.364,4.036c-0.731-0.935-2.506-1.709-4.854-2.03l-2.913,2.03H19.364z
			 M19.605,4.358h-6.067l0.245,0.161l3.882,2.678c1.295-0.58,2.102-1.355,2.102-2.192C19.767,4.777,19.688,4.553,19.605,4.358z
			 M8.846,5.005L5.693,2.811c-1.296,0.58-2.105,1.355-2.105,2.194c0,0.226,0.081,0.452,0.164,0.643h6.066L8.846,5.005z M3.993,5.974
			c0.729,0.934,2.509,1.708,4.854,2.028l2.994-2.028H3.993z M13.058,5.974l-3.16,2.19c0.568,0.064,1.134,0.064,1.779,0.064
			c1.943,0,3.722-0.258,5.102-0.742l-2.995-2.03L13.058,5.974z M16.36,14.375l2.72-7.176c-0.396,0.114-0.852,0.249-1.247,0.432
			c-1.36,0.622-2.606,1.766-3.57,3.276l2.098,3.541V14.375z M23.218,10.159c-0.511-1.836-1.756-2.979-3.402-2.939l-2.042,5.433
			L23.218,10.159z M23.387,10.794l-4.249,1.948l0.169,0.279l2.719,4.678c0.908-1.697,1.474-3.674,1.474-5.527
			C23.499,11.668,23.444,11.197,23.387,10.794z M15.85,15.682l-2.212-3.845c-0.906,1.698-1.471,3.677-1.471,5.532
			c0,0.5,0.056,0.975,0.112,1.377l4.25-1.949L15.85,15.682z M12.449,19.379c0.511,1.836,1.757,2.979,3.402,2.939l2.094-5.463
			L12.449,19.379z M18.797,16.471l-2.214,5.865c0.402-0.039,0.796-0.221,1.25-0.426c1.361-0.623,2.607-1.77,3.571-3.281
			l-2.098-3.533L18.797,16.471z"/>
	</g>
	<g id="camera4">
		<path d="M7.329,13.494c0,2.582,2.092,4.672,4.672,4.672c2.581,0,4.67-2.09,4.67-4.672c0-2.579-2.09-4.67-4.67-4.67
			C9.42,8.824,7.329,10.915,7.329,13.494z M22.062,5.589h-5.029c-0.361-1.437-0.721-2.875-2.157-2.875h-5.75
			c-1.438,0-1.797,1.438-2.156,2.875H1.939c-0.791,0-1.438,0.646-1.438,1.438v12.936c0,0.791,0.647,1.438,1.438,1.438h20.123
			c0.791,0,1.438-0.646,1.438-1.438V7.027C23.499,6.235,22.853,5.589,22.062,5.589z M12,19.873c-3.522,0-6.378-2.855-6.378-6.379
			c0-3.521,2.856-6.377,6.378-6.377c3.524,0,6.379,2.856,6.379,6.377C18.38,17.018,15.524,19.873,12,19.873z M22.062,9.901h-2.875
			V8.464h2.875V9.901z"/>
	</g>
	<g id="camera3">
		<g id="_x33_">
			<g>
				<path d="M22.06,9.124l-4.312,2.877c0-0.874-0.396-1.645-1.011-2.173c1.462-0.882,2.448-2.466,2.448-4.297
					c0-2.778-2.251-5.03-5.03-5.03c-2.778,0-5.03,2.252-5.03,5.03c0,1.409,0.582,2.681,1.517,3.593H8.005
					C8.693,8.36,9.124,7.36,9.124,6.25c0-2.381-1.931-4.312-4.312-4.312S0.5,3.869,0.5,6.25c0,1.301,0.587,2.45,1.496,3.241
					C1.108,9.981,0.5,10.915,0.5,12.001v5.748c0,1.587,1.286,2.874,2.874,2.874h11.499c1.589,0,2.874-1.287,2.874-2.874l4.312,2.874
					c0.793,0,1.438-0.642,1.438-1.437v-8.625C23.497,9.769,22.853,9.124,22.06,9.124z M4.812,9.124
					c-1.587,0-2.875-1.285-2.875-2.874c0-1.587,1.288-2.875,2.875-2.875S7.687,4.663,7.687,6.25
					C7.687,7.839,6.398,9.124,4.812,9.124z M14.154,9.133c-1.989,0-3.601-1.613-3.601-3.602c0-1.989,1.612-3.601,3.601-3.601
					c1.989,0,3.603,1.611,3.603,3.601S16.144,9.133,14.154,9.133z"/>
			</g>
		</g>
	</g>
	<g id="camera2">
		<g>
			<path fill="#231F20" d="M20.851,10.828c-0.038-0.253-0.196-0.473-0.427-0.585c-0.232-0.112-0.5-0.103-0.725,0.026l-4.991,2.899
				c-0.03,0.016-0.058,0.037-0.086,0.059l-0.771,0.445c-0.237,0.135-0.384,0.389-0.384,0.666c-0.002,0.275,0.146,0.529,0.384,0.666
				l4.35,2.527c0.122,0.07,0.255,0.104,0.386,0.104c0.239,0,0.472-0.111,0.621-0.316c1.115-1.518,1.728-3.389,1.728-5.262
				C20.935,11.65,20.906,11.238,20.851,10.828z"/>
			<path fill="#231F20" d="M6.616,6.286l4.955,2.848c0.026,0.014,0.052,0.028,0.079,0.04l0.811,0.47
				c0.12,0.069,0.25,0.101,0.383,0.101s0.268-0.034,0.386-0.101c0.237-0.139,0.384-0.393,0.384-0.668V3.941
				c0-0.393-0.298-0.724-0.689-0.767C10.65,2.931,8.34,3.603,6.523,5.01C6.318,5.167,6.208,5.417,6.225,5.672
				C6.25,5.928,6.396,6.159,6.616,6.286z"/>
			<path fill="#231F20" d="M14.71,11.903c0.12,0.07,0.251,0.103,0.384,0.103s0.268-0.035,0.386-0.104l4.349-2.526
				c0.343-0.198,0.478-0.623,0.318-0.981c-0.943-2.097-2.633-3.733-4.761-4.604c-0.238-0.097-0.508-0.071-0.723,0.073
				c-0.214,0.143-0.343,0.384-0.343,0.64v6.731C14.322,11.513,14.471,11.768,14.71,11.903z"/>
			<path fill="#231F20" d="M17.354,17.855l-5.813-3.377c-0.238-0.139-0.529-0.139-0.772-0.002c-0.238,0.139-0.385,0.393-0.385,0.668
				v5.029c0,0.395,0.298,0.725,0.692,0.766c0.31,0.033,0.623,0.049,0.925,0.049c1.943,0,3.875-0.658,5.436-1.855
				c0.206-0.158,0.318-0.404,0.3-0.662C17.72,18.217,17.577,17.984,17.354,17.855z"/>
			<path fill="#231F20" d="M10.119,9.112L5.775,6.615C5.434,6.419,4.999,6.511,4.767,6.831c-1.094,1.514-1.699,3.369-1.699,5.228
				c0,0.38,0.024,0.764,0.072,1.139c0.033,0.256,0.19,0.479,0.419,0.592c0.109,0.055,0.228,0.082,0.345,0.082
				c0.131,0,0.264-0.035,0.382-0.102l5.833-3.318c0.241-0.138,0.388-0.392,0.388-0.667C10.506,9.505,10.359,9.25,10.119,9.112z"/>
			<path fill="#231F20" d="M9.295,12.17c-0.237-0.139-0.528-0.141-0.768-0.004L4.14,14.664c-0.343,0.193-0.483,0.615-0.326,0.979
				c0.938,2.135,2.642,3.799,4.803,4.682c0.094,0.037,0.191,0.057,0.292,0.057c0.152,0,0.299-0.045,0.431-0.131
				c0.211-0.143,0.341-0.383,0.341-0.639v-6.773C9.679,12.562,9.534,12.307,9.295,12.17z"/>
			<path fill="#231F20" d="M12.001,0.559c-6.341,0-11.5,5.157-11.5,11.499c0,6.338,5.158,11.499,11.5,11.499
				c6.342,0,11.498-5.16,11.498-11.499C23.499,5.716,18.341,0.559,12.001,0.559z M12.001,22.012c-5.491,0-9.957-4.465-9.957-9.954
				c0-5.491,4.467-9.957,9.957-9.957c5.49,0,9.955,4.466,9.955,9.957C21.958,17.547,17.491,22.012,12.001,22.012z"/>
		</g>
	</g>
	<g id="camera">
		<path d="M9.01,10.345l5.519-9.477C13.722,0.752,12.805,0.64,12,0.64c-2.76,0-5.29,0.913-7.245,2.626l4.254,7.192V10.345
			L9.01,10.345z M22.922,8.633c-1.034-3.312-3.562-6.052-6.898-7.195l-4.139,7.195H22.922z M23.271,9.773h-8.628l0.348,0.572
			l5.52,9.476c1.84-2.053,2.989-4.795,2.989-7.764C23.499,11.255,23.383,10.458,23.271,9.773z M7.975,12.056L3.49,4.292
			c-1.839,2.055-2.989,4.796-2.989,7.764c0,0.799,0.116,1.602,0.229,2.286h8.624L7.975,12.056z M1.076,15.48
			c1.035,3.312,3.564,6.053,6.898,7.193l4.255-7.193H1.076z M13.956,15.48L9.47,23.246c0.805,0.23,1.609,0.23,2.53,0.23
			c2.759,0,5.289-0.914,7.243-2.629l-4.253-7.189L13.956,15.48z"/>
	</g>
	<g id="world2">
		<path d="M12.001,0.559c-0.63,0-1.25,0.052-1.852,0.15c0.265,0.099,0.595,0.154,1.045,0.133c1.55-0.075,2.511,0.221,1.402,0.664
			c-1.108,0.444-0.901,0.915-0.385,0.951c0.518,0.036,1.723-0.515,2.122-0.029c0.413,0.5-0.463,1.322,0.06,2.211
			c0.776,1.321-1.879,1.625-2.552,2.616c-0.647,0.955-1.013,1.979-0.275,3.352c0.739,1.372,0.912,0.543,2.21,0.694
			c2.562,0.296,1.795,2.302,4.951,2.929c1.207,0.24,0.378,2.863-1.741,4.127c-2.042,1.217-1.397,2.615-4.299,3.547
			c-0.696,0.223-1.227,0.094-0.687-0.68c1.046-1.506,0.955-3.184,0-3.934c-0.956-0.75-2.028-0.914-1.768-2.07
			c0.258-1.156,1.258-1.559,1.329-2.598c0.069-1.002-1.521-4.413-3.508-3.737C6.92,9.271,4.726,7.828,4.842,5.937
			C4.975,3.741,6.657,3.404,6.28,2.098c-0.001-0.004,0-0.01,0-0.013c-3.452,1.985-5.778,5.707-5.778,9.974
			c0,6.35,5.149,11.499,11.5,11.499c6.35,0,11.498-5.148,11.498-11.499C23.499,5.708,18.352,0.559,12.001,0.559z"/>
	</g>
	<g id="world_2_">
		<path d="M12,0.56c-6.325,0-11.499,5.175-11.499,11.499S5.676,23.557,12,23.557s11.499-5.174,11.499-11.498S18.325,0.56,12,0.56z
			 M10.85,21.143c-4.484-0.576-8.049-4.484-8.049-9.084c0-0.691,0.115-1.381,0.23-2.07l5.519,5.52v1.15
			c0,1.264,1.035,2.299,2.3,2.299V21.143z M18.786,18.268c-0.347-0.92-1.151-1.609-2.187-1.609h-1.148v-3.449
			c0-0.691-0.461-1.15-1.151-1.15H7.4v-2.3H9.7c0.69,0,1.15-0.46,1.15-1.149v-2.3h2.3c1.264,0,2.301-1.035,2.301-2.299v-0.46
			c3.335,1.378,5.747,4.713,5.747,8.509C21.198,14.473,20.279,16.658,18.786,18.268z"/>
	</g>
</g>
<g id="media">
	<g id="cubemap-texture">
		<g>
			<polygon points="12.636,23.557 23.114,18.105 23.114,15.227 12.641,20.615"/>
			<path d="M12.636,10.045v9.767l2.898-5.697l1.934,3l2.034-4.119l1.729,2.033l1.883-1.062V5.264L12.636,10.045z M22.158,9.235
				c-0.152,0.749-0.747,1.262-1.325,1.143c-0.58-0.118-0.927-0.82-0.773-1.568c0.151-0.75,0.745-1.26,1.325-1.143
				C21.963,7.785,22.31,8.486,22.158,9.235z"/>
			<polygon points="0.886,15.227 0.886,18.105 11.364,23.557 11.359,20.615"/>
			<path d="M0.886,13.967l1.882,1.062l1.729-2.033l2.034,4.119l1.933-3l2.899,5.695v-9.765L0.886,5.264V13.967z M2.616,7.667
				C3.195,7.549,3.789,8.06,3.94,8.809c0.153,0.749-0.193,1.452-0.773,1.569c-0.58,0.118-1.173-0.394-1.325-1.144
				C1.69,8.486,2.036,7.785,2.616,7.667z"/>
			<polygon points="12.039,0.559 1.699,4.068 11.974,8.509 22.224,3.916"/>
		</g>
	</g>
	<g id="video-texture">
		<g>
			<path d="M18.595,0.5v1.676H5.406V0.5H0.501v23.115h4.905v-1.502h13.188v1.502h4.904V0.5H18.595z M18.104,4.396v8.835
				l-1.405-1.935c-0.135-0.186-0.343-0.293-0.567-0.288c-0.221,0.006-0.427,0.124-0.554,0.315l-3.908,5.948l-2.177-4.164
				c-0.117-0.223-0.335-0.369-0.576-0.379c-0.24-0.014-0.472,0.111-0.606,0.322l-2.414,3.783V4.396H18.104z M4.181,20.9H1.564
				v-4.334h2.617V20.9z M4.181,13.793H1.564V9.457h2.617V13.793z M4.181,6.511H1.564V2.176h2.617V6.511z M22.492,20.9h-2.617v-4.334
				h2.617V20.9z M22.492,13.793h-2.617V9.457h2.617V13.793z M22.492,6.511h-2.617V2.176h2.617V6.511z"/>
			<ellipse cx="14.038" cy="8.231" rx="1.602" ry="1.663"/>
		</g>
	</g>
</g>
<g id="transform">
	<g id="object-helper">
		<path d="M23.177,19.785l-0.045-0.102l-0.77-1.713l-0.474,1.242l-2.655-0.971c0,0,0-6.926,0-7.254c0-0.329-0.206-0.519-0.398-0.592
			c-0.193-0.073-6.106-2.324-6.106-2.324V4.194h1.326l-1.33-1.329l-0.079-0.079l-0.55-0.551l-0.631,0.632l-1.328,1.327h1.328v3.883
			l-5.989,2.287c-0.309,0.105-0.514,0.28-0.514,0.592l-0.003,7.226l-2.848,1.074l-0.471-1.242l-0.769,1.711L0.822,19.83
			l-0.321,0.711l0.711,0.32l0.109,0.049l1.708,0.768l-0.471-1.24l2.833-1.068l6.422,2.449c0.226,0.096,0.361,0.066,0.564,0
			l6.346-2.418l2.719,0.994l-0.47,1.238l1.719-0.771l0.099-0.045l0.71-0.318L23.177,19.785z M11.463,20.318l-5.228-1.994v-6.399
			l5.228,1.989V20.318L11.463,20.318z M12.095,12.783l-4.69-1.789l4.706-1.796l4.688,1.791L12.095,12.783z M17.955,18.324
			l-5.215,1.988v-6.408l5.215-1.988V18.324z"/>
	</g>
	<g id="gnomon">
		<polygon points="23.086,19.691 22.22,17.984 21.774,19.215 12.541,15.854 12.543,4.568 13.85,4.568 12.539,3.169 12.461,3.086 
			11.92,2.505 11.298,3.171 9.99,4.568 11.298,4.568 11.298,15.912 2.227,19.215 1.78,17.984 0.914,19.691 0.501,20.504 
			1.233,20.814 1.337,20.859 3.1,21.609 2.652,20.383 12,16.979 21.349,20.383 20.9,21.609 22.662,20.859 22.768,20.814 
			23.499,20.504 		"/>
	</g>
	<g id="refresh">
		<path d="M13.078,23.499c-5.745,0-10.42-4.68-10.42-10.422c0-5.744,4.675-10.421,10.42-10.421c0.382,0,0.767,0.022,1.15,0.065
			V1.036c0-0.216,0.133-0.413,0.331-0.497c0.204-0.079,0.433-0.034,0.588,0.12l3.691,3.7c0.209,0.21,0.209,0.545,0,0.759
			l-3.689,3.709c-0.157,0.152-0.386,0.198-0.59,0.115c-0.198-0.084-0.331-0.279-0.331-0.495v-1.87
			c-0.382-0.068-0.766-0.101-1.15-0.101c-3.639,0-6.602,2.962-6.602,6.601c0,3.637,2.963,6.601,6.602,6.601
			c3.64,0,6.601-2.964,6.601-6.601c0-0.296,0.239-0.537,0.539-0.537h2.74c0.297,0,0.539,0.241,0.539,0.537
			C23.497,18.819,18.819,23.499,13.078,23.499z"/>
		<g>
		</g>
	</g>
	<g id="rotate-z">
		<g>
			<path d="M20.136,4.426c-4.486-4.484-11.785-4.485-16.271,0c-4.38,4.381-4.481,11.443-0.305,15.951l-2.396,2.396h6.554l0-6.555
				l-2.378,2.377c-3.196-3.521-3.095-8.989,0.305-12.39c3.504-3.503,9.207-3.503,12.711,0c3.504,3.504,3.504,9.206,0,12.71
				c-0.776,0.777-1.671,1.396-2.661,1.842l1.033,2.295c1.269-0.57,2.414-1.365,3.408-2.355C24.62,16.211,24.62,8.912,20.136,4.426z"
				/>
			<polygon points="15.527,8.799 15.527,7.57 8.473,7.57 8.473,9.143 13.056,9.143 8.346,15.311 8.346,16.545 15.655,16.545 
				15.655,14.973 10.825,14.973"/>
		</g>
	</g>
	<g id="rotate-y">
		<g>
			<path d="M20.135,4.427C15.648-0.059,8.351-0.06,3.865,4.426C-0.516,8.808-0.616,15.869,3.56,20.377l-2.397,2.396h6.554v-6.555
				l-2.378,2.377c-3.196-3.521-3.095-8.989,0.305-12.39c3.505-3.504,9.206-3.504,12.711,0c3.506,3.505,3.506,9.206,0,12.712
				c-0.777,0.775-1.672,1.395-2.662,1.84l1.033,2.295c1.27-0.57,2.416-1.365,3.408-2.355C24.621,16.211,24.621,8.912,20.135,4.427z"
				/>
			<polygon points="14.082,7.501 12.001,11.253 9.933,7.501 7.64,7.501 10.949,13.131 10.949,16.615 13.051,16.615 13.051,13.068 
				16.361,7.501"/>
		</g>
	</g>
	<g id="rotate-x">
		<g>
			<path d="M20.136,4.427c-4.486-4.485-11.786-4.485-16.271,0c-4.381,4.38-4.481,11.44-0.305,15.948l-2.397,2.398l6.555-0.002
				l0-6.553l-2.378,2.377c-3.196-3.523-3.094-8.99,0.305-12.39c3.504-3.503,9.207-3.503,12.711,0c3.504,3.505,3.504,9.207,0,12.71
				c-0.776,0.775-1.671,1.396-2.661,1.842l1.033,2.295c1.269-0.572,2.416-1.365,3.408-2.355C24.62,16.211,24.62,8.913,20.136,4.427z
				"/>
			<polygon points="13.158,12.024 15.966,7.971 13.922,7.971 12.031,10.913 10.103,7.971 8.011,7.971 10.789,11.929 7.82,16.145 
				9.853,16.145 11.934,13.055 14.014,16.145 16.181,16.145"/>
		</g>
	</g>
	<g id="rotate">
		<g>
			<path d="M20.136,4.427c-4.486-4.485-11.786-4.485-16.271,0c-4.381,4.38-4.481,11.44-0.305,15.948l-2.397,2.398l6.555-0.002
				l0-6.553l-2.378,2.377c-3.196-3.523-3.094-8.99,0.305-12.39c3.504-3.503,9.207-3.503,12.711,0c3.504,3.505,3.504,9.207,0,12.71
				c-0.776,0.775-1.671,1.396-2.661,1.842l1.033,2.295c1.269-0.572,2.416-1.365,3.408-2.355C24.62,16.211,24.62,8.913,20.136,4.427z
				"/>
		</g>
	</g>
	<g id="slide-z">
		<g>
			<path d="M23.499,12.058l-5.332-5.334l0.879,3.431h-3.709V8.581H8.514v1.574h-3.56l0.881-3.431l-5.333,5.334l5.333,5.335
				l-0.881-3.432H8.45v1.307h6.957v-1.307h3.64l-0.879,3.432L23.499,12.058z M14.406,14.195H9.479v-0.777l2.739-2.865H9.544V9.537
				h4.793v0.774l-2.738,2.869h2.808V14.195z"/>
			<rect x="11.126" y="17.639" width="1.749" height="5.908"/>
			<rect x="11.126" y="0.568" width="1.749" height="6.193"/>
		</g>
	</g>
	<g id="slide-y">
		<g>
			<path d="M23.416,12.058l-5.295-5.295l0.875,3.404h-3.098l0.992-1.521h-4.575L12.005,9.29l-0.307-0.644H7.129l0.98,1.521H5.005
				L5.88,6.763l-5.296,5.295l5.295,5.294l-0.874-3.404h5.064v1.379h3.865v-1.379h5.062l-0.875,3.404L23.416,12.058z M12.801,12.469
				v1.814h-1.687v-1.775L9.076,9.64h1.822l1.061,1.721l1.067-1.721h1.814L12.801,12.469z"/>
			<rect x="11.125" y="17.643" width="1.75" height="5.914"/>
			<rect x="11.125" y="0.559" width="1.75" height="6.199"/>
		</g>
	</g>
	<g id="slide-x">
		<g>
			<path d="M23.324,12.058L18.07,6.805l0.869,3.377h-3.057l-2.514-2.516L11.93,9.105l-1.438-1.438l-2.517,2.516H5.062l0.867-3.377
				l-5.252,5.253l5.252,5.253l-0.867-3.379h2.913l2.517,2.518l1.438-1.439l1.438,1.439l2.516-2.518h3.057l-0.869,3.379
				L23.324,12.058z M14.504,13.496l-1.135,1.137l-1.439-1.438l-1.438,1.438l-1.137-1.137l1.438-1.438l-1.438-1.438l1.137-1.135
				l1.438,1.437l1.438-1.437l1.137,1.135l-1.438,1.438L14.504,13.496z"/>
			<g>
				<rect x="11.054" y="17.643" width="1.75" height="5.914"/>
				<rect x="11.054" y="0.559" width="1.75" height="6.199"/>
			</g>
		</g>
	</g>
	<g id="move-z">
		<g>
			<polygon points="23.5,15.312 18.879,10.693 18.879,13.904 5.12,13.904 5.12,10.693 1.908,13.904 1.896,13.904 1.896,13.916 
				0.5,15.312 1.896,16.709 1.896,16.721 1.908,16.721 5.12,19.932 5.12,16.721 18.879,16.721 18.879,19.932"/>
			<polygon points="15.22,10.706 10.964,10.706 15.107,5.266 15.107,4.184 8.891,4.184 8.891,5.568 12.93,5.568 8.779,11.004 
				8.779,12.089 15.22,12.089"/>
		</g>
	</g>
	<g id="move-y">
		<g>
			<polygon points="23.5,15.312 18.881,10.693 18.881,13.904 5.12,13.904 5.12,10.693 1.908,13.904 1.896,13.904 1.896,13.916 
				0.5,15.312 1.896,16.709 1.896,16.719 1.908,16.719 5.12,19.932 5.12,16.719 18.881,16.719 18.881,19.932"/>
			<polygon points="11.088,12.089 12.91,12.089 12.91,9.013 15.783,4.184 13.805,4.184 12,7.439 10.206,4.184 8.216,4.184 
				11.088,9.067"/>
		</g>
	</g>
	<g id="move-x">
		<g>
			<polygon points="23.499,15.281 18.882,10.661 18.882,13.873 5.121,13.873 5.121,10.661 0.501,15.281 5.121,19.9 5.121,16.689 
				18.882,16.689 18.882,19.9"/>
			<polygon points="9.923,12.122 11.936,9.132 13.948,12.122 16.044,12.122 13.119,8.136 15.837,4.215 13.86,4.215 12.03,7.06 
				10.165,4.215 8.14,4.215 10.828,8.043 7.957,12.122"/>
		</g>
	</g>
	<g id="move3">
		<path d="M6.973,15.119l-0.01-4.869c-0.001-0.222,0.226-0.372,0.43-0.284l4.103,1.753c0.113,0.049,0.187,0.16,0.187,0.283
			l0.011,4.868c0,0.221-0.226,0.371-0.431,0.283l-4.102-1.752C7.047,15.354,6.973,15.242,6.973,15.119z M16.793,9.92
			c0.163-0.001,0.307,0.129,0.309,0.307l0.012,4.867c0,0.125-0.073,0.236-0.188,0.285l-4.096,1.773
			c-0.039,0.018-0.08,0.025-0.119,0.025c-0.164,0-0.31-0.131-0.31-0.307l-0.011-4.869c0-0.123,0.072-0.235,0.186-0.283l4.093-1.774
			C16.712,9.928,16.754,9.92,16.793,9.92L16.793,9.92z M11.972,6.708c0.042,0,0.085,0.008,0.125,0.025l4.317,1.903
			c0.245,0.108,0.247,0.456,0.002,0.565l-4.308,1.922c-0.04,0.019-0.083,0.028-0.126,0.028c-0.041,0-0.084-0.009-0.124-0.026
			L7.541,9.222C7.295,9.113,7.294,8.767,7.539,8.657l4.307-1.922C11.886,6.716,11.929,6.708,11.972,6.708L11.972,6.708z
			 M12.964,20.76v-2.332h-1.922v2.332H9.204l2.799,2.797l2.799-2.797H12.964z M20.702,11.095H18.37v1.92h2.332v1.838l2.797-2.798
			l-2.797-2.799V11.095z M11.039,3.355v2.333h1.919V3.355h1.838l-2.798-2.797L9.2,3.355H11.039z M3.298,13.02h2.333v-1.92H3.298
			V9.261l-2.797,2.798l2.797,2.8V13.02z"/>
	</g>
	<g id="move2">
		<path d="M23.393,11.697c-0.346-0.349-3.642-3.542-3.642-3.542S19.31,7.714,19.31,8.3s0,1.52,0,1.52H14.16V4.687
			c0,0,0.937,0,1.523,0c0.584,0,0.145-0.438,0.145-0.438s-3.193-3.301-3.541-3.645c-0.251-0.25-0.49,0.027-0.49,0.027l-3.63,3.533
			c0,0-0.441,0.418,0.038,0.418c0.482,0.001,1.646,0.001,1.646,0.001v5.235H4.689c0,0,0-0.933,0.001-1.52
			C4.689,7.718,4.249,8.155,4.249,8.155s-3.294,3.193-3.642,3.542c-0.254,0.249,0.025,0.489,0.025,0.489l3.532,3.629
			c0,0,0.418,0.444,0.418-0.041c0.004-0.479,0.004-1.645,0.004-1.645h5.265v5.287c0,0-1.164,0-1.648,0
			c-0.478,0-0.036,0.416-0.036,0.416l3.63,3.531c0,0,0.237,0.283,0.49,0.03c0.346-0.348,3.537-3.646,3.537-3.646
			s0.441-0.439-0.143-0.437c-0.585,0-1.521,0-1.521,0v-5.181l5.256,0.002c0,0,0,1.163,0,1.644c0,0.483,0.417,0.04,0.417,0.04
			l3.532-3.63C23.365,12.187,23.644,11.946,23.393,11.697z"/>
	</g>
	<g id="move">
		<path d="M23.499,12.058L18.88,7.438v3.211h-2.997c-0.415-1.14-1.319-2.042-2.457-2.457V5.178h3.212l-4.617-4.619L7.4,5.178h3.212
			v3.015C9.474,8.608,8.571,9.51,8.154,10.65H5.121V7.438L1.909,10.65H1.896v0.011l-1.395,1.396l1.395,1.396v0.012h0.012
			l3.212,3.213v-3.213h3.026c0.412,1.148,1.319,2.059,2.466,2.477v2.996H7.4l3.213,3.211v0.051h0.05l1.358,1.357l1.356-1.357h0.051
			v-0.051l3.212-3.211h-3.212v-2.996c1.146-0.418,2.052-1.328,2.465-2.477h2.987v3.211L23.499,12.058z"/>
	</g>
	<g id="scale2">
		<path d="M1.054,0.501c0.683,0,7.074,0.103,7.074,0.103s0.868,0,0.291,0.577c-0.575,0.574-1.497,1.49-1.497,1.49
			s0.252,0.252,0.632,0.635c1.162,1.158,5.241,5.24,6.221,6.221c0.021,0.02,0.045,0.043,0.058,0.059
			c0.999,0.994,5.699,5.694,6.855,6.858c0.386,0.379,0.635,0.634,0.635,0.634s0.921-0.922,1.497-1.5
			c0.574-0.574,0.572,0.292,0.572,0.292s0.104,6.391,0.105,7.073c-0.002,0.496-0.512,0.453-0.512,0.453l-7.054,0.102
			c0,0-0.846,0.021-0.372-0.45c0.476-0.477,1.619-1.624,1.619-1.624s-0.275-0.275-0.704-0.704c-1.201-1.203-5.821-5.822-6.843-6.847
			c-0.042-0.023-0.068-0.055-0.077-0.071c-0.018-0.01-0.045-0.03-0.063-0.067C8.49,12.731,4.482,8.728,3.278,7.524
			C2.851,7.094,2.574,6.817,2.574,6.817S1.43,7.964,0.952,8.44C0.479,8.911,0.5,8.062,0.5,8.062l0.095-7.049
			C0.595,1.011,0.559,0.501,1.054,0.501z"/>
		<path d="M22.942,0.501c-0.683,0-7.072,0.103-7.072,0.103s-0.87,0-0.292,0.577c0.578,0.574,1.495,1.49,1.495,1.49
			s-0.249,0.252-0.631,0.635c-1.162,1.158-5.243,5.24-6.22,6.221c-0.021,0.02-0.043,0.043-0.058,0.059
			c-0.998,0.994-5.696,5.694-6.859,6.858c-0.38,0.379-0.633,0.634-0.633,0.634s-0.916-0.922-1.493-1.5
			c-0.578-0.574-0.577,0.292-0.577,0.292s-0.1,6.391-0.103,7.072c0.003,0.495,0.514,0.454,0.514,0.454l7.052,0.101
			c0,0,0.846,0.021,0.377-0.451c-0.478-0.475-1.625-1.622-1.625-1.622s0.279-0.275,0.706-0.704c1.2-1.203,5.818-5.822,6.844-6.847
			c0.041-0.025,0.067-0.057,0.077-0.071c0.013-0.01,0.043-0.03,0.063-0.067c0.999-1.003,5.006-5.006,6.213-6.209
			c0.427-0.431,0.702-0.707,0.702-0.707s1.146,1.145,1.623,1.623c0.476,0.471,0.449-0.379,0.449-0.379l-0.098-7.049
			C23.397,1.011,23.438,0.501,22.942,0.501z"/>
	</g>
	<g id="focus">
		<g>
			<path d="M18.271,15.289c0.045-0.041,0.084-0.117,0.084-0.312V9.146c0.002-0.033,0.004-0.149-0.022-0.233
				c-0.03-0.084-0.125-0.163-0.276-0.231l-5.837-2.926l-0.033-0.017c0,0-0.169-0.101-0.369,0c-0.199,0.099-5.845,2.925-5.845,2.925
				C5.683,8.789,5.648,8.973,5.648,9.139l0.001,5.812c-0.004,0.025-0.021,0.154,0.054,0.283c0.075,0.129,0.208,0.178,0.213,0.178
				l0,0l5.822,2.91c0.019,0.012,0.121,0.074,0.258,0.074h0.006c0.139-0.004,0.244-0.064,0.246-0.064l5.831-2.918
				C18.133,15.391,18.219,15.346,18.271,15.289z M11.485,17.107l-4.864-2.432V9.928l4.864,2.431V17.107z M12.001,11.492L7.251,9.11
				l4.75-2.375l4.751,2.381L12.001,11.492z M17.383,14.676l-4.865,2.432v-4.749l4.865-2.431V14.676L17.383,14.676z"/>
			<polygon points="17.959,0.559 17.959,2.428 21.629,2.428 21.629,6.098 23.499,6.098 23.499,0.559"/>
			<polygon points="2.372,2.428 6.042,2.428 6.042,0.559 0.501,0.559 0.501,6.098 2.372,6.098"/>
			<polygon points="2.372,18.018 0.501,18.018 0.501,23.557 6.042,23.557 6.042,21.686 2.372,21.686"/>
			<polygon points="21.629,21.686 17.959,21.686 17.959,23.557 23.499,23.557 23.499,18.018 21.629,18.018"/>
		</g>
	</g>
	<g id="scale-fit">
		<path d="M0.501,0.559v22.998h22.998V0.559H0.501z M2.153,2.145h4.571L5.348,3.521l3.304,3.293L6.832,8.644L3.529,5.339
			L2.153,6.716V2.145z M15.771,8.287v7.541H8.23V8.287H15.771z M6.724,21.971H2.153v-4.572l1.376,1.377l3.303-3.307l1.819,1.822
			l-3.304,3.305L6.724,21.971z M21.848,21.971h-4.57l1.376-1.375l-3.304-3.305l1.819-1.822l3.304,3.307l1.375-1.377V21.971z
			 M21.848,6.716l-1.375-1.377l-3.304,3.306L15.35,6.826l3.304-3.306l-1.376-1.376h4.57V6.716z"/>
	</g>
	<g id="scale-z">
		<g>
			<path d="M0.501,0.559v6.21v16.788h16.788h6.21V0.559H0.501z M15.235,21.502H2.554V8.821h12.681V21.502z M21.445,21.502h-4.156
				V6.769H2.554V2.612h18.893v18.89H21.445z"/>
			<polygon points="12.642,18.301 7.562,18.301 12.507,11.811 12.507,10.518 5.089,10.518 5.089,12.17 9.907,12.17 4.955,18.656 
				4.955,19.955 12.642,19.955"/>
		</g>
	</g>
	<g id="scale-y">
		<g>
			<path d="M0.501,0.559v6.21v16.788h16.788h6.21V0.559H0.501z M15.235,21.504H2.555V8.821h12.681V21.504z M21.445,21.504h-4.156
				V6.769H2.555V2.612h18.893v18.892H21.445z"/>
			<polygon points="7.817,20.266 10.027,20.266 10.027,16.537 13.507,10.684 11.11,10.684 8.922,14.629 6.748,10.684 4.336,10.684 
				7.817,16.604"/>
		</g>
	</g>
	<g id="scale-x">
		<g>
			<path d="M0.568,0.559V6.77v16.787h16.691h6.174V0.559H0.568z M15.218,21.504H2.609V8.822h12.608V21.504z M21.393,21.504h-4.134
				V6.77H2.609V2.612h18.784L21.393,21.504L21.393,21.504z"/>
			<polygon points="6.271,19.826 8.447,16.576 10.622,19.826 12.886,19.826 9.726,15.494 12.663,11.233 10.525,11.233 8.548,14.324 
				6.533,11.233 4.345,11.233 7.25,15.395 4.146,19.826"/>
		</g>
	</g>
	<g id="scale">
		<path d="M23.499,21.787v0.885c0,0.488-0.396,0.885-0.886,0.885H21.73c-0.489,0-0.888-0.396-0.888-0.885
			c0-0.49,0.396-0.885,0.888-0.885c0-0.49,0.395-0.887,0.883-0.887C23.104,20.9,23.499,21.297,23.499,21.787z M22.613,10.252
			c-0.488,0-0.883,0.396-0.883,0.884v1.84c0,0.488,0.395,0.883,0.883,0.883c0.49,0,0.886-0.395,0.886-0.883v-1.839
			C23.499,10.648,23.104,10.252,22.613,10.252z M22.613,4.928c-0.488,0-0.883,0.396-0.883,0.884v1.84
			c0,0.488,0.395,0.885,0.883,0.885c0.49,0,0.886-0.397,0.886-0.885v-1.84C23.499,5.324,23.104,4.928,22.613,4.928z M22.613,15.576
			c-0.488,0-0.883,0.395-0.883,0.885v1.84c0,0.488,0.395,0.885,0.883,0.885c0.49,0,0.886-0.395,0.886-0.885v-1.84
			C23.499,15.971,23.104,15.576,22.613,15.576z M22.613,0.559H21.73c-0.489,0-0.888,0.397-0.888,0.885s0.396,0.884,0.888,0.884
			c0,0.489,0.395,0.884,0.883,0.884c0.49,0,0.886-0.397,0.886-0.885V1.444C23.499,0.956,23.104,0.559,22.613,0.559z M16.405,2.328
			h1.838c0.49,0,0.888-0.396,0.888-0.885c0-0.488-0.396-0.883-0.888-0.883h-1.838c-0.49,0-0.885,0.397-0.885,0.885
			S15.915,2.328,16.405,2.328z M5.754,2.328h1.841c0.488,0,0.884-0.396,0.884-0.885c0-0.488-0.396-0.883-0.884-0.883H5.754
			c-0.487,0-0.884,0.397-0.884,0.885S5.267,2.328,5.754,2.328z M11.081,2.328h1.839c0.489,0,0.884-0.396,0.884-0.885
			c0-0.488-0.395-0.883-0.884-0.883h-1.839c-0.489,0-0.884,0.397-0.884,0.885S10.592,2.328,11.081,2.328z M1.386,3.213
			c0.488,0,0.885-0.397,0.885-0.885c0.489,0,0.885-0.396,0.885-0.885c0-0.488-0.397-0.883-0.886-0.883H1.386
			c-0.488,0-0.885,0.397-0.885,0.885v0.884C0.501,2.816,0.898,3.213,1.386,3.213z M1.386,8.537c0.488,0,0.885-0.396,0.885-0.884
			v-1.84c0-0.488-0.396-0.885-0.885-0.885S0.501,5.324,0.501,5.812v1.84C0.501,8.141,0.898,8.537,1.386,8.537z M18.243,21.787
			h-1.838c-0.49,0-0.885,0.395-0.885,0.885c0,0.488,0.395,0.885,0.885,0.885h1.838c0.49,0,0.888-0.396,0.888-0.885
			C19.131,22.182,18.735,21.787,18.243,21.787z M19.521,4.15l-5.473,0.684c-0.243,0.029-0.297,0.196-0.127,0.367l1.873,1.874
			l-5.864,5.866H2.27v-1.804c0-0.489-0.396-0.883-0.885-0.883c-0.487,0-0.884,0.395-0.884,0.883v1.839
			c0,0.158,0.051,0.297,0.123,0.424c-0.072,0.127-0.123,0.268-0.123,0.426v2.635v1.84v3.486v0.885c0,0.488,0.396,0.885,0.885,0.885
			h0.885h3.484h1.84h2.637c0.156,0,0.296-0.053,0.424-0.123c0.125,0.07,0.266,0.121,0.424,0.121h1.839
			c0.489,0,0.884-0.395,0.884-0.885s-0.395-0.885-0.884-0.885h-1.805v-7.658l5.867-5.866l1.872,1.873
			c0.174,0.171,0.337,0.114,0.368-0.127l0.682-5.473C19.938,4.295,19.765,4.121,19.521,4.15z"/>
	</g>
</g>
</svg>
