<?xml version="1.0" encoding="utf-8"?>
<!-- Generator: Adobe Illustrator 16.0.4, SVG Export Plug-In . SVG Version: 6.00 Build 0)  -->
<!DOCTYPE svg PUBLIC "-//W3C//DTD SVG 1.1//EN" "http://www.w3.org/Graphics/SVG/1.1/DTD/svg11.dtd">
<svg version="1.1" xmlns="http://www.w3.org/2000/svg" xmlns:xlink="http://www.w3.org/1999/xlink" x="0px" y="0px" width="24px"
	 height="24px" viewBox="0 0 24 24" enable-background="new 0 0 24 24" xml:space="preserve">
<g id="Layer_2_1_">
	<g>
		<g>
			<path d="M18.545,15.682c-0.001,0-0.002,0.001-0.002,0.002l-4.228-2.126c0.189-0.842,0.035-1.745-0.465-2.485l0.776-0.622
				c0.89,0.55,2.068,0.445,2.84-0.327c0.902-0.9,0.902-2.36,0-3.261c-0.899-0.9-2.359-0.9-3.262,0
				c-0.79,0.791-0.885,2.013-0.288,2.909l-0.73,0.585c-0.501-0.399-1.095-0.627-1.702-0.681L11.067,6.09
				c0.33-0.153,0.641-0.363,0.913-0.636c1.248-1.248,1.248-3.271,0-4.519s-3.271-1.248-4.519,0c-1.248,1.248-1.248,3.271,0,4.519
				C7.997,5.99,8.676,6.294,9.375,6.37l0.74,3.484c-0.428,0.154-0.831,0.4-1.174,0.743c-0.161,0.161-0.301,0.335-0.42,0.519
				L6.179,9.94c0.019-0.338-0.096-0.682-0.355-0.941c-0.481-0.481-1.26-0.481-1.742,0c-0.481,0.481-0.481,1.261,0,1.742
				c0.455,0.455,1.174,0.475,1.658,0.069l2.382,1.196c-0.168,0.613-0.15,1.264,0.054,1.869l-3.195,2.234
				c-1.243-0.84-2.945-0.711-4.045,0.39c-1.248,1.248-1.248,3.271,0,4.519c1.248,1.247,3.271,1.247,4.519-0.001
				c0.868-0.867,1.13-2.109,0.792-3.206l2.697-2.695c0.487,0.487,1.094,0.782,1.725,0.889l0.127,1.547
				c-0.254,0.102-0.492,0.256-0.697,0.461c-0.818,0.818-0.818,2.144-0.001,2.962c0.818,0.817,2.144,0.817,2.961,0
				c0.817-0.819,0.817-2.144,0-2.962c-0.361-0.361-0.824-0.554-1.297-0.596l-0.115-1.399c0.664-0.093,1.305-0.391,1.816-0.901
				c0.055-0.056,0.104-0.112,0.153-0.171l4.016,2.646c-0.102,0.931,0.202,1.896,0.915,2.608c1.247,1.247,3.271,1.247,4.519,0
				c1.248-1.248,1.248-3.271,0-4.519C21.816,14.434,19.793,14.434,18.545,15.682z"/>
		</g>
	</g>
	<g>
		<path d="M24,13.619c0,0.479-0.388,0.868-0.867,0.868c-0.409,0-0.749-0.283-0.842-0.663l-5.148-0.741
			c-0.131,0.479-0.334,0.931-0.597,1.341l2.563,1.624c0.286-0.318,0.699-0.52,1.16-0.52c0.862,0,1.562,0.699,1.562,1.562
			s-0.699,1.562-1.562,1.562s-1.562-0.698-1.562-1.562c0-0.214,0.043-0.418,0.122-0.604l-2.589-1.64
			c-0.643,0.797-1.532,1.381-2.553,1.647l0.462,2.855c0.604,0.021,1.088,0.515,1.088,1.123c0,0.623-0.506,1.128-1.128,1.128
			c-0.623,0-1.128-0.505-1.128-1.128c0-0.453,0.271-0.843,0.657-1.021l-0.461-2.854c-0.235,0.034-0.473,0.059-0.717,0.059
			c-0.659,0-1.288-0.134-1.861-0.373l-2.064,5.604c0.126,0.118,0.205,0.285,0.205,0.472c0,0.359-0.291,0.651-0.65,0.651
			s-0.651-0.292-0.651-0.651c0-0.345,0.268-0.623,0.605-0.646l2.084-5.654c-0.421-0.23-0.806-0.522-1.139-0.865l-3.209,2.345
			c-0.007,0.425-0.353,0.767-0.78,0.767c-0.431,0-0.78-0.349-0.78-0.78c0-0.431,0.349-0.78,0.78-0.78
			c0.241,0,0.454,0.111,0.597,0.282l3.049-2.227c-0.468-0.593-0.801-1.296-0.951-2.066L2.94,13.179
			c-0.083,0.735-0.708,1.308-1.465,1.308C0.661,14.486,0,13.827,0,13.013s0.661-1.476,1.475-1.476c0.693,0,1.272,0.478,1.43,1.121
			l4.72-0.443c-0.012-0.138-0.022-0.277-0.022-0.417c0-0.961,0.283-1.854,0.765-2.608L7.318,8.399
			C7.072,8.623,6.748,8.762,6.39,8.762c-0.767,0-1.389-0.621-1.389-1.388c0-0.767,0.622-1.388,1.389-1.388
			c0.767,0,1.388,0.622,1.388,1.388c0,0.22-0.056,0.425-0.146,0.61L8.67,8.766c0.659-0.824,1.581-1.424,2.639-1.683l-0.972-5.535
			c-0.37-0.062-0.651-0.381-0.651-0.768C9.687,0.35,10.035,0,10.467,0s0.781,0.35,0.781,0.781c0,0.291-0.162,0.542-0.398,0.677
			l0.971,5.529c0.21-0.027,0.424-0.047,0.642-0.047c0.548,0,1.074,0.093,1.566,0.262l1.11-3.097
			c-0.126-0.119-0.205-0.286-0.205-0.472c0-0.359,0.292-0.651,0.651-0.651s0.65,0.291,0.65,0.651c0,0.344-0.268,0.623-0.605,0.646
			l-1.118,3.118c0.752,0.353,1.399,0.891,1.883,1.558l3.461-1.979c-0.039-0.121-0.065-0.249-0.065-0.383
			c0-0.697,0.563-1.261,1.261-1.261c0.695,0,1.26,0.564,1.26,1.261c0,0.696-0.564,1.26-1.26,1.26c-0.375,0-0.708-0.166-0.938-0.425
			l-3.434,1.962c0.406,0.71,0.642,1.531,0.642,2.407c0,0.264-0.027,0.521-0.067,0.774l5.072,0.73
			c0.129-0.322,0.439-0.551,0.808-0.551C23.611,12.752,24,13.141,24,13.619z"/>
	</g>
	<g>
		<path d="M0,5.796L0.058,18.22c0.001,0.16,0.088,0.306,0.229,0.382l9.923,5.196c0.064,0.034,0.135,0.052,0.206,0.052
			c0.001,0,0.001,0,0.001,0c0.03,0.034,0.063,0.065,0.103,0.089C10.589,23.979,10.666,24,10.743,24c0.072,0,0.142-0.018,0.208-0.052
			l9.797-5.312c0.14-0.077,0.228-0.225,0.228-0.384V5.326c0-0.004-0.001-0.007-0.001-0.012c0-0.003,0.001-0.006,0.001-0.009
			c-0.001-0.013-0.005-0.024-0.006-0.036c-0.004-0.024-0.007-0.048-0.015-0.07c-0.005-0.017-0.011-0.031-0.018-0.046
			c-0.01-0.02-0.019-0.04-0.03-0.059c-0.009-0.014-0.021-0.027-0.03-0.041c-0.015-0.017-0.029-0.032-0.045-0.047
			c-0.013-0.011-0.026-0.021-0.041-0.032c-0.01-0.007-0.017-0.016-0.026-0.021s-0.021-0.008-0.031-0.013
			c-0.008-0.005-0.015-0.011-0.023-0.015L10.614,0.034c-0.118-0.049-0.251-0.044-0.366,0.013L0.269,5.249
			C0.123,5.323,0.031,5.473,0.03,5.636c0,0.003,0.001,0.005,0.001,0.007C0.012,5.692,0,5.743,0,5.796z M19.534,5.375l-8.796,4.917
			L1.425,5.643l9.036-4.727L19.534,5.375z M11.179,22.834v-11.79l8.926-4.988v11.937L11.179,22.834z"/>
	</g>
	<g>
		<path id="DZone_2_" d="M22.12,2.396c-0.88,0-1.614,0.612-1.821,1.437l-8.332-2.762C11.962,0.478,11.488,0,10.902,0
			c-0.589,0-1.066,0.481-1.066,1.079c0,0.282,0.108,0.539,0.285,0.731L1.319,11.879c-0.104-0.038-0.215-0.059-0.332-0.059
			c-0.545,0-0.988,0.448-0.988,1c0,0.553,0.442,1.001,0.988,1.001c0.387,0,0.722-0.226,0.884-0.555l7.998,1.915
			C9.844,15.3,9.83,15.423,9.83,15.549c0,0.985,0.791,1.784,1.765,1.784c0.973,0,1.762-0.799,1.762-1.784
			c0-0.18-0.025-0.354-0.073-0.517l6.124-2.532c0.171,0.175,0.409,0.284,0.673,0.284c0.525,0,0.95-0.431,0.95-0.964
			c0-0.317-0.151-0.598-0.386-0.774l1-4.903c0.151,0.04,0.312,0.063,0.476,0.063c1.039,0,1.88-0.852,1.88-1.905
			C24.001,3.25,23.159,2.396,22.12,2.396z M11.531,1.947l3.753,4.591l-3.812,1.547l-0.234-5.983
			C11.345,2.065,11.442,2.012,11.531,1.947z M10.898,2.157l0.237,6.063L9.395,8.928c-0.075-0.145-0.182-0.268-0.31-0.364
			l1.468-6.469C10.662,2.134,10.777,2.156,10.898,2.157z M9.518,9.432c0-0.066-0.006-0.131-0.016-0.195l1.647-0.668l0.204,5.214
			c-0.148,0.02-0.29,0.059-0.424,0.112l-1.742-3.681C9.391,10.018,9.518,9.742,9.518,9.432z M12.674,14.138
			c-0.274-0.216-0.613-0.35-0.98-0.371l-0.208-5.334l4.016-1.63l1.817,2.223L12.674,14.138z M15.745,6.703l4.573-1.855
			c0.062,0.206,0.156,0.397,0.278,0.567l-3.108,3.421L15.745,6.703z M20.253,4.522l-4.724,1.916l-3.815-4.665
			c0.106-0.125,0.184-0.277,0.222-0.444l8.314,2.755c-0.007,0.073-0.013,0.145-0.013,0.217C20.238,4.375,20.244,4.449,20.253,4.522z
			 M10.311,1.976c0.004,0.001,0.007,0.004,0.012,0.006L8.856,8.435C8.733,8.383,8.596,8.354,8.454,8.354
			c-0.587,0-1.065,0.484-1.065,1.079c0,0.101,0.014,0.2,0.04,0.292l-5.786,2.347c-0.029-0.026-0.059-0.05-0.091-0.073L10.311,1.976z
			 M1.955,13.026c0.013-0.067,0.021-0.135,0.021-0.206c0-0.174-0.045-0.338-0.123-0.481l5.708-2.316
			c0.19,0.293,0.518,0.488,0.892,0.488c0.192,0,0.372-0.053,0.527-0.142l1.723,3.64c-0.35,0.206-0.624,0.535-0.765,0.927
			L1.955,13.026z M13.191,14.795c-0.084-0.181-0.195-0.347-0.331-0.487l4.618-5.084l1.76,2.152c-0.07,0.132-0.108,0.284-0.108,0.445
			c0,0.172,0.043,0.333,0.121,0.471L13.191,14.795z M20.415,10.919c-0.104-0.04-0.218-0.062-0.334-0.062
			c-0.273,0-0.52,0.115-0.692,0.302L17.65,9.034l3.107-3.421c0.182,0.193,0.401,0.347,0.646,0.45L20.415,10.919z"/>
	</g>
	<g>
		<path d="M11.999,0C5.373,0.001,0.001,5.373,0,11.999c0.001,6.628,5.373,12,11.999,12c6.628-0.001,11.999-5.371,12.001-12
			C23.998,5.373,18.627,0.001,11.999,0z M8.648,2.06C7.841,2.993,6.972,4.291,6.312,6H3.396C4.668,4.18,6.502,2.785,8.648,2.06z
			 M2.528,7.5h3.291C5.525,8.604,5.333,9.855,5.28,11.25H1.54C1.636,9.914,1.98,8.65,2.528,7.5z M1.54,12.75H5.28
			c0.053,1.394,0.245,2.645,0.539,3.749H2.53C1.982,15.349,1.637,14.087,1.54,12.75z M3.398,17.999h2.915
			c0.659,1.706,1.526,3.005,2.333,3.938C6.502,21.212,4.669,19.818,3.398,17.999z M11.251,22.341
			c-0.706-0.528-2.244-1.875-3.325-4.342h3.325V22.341z M11.251,16.498H7.374c-0.322-1.078-0.536-2.328-0.596-3.749h4.474V16.498z
			 M11.251,11.25H6.78C6.842,9.821,7.062,8.577,7.384,7.5h3.867V11.25z M11.251,6h-3.33c0.397-0.902,0.854-1.656,1.308-2.275
			C9.845,2.89,10.457,2.3,10.91,1.923c0.13-0.108,0.242-0.194,0.341-0.268V6z M22.459,11.25H18.72
			c-0.053-1.395-0.245-2.646-0.541-3.75h3.292C22.019,8.65,22.364,9.914,22.459,11.25z M20.604,6h-2.916
			c-0.661-1.71-1.528-3.009-2.338-3.941C17.499,2.785,19.333,4.18,20.604,6z M12.751,6.001V1.659
			c0.706,0.529,2.242,1.876,3.324,4.343L12.751,6.001L12.751,6.001z M12.751,7.5h3.875c0.322,1.077,0.536,2.329,0.597,3.75h-4.472
			V7.5z M12.751,12.749h4.469c-0.062,1.427-0.281,2.671-0.604,3.749h-3.865V12.749z M13.091,22.075
			c-0.131,0.108-0.242,0.192-0.34,0.267V18h3.327c-0.395,0.901-0.854,1.654-1.308,2.272C14.157,21.107,13.543,21.699,13.091,22.075z
			 M15.354,21.937c0.807-0.933,1.674-2.231,2.333-3.938h2.917C19.33,19.818,17.498,21.212,15.354,21.937z M21.469,16.498h-3.288
			c0.294-1.104,0.486-2.354,0.539-3.749h3.739C22.362,14.085,22.019,15.348,21.469,16.498z"/>
	</g>
	<g>
		<g id="c71_play">
			<path d="M2.416,3.138V1.003h2.139v2.135H2.416z M6.76,3.138V1.003H8.9v2.135H6.76z M11.285,3.138V1.003h2.142v2.135H11.285z
				 M15.632,3.138V1.003h2.138v2.135H15.632z M19.794,3.138V1.003h2.14v2.135H19.794z M2.572,15.496V4.424H21.56v11.07H2.572V15.496
				z M2.416,18.92v-2.143h2.139v2.143H2.416z M6.76,18.92v-2.143H8.9v2.143H6.76z M11.285,18.92v-2.143h2.142v2.143H11.285z
				 M15.632,18.92v-2.143h2.138v2.143H15.632z M19.794,18.92v-2.143h2.14v2.143H19.794z M23.46,0H0.539C0.242,0,0,0.197,0,0.445
				v18.97c0,0.243,0.242,0.445,0.539,0.445H23.46c0.299,0,0.54-0.202,0.54-0.445V0.445C24,0.197,23.759,0,23.46,0z"/>
			<path d="M9.725,5.923c0.062-0.029,0.136-0.021,0.193,0.021l6.019,3.841c0.04,0.036,0.065,0.089,0.065,0.143
				c0,0.055-0.025,0.107-0.065,0.142l-6.019,3.843c-0.035,0.025-0.074,0.041-0.116,0.041l-0.077-0.019
				c-0.061-0.028-0.102-0.095-0.102-0.162V6.087C9.624,6.017,9.664,5.954,9.725,5.923z"/>
		</g>
		<g id="Capa_1">
		</g>
	</g>
	<g>
		<path d="M22.5,0v1.5h-3V0h-15v1.5h-3V0H0v18h1.5v-1.5h3V18h15v-1.5h3V18H24V0H22.5z M4.5,13.5h-3v-3h3V13.5z M4.5,7.5h-3v-3h3V7.5
			z M22.5,13.5h-3v-3h3V13.5z M22.5,7.5h-3v-3h3V7.5z"/>
	</g>
	<g>
		<g>
			<path d="M11.91,6.96c-1.919,0-3.48-1.561-3.48-3.48S9.991,0,11.91,0s3.48,1.562,3.48,3.48S13.829,6.96,11.91,6.96z"/>
		</g>
		<g>
			<path d="M3.48,6.96C1.562,6.96,0,5.399,0,3.48S1.562,0,3.48,0c1.918,0,3.48,1.562,3.48,3.48S5.399,6.96,3.48,6.96z"/>
		</g>
		<g>
			<path d="M20.52,6.96c-1.919,0-3.48-1.561-3.48-3.48S18.601,0,20.52,0C22.438,0,24,1.562,24,3.48S22.438,6.96,20.52,6.96z"/>
		</g>
		<g>
			<path d="M11.91,15.327c-1.919,0-3.48-1.562-3.48-3.48s1.562-3.48,3.48-3.48s3.48,1.562,3.48,3.48
				C15.391,13.766,13.829,15.327,11.91,15.327z"/>
		</g>
		<g>
			<path d="M3.48,15.327c-1.919,0-3.48-1.562-3.48-3.48s1.562-3.48,3.48-3.48c1.919,0,3.48,1.562,3.48,3.48
				C6.96,13.766,5.4,15.327,3.48,15.327z"/>
		</g>
		<g>
			<path d="M20.52,15.327c-1.919,0-3.48-1.562-3.48-3.48s1.562-3.48,3.48-3.48S24,9.929,24,11.847
				C24,13.766,22.438,15.327,20.52,15.327z"/>
		</g>
		<g>
			<path d="M11.91,23.668c-1.919,0-3.48-1.562-3.48-3.48s1.562-3.48,3.48-3.48s3.48,1.562,3.48,3.48S13.829,23.668,11.91,23.668z"/>
		</g>
		<g>
			<path d="M3.48,23.668c-1.919,0-3.48-1.562-3.48-3.48s1.562-3.48,3.48-3.48c1.919,0,3.48,1.562,3.48,3.48S5.4,23.668,3.48,23.668z
				"/>
		</g>
		<g>
			<path d="M20.52,23.668c-1.919,0-3.48-1.562-3.48-3.48s1.562-3.48,3.48-3.48S24,18.269,24,20.188S22.438,23.668,20.52,23.668z"/>
		</g>
	</g>
	<g>
		<g>
			<g>
				<path d="M0.511,18.071C0.229,18.071,0,18.301,0,18.582v1.378c0,0.281,0.229,0.511,0.511,0.511h22.979
					c0.28,0,0.511-0.229,0.511-0.511v-1.378c0-0.281-0.23-0.511-0.511-0.511H0.511z"/>
			</g>
			<g>
				<path d="M9.819,17.24c0.28,0,0.615-0.204,0.743-0.455l1.03-2.01c0.129-0.249,0.029-0.559-0.22-0.687l-0.979-0.502
					c-0.25-0.129-0.56-0.028-0.687,0.221l-0.087,0.169c-0.127,0.25-0.337,0.25-0.466,0L2.142,0.305
					c-0.127-0.25-0.438-0.35-0.687-0.222l-0.98,0.502c-0.25,0.128-0.35,0.438-0.221,0.687l7.955,15.513
					c0.128,0.25,0.463,0.455,0.744,0.455H9.819z"/>
			</g>
			<g>
				<path d="M23.833,1.102c0.081-0.156-0.058-0.388-0.308-0.517l-0.98-0.502c-0.25-0.128-0.521-0.106-0.6,0.05
					c-0.079,0.155,0.059,0.388,0.31,0.516l0.979,0.502C23.483,1.281,23.754,1.258,23.833,1.102z"/>
			</g>
			<g>
				<path d="M16.003,11.723c-0.129,0.25-0.029,0.56,0.221,0.688l0.98,0.502c0.251,0.128,0.56,0.028,0.688-0.222l0.137-0.267
					c0.128-0.25,0.028-0.56-0.222-0.688l-0.98-0.502c-0.25-0.128-0.56-0.028-0.688,0.222L16.003,11.723z"/>
			</g>
			<g>
				<path d="M19.233,10.071c0.129-0.25,0.029-0.559-0.221-0.688l-0.979-0.501c-0.249-0.128-0.559-0.028-0.688,0.221l-0.138,0.268
					c-0.127,0.25-0.027,0.559,0.222,0.688l0.979,0.501c0.249,0.128,0.56,0.028,0.688-0.221L19.233,10.071z"/>
			</g>
			<g>
				<path d="M22.853,3.016c0.128-0.25,0.028-0.56-0.222-0.688l-0.979-0.502c-0.249-0.128-0.559-0.028-0.688,0.221l-0.139,0.268
					c-0.127,0.25-0.027,0.559,0.222,0.688l0.981,0.502c0.249,0.128,0.56,0.028,0.688-0.222L22.853,3.016z"/>
			</g>
			<g>
				<path d="M21.646,5.368c0.128-0.25,0.028-0.56-0.222-0.688l-0.979-0.502c-0.25-0.128-0.56-0.029-0.687,0.222l-0.138,0.267
					c-0.129,0.25-0.029,0.559,0.221,0.687l0.979,0.502c0.251,0.128,0.56,0.028,0.688-0.222L21.646,5.368z"/>
			</g>
			<g>
				<path d="M19.617,8.208c0.249,0.128,0.56,0.029,0.687-0.221L20.44,7.72c0.129-0.25,0.029-0.559-0.222-0.687L19.24,6.53
					c-0.251-0.128-0.56-0.028-0.688,0.222l-0.137,0.266c-0.129,0.25-0.03,0.56,0.221,0.688L19.617,8.208z"/>
			</g>
			<g>
				<path d="M18.606,1.102c0.08-0.156-0.059-0.388-0.31-0.517l-0.979-0.502c-0.251-0.128-0.521-0.106-0.601,0.05
					c-0.08,0.155,0.059,0.388,0.308,0.516l0.98,0.502C18.257,1.281,18.525,1.258,18.606,1.102z"/>
			</g>
			<g>
				<path d="M10.674,11.917c-0.075,0.142,0.029,0.343,0.228,0.444c0.197,0.102,0.466,0.39,0.594,0.639l1.941,3.784
					c0.129,0.25,0.463,0.455,0.744,0.455h0.865c0.281,0,0.615-0.204,0.744-0.455l1.03-2.01c0.129-0.249,0.029-0.559-0.222-0.687
					l-0.98-0.502c-0.249-0.129-0.56-0.028-0.687,0.221l-0.087,0.169c-0.128,0.25-0.337,0.25-0.466,0l-1.715-3.345
					c-0.128-0.25-0.028-0.35,0.222-0.221l0.294,0.15c0.25,0.128,0.56,0.028,0.688-0.222l0.138-0.268
					c0.128-0.25,0.029-0.559-0.222-0.688l-0.979-0.501c-0.25-0.128-0.534-0.08-0.63,0.108c-0.096,0.188-0.28,0.138-0.408-0.112
					L7.369,0.305c-0.127-0.25-0.437-0.35-0.687-0.222L5.703,0.585c-0.25,0.128-0.35,0.437-0.221,0.687l5.093,9.931
					C10.702,11.453,10.747,11.775,10.674,11.917z"/>
			</g>
			<g>
				<path d="M17.625,3.016c0.128-0.25,0.028-0.56-0.223-0.688l-0.978-0.502c-0.251-0.128-0.56-0.028-0.688,0.221l-0.139,0.268
					c-0.129,0.25-0.029,0.559,0.223,0.688l0.979,0.502c0.25,0.128,0.559,0.028,0.687-0.222L17.625,3.016z"/>
			</g>
			<g>
				<path d="M15.213,7.72c0.127-0.25,0.028-0.56-0.222-0.688L14.012,6.53c-0.249-0.128-0.559-0.028-0.688,0.222l-0.137,0.267
					c-0.129,0.25-0.029,0.56,0.221,0.688l0.98,0.502c0.249,0.128,0.56,0.029,0.688-0.221L15.213,7.72z"/>
			</g>
			<g>
				<path d="M16.419,5.368c0.129-0.25,0.029-0.559-0.221-0.687l-0.981-0.503c-0.25-0.128-0.559-0.029-0.688,0.222l-0.137,0.267
					c-0.128,0.25-0.028,0.559,0.222,0.687l0.979,0.502c0.249,0.128,0.559,0.028,0.687-0.222L16.419,5.368z"/>
			</g>
		</g>
	</g>
	<g>
		<path d="M23.844,13.106v8.293c0,1.434-1.168,2.601-2.602,2.601H2.603C1.168,24,0,22.833,0,21.399V2.779
			c0-1.434,1.168-2.601,2.603-2.601h8.315c-0.448,0.459-0.745,1.065-0.811,1.739H2.603c-0.477,0-0.863,0.387-0.863,0.862v18.62
			c0,0.476,0.386,0.861,0.863,0.861h18.639c0.477,0,0.864-0.386,0.864-0.861v-7.484C22.76,13.854,23.366,13.571,23.844,13.106z
			 M13.739,2.608h5.685l-9.201,9.201c-0.509,0.509-0.509,1.335,0,1.844s1.335,0.509,1.843,0l9.201-9.201v5.685
			c0,0.72,0.584,1.304,1.305,1.304c0.36,0,0.687-0.145,0.922-0.381c0.236-0.237,0.382-0.562,0.382-0.922V1.304
			c0-0.72-0.584-1.304-1.304-1.304h-8.833c-0.72,0-1.303,0.583-1.303,1.304C12.435,2.024,13.02,2.608,13.739,2.608z"/>
	</g>
	<g>
		<g>
			<path d="M12,5.455c1.507,0,2.728-1.222,2.728-2.728C14.728,1.221,13.507,0,12,0S9.273,1.221,9.273,2.727
				C9.273,4.233,10.493,5.455,12,5.455z M12,1.09c0.903,0,1.636,0.734,1.636,1.637c0,0.903-0.732,1.636-1.636,1.636
				s-1.636-0.733-1.636-1.636C10.364,1.824,11.097,1.09,12,1.09z"/>
			<path d="M2.727,5.455c1.507,0,2.728-1.222,2.728-2.728C5.455,1.221,4.234,0,2.727,0C1.221,0,0,1.221,0,2.727
				C0,4.233,1.221,5.455,2.727,5.455z M2.727,1.09c0.903,0,1.637,0.734,1.637,1.637c0,0.903-0.734,1.636-1.637,1.636
				c-0.903,0-1.636-0.733-1.636-1.636C1.091,1.824,1.824,1.09,2.727,1.09z"/>
			<path d="M21.272,22.909c1.507,0,2.728-1.222,2.728-2.728c0-1.508-1.221-2.728-2.728-2.728s-2.727,1.22-2.727,2.728
				C18.546,21.688,19.766,22.909,21.272,22.909z M21.272,18.545c0.903,0,1.637,0.733,1.637,1.637s-0.733,1.636-1.637,1.636
				s-1.636-0.732-1.636-1.636S20.369,18.545,21.272,18.545z"/>
			<path d="M2.727,14.181c1.507,0,2.728-1.22,2.728-2.727c0-1.506-1.221-2.727-2.728-2.727C1.221,8.727,0,9.948,0,11.454
				C0,12.961,1.221,14.181,2.727,14.181z M2.727,9.818c0.903,0,1.637,0.733,1.637,1.636c0,0.902-0.734,1.636-1.637,1.636
				c-0.903,0-1.636-0.733-1.636-1.636C1.091,10.551,1.824,9.818,2.727,9.818z"/>
			<path d="M21.272,5.455C22.779,5.455,24,4.233,24,2.727C24,1.221,22.779,0,21.272,0s-2.727,1.221-2.727,2.727
				C18.546,4.233,19.766,5.455,21.272,5.455z M21.272,1.09c0.903,0,1.637,0.734,1.637,1.637c0,0.903-0.733,1.636-1.637,1.636
				s-1.636-0.733-1.636-1.636C19.637,1.824,20.369,1.09,21.272,1.09z"/>
			<path d="M12,14.181c1.507,0,2.728-1.22,2.728-2.727c0-1.506-1.221-2.727-2.728-2.727s-2.727,1.221-2.727,2.727
				C9.273,12.961,10.493,14.181,12,14.181z M12,9.818c0.903,0,1.636,0.733,1.636,1.636c0,0.902-0.732,1.636-1.636,1.636
				s-1.636-0.733-1.636-1.636C10.364,10.551,11.097,9.818,12,9.818z"/>
			<path d="M21.272,14.181c1.507,0,2.728-1.22,2.728-2.727c0-1.506-1.221-2.727-2.728-2.727s-2.727,1.221-2.727,2.727
				C18.546,12.961,19.766,14.181,21.272,14.181z M21.272,9.818c0.903,0,1.637,0.733,1.637,1.636c0,0.902-0.733,1.636-1.637,1.636
				s-1.636-0.733-1.636-1.636C19.637,10.551,20.369,9.818,21.272,9.818z"/>
			<path d="M12,22.909c1.507,0,2.728-1.222,2.728-2.728c0-1.508-1.221-2.728-2.728-2.728s-2.727,1.22-2.727,2.728
				C9.273,21.688,10.493,22.909,12,22.909z M12,18.545c0.903,0,1.636,0.733,1.636,1.637S12.903,21.817,12,21.817
				s-1.636-0.732-1.636-1.636S11.097,18.545,12,18.545z"/>
			<path d="M2.727,22.909c1.507,0,2.728-1.222,2.728-2.728c0-1.508-1.221-2.728-2.728-2.728C1.221,17.454,0,18.674,0,20.182
				C0,21.688,1.221,22.909,2.727,22.909z M2.727,18.545c0.903,0,1.637,0.733,1.637,1.637s-0.734,1.636-1.637,1.636
				c-0.903,0-1.636-0.732-1.636-1.636S1.824,18.545,2.727,18.545z"/>
		</g>
		<g>
		</g>
		<g>
		</g>
		<g>
		</g>
		<g>
		</g>
		<g>
		</g>
		<g>
		</g>
		<g>
		</g>
		<g>
		</g>
		<g>
		</g>
		<g>
		</g>
		<g>
		</g>
		<g>
		</g>
		<g>
		</g>
		<g>
		</g>
		<g>
		</g>
	</g>
	<g>
		<g>
			<polygon points="17.333,0 6.667,0 12.002,9.237 			"/>
			<polygon points="5.333,0.77 0,10.008 10.668,10.008 			"/>
			<polygon points="24,10.008 18.667,0.77 13.333,10.008 			"/>
			<polygon points="18.667,20.785 24,11.546 13.333,11.546 			"/>
			<polygon points="0,11.546 5.333,20.785 10.668,11.546 			"/>
			<polygon points="6.667,21.555 17.333,21.555 12.002,12.317 			"/>
		</g>
	</g>
	<g>
		<g>
			<path d="M24,10.034l-3.334-6.515l-0.064-0.055l-6.369-1.959L9.953,3.17L7.197,0H7.052L3.793,0.401L1.531,3.384L1.43,3.518
				L1.383,3.677L0.049,8.251L0,8.419l0.044,0.133l1.973,6.069l6.022,3.436l0.116-0.004l3.901-2.605l0.1-0.061l5.791-3.256
				l0.109-0.041l5.88-1.904L24,10.034z M23.682,9.893l-6.587-2.238l3.45-3.894L23.682,9.893z M11.96,15.14L7.436,12.53l4.89-1.049
				L11.96,15.14z M4.31,7.147L6.065,3.82l1.789,4.709L4.31,7.147z M16.677,7.457l-2.853-1.542l-0.002-0.113l0.46-3.81L16.677,7.457z
				 M14.419,1.758l5.956,1.864l-3.439,3.882L14.419,1.758z M7.958,10.056l0.357-1.217l3.991,2.423l-5.008,1.073L7.958,10.056z
				 M8.47,8.677l5.087-2.62l-1.168,4.999L8.47,8.677z M9.845,3.422l3.646,2.423L8.42,8.457L9.845,3.422z M8.154,8.594L8.12,8.611
				L6.278,3.764L9.612,3.44L8.154,8.594z M8.08,8.851L7.756,9.97l-0.657,2.248L4.409,7.42L8.08,8.851z M12.595,11.137l1.169-5.005
				l2.947,1.594l-4.044,3.422L12.595,11.137z M16.839,7.903l0.944,3.983l-4.827-0.697L16.839,7.903z M13.617,5.664l-3.469-2.337
				l3.943-1.576L13.617,5.664z M9.699,3.212l-3.493,0.34l0.049-0.093H6.222l0.959-3.138L9.699,3.212z M3.912,0.607l3.07-0.377
				L5.994,3.458H1.75L3.912,0.607z M5.894,3.678l-1.752,3.32l-2.398-3.32H5.894z M1.571,3.813l2.405,3.331l-3.7,1.11L1.571,3.813z
				 M4.109,7.333l2.748,4.901l-6.47-3.785L4.109,7.333z M0.31,8.658l6.535,3.824l-4.643,1.883L0.31,8.658z M7.076,12.624
				l0.079,0.142l0.796,4.986l-5.568-3.224L7.076,12.624z M8.176,17.777l-0.803-5.031l4.473,2.58L8.176,17.777z M12.182,15.121
				l0.368-3.688l0.156-0.034l0.027-0.022l4.858,0.703L12.182,15.121z M17.056,7.873l6.499,2.208l-5.55,1.796L17.056,7.873z"/>
		</g>
	</g>
	<g>
		<g>
			<polygon points="3.583,4.138 3.583,7.449 6.451,5.793 			"/>
			<polygon points="3.583,8.275 3.583,11.586 6.451,9.931 			"/>
			<polygon points="3.583,16.552 3.583,19.862 6.451,18.207 			"/>
			<polygon points="3.823,20.276 6.69,21.933 6.69,18.621 			"/>
			<polygon points="3.823,12 6.69,13.656 6.69,10.345 			"/>
			<polygon points="3.823,7.862 6.69,9.517 6.69,6.208 			"/>
			<polygon points="3.823,3.724 6.69,5.379 6.69,2.069 			"/>
			<polygon points="7.167,2.069 7.167,5.379 10.035,3.724 			"/>
			<polygon points="7.167,6.208 7.167,9.517 10.035,7.862 			"/>
			<polygon points="7.167,10.345 7.167,13.656 10.035,12 			"/>
			<polygon points="7.167,14.482 7.167,17.794 10.035,16.139 			"/>
			<polygon points="7.167,18.621 7.167,21.933 10.035,20.276 			"/>
			<polygon points="7.407,22.345 10.273,24 10.273,20.691 			"/>
			<polygon points="7.407,18.207 10.273,19.862 10.273,16.552 			"/>
			<polygon points="7.407,14.069 10.273,15.725 10.273,12.414 			"/>
			<polygon points="7.407,9.931 10.273,11.586 10.273,8.275 			"/>
			<polygon points="7.407,1.655 10.273,3.311 10.273,0 			"/>
			<polygon points="0,6.208 0,9.517 2.867,7.862 			"/>
			<polygon points="0,10.345 0,13.656 2.867,12 			"/>
			<polygon points="0,14.482 0,17.794 2.867,16.139 			"/>
			<polygon points="0.239,18.207 3.106,19.862 3.106,16.552 			"/>
			<polygon points="0.239,14.069 3.106,15.725 3.106,12.414 			"/>
			<polygon points="0.239,9.931 3.106,11.586 3.106,8.275 			"/>
			<polygon points="0.239,5.793 3.106,7.449 3.106,4.138 			"/>
			<polygon points="10.75,0 10.75,3.311 13.617,1.655 			"/>
			<polygon points="10.75,8.275 10.75,11.586 13.617,9.931 			"/>
			<polygon points="10.75,12.414 10.75,15.725 13.617,14.069 			"/>
			<polygon points="10.75,16.552 10.75,19.862 13.617,18.207 			"/>
			<polygon points="10.75,20.691 10.75,24 13.617,22.345 			"/>
			<polygon points="10.99,20.276 13.855,21.933 13.855,18.621 			"/>
			<polygon points="10.99,16.139 13.855,17.794 13.855,14.482 			"/>
			<polygon points="10.99,12 13.855,13.656 13.855,10.345 			"/>
			<polygon points="10.99,7.862 13.855,9.517 13.855,6.208 			"/>
			<polygon points="10.99,3.724 13.855,5.379 13.855,2.069 			"/>
			<polygon points="14.334,2.069 14.334,5.379 17.203,3.724 			"/>
			<polygon points="14.334,6.208 14.334,9.517 17.203,7.862 			"/>
			<polygon points="14.334,10.345 14.334,13.656 17.203,12 			"/>
			<polygon points="14.334,18.621 14.334,21.933 17.203,20.276 			"/>
			<polygon points="14.574,18.207 17.44,19.862 17.44,16.552 			"/>
			<polygon points="14.574,9.931 17.44,11.586 17.44,8.275 			"/>
			<polygon points="14.574,5.793 17.44,7.449 17.44,4.138 			"/>
			<polygon points="17.918,4.138 17.918,7.449 20.786,5.793 			"/>
			<polygon points="17.918,8.275 17.918,11.586 20.786,9.931 			"/>
			<polygon points="17.918,12.414 17.918,15.725 20.786,14.069 			"/>
			<polygon points="17.918,16.552 17.918,19.862 20.786,18.207 			"/>
			<polygon points="18.159,16.139 21.024,17.794 21.024,14.482 			"/>
			<polygon points="18.159,12 21.024,13.656 21.024,10.345 			"/>
			<polygon points="18.159,7.862 21.024,9.517 21.024,6.208 			"/>
		</g>
	</g>
	<g>
		<path d="M0,0v24h24V0H0z M23.226,11.612H12.388V0.774h10.838V11.612z M11.613,0.774v10.838H0.774V0.774H11.613z M0.774,12.387
			h10.839v10.839H0.774V12.387z M12.388,23.226V12.387h10.838v10.839H12.388z"/>
	</g>
</g>
<g id="scene">
	<g id="point-cloud" display="none">
		<path display="inline" d="M1.929,8.891c1.064,0,1.928-0.864,1.928-1.929c0-1.064-0.864-1.928-1.928-1.928
			C0.863,5.034,0,5.898,0,6.962C0,8.027,0.863,8.891,1.929,8.891z M8.357,14.249c1.066,0,1.929-0.863,1.929-1.929
			c0-1.064-0.863-1.928-1.929-1.928c-1.064,0-1.928,0.864-1.928,1.928C6.429,13.386,7.293,14.249,8.357,14.249z M18.216,14.712
			c1.063,0,1.929-0.863,1.929-1.929c0-1.065-0.865-1.928-1.929-1.928c-1.065,0-1.929,0.863-1.929,1.928
			C16.287,13.849,17.15,14.712,18.216,14.712z M20.145,19.324c0,1.066,0.863,1.929,1.928,1.929S24,20.391,24,19.324
			c0-1.064-0.863-1.929-1.928-1.929S20.145,18.26,20.145,19.324z M20.145,5.363c1.064,0,1.928-0.864,1.928-1.929
			c0-1.065-0.863-1.929-1.928-1.929c-1.065,0-1.929,0.864-1.929,1.929C18.216,4.499,19.079,5.363,20.145,5.363z M1.929,19.324
			c1.064,0,1.928-0.863,1.928-1.929c0-1.064-0.864-1.929-1.928-1.929C0.863,15.467,0,16.331,0,17.396
			C0,18.461,0.863,19.324,1.929,19.324z M8.357,20.289c0,1.064,0.865,1.928,1.929,1.928s1.929-0.863,1.929-1.928
			s-0.865-1.93-1.929-1.93S8.357,19.225,8.357,20.289z M12.215,8.891c1.065,0,1.929-0.864,1.929-1.929
			c0-1.064-0.863-1.928-1.929-1.928s-1.929,0.864-1.929,1.928C10.286,8.027,11.149,8.891,12.215,8.891z"/>
	</g>
	<g id="geometry-cube_1_" display="none">
		<path display="inline" d="M20.826,15.887V6.917c0.778-0.255,1.342-0.986,1.342-1.851c0-1.075-0.872-1.947-1.947-1.947
			c-0.679,0-1.274,0.347-1.623,0.874l-5.622-1.866c0.007-0.06,0.016-0.119,0.016-0.18C12.991,0.872,12.119,0,11.044,0
			C9.968,0,9.097,0.872,9.097,1.948c0,0.063,0.003,0.125,0.009,0.187L3.569,3.988C3.22,3.465,2.624,3.12,1.948,3.12
			C0.873,3.12,0,3.992,0,5.067C0,6.002,0.66,6.782,1.538,6.97v8.864C0.66,16.022,0,16.803,0,17.737c0,1.075,0.873,1.947,1.948,1.947
			c0.811,0,1.505-0.496,1.799-1.201l5.604,2.606c-0.162,0.284-0.254,0.612-0.254,0.963c0,1.075,0.872,1.947,1.947,1.947
			c1.075,0,1.947-0.872,1.947-1.947c0-0.348-0.095-0.673-0.256-0.956l5.685-2.621c0.29,0.71,0.986,1.209,1.801,1.209
			c1.076,0,1.947-0.871,1.947-1.947C22.168,16.873,21.604,16.142,20.826,15.887z M2.553,15.887V6.917
			c0.348-0.114,0.648-0.326,0.88-0.6l5.708,2.655c-0.029,0.132-0.044,0.27-0.044,0.41c0,0.935,0.659,1.715,1.537,1.903v1.285v1.072
			l-7.537,2.523C2.933,16.047,2.75,15.952,2.553,15.887z M3.751,17.018l6.882-2.305v5.437c-0.178,0.038-0.345,0.102-0.501,0.185
			l-6.263-2.913C3.846,17.279,3.803,17.146,3.751,17.018z M11.649,20.203v-5.427l6.762,2.244c-0.05,0.125-0.087,0.256-0.109,0.393
			l-6.343,2.924C11.859,20.284,11.756,20.237,11.649,20.203z M11.649,13.706v-1.259v-1.215c0.779-0.254,1.342-0.986,1.342-1.85
			c0-0.139-0.016-0.273-0.042-0.403l5.778-2.664c0.273,0.326,0.651,0.563,1.083,0.655v8.864c-0.272,0.059-0.524,0.175-0.742,0.335
			L11.649,13.706z M18.279,4.958c-0.003,0.037-0.006,0.073-0.006,0.109c0,0.111,0.01,0.22,0.028,0.326l-5.818,2.682
			c-0.224-0.248-0.51-0.437-0.835-0.543V3.798c0.397-0.13,0.737-0.385,0.975-0.717L18.279,4.958z M9.465,3.085
			c0.277,0.384,0.69,0.663,1.168,0.766v3.628C10.23,7.565,9.875,7.777,9.607,8.07l-5.74-2.671C3.885,5.291,3.895,5.18,3.895,5.067
			c0-0.039-0.003-0.077-0.005-0.115L9.465,3.085z"/>
	</g>
	<g id="geometry-triangle_1_" display="none">
		<path display="inline" d="M20.247,15.066V8.932C22.375,8.575,24,6.729,24,4.5C24,2.015,21.984,0,19.5,0C17.013,0,15,2.015,15,4.5
			c0,0.457,0.069,0.897,0.196,1.312L8.129,9.345C7.31,8.228,5.992,7.5,4.499,7.5c-2.484,0-4.5,2.015-4.5,4.5
			c0,2.483,2.016,4.5,4.5,4.5c1.493,0,2.812-0.729,3.63-1.848l7.067,3.533C15.069,18.601,15,19.042,15,19.498
			c0,2.484,2.013,4.5,4.5,4.5c2.484,0,4.5-2.016,4.5-4.5C24,17.27,22.375,15.422,20.247,15.066z M18.748,15.067
			c-1.179,0.199-2.199,0.855-2.878,1.778l-7.066-3.533C8.932,12.896,9,12.456,9,11.999c0-0.458-0.069-0.899-0.198-1.314l7.067-3.532
			c0.677,0.926,1.699,1.582,2.878,1.78V15.067z"/>
	</g>
	<g id="points" display="none">
		<g display="inline">
			<path d="M12.039,0C9.117,0,6.741,2.376,6.741,5.298c0,2.922,2.376,5.298,5.298,5.298s5.3-2.376,5.3-5.298
				C17.339,2.377,14.961,0,12.039,0z"/>
			<path d="M5.299,22.319c2.922,0,5.299-2.375,5.299-5.297s-2.377-5.299-5.299-5.299C2.377,11.724,0,14.101,0,17.022
				C0,19.943,2.377,22.319,5.299,22.319z"/>
			<path d="M18.7,11.723c-2.921,0-5.298,2.377-5.298,5.299s2.377,5.298,5.298,5.298c2.922,0,5.3-2.376,5.3-5.298
				C24,14.101,21.622,11.723,18.7,11.723z"/>
		</g>
	</g>
	<g id="hierarchy3" display="none">
		<path display="inline" d="M5.795,0H0v5.794h5.795V0z M4.855,4.855H0.939V0.939h3.916V4.855z M0,19.889h5.795v-5.794H0V19.889z
			 M0.939,15.034h3.916v3.915H0.939V15.034z M18.206,14.095v5.794H24v-5.794H18.206z M23.061,18.949h-3.915v-3.915h3.915V18.949z
			 M9.103,12.807h5.794V7.013H9.103V12.807z M10.042,7.953h3.916v3.915h-3.916V7.953z M3.661,9.322h4.405v1.175H3.661v2.756H2.487
			V6.66h1.174V9.322z M20.516,10.497h-4.874V9.322h5.462v0.004h0.587v3.926h-1.175V10.497z"/>
	</g>
	<g id="hierarchy2" display="none">
		<g id="Node_1_" display="inline">
			<g>
				<path d="M21,17.999c-0.554,0-1.068,0.161-1.515,0.425l-4.91-4.912C14.838,13.066,15,12.555,15,11.999
					c0-1.053-0.548-1.978-1.372-2.513l1.17-3.507C14.865,5.983,14.93,6,15,6c1.654,0,3-1.346,3-3c0-1.655-1.346-3-3-3
					c-1.655,0-3,1.345-3,3c0,1.054,0.546,1.977,1.371,2.513l-1.168,3.507C12.135,9.016,12.069,9,12,9c-1.655,0-3,1.345-3,3
					c0,0.345,0.07,0.671,0.177,0.979l-3.762,2.508C4.87,14.739,3.994,14.249,3,14.249c-1.654,0-3,1.346-3,3
					c0,1.653,1.346,2.999,3,2.999c1.655,0,3-1.346,3-2.999c0-0.111-0.021-0.218-0.032-0.327l4.043-2.695
					c0.532,0.475,1.223,0.772,1.991,0.772c0.552,0,1.068-0.161,1.514-0.425l4.91,4.912C18.161,19.931,18,20.444,18,20.998
					c0,1.654,1.345,3,3,3c1.653,0,3-1.346,3-3C24,19.345,22.653,17.999,21,17.999z M3,18.749c-0.826,0-1.5-0.673-1.5-1.5
					c0-0.828,0.674-1.5,1.5-1.5c0.827,0,1.5,0.672,1.5,1.5C4.499,18.076,3.827,18.749,3,18.749z M12,13.499
					c-0.828,0-1.5-0.673-1.5-1.5c0-0.828,0.672-1.5,1.5-1.5s1.5,0.672,1.5,1.5C13.5,12.826,12.828,13.499,12,13.499z M13.5,3
					c0-0.828,0.673-1.5,1.5-1.5c0.828,0,1.5,0.672,1.5,1.5c0,0.827-0.672,1.5-1.5,1.5C14.173,4.5,13.5,3.827,13.5,3z M21,22.498
					c-0.828,0-1.5-0.672-1.5-1.5c0-0.827,0.672-1.5,1.5-1.5c0.827,0,1.5,0.673,1.5,1.5C22.5,21.826,21.827,22.498,21,22.498z"/>
			</g>
		</g>
	</g>
	<g id="hierarchy" display="none">
		<g id="_x34_27._Network" display="inline">
			<g>
				<path d="M20.4,15.6c1.987,0,3.6-1.612,3.6-3.6c0-1.989-1.612-3.601-3.6-3.601c-1.567,0-2.897,1.003-3.391,2.4h-6.532
					l7.645-4.413C18.742,6.895,19.535,7.2,20.4,7.2c1.987,0,3.6-1.612,3.6-3.6C24,1.611,22.388,0,20.4,0
					C18.411,0,16.8,1.611,16.8,3.6c0,0.252,0.026,0.498,0.075,0.735l-10.166,5.87C6.087,9.128,4.932,8.4,3.6,8.4
					C1.612,8.4,0,10.011,0,12c0,1.987,1.612,3.6,3.6,3.6c1.333,0,2.487-0.729,3.109-1.805l10.166,5.869
					C16.826,19.902,16.8,20.148,16.8,20.4c0,1.986,1.611,3.6,3.601,3.6c1.987,0,3.6-1.613,3.6-3.6c0-1.989-1.612-3.601-3.6-3.601
					c-0.865,0-1.658,0.305-2.278,0.812L10.479,13.2h6.531C17.503,14.597,18.833,15.6,20.4,15.6z M20.4,10.8
					c0.662,0,1.199,0.537,1.199,1.2c0,0.662-0.537,1.2-1.199,1.2s-1.2-0.538-1.2-1.2C19.2,11.337,19.738,10.8,20.4,10.8z M20.4,2.4
					c0.662,0,1.199,0.537,1.199,1.2c0,0.662-0.537,1.2-1.199,1.2s-1.2-0.538-1.2-1.2C19.2,2.937,19.738,2.4,20.4,2.4z M3.6,13.2
					c-0.663,0-1.2-0.538-1.2-1.2c0-0.663,0.538-1.2,1.2-1.2c0.662,0,1.2,0.537,1.2,1.2C4.8,12.662,4.262,13.2,3.6,13.2z M20.4,19.2
					c0.662,0,1.199,0.536,1.199,1.2c0,0.662-0.537,1.199-1.199,1.199s-1.2-0.537-1.2-1.199C19.2,19.736,19.738,19.2,20.4,19.2z"/>
			</g>
		</g>
		<g display="inline">
		</g>
		<g display="inline">
		</g>
		<g display="inline">
		</g>
		<g display="inline">
		</g>
		<g display="inline">
		</g>
		<g display="inline">
		</g>
		<g display="inline">
		</g>
		<g display="inline">
		</g>
		<g display="inline">
		</g>
		<g display="inline">
		</g>
		<g display="inline">
		</g>
		<g display="inline">
		</g>
		<g display="inline">
		</g>
		<g display="inline">
		</g>
		<g display="inline">
		</g>
	</g>
	<g id="skeleton" display="none">
		<g display="inline">
			<path d="M9.771,21.423c0,0-0.654,0.302-2.964-2.308c0,0,0.252-1.556-1.052-1.154c0,0-1.958,1.055-0.703,1.806
				c0,0,0.501,0.251,0.902,0.251l2.157,2.158c0,0,0.203,1.607,1.254,1.105C9.367,23.281,11.226,21.826,9.771,21.423z"/>
			<path d="M4.45,16.905L3.093,15.25c0,0,0.653-1.403-0.752-1.055c0,0-1.856,0.803-0.954,1.454c0,0,0.502,0.202,0.855,0.151
				l1.254,1.555c0,0-0.351,1.858,1.304,0.751C4.801,18.11,6.305,16.905,4.45,16.905z"/>
			<path d="M2.041,13.545c-0.021-0.376-0.597-0.854-0.903-1.206c-1.097-1.255-1.215-0.102-1.104,0.151
				C1.188,15.1,2.071,14.111,2.041,13.545z"/>
			<path d="M19.202,15.25c-0.509-0.015-1.169,0.027-1.103,1.756c0.036,0.914-0.82,3.665-1.456,3.363
				c-0.44-0.21-0.516-1.619,0.855-4.619c0.169-0.37,1.377-1.2-0.504-1.557c-0.513-0.097-1.451-0.637-1.056,1.809
				c0.174,1.065-0.169,3.367-1.153,4.165c0,0-0.853-0.604-0.401-4.717c0,0,1.476-1.548,0.301-2.109
				c-0.47-0.223-1.793-0.784-1.957,0.704c-0.042,0.371,0.1,1.004,0.501,1.405c0,0,0.452,5.317-0.652,4.717
				c0,0-1.504-3.212-1.003-5.219c0,0,0.918-1.858-1.104-1.858c-0.151,0-1.803-0.273-0.45,2.107c0.552,0.974,1.103,3.263,0.901,4.718
				c-0.089,0.648-1.053,1.806,2.109,1.555c0,0,2.36,0.052,3.011,0.3c0,0,2.057,1.006,1.857-0.75c0,0,0.151-2.661,1.507-4.016
				C19.404,17.008,21.263,15.301,19.202,15.25z"/>
			<path d="M21.488,11.262c-0.952-0.504-0.779,0.727-0.779,0.727c-0.023,0.752-0.478,1.479-0.728,1.582
				c-0.135,0.054-0.327,0.176-0.451,0.224c-1.33,0.527,0.979,1.405,0.979,1.405c0.603-0.201,0.196-0.692,0.201-0.928
				c0.007-0.252,0.383-0.649,0.527-0.853c0.646-0.92,0.729-0.789,1.027-0.979C23.041,11.939,21.488,11.262,21.488,11.262z"/>
			<path d="M22.868,8.083c-0.773-0.265-0.498,0.635-0.498,0.635c0.069,0.569-0.183,1.168-0.358,1.271
				c-0.098,0.058-0.226,0.174-0.314,0.223c-0.935,0.552,0.9,0.941,0.9,0.941c0.429-0.221,0.066-0.542,0.042-0.72
				c-0.026-0.189,0.211-0.531,0.296-0.704c0.374-0.763,0.452-0.673,0.655-0.854C24.113,8.408,22.868,8.083,22.868,8.083z"/>
			<path d="M19.426,8.477c0.368-0.334-0.057-0.585-0.116-0.768c-0.066-0.191,0.091-0.606,0.135-0.807
				c0.199-0.892,0.294-0.816,0.452-1.054c0.409-0.613-0.877-0.664-0.877-0.664c-0.814-0.095-0.346,0.788-0.346,0.788
				c0.192,0.579,0.076,1.268-0.072,1.419l-0.256,0.308C17.554,8.5,19.426,8.477,19.426,8.477z"/>
			<path d="M14.896,7.12c0.43-0.438-0.062-0.761-0.135-0.999c-0.075-0.251,0.103-0.791,0.156-1.054
				c0.232-1.164,0.346-1.065,0.529-1.373c0.475-0.801-1.023-0.864-1.023-0.864c-0.945-0.124-0.403,1.025-0.403,1.025
				c0.223,0.754,0.088,1.654-0.086,1.852c-0.094,0.108-0.211,0.304-0.298,0.401C12.713,7.152,14.896,7.12,14.896,7.12z"/>
			<path d="M8.705,3.318C7.761,3.452,8.589,4.415,8.589,4.415c0.417,0.668,0.527,1.57,0.413,1.806
				c-0.06,0.13-0.124,0.351-0.178,0.466c-0.61,1.252,1.484,0.637,1.484,0.637c0.296-0.535-0.267-0.716-0.4-0.927
				c-0.139-0.221-0.112-0.79-0.13-1.056C9.689,4.158,9.827,4.223,9.919,3.878C10.164,2.98,8.705,3.318,8.705,3.318z"/>
			<path d="M9.694,2.68c0.48-0.381-0.213-0.667-0.347-0.876c-0.14-0.222-0.084-0.64-0.104-0.905
				c-0.021-0.282-0.25-0.628-0.602-0.501c-0.594,0.21,0.017,1.254-0.098,1.489c-0.061,0.13-0.211,0.196-0.253,0.318
				C7.964,3.081,9.378,2.932,9.694,2.68z"/>
			<path d="M15.314,2.354c0.352-0.189,0.062-0.604-0.03-0.835c-0.097-0.247,0.034-0.646,0.06-0.911c0.03-0.28-0.135-0.662-0.5-0.603
				c-0.621,0.101-0.213,1.236-0.366,1.448c-0.084,0.115-0.24,0.154-0.307,0.265C13.69,2.523,14.958,2.545,15.314,2.354z"/>
			<path d="M20.032,4.713c0.351-0.189,0.062-0.606-0.031-0.837c-0.097-0.242,0.035-0.646,0.062-0.909
				c0.028-0.28-0.135-0.662-0.501-0.601c-0.621,0.099-0.213,1.236-0.365,1.446c-0.085,0.115-0.243,0.155-0.309,0.265
				C18.407,4.882,19.676,4.904,20.032,4.713z"/>
			<path d="M23.801,6.583c-0.098-0.245,0.033-0.645,0.061-0.909c0.029-0.281-0.135-0.663-0.502-0.603
				c-0.621,0.101-0.211,1.238-0.365,1.449c-0.085,0.115-0.24,0.154-0.306,0.264c-0.481,0.806,0.788,0.826,1.145,0.633
				C24.182,7.23,23.892,6.812,23.801,6.583z"/>
			<path d="M13.131,11.612c-0.948,1.414,1.903,0.771,1.903,0.771c0.453-0.601-0.236-0.838-0.372-1.086
				c-0.148-0.263-0.031-0.92-0.019-1.225c0.058-1.369,0.218-1.287,0.389-1.681c0.438-1.028-1.476-0.671-1.476-0.671
				c-1.216,0.11-0.25,1.082-0.25,1.082c0.339,0.583,0.303,2.04,0.126,2.309C13.336,11.256,13.219,11.481,13.131,11.612z"/>
			<path d="M9.302,7.944C8.11,8.212,9.196,9.047,9.196,9.047c0.411,0.532,0.569,1.981,0.427,2.27
				c-0.077,0.157-0.162,0.396-0.232,0.539c-0.756,1.527,1.988,0.516,1.988,0.516c0.369-0.656-0.343-0.8-0.514-1.027
				c-0.178-0.243-0.149-0.907-0.174-1.212c-0.124-1.364,0.049-1.304,0.164-1.719C11.152,7.336,9.302,7.944,9.302,7.944z"/>
			<path d="M18.1,13.62c0.385-0.425-0.05-0.812-0.099-1.079c-0.109-0.56,0.109-1.879,0.577-2.208
				c0.408-0.288,0.628-0.653,0.45-0.928c-0.408-0.644-1.287-0.595-1.632-0.3c-0.5,0.427,0.101,1.08,0.101,1.08
				s-0.057,2.126-0.578,2.308c-0.501,0.174-0.546,0.596-0.35,0.803C17.045,13.794,17.777,13.973,18.1,13.62z"/>
		</g>
	</g>
	<g id="bone2" display="none">
		<path display="inline" d="M1.5,9.849C1.406,8.181,2.396,6.526,3.355,5.692c2.361-2.046,4.613-5.099,4.763-5.426
			c0.07-0.21,0.291-0.314,0.502-0.244c0.211,0.069,0.321,0.307,0.25,0.516C8.734,0.947,6.311,4.19,3.879,6.297
			c-0.817,0.71-1.66,2.109-1.581,3.506c0.062,1.103,0.685,2.068,1.85,2.868c1.011,0.693,3.256,1.155,4.974-0.563
			c0.314-0.313,1.186-1.489-0.718-3.501c-1.166-1.231-0.965-2.78,0.671-5.172c0.691-1.011,1.725-2.538,1.725-2.538l0.662,0.451
			c0,0-1.036,1.527-1.725,2.539C8.005,6.419,8.353,7.388,8.986,8.056c1.908,2.017,1.616,3.709,0.703,4.62
			c-1.045,1.049-2.259,1.418-3.361,1.418c-1.067,0-2.029-0.348-2.631-0.759C2.316,12.385,1.578,11.213,1.5,9.849z M10.879,13.827
			c-0.155-0.539-0.598-0.687-0.647-0.702c-0.125-0.039-0.261-0.013-0.363,0.068c-1.396,1.106-2.826,1.571-4.256,1.385
			c-2.513-0.328-4.221-2.58-4.237-2.603c-0.105-0.141-0.29-0.197-0.455-0.138c-0.06,0.021-0.596,0.227-0.824,0.9
			c-0.275,0.813,0.037,1.916,0.927,3.275c0.279,0.426,0.617,0.831,0.975,1.26c1.194,1.43,2.547,3.051,2.463,6.316
			C4.457,23.811,4.631,23.995,4.853,24c0.003,0,0.007,0,0.01,0c0.216,0,0.395-0.172,0.4-0.39c0.091-3.568-1.429-5.388-2.649-6.851
			c-0.343-0.41-0.667-0.798-0.92-1.185c-0.969-1.481-0.945-2.24-0.845-2.562c0.035-0.109,0.084-0.19,0.135-0.253
			c0.601,0.688,2.236,2.311,4.519,2.612c1.559,0.205,3.106-0.247,4.6-1.349c0.004,0.015,0.009,0.028,0.012,0.044
			c0.058,0.244,0.018,1.008-1.59,2.833c-1.073,1.218-1,3.959,0.167,6.379c0.097,0.199,0.336,0.283,0.535,0.185
			c0.199-0.096,0.285-0.335,0.187-0.535c-1.019-2.11-1.146-4.526-0.288-5.501C10.538,15.822,11.112,14.645,10.879,13.827z
			 M6.264,11.731c-0.216,0.039-0.361,0.249-0.322,0.465c0.036,0.194,0.203,0.33,0.393,0.33c0.025,0,0.048-0.003,0.072-0.006
			c1.034-0.188,1.684-0.618,1.934-1.281c0.446-1.18-0.642-2.575-0.687-2.635C7.516,8.43,7.265,8.4,7.09,8.538
			C6.918,8.674,6.887,8.926,7.024,9.1c0.239,0.303,0.806,1.229,0.566,1.857C7.445,11.337,7,11.598,6.264,11.731z"/>
	</g>
	<g id="bone" display="none">
		<g display="inline">
			<path d="M3.019,23.998H3.015c-0.249-0.003-0.445-0.206-0.443-0.452c0.033-2.838-0.202-4.883-0.676-5.906
				c-0.183-0.392-0.52-0.719-0.845-1.032c-0.396-0.384-0.771-0.744-0.896-1.232c-0.086-0.231-0.143-0.517-0.153-0.803
				c-0.02-0.664,0.201-1.313,0.623-1.831c0.076-0.093,0.185-0.15,0.306-0.161c0.118-0.012,0.239,0.026,0.331,0.104
				c0.15,0.129,0.303,0.232,0.455,0.31c0.319,0.162,0.676,0.25,1.033,0.25l0.085-0.003c0.538-0.018,1.057-0.229,1.456-0.595
				c0.161-0.149,0.412-0.156,0.582-0.021c0.404,0.319,0.909,0.497,1.423,0.497l0.083-0.003c0.382-0.013,0.758-0.123,1.09-0.319
				c0.113-0.067,0.219-0.149,0.316-0.234c0.091-0.08,0.212-0.118,0.332-0.107c0.119,0.009,0.231,0.068,0.308,0.161
				c0.385,0.472,0.603,1.041,0.623,1.646c0.008,0.288-0.028,0.576-0.109,0.853c-0.088,0.487-0.469,0.904-0.871,1.345
				c-0.318,0.35-0.651,0.711-0.826,1.125c-0.452,1.047-0.672,3.109-0.64,5.959c0.001,0.247-0.197,0.45-0.444,0.453H6.151
				c-0.245,0-0.445-0.198-0.448-0.443c-0.031-3.017,0.208-5.144,0.713-6.324c0.239-0.554,0.637-0.989,0.991-1.375
				c0.313-0.345,0.61-0.669,0.662-0.947c0.063-0.229,0.086-0.421,0.082-0.618c-0.009-0.263-0.072-0.516-0.187-0.747l-0.035,0.022
				c-0.465,0.275-0.989,0.428-1.524,0.446l-0.099,0.004l0,0c-0.603,0-1.189-0.169-1.693-0.481c-0.509,0.368-1.121,0.578-1.755,0.599
				l-0.102,0.002c-0.506,0-1.002-0.118-1.447-0.346c-0.075-0.038-0.149-0.08-0.222-0.126c-0.133,0.271-0.2,0.572-0.189,0.878
				c0.006,0.189,0.043,0.382,0.112,0.564c0.078,0.287,0.362,0.562,0.665,0.855c0.367,0.354,0.785,0.757,1.036,1.299
				c0.538,1.162,0.792,3.281,0.757,6.293C3.464,23.802,3.266,23.998,3.019,23.998z"/>
			<path d="M2.75,12.394c-0.431,0-0.858-0.104-1.245-0.3c-0.893-0.453-1.468-1.357-1.504-2.358C-0.007,9.448,0.029,9.16,0.109,8.883
				c0.088-0.489,0.469-0.906,0.873-1.346c0.318-0.349,0.649-0.711,0.824-1.125c0.451-1.049,0.671-3.11,0.641-5.959
				C2.445,0.205,2.643,0.001,2.89,0c0.269,0.009,0.452,0.195,0.453,0.442c0.032,3.017-0.208,5.145-0.712,6.325
				C2.392,7.32,1.994,7.757,1.641,8.141C1.327,8.485,1.03,8.81,0.978,9.088C0.915,9.317,0.892,9.511,0.896,9.706
				c0.023,0.673,0.412,1.283,1.015,1.59c0.277,0.141,0.587,0.214,0.901,0.2c0.554-0.018,1.065-0.28,1.405-0.719
				c0.082-0.105,0.205-0.168,0.338-0.175c0.126-0.003,0.261,0.05,0.351,0.151c0.37,0.414,0.891,0.629,1.454,0.622
				c0.312-0.01,0.618-0.101,0.887-0.261c0.58-0.348,0.926-0.981,0.904-1.658C8.146,9.264,8.108,9.074,8.04,8.891
				C7.961,8.604,7.678,8.327,7.375,8.036C7.008,7.682,6.591,7.279,6.34,6.736C5.802,5.573,5.547,3.456,5.581,0.443
				c0.002-0.249,0.163-0.44,0.454-0.442C6.282,0.003,6.48,0.208,6.477,0.455C6.444,3.291,6.678,5.335,7.153,6.36
				c0.183,0.392,0.519,0.717,0.843,1.03c0.396,0.382,0.772,0.744,0.898,1.235C8.98,8.855,9.037,9.14,9.047,9.426
				c0.033,1.001-0.483,1.942-1.34,2.457c-0.399,0.237-0.855,0.371-1.316,0.389c-0.648,0.026-1.29-0.189-1.795-0.588
				c-0.478,0.433-1.093,0.686-1.75,0.709L2.75,12.394z"/>
		</g>
	</g>
	<g id="parent" display="none">
		<path display="inline" d="M16.8,15.999c-0.913,2.627-3.43,4.571-6.515,4.571c-3.771,0-6.857-3.087-6.857-6.856
			c0-2.972,1.943-5.486,4.571-6.515c0-0.114,0-0.228,0-0.341c0-1.143,0.229-2.286,0.571-3.314C3.771,4.342,0,8.571,0,13.714
			c0,5.714,4.571,10.285,10.285,10.285c5.144,0,9.371-3.772,10.173-8.571c-1.029,0.342-2.172,0.571-3.314,0.571
			C17.029,15.999,16.913,15.999,16.8,15.999z"/>
		<path display="inline" d="M17.144,0c-3.773,0-6.858,3.084-6.858,6.857c0,3.77,3.085,6.856,6.858,6.856
			c3.77,0,6.856-3.086,6.856-6.856C24,3.085,20.913,0,17.144,0z M17.144,10.286c-1.944,0-3.43-1.486-3.43-3.428
			c0-1.944,1.485-3.429,3.43-3.429c1.941,0,3.428,1.484,3.428,3.429C20.571,8.799,19.085,10.286,17.144,10.286z"/>
	</g>
	<g id="group5" display="none">
		<path display="inline" d="M12,9.6c2.639,0,4.801-2.161,4.801-4.8C16.801,2.159,14.639,0,12,0C9.359,0,7.2,2.159,7.2,4.8
			C7.2,7.439,9.359,9.6,12,9.6z M12,2.4c1.319,0,2.399,1.079,2.399,2.4c0,1.319-1.08,2.4-2.399,2.4c-1.32,0-2.4-1.081-2.4-2.4
			C9.6,3.479,10.68,2.4,12,2.4z M4.8,13.2c-2.64,0-4.8,2.157-4.8,4.799c0,2.639,2.16,4.8,4.8,4.8s4.8-2.161,4.8-4.8
			C9.6,15.357,7.44,13.2,4.8,13.2z M4.8,20.398c-1.321,0-2.4-1.08-2.4-2.399S3.479,15.6,4.8,15.6s2.4,1.08,2.4,2.399
			S6.121,20.398,4.8,20.398z M12,10.919c-1.201,0-2.281,1.081-2.281,2.281c0,1.199,1.08,2.279,2.281,2.279
			c1.2,0,2.28-1.08,2.28-2.279C14.28,12,13.2,10.919,12,10.919z M19.2,13.2c-2.642,0-4.801,2.157-4.801,4.799
			c0,2.639,2.159,4.8,4.801,4.8c2.639,0,4.8-2.161,4.8-4.8C24,15.357,21.839,13.2,19.2,13.2z M19.2,20.398
			c-1.319,0-2.399-1.08-2.399-2.399S17.881,15.6,19.2,15.6s2.4,1.08,2.4,2.399S20.52,20.398,19.2,20.398z"/>
	</g>
	<g id="group4" display="none">
		<path display="inline" d="M8.399,12C7.079,12,6,13.08,6,14.399s1.08,2.399,2.4,2.399c1.32,0,2.4-1.08,2.4-2.399S9.719,12,8.399,12
			z M14.399,8.4c0-1.32-1.08-2.4-2.399-2.4c-1.32,0-2.4,1.08-2.4,2.4c0,1.32,1.081,2.4,2.4,2.4C13.319,10.8,14.399,9.72,14.399,8.4z
			 M12,0C5.4,0,0,5.4,0,12c0,6.599,5.4,11.999,12,11.999c6.601,0,12-5.4,12-11.999C24,5.4,18.601,0,12,0z M12,21.599
			c-5.28,0-9.6-4.319-9.6-9.599c0-5.28,4.32-9.6,9.6-9.6c5.281,0,9.601,4.319,9.601,9.6C21.601,17.279,17.281,21.599,12,21.599z
			 M15.601,12c-1.32,0-2.4,1.08-2.4,2.399s1.08,2.399,2.4,2.399c1.319,0,2.399-1.08,2.399-2.399S16.92,12,15.601,12z"/>
	</g>
	<g id="group3" display="none">
		<path display="inline" d="M0,13.749l0.034,7.132c0,0.091,0.05,0.175,0.131,0.219l5.697,2.982c0.037,0.02,0.077,0.029,0.118,0.029
			c0,0,0,0,0.001,0c0.017,0.021,0.036,0.038,0.059,0.052c0.04,0.023,0.084,0.035,0.129,0.035c0.041,0,0.081-0.01,0.119-0.03
			l5.624-3.05c0.052-0.027,0.088-0.073,0.11-0.125c0.022,0.044,0.057,0.083,0.102,0.106l5.696,2.982
			c0.037,0.02,0.078,0.029,0.119,0.029c0,0,0,0,0.001,0c0.017,0.021,0.035,0.038,0.058,0.052c0.04,0.024,0.085,0.036,0.129,0.036
			c0.041,0,0.082-0.01,0.118-0.03l5.625-3.051C23.949,21.075,24,20.99,24,20.898v-7.42c0-0.002-0.001-0.005-0.001-0.007
			c0-0.001,0.001-0.004,0.001-0.006c-0.001-0.007-0.003-0.014-0.004-0.021c-0.002-0.014-0.004-0.026-0.008-0.04
			c-0.003-0.01-0.007-0.019-0.011-0.027c-0.005-0.011-0.01-0.022-0.019-0.033c-0.005-0.008-0.011-0.017-0.017-0.023
			c-0.008-0.01-0.017-0.019-0.025-0.027c-0.007-0.007-0.015-0.013-0.024-0.019c-0.005-0.003-0.009-0.008-0.015-0.013
			c-0.006-0.003-0.012-0.005-0.018-0.007c-0.005-0.003-0.009-0.007-0.014-0.009l-5.796-2.806c-0.023-0.01-0.048-0.011-0.072-0.014
			V3.057c0-0.002-0.001-0.004-0.001-0.006s0-0.003,0-0.006c0-0.007-0.003-0.014-0.004-0.021c-0.002-0.014-0.004-0.027-0.007-0.041
			c-0.003-0.009-0.007-0.018-0.011-0.026c-0.006-0.012-0.011-0.023-0.018-0.034c-0.005-0.008-0.012-0.016-0.018-0.023
			c-0.009-0.01-0.017-0.019-0.025-0.027c-0.007-0.007-0.016-0.013-0.023-0.019c-0.006-0.004-0.011-0.009-0.017-0.013
			c-0.005-0.003-0.012-0.004-0.017-0.007c-0.006-0.003-0.009-0.006-0.014-0.008L12.031,0.02c-0.067-0.029-0.145-0.026-0.21,0.007
			L6.093,3.013C6.008,3.055,5.955,3.141,5.955,3.235c0,0.001,0,0.003,0,0.004c-0.01,0.028-0.018,0.057-0.018,0.088l0.034,7.098
			c-0.03,0.004-0.061,0.009-0.087,0.023l-5.729,2.986c-0.083,0.043-0.137,0.128-0.138,0.222c0,0.002,0.001,0.003,0.001,0.004
			C0.007,13.688,0,13.718,0,13.749z M17.151,3.084l-5.049,2.823L6.755,3.239l5.187-2.714L17.151,3.084z M17.479,10.411l-5.125,2.697
			V6.339l5.125-2.864V10.411z M18.376,16.761l5.124-2.863v6.852l-5.124,2.78V16.761z M12.776,13.66l5.188-2.713l5.209,2.56
			l-5.05,2.822L12.776,13.66z M6.417,16.761l5.124-2.863v6.852l-5.124,2.78V16.761z M0.818,13.66l5.187-2.713l5.209,2.56
			l-5.05,2.822L0.818,13.66z"/>
	</g>
	<g id="group2" display="none">
		<g display="inline">
			<polygon points="0,11.348 5.419,13.922 5.419,7.379 0,4.805 			"/>
			<polygon points="11.711,4.805 6.293,7.379 6.293,13.506 11.711,8.095 			"/>
			<polygon points="5.855,0.941 0.007,3.719 5.855,6.513 11.705,3.735 			"/>
			<polygon points="15.966,6.262 15.966,18.037 24,14.296 			"/>
			<polygon points="14.938,18.037 14.938,6.262 6.902,14.296 			"/>
			<path d="M20.543,5.102C20.543,2.289,18.254,0,15.441,0c-1.78,0-3.385,0.893-4.323,2.396l1.542,0.779v4.024l2.79-2.791l3.931,3.93
				C20.131,7.428,20.543,6.284,20.543,5.102z"/>
		</g>
	</g>
	<g id="group" display="none">
		<g display="inline">
			<path d="M5.416,4.933c0-1.724,0.885-3.239,2.226-4.121C6.863,0.3,5.933,0,4.933,0C2.208,0,0,2.208,0,4.933
				s2.208,4.932,4.933,4.932c1,0,1.93-0.3,2.708-0.812C6.301,8.171,5.416,6.657,5.416,4.933z"/>
			<path d="M12.484,4.933c0-1.724,0.884-3.239,2.224-4.121C13.931,0.3,13.001,0,12,0C9.276,0,7.067,2.208,7.067,4.933
				S9.276,9.865,12,9.865c1.001,0,1.931-0.3,2.708-0.812C13.368,8.171,12.484,6.657,12.484,4.933z"/>
			<circle cx="19.067" cy="4.932" r="4.932"/>
		</g>
	</g>
	<g id="hemisphere-light2" display="none">
		<g display="inline">
			<path d="M0,11.999C0,18.617,5.383,24,12,24c6.616,0,12-5.383,12-12.001C24,5.384,18.616,0,12,0C5.383,0,0,5.384,0,11.999z
				 M22.814,11.999H1.185C1.185,6.037,6.037,1.186,12,1.186C17.963,1.186,22.814,6.037,22.814,11.999z"/>
		</g>
	</g>
	<g id="hemisphere-light" display="none">
		<g id="_x35_0_x25__Brightness_1_" display="inline">
			<g>
				<path d="M13.5,1.5C13.5,0.671,12.828,0,12,0c-0.829,0-1.5,0.671-1.5,1.5S11.171,3,12,3C12.828,3,13.5,2.328,13.5,1.5z M18,4.5
					C18,5.328,18.672,6,19.5,6S21,5.328,21,4.5S20.328,3,19.5,3S18,3.672,18,4.5z M21,12c0,0.828,0.672,1.5,1.5,1.5S24,12.828,24,12
					s-0.672-1.5-1.5-1.5S21,11.172,21,12z M18,19.5c0,0.828,0.672,1.5,1.5,1.5s1.5-0.672,1.5-1.5S20.328,18,19.5,18
					S18,18.672,18,19.5z M2.999,12c0-0.828-0.672-1.5-1.5-1.5C0.672,10.5,0,11.172,0,12s0.672,1.5,1.499,1.5
					C2.327,13.5,2.999,12.828,2.999,12z M6,19.5C6,18.672,5.328,18,4.5,18s-1.501,0.672-1.501,1.5S3.672,21,4.5,21S6,20.328,6,19.5z
					 M13.5,22.5c0-0.828-0.672-1.5-1.5-1.5c-0.829,0-1.5,0.672-1.5,1.5S11.171,24,12,24C12.828,24,13.5,23.328,13.5,22.5z M18,12
					c0-3.313-2.688-6-6-6c-3.313,0-6,2.688-6,6c0,3.313,2.687,6,6,6C15.312,18,18,15.313,18,12z M9,12c0-1.657,1.343-3,3-3
					c1.656,0,3,1.343,3,3H9z M6,4.5C6,3.672,5.328,3,4.5,3S2.999,3.672,2.999,4.5S3.672,6,4.5,6S6,5.328,6,4.5z"/>
			</g>
		</g>
		<g display="inline">
		</g>
		<g display="inline">
		</g>
		<g display="inline">
		</g>
		<g display="inline">
		</g>
		<g display="inline">
		</g>
		<g display="inline">
		</g>
		<g display="inline">
		</g>
		<g display="inline">
		</g>
		<g display="inline">
		</g>
		<g display="inline">
		</g>
		<g display="inline">
		</g>
		<g display="inline">
		</g>
		<g display="inline">
		</g>
		<g display="inline">
		</g>
		<g display="inline">
		</g>
	</g>
	<g id="spot-light2" display="none">
		<path display="inline" d="M16.434,4.463l6.547-2.415C23.066,2.016,23.155,2,23.241,2c0.31,0,0.599,0.191,0.712,0.496
			c0.145,0.392-0.056,0.828-0.449,0.973l-6.547,2.416c-0.391,0.146-0.826-0.056-0.974-0.448C15.84,5.044,16.04,4.608,16.434,4.463z
			 M8.783,3.353C3.707,4.396,0,7.657,0,11.523c0,3.867,3.708,7.127,8.783,8.171V3.353z M12.262,5.167V3
			c-0.938,0-1.845,0.08-2.721,0.217V19.83c0.875,0.138,1.783,0.217,2.721,0.217V17.88c1.264-0.203,2.268-2.968,2.268-6.356
			C14.529,8.134,13.525,5.37,12.262,5.167z M23.504,19.337l-6.547-2.416c-0.391-0.146-0.828,0.055-0.974,0.449
			c-0.146,0.394,0.055,0.828,0.45,0.973l6.548,2.416c0.085,0.031,0.174,0.047,0.261,0.047c0.309,0,0.598-0.188,0.711-0.496
			C24.098,19.918,23.896,19.482,23.504,19.337z M23.242,10.766h-6.547c-0.418,0-0.757,0.34-0.757,0.758
			c0,0.419,0.339,0.759,0.757,0.759h6.547c0.419,0,0.758-0.34,0.758-0.758S23.661,10.766,23.242,10.766z"/>
	</g>
	<g id="directional-light2" display="none">
		<g display="inline">
			<path d="M8.783,3.354C3.707,4.396,0,7.658,0,11.524c0,3.867,3.708,7.129,8.783,8.17V3.354L8.783,3.354z"/>
			<path d="M23.242,10.766h-6.547c-0.418,0-0.757,0.339-0.757,0.757c0,0.419,0.339,0.759,0.757,0.759h6.547
				c0.419,0,0.758-0.34,0.758-0.758S23.661,10.766,23.242,10.766z"/>
			<path d="M16.695,6.172h6.547C23.661,6.172,24,5.833,24,5.416c0-0.419-0.339-0.758-0.758-0.758h-6.547
				c-0.418,0-0.757,0.339-0.757,0.758C15.938,5.833,16.277,6.172,16.695,6.172z"/>
			<path d="M12.262,5.167V3c-0.938,0-1.845,0.08-2.721,0.218v16.611c0.877,0.14,1.783,0.219,2.721,0.219v-2.167
				c1.266-0.203,2.267-2.967,2.267-6.357C14.528,8.136,13.527,5.37,12.262,5.167z"/>
			<path d="M23.242,16.876h-6.547c-0.418,0-0.757,0.339-0.757,0.757c0,0.419,0.339,0.758,0.757,0.758h6.547
				c0.419,0,0.758-0.339,0.758-0.758C24,17.215,23.661,16.876,23.242,16.876z"/>
		</g>
	</g>
	<g id="spot-light" display="none">
		<path display="inline" d="M15.913,3.333l6.758-3.239c0.101-0.05,0.206-0.08,0.311-0.089c0.378-0.037,0.753,0.161,0.926,0.518
			c0.224,0.461,0.03,1.015-0.432,1.237l-6.757,3.241c-0.458,0.223-1.013,0.028-1.238-0.43C15.259,4.112,15.451,3.558,15.913,3.333z
			 M23.072,10.833h-4.414c-0.511,0-0.927,0.416-0.927,0.927c0,0.513,0.416,0.928,0.927,0.928h4.414c0.514,0,0.927-0.416,0.927-0.927
			S23.586,10.833,23.072,10.833z M8.355,3.405C3.74,3.405,0,7.146,0,11.759c0,4.615,3.74,8.355,8.355,8.355
			c4.614,0,8.355-3.74,8.355-8.355C16.71,7.146,12.969,3.405,8.355,3.405z M8.355,17.821c-3.348,0-6.062-2.713-6.062-6.062
			c0-3.347,2.714-6.062,6.062-6.062c3.347,0,6.062,2.714,6.062,6.062C14.417,15.108,11.702,17.821,8.355,17.821z M15.48,18.854
			c0.226-0.459,0.78-0.653,1.238-0.43l6.757,3.24c0.462,0.223,0.655,0.776,0.432,1.237c-0.173,0.357-0.548,0.556-0.926,0.519
			c-0.104-0.01-0.21-0.039,0.365,0.235l-6.758-3.238C15.451,19.868,15.259,19.314,15.48,18.854z"/>
	</g>
	<g id="directional-light" display="none">
		<g display="inline">
			<path d="M16.632,1.868h6.132C23.445,1.868,24,1.451,24,0.935C24,0.417,23.445,0,22.764,0h-6.132
				c-0.682,0-1.234,0.417-1.234,0.935C15.397,1.451,15.95,1.868,16.632,1.868z"/>
			<path d="M22.764,16.86h-6.132c-0.682,0-1.234,0.418-1.234,0.934c0,0.517,0.553,0.936,1.234,0.936h6.132
				c0.682,0,1.236-0.419,1.236-0.936C24,17.278,23.445,16.86,22.764,16.86z"/>
			<path d="M8.431,0.934C3.774,0.934,0,4.709,0,9.365c0,4.656,3.774,8.43,8.431,8.43c4.655,0,8.431-3.774,8.431-8.43
				C16.861,4.709,13.086,0.934,8.431,0.934z M8.431,15.481c-3.378,0-6.117-2.738-6.117-6.117c0-3.378,2.739-6.117,6.117-6.117
				c3.378,0,6.117,2.739,6.117,6.117C14.548,12.743,11.809,15.481,8.431,15.481z"/>
			<path d="M22.764,8.429l-3.315-0.001c-0.681,0-1.235,0.419-1.235,0.935c0,0.517,0.555,0.937,1.235,0.937l3.315,0.001
				c0.682,0,1.236-0.419,1.236-0.935S23.445,8.429,22.764,8.429z"/>
		</g>
	</g>
	<g id="point-light" display="none">
		<path display="inline" d="M22.996,10.995h-4.011c-0.057,0-0.109,0.008-0.161,0.017c-0.168-1.165-0.626-2.235-1.302-3.137
			c0.044-0.032,0.088-0.065,0.126-0.104l2.837-2.836c0.189-0.19,0.293-0.442,0.293-0.71s-0.104-0.52-0.293-0.71
			c-0.19-0.189-0.442-0.294-0.71-0.294c-0.269,0-0.521,0.105-0.71,0.294l-2.836,2.836c-0.04,0.039-0.073,0.082-0.104,0.127
			c-0.902-0.675-1.972-1.135-3.138-1.303c0.009-0.052,0.016-0.105,0.016-0.16V1.004C13.003,0.45,12.553,0,12,0
			c-0.554,0-1.004,0.45-1.004,1.004v4.011c0,0.055,0.008,0.108,0.017,0.16C9.846,5.343,8.776,5.802,7.874,6.478
			C7.843,6.434,7.81,6.391,7.77,6.351L4.935,3.515C4.745,3.325,4.493,3.22,4.225,3.22s-0.52,0.105-0.71,0.294
			c-0.189,0.19-0.294,0.442-0.294,0.71s0.104,0.52,0.294,0.71l2.836,2.836C6.39,7.81,6.433,7.843,6.478,7.875
			c-0.675,0.901-1.134,1.972-1.302,3.137c-0.053-0.008-0.105-0.017-0.161-0.017H1.004C0.45,10.995,0,11.446,0,12
			c0,0.553,0.45,1.004,1.004,1.004h4.011c0.055,0,0.108-0.008,0.161-0.017c0.168,1.165,0.626,2.235,1.302,3.138
			c-0.043,0.031-0.087,0.064-0.126,0.103l-2.835,2.837c-0.19,0.19-0.294,0.441-0.294,0.71c0,0.268,0.104,0.52,0.294,0.71
			c0.19,0.189,0.441,0.294,0.71,0.294c0.267,0,0.52-0.104,0.709-0.294l2.836-2.836c0.04-0.039,0.073-0.082,0.104-0.127
			c0.901,0.675,1.972,1.134,3.137,1.303c-0.008,0.052-0.017,0.104-0.017,0.159v4.012c0,0.554,0.451,1.004,1.004,1.004
			s1.003-0.45,1.003-1.004v-4.012c0-0.055-0.007-0.107-0.016-0.159c1.166-0.168,2.235-0.628,3.138-1.303
			c0.032,0.044,0.065,0.088,0.104,0.127l2.835,2.836c0.191,0.189,0.442,0.294,0.711,0.294s0.52-0.104,0.71-0.294
			c0.189-0.19,0.294-0.442,0.294-0.71c0-0.269-0.104-0.52-0.294-0.71l-2.837-2.836c-0.039-0.039-0.082-0.072-0.126-0.104
			c0.676-0.902,1.134-1.973,1.302-3.138c0.053,0.009,0.105,0.017,0.161,0.017h4.011C23.55,13.004,24,12.553,24,12
			C24,11.446,23.55,10.995,22.996,10.995z M16.69,12c0,2.586-2.104,4.69-4.69,4.69S7.31,14.586,7.31,12S9.414,7.31,12,7.31
			S16.69,9.413,16.69,12z"/>
	</g>
	<g id="point-light2" display="none">
		<g display="inline">
			<path d="M12,23.999c-0.725,0-1.314-0.589-1.314-1.313v-3.77c-0.945-0.18-1.85-0.556-2.644-1.098l-2.667,2.666
				c-0.496,0.497-1.362,0.498-1.859,0c-0.249-0.249-0.384-0.579-0.384-0.929c0-0.352,0.136-0.682,0.384-0.93l2.667-2.667
				c-0.543-0.797-0.918-1.701-1.098-2.645H1.315C0.59,13.314,0,12.726,0,12c0-0.725,0.59-1.314,1.315-1.314h3.769
				c0.18-0.945,0.554-1.849,1.097-2.645L3.515,5.374c-0.249-0.25-0.386-0.58-0.386-0.929c0-0.35,0.137-0.68,0.386-0.929
				c0.5-0.499,1.361-0.498,1.859-0.001l2.667,2.667c0.795-0.542,1.7-0.917,2.644-1.098V1.314C10.685,0.589,11.275,0,12,0
				c0.724,0,1.314,0.59,1.314,1.314v3.769c0.943,0.179,1.848,0.555,2.645,1.098l2.668-2.667c0.495-0.497,1.361-0.497,1.858,0
				c0.249,0.248,0.385,0.579,0.385,0.93c0,0.351-0.136,0.681-0.385,0.929l-2.666,2.667c0.542,0.796,0.917,1.699,1.097,2.644h3.769
				C23.41,10.685,24,11.274,24,12s-0.59,1.315-1.315,1.315h-3.768c-0.181,0.944-0.556,1.849-1.098,2.646l2.666,2.665
				c0.249,0.249,0.385,0.579,0.385,0.93s-0.136,0.681-0.385,0.929c-0.497,0.498-1.361,0.498-1.858,0.001l-2.668-2.667
				c-0.796,0.543-1.7,0.919-2.644,1.099v3.769C13.314,23.41,12.726,23.999,12,23.999z"/>
		</g>
	</g>
	<g id="sun-light2" display="none">
		<g display="inline">
			<circle cx="12.005" cy="12.161" r="5.335"/>
			<path d="M24,14.999l-5.398-4.196l3.042-6.189l-6.494,1.602L12.312,0L9.424,5.965L2.791,4.1l2.755,6.099L0,14.297l6.618,1.853
				c0,0-0.971-1.513-1.214-2.819c-0.22-1.187,0.1-2.812,0.162-3.103c0.018-0.042,0.686-1.55,1.512-2.537
				c0.838-1,2.397-1.709,2.397-1.709L9.459,5.976c0.23-0.055,1.65-0.383,2.852-0.383c1.123,0,2.416,0.497,2.767,0.641
				c0.001,0,1.38,0.85,2.195,1.871c0.813,1.021,1.286,2.785,1.286,2.785l0.016-0.034c0.053,0.35,0.234,1.77-0.022,2.875
				c-0.298,1.272-1.389,2.736-1.389,2.736l0.01-0.003c-0.222,0.224-1.275,1.251-2.32,1.762c-1.174,0.574-2.998,0.649-2.998,0.649
				l5.453,4.376l-0.087-6.797L24,14.999z"/>
			<path d="M6.618,16.134l0.129,6.99l5.109-4.248c0,0-1.627-0.318-2.819-0.855C7.844,17.486,6.618,16.134,6.618,16.134z"/>
		</g>
		<g display="inline">
		</g>
		<g display="inline">
		</g>
		<g display="inline">
		</g>
		<g display="inline">
		</g>
		<g display="inline">
		</g>
		<g display="inline">
		</g>
		<g display="inline">
		</g>
		<g display="inline">
		</g>
		<g display="inline">
		</g>
		<g display="inline">
		</g>
		<g display="inline">
		</g>
		<g display="inline">
		</g>
		<g display="inline">
		</g>
		<g display="inline">
		</g>
		<g display="inline">
		</g>
	</g>
	<g id="sun-light" display="none">
		<g display="inline">
			<circle cx="12" cy="12.185" r="6.487"/>
			<polygon points="19.833,2.851 15.129,4.09 19.429,7.699 			"/>
			<polygon points="20.575,13.523 24,10.069 19.601,7.995 			"/>
			<polygon points="17.708,18.722 22.554,18.277 20.516,13.86 			"/>
			<polygon points="16.168,23.635 17.446,18.941 12.171,20.861 			"/>
			<polygon points="7.833,23.635 11.83,20.861 6.555,18.941 			"/>
			<polygon points="1.448,18.277 6.292,18.722 3.486,13.86 			"/>
			<polygon points="4.4,7.995 0,10.069 3.426,13.523 			"/>
			<polygon points="8.872,4.09 4.168,2.851 4.572,7.699 			"/>
			<polygon points="12,0 9.194,3.973 14.808,3.973 			"/>
		</g>
	</g>
	<g id="box-mesh" display="none">
		<path display="inline" d="M23.626,4.658l0.019-0.043L12.105,0l-5.43,2.098L6.641,2.083L6.625,2.118L0.04,4.663L0.001,4.647v0.03
			L0,4.678l0.001,0.005v14.8l11.404,4.499V24h0.846v-0.018l11.403-4.499V4.647L23.626,4.658z M22.81,12.351l-4.797,1.758V7.781
			l4.797-1.892V12.351z M11.406,10.054v6.174L6.521,14.46V8.126L11.406,10.054z M7.088,7.442l4.908-2.041l4.57,2.042l-4.738,1.869
			L7.088,7.442z M12.251,10.054l4.917-1.94v6.306l-4.917,1.803V10.054z M17.667,7.009l-4.598-2.054l4.489-1.867l4.993,1.994
			L17.667,7.009z M12.095,0.907l4.341,1.733l-4.427,1.841L7.763,2.584L12.095,0.907z M6.654,3.014l4.282,1.913l-4.978,2.07
			L1.208,5.123L6.654,3.014z M5.676,7.794v6.36l-4.829-1.746v-6.52L5.676,7.794z M0.847,13.307l4.829,1.747v5.759l-4.829-1.904
			V13.307z M6.521,21.146v-5.787l4.884,1.767v5.947L6.521,21.146z M12.251,17.123l4.917-1.803v5.812l-4.917,1.94V17.123z
			 M18.014,20.801V15.01l4.796-1.759v5.657L18.014,20.801z"/>
	</g>
	<g id="box" display="none">
		<g display="inline">
			<path d="M21.744,5.49c-0.048-0.146-0.283-0.269-0.412-0.327L11.212,0.09l-0.03-0.016c-0.247-0.142-0.49-0.045-0.58,0
				C10.5,0.125,0.475,5.14,0.475,5.14C0.438,5.151,0.119,5.253,0.047,5.519C-0.01,5.73,0.002,5.841,0.004,5.841l0,0l0.002,12.337
				c-0.004,0.022-0.032,0.216,0.078,0.405c0.113,0.195,0.314,0.26,0.315,0.259l10.106,5.051C10.523,23.904,10.676,24,10.884,24
				h0.009c0.208-0.004,0.363-0.094,0.37-0.099l10.115-5.057c0.065-0.03,0.219-0.104,0.294-0.192
				c0.042-0.037,0.106-0.133,0.106-0.451V5.848C21.779,5.825,21.788,5.619,21.744,5.49z M10.124,22.104l-8.688-4.343V6.999
				l8.688,4.345V22.104z M10.892,10.063L2.37,5.79l8.521-4.26l8.522,4.272L10.892,10.063z M20.348,17.761l-8.689,4.343v-10.76
				l8.689-4.344V17.761z"/>
		</g>
	</g>
	<g id="cube-camera" display="none">
		<path display="inline" d="M8.516,10.64l4.38-7.52c-0.641-0.093-1.368-0.182-2.007-0.182c-2.19,0-4.198,0.725-5.749,2.084
			l3.375,5.707V10.64L8.516,10.64z M19.557,9.283c-0.82-2.629-2.826-4.804-5.475-5.71l-3.285,5.71H19.557z M19.833,10.187h-6.846
			l0.275,0.453l4.38,7.519c1.46-1.63,2.372-3.806,2.372-6.161C20.015,11.363,19.923,10.73,19.833,10.187z M7.695,11.999L4.137,5.837
			c-1.46,1.631-2.372,3.806-2.372,6.161c0,0.634,0.092,1.271,0.182,1.813h6.844L7.695,11.999z M2.221,14.716
			c0.822,2.628,2.829,4.803,5.474,5.708l3.377-5.708H2.221z M12.441,14.716l-3.559,6.162c0.639,0.183,1.277,0.183,2.007,0.183
			c2.189,0,4.198-0.726,5.748-2.086l-3.374-5.705L12.441,14.716z"/>
		<path display="inline" d="M21.744,5.491c-0.048-0.146-0.283-0.269-0.412-0.326L11.211,0.09l-0.03-0.016
			c-0.247-0.143-0.49-0.045-0.58,0C10.5,0.125,0.474,5.14,0.474,5.14C0.438,5.152,0.118,5.254,0.046,5.52
			c-0.057,0.211-0.044,0.322-0.042,0.322l0.002,12.336c-0.004,0.022-0.032,0.216,0.078,0.405c0.113,0.195,0.314,0.26,0.315,0.259
			l10.106,5.051C10.522,23.904,10.676,24,10.884,24h0.009c0.208-0.004,0.363-0.094,0.37-0.099l10.115-5.057
			c0.065-0.03,0.219-0.104,0.294-0.192c0.042-0.037,0.106-0.133,0.106-0.451V5.848C21.779,5.825,21.788,5.62,21.744,5.491z
			 M20.348,17.761l-3.783,1.891c-0.892,0.662-1.899,1.176-2.992,1.495l-1.914,0.957v-0.606c-0.254,0.021-0.509,0.039-0.769,0.039
			c-0.259,0-0.513-0.019-0.767-0.039v0.606l-1.912-0.956c-1.096-0.32-2.106-0.834-3-1.499l-3.776-1.888v-4.575
			C1.386,12.796,1.353,12.403,1.353,12c0-0.402,0.033-0.797,0.082-1.187V6.999l1.039,0.52c0.238-0.446,0.516-0.865,0.819-1.266
			L2.37,5.79l2.77-1.385C6.069,3.7,7.13,3.161,8.283,2.833L10.89,1.53l2.592,1.3c1.172,0.331,2.249,0.88,3.191,1.601l2.739,1.373
			l-0.918,0.459c0.301,0.397,0.576,0.814,0.812,1.258L20.348,7v3.826c0.047,0.386,0.079,0.775,0.079,1.174s-0.032,0.788-0.079,1.173
			V17.761z"/>
	</g>
	<g id="cube-camera2" display="none">
		<path display="inline" d="M4.379,13.892l-2.192,3.692c1.008,1.576,2.309,2.768,3.727,3.423c0.415,0.188,0.891,0.327,1.303,0.446
			L4.379,13.97V13.892z M5.854,15.761l2.131,5.673c1.716,0.041,3.017-1.152,3.551-3.067L5.854,15.761z M11.829,16.266
			c0-1.938-0.591-3.994-1.538-5.768l-2.84,4.88l-0.174,0.293l4.433,2.03C11.772,17.279,11.829,16.786,11.829,16.266z M4.555,11.441
			L0.12,9.404C0.06,9.828,0,10.319,0,10.842c0,1.938,0.591,3.998,1.539,5.772l2.306-4.012L4.555,11.441z M6.035,11.375l-2.19-5.695
			C2.128,5.637,0.83,6.828,0.297,8.743L6.035,11.375z M7.451,13.211l2.193-3.682c-1.009-1.584-2.31-2.773-3.729-3.427
			C5.444,5.89,5.028,5.699,4.615,5.656l2.308,6.126L7.451,13.211z M9.467,2.859l4.054-2.791C12.931,0.035,12.254,0,11.663,0
			C9.637,0,7.78,0.271,6.344,0.774l3.124,2.122V2.859z M19.685,2.356c-0.763-0.976-2.615-1.785-5.065-2.12l-3.04,2.12H19.685z
			 M19.937,2.691h-6.331l0.255,0.168l4.052,2.794c1.352-0.605,2.193-1.414,2.193-2.288C20.105,3.129,20.023,2.894,19.937,2.691z
			 M8.708,3.366l-3.291-2.29C4.065,1.682,3.22,2.491,3.22,3.366c0,0.236,0.085,0.471,0.171,0.671h6.331L8.708,3.366z M3.644,4.376
			c0.761,0.975,2.618,1.783,5.065,2.118l3.124-2.118H3.644z M13.103,4.376L9.806,6.663c0.593,0.067,1.184,0.067,1.857,0.067
			c2.029,0,3.883-0.269,5.323-0.774L13.86,3.837L13.103,4.376z M16.551,13.144l2.837-7.488c-0.413,0.119-0.889,0.26-1.301,0.451
			c-1.42,0.649-2.721,1.843-3.727,3.419l2.19,3.693V13.144z M23.706,8.745c-0.532-1.916-1.831-3.109-3.55-3.067l-2.132,5.668
			L23.706,8.745z M23.882,9.408l-4.434,2.033l0.176,0.292l2.838,4.879C23.409,14.842,24,12.78,24,10.846
			C24,10.321,23.942,9.829,23.882,9.408z M16.018,14.507l-2.309-4.011c-0.946,1.774-1.535,3.837-1.535,5.774
			c0,0.521,0.059,1.016,0.117,1.436l4.435-2.034L16.018,14.507z M12.468,18.366c0.533,1.915,1.833,3.108,3.551,3.067l2.185-5.7
			L12.468,18.366z M19.094,15.331l-2.312,6.122c0.42-0.041,0.831-0.231,1.305-0.444c1.42-0.651,2.721-1.847,3.728-3.425l-2.19-3.688
			L19.094,15.331z"/>
	</g>
	<g id="camera4" display="none">
		<path display="inline" d="M7.125,11.25c0,2.692,2.183,4.875,4.875,4.875s4.875-2.183,4.875-4.875S14.692,6.375,12,6.375
			S7.125,8.558,7.125,11.25z M22.5,3h-5.249C16.875,1.5,16.5,0,15,0H9C7.5,0,7.125,1.5,6.75,3H1.5C0.675,3,0,3.674,0,4.5V18
			c0,0.825,0.675,1.5,1.5,1.5h21c0.825,0,1.5-0.675,1.5-1.5V4.5C24,3.674,23.325,3,22.5,3z M12,17.906
			c-3.675,0-6.656-2.98-6.656-6.656c0-3.675,2.981-6.656,6.656-6.656c3.677,0,6.657,2.981,6.657,6.656
			C18.657,14.926,15.677,17.906,12,17.906z M22.5,7.5h-3V6h3V7.5z"/>
	</g>
	<g id="camera3" display="none">
		<g id="_x33__13_" display="inline">
			<g>
				<path d="M22.5,9L18,12.001c0-0.911-0.414-1.717-1.055-2.267C18.471,8.815,19.5,7.161,19.5,5.25C19.5,2.351,17.149,0,14.25,0
					C11.35,0,9,2.351,9,5.25C9,6.721,9.608,8.048,10.583,9h-2.75C8.551,8.203,9,7.159,9,6c0-2.485-2.014-4.5-4.5-4.5S0,3.515,0,6
					c0,1.357,0.612,2.558,1.562,3.383C0.635,9.894,0,10.868,0,12.001V18c0,1.656,1.343,2.999,3,2.999h12c1.657,0,3-1.343,3-2.999
					l4.5,2.999c0.828,0,1.5-0.67,1.5-1.499v-9C24,9.672,23.328,9,22.5,9z M4.5,9c-1.657,0-3-1.343-3-3c0-1.657,1.344-3,3-3
					c1.656,0,3,1.343,3,3C7.5,7.658,6.156,9,4.5,9z M14.25,9.009c-2.077,0-3.758-1.684-3.758-3.759s1.683-3.758,3.758-3.758
					c2.076,0,3.759,1.683,3.759,3.758C18.009,7.327,16.326,9.009,14.25,9.009z"/>
			</g>
		</g>
		<g display="inline">
		</g>
		<g display="inline">
		</g>
		<g display="inline">
		</g>
		<g display="inline">
		</g>
		<g display="inline">
		</g>
		<g display="inline">
		</g>
		<g display="inline">
		</g>
		<g display="inline">
		</g>
		<g display="inline">
		</g>
		<g display="inline">
		</g>
		<g display="inline">
		</g>
		<g display="inline">
		</g>
		<g display="inline">
		</g>
		<g display="inline">
		</g>
		<g display="inline">
		</g>
	</g>
	<g id="camera2" display="none">
		<g display="inline">
			<path fill="#231F20" d="M21.235,10.717c-0.038-0.265-0.205-0.494-0.445-0.611c-0.241-0.117-0.521-0.107-0.755,0.028l-5.21,3.025
				c-0.031,0.017-0.061,0.038-0.089,0.061l-0.806,0.465c-0.248,0.142-0.399,0.407-0.399,0.695c-0.002,0.287,0.152,0.553,0.399,0.696
				l4.539,2.637c0.128,0.074,0.267,0.107,0.402,0.107c0.25,0,0.493-0.115,0.649-0.329c1.163-1.585,1.803-3.536,1.803-5.492
				C21.324,11.574,21.295,11.145,21.235,10.717z"/>
			<path fill="#231F20" d="M6.381,5.976l5.171,2.974c0.028,0.014,0.054,0.029,0.082,0.041l0.846,0.49
				c0.125,0.072,0.262,0.106,0.4,0.106c0.139,0,0.279-0.036,0.402-0.106c0.249-0.144,0.4-0.409,0.4-0.696V3.53
				c0-0.411-0.31-0.756-0.718-0.8C10.591,2.476,8.18,3.177,6.284,4.645C6.07,4.809,5.955,5.069,5.973,5.336
				C6,5.603,6.151,5.843,6.381,5.976z"/>
			<path fill="#231F20" d="M14.827,11.839c0.125,0.073,0.263,0.107,0.401,0.107c0.138,0,0.279-0.036,0.401-0.109l4.54-2.637
				c0.356-0.207,0.498-0.65,0.332-1.024c-0.985-2.188-2.749-3.895-4.97-4.803c-0.248-0.102-0.529-0.074-0.754,0.076
				c-0.223,0.149-0.356,0.4-0.356,0.668v7.024C14.424,11.431,14.577,11.697,14.827,11.839z"/>
			<path fill="#231F20" d="M17.587,18.05l-6.065-3.523c-0.249-0.145-0.553-0.146-0.806-0.002c-0.249,0.145-0.402,0.409-0.402,0.697
				v5.248c0,0.412,0.311,0.756,0.722,0.8c0.323,0.034,0.65,0.051,0.965,0.051c2.028,0,4.043-0.688,5.673-1.938
				c0.214-0.164,0.332-0.422,0.312-0.69C17.969,18.427,17.819,18.186,17.587,18.05z"/>
			<path fill="#231F20" d="M10.037,8.926L5.504,6.32C5.147,6.115,4.693,6.211,4.451,6.545C3.31,8.125,2.678,10.061,2.678,12
				c0,0.397,0.025,0.798,0.075,1.19c0.035,0.267,0.198,0.498,0.438,0.618c0.114,0.057,0.238,0.085,0.36,0.085
				c0.136,0,0.275-0.036,0.398-0.105l6.087-3.464c0.251-0.143,0.405-0.409,0.405-0.696C10.441,9.336,10.287,9.07,10.037,8.926z"/>
			<path fill="#231F20" d="M9.177,12.117c-0.247-0.144-0.551-0.146-0.801-0.003L3.797,14.72c-0.358,0.201-0.504,0.643-0.34,1.021
				c0.978,2.229,2.757,3.964,5.012,4.885c0.099,0.039,0.2,0.06,0.304,0.06c0.159,0,0.312-0.047,0.45-0.137
				c0.221-0.149,0.355-0.399,0.355-0.667v-7.068C9.577,12.525,9.426,12.26,9.177,12.117z"/>
			<path fill="#231F20" d="M12,0C5.383,0,0,5.382,0,12c0,6.616,5.383,12,12,12s12-5.384,12-12C24,5.382,18.617,0,12,0z M12,22.389
				C6.271,22.389,1.61,17.728,1.61,12C1.61,6.269,6.272,1.609,12,1.609c5.73,0,10.39,4.661,10.39,10.391
				C22.392,17.729,17.73,22.389,12,22.389z"/>
		</g>
	</g>
	<g id="camera" display="none">
		<path display="inline" d="M8.879,10.128l5.76-9.89C13.797,0.118,12.84,0,12,0c-2.88,0-5.521,0.953-7.56,2.739l4.439,7.506V10.128
			L8.879,10.128z M23.397,8.341c-1.079-3.456-3.717-6.316-7.199-7.508l-4.319,7.508H23.397z M23.761,9.531h-9.003l0.362,0.597
			l5.76,9.889C22.8,17.873,24,15.012,24,11.914C24,11.079,23.879,10.246,23.761,9.531z M7.799,11.914l-4.68-8.102
			C1.2,5.956,0,8.816,0,11.914c0,0.835,0.121,1.672,0.24,2.385h9L7.799,11.914z M0.6,15.487c1.081,3.457,3.72,6.316,7.199,7.507
			l4.44-7.507H0.6z M14.04,15.487l-4.681,8.104c0.84,0.24,1.679,0.24,2.64,0.24c2.878,0,5.52-0.953,7.558-2.742l-4.438-7.503
			L14.04,15.487z"/>
	</g>
	<g id="world2" display="none">
		<path display="inline" d="M12.001,0c-0.658,0-1.304,0.055-1.933,0.156c0.276,0.104,0.621,0.161,1.09,0.138
			c1.618-0.078,2.621,0.231,1.463,0.694c-1.156,0.462-0.94,0.954-0.401,0.992c0.54,0.038,1.798-0.538,2.215-0.031
			c0.432,0.523-0.482,1.38,0.062,2.308c0.812,1.379-1.961,1.696-2.663,2.73c-0.676,0.997-1.057,2.065-0.287,3.499
			c0.771,1.432,0.952,0.566,2.308,0.724c2.673,0.308,1.872,2.401,5.165,3.057c1.26,0.25,0.395,2.987-1.816,4.306
			c-2.131,1.271-1.458,2.729-4.485,3.702c-0.727,0.232-1.281,0.098-0.717-0.71c1.091-1.571,0.997-3.321,0-4.104
			c-0.998-0.783-2.116-0.953-1.845-2.16c0.27-1.206,1.313-1.627,1.386-2.711c0.073-1.046-1.587-4.606-3.661-3.9
			C6.699,9.091,4.408,7.585,4.529,5.612C4.668,3.32,6.424,2.969,6.031,1.605c-0.001-0.004,0-0.009,0-0.014C2.428,3.663,0,7.548,0,12
			c0,6.627,5.374,12,12.001,12C18.628,23.999,24,18.627,24,12C24,5.373,18.628,0,12.001,0z"/>
	</g>
	<g id="world_1_" display="none">
		<path display="inline" d="M12,0C5.4,0,0,5.4,0,12s5.4,11.999,12,11.999c6.601,0,12-5.399,12-11.999S18.601,0,12,0z M10.8,21.48
			C6.121,20.879,2.4,16.8,2.4,12c0-0.721,0.121-1.441,0.24-2.16l5.76,5.759V16.8c0,1.318,1.08,2.399,2.4,2.399V21.48z
			 M19.081,18.479c-0.361-0.961-1.2-1.68-2.28-1.68h-1.2v-3.6c0-0.721-0.48-1.201-1.201-1.201H7.2V9.6h2.399
			c0.72,0,1.201-0.48,1.201-1.199V6h2.4c1.319,0,2.4-1.081,2.4-2.4V3.12C19.081,4.559,21.6,8.04,21.6,12
			C21.6,14.52,20.64,16.8,19.081,18.479z"/>
	</g>
</g>
<g id="media">
	<g id="cubemap-texture">
		<g>
			<polygon points="12.262,24 23.196,18.312 23.196,15.308 12.266,20.93 			"/>
			<path d="M12.262,9.9v10.192l3.025-5.945l2.017,3.131l2.123-4.299l1.805,2.123l1.965-1.11V4.91L12.262,9.9z M22.199,9.055
				c-0.159,0.781-0.779,1.315-1.384,1.192c-0.604-0.123-0.966-0.856-0.807-1.637c0.158-0.782,0.777-1.316,1.383-1.193
				C21.996,7.541,22.357,8.273,22.199,9.055z"/>
			<polygon points="0,15.308 0,18.312 10.934,24 10.93,20.93 			"/>
			<path d="M0,13.991l1.964,1.11l1.805-2.123l2.123,4.299l2.018-3.131l3.025,5.944V9.9L0,4.91V13.991z M1.805,7.417
				C2.41,7.295,3.029,7.828,3.188,8.61c0.159,0.781-0.202,1.514-0.807,1.637c-0.605,0.123-1.224-0.411-1.383-1.192
				S1.2,7.541,1.805,7.417z"/>
			<polygon points="11.638,0 0.849,3.663 11.571,8.296 22.268,3.503 			"/>
		</g>
	</g>
	<g id="video-texture">
		<g>
			<path d="M18.882,0v1.749H5.119V0H0v24.123h5.119v-1.568h13.763v1.568H24V0H18.882z M18.37,4.065v9.219l-1.467-2.018
				c-0.141-0.194-0.356-0.306-0.591-0.301c-0.231,0.006-0.445,0.129-0.578,0.329l-4.079,6.207l-2.272-4.345
				c-0.122-0.233-0.35-0.385-0.601-0.396c-0.25-0.014-0.492,0.116-0.633,0.337l-2.519,3.947V4.065H18.37z M3.839,21.289h-2.73
				v-4.522h2.73V21.289z M3.839,13.871h-2.73V9.347h2.73V13.871z M3.839,6.273h-2.73V1.749h2.73V6.273z M22.948,21.289h-2.73v-4.522
				h2.73V21.289z M22.948,13.871h-2.73V9.347h2.73V13.871z M22.948,6.273h-2.73V1.749h2.73V6.273z"/>
			<ellipse cx="14.127" cy="8.068" rx="1.671" ry="1.736"/>
		</g>
	</g>
</g>
<g id="transform">
	<g id="object-helper">
		<path d="M23.664,18.314l-0.047-0.105l-0.804-1.788l-0.493,1.297l-2.771-1.013c0,0,0-7.229,0-7.571s-0.216-0.541-0.417-0.617
			c-0.2-0.076-6.373-2.426-6.373-2.426V2.044h1.385l-1.388-1.387l-0.082-0.082L12.099,0L11.44,0.659l-1.386,1.385h1.386v4.053
			L5.19,8.483C4.867,8.593,4.654,8.775,4.654,9.101L4.65,16.642l-2.972,1.121l-0.492-1.296l-0.803,1.786l-0.049,0.108L0,19.104
			l0.742,0.334l0.114,0.051l1.783,0.802l-0.492-1.295l2.956-1.113l6.702,2.555c0.236,0.101,0.377,0.07,0.588,0.001l6.622-2.524
			l2.839,1.037l-0.49,1.294l1.793-0.807l0.103-0.047L24,19.059L23.664,18.314z M11.439,18.871L5.984,16.79v-6.678l5.456,2.076
			V18.871L11.439,18.871z M12.099,11.007L7.204,9.141l4.911-1.874l4.892,1.868L12.099,11.007z M18.214,16.79l-5.44,2.076v-6.688
			l5.44-2.075V16.79z"/>
	</g>
	<g id="gnomon">
		<polygon points="23.931,18.211 23.014,16.402 22.54,17.705 12.758,14.144 12.759,2.186 14.144,2.186 12.756,0.703 12.674,0.615 
			12.099,0 11.44,0.705 10.055,2.186 11.44,2.186 11.44,14.206 1.828,17.705 1.354,16.402 0.438,18.211 0,19.07 0.775,19.4 
			0.886,19.447 2.753,20.244 2.279,18.943 12.184,15.337 22.089,18.943 21.615,20.244 23.482,19.447 23.593,19.4 24.368,19.07 		"/>
	</g>
	<g id="refresh">
		<path d="M13.127,24C7.131,24,2.253,19.117,2.253,13.124C2.253,7.13,7.131,2.25,13.127,2.25c0.398,0,0.801,0.023,1.201,0.068V0.559
			c0-0.225,0.139-0.431,0.345-0.519c0.214-0.083,0.451-0.036,0.613,0.126l3.853,3.861c0.219,0.219,0.219,0.569,0,0.791l-3.851,3.871
			c-0.164,0.159-0.401,0.207-0.615,0.121c-0.206-0.088-0.345-0.292-0.345-0.518V6.342c-0.398-0.073-0.8-0.106-1.201-0.106
			c-3.798,0-6.889,3.091-6.889,6.888c0,3.796,3.091,6.889,6.889,6.889s6.888-3.093,6.888-6.889c0-0.309,0.25-0.561,0.562-0.561h2.86
			c0.311,0,0.562,0.252,0.562,0.561C24,19.117,19.119,24,13.127,24z"/>
		<g>
		</g>
		<g>
		</g>
		<g>
		</g>
		<g>
		</g>
		<g>
		</g>
		<g>
		</g>
		<g>
		</g>
		<g>
		</g>
		<g>
		</g>
		<g>
		</g>
		<g>
		</g>
		<g>
		</g>
		<g>
		</g>
		<g>
		</g>
		<g>
		</g>
	</g>
	<g id="rotate-z">
		<g>
			<path d="M20.489,3.51C15.809-1.17,8.191-1.171,3.51,3.51c-4.571,4.572-4.676,11.941-0.318,16.645L0.69,22.656h6.84l0-6.84
				l-2.482,2.481c-3.335-3.677-3.229-9.382,0.318-12.93c3.657-3.657,9.608-3.657,13.265,0c3.657,3.657,3.657,9.608,0,13.264
				c-0.81,0.81-1.743,1.457-2.777,1.922l1.079,2.395c1.324-0.596,2.52-1.424,3.556-2.459C25.17,15.809,25.17,8.192,20.489,3.51z"/>
			<polygon points="15.682,8.073 15.682,6.792 8.319,6.792 8.319,8.432 13.101,8.432 8.186,14.869 8.186,16.156 15.814,16.156 
				15.814,14.517 10.773,14.517 			"/>
		</g>
	</g>
	<g id="rotate-y">
		<g>
			<path d="M20.489,3.511C15.809-1.17,8.192-1.171,3.51,3.51c-4.572,4.572-4.676,11.942-0.318,16.645l-2.501,2.501h6.84v-6.84
				l-2.481,2.481C1.714,14.621,1.82,8.916,5.367,5.367c3.658-3.657,9.607-3.656,13.265,0c3.658,3.658,3.658,9.608,0,13.266
				c-0.81,0.81-1.743,1.456-2.776,1.921l1.078,2.396c1.324-0.597,2.521-1.425,3.556-2.46C25.172,15.809,25.172,8.192,20.489,3.511z"
				/>
			<polygon points="14.173,6.719 12.002,10.635 9.843,6.719 7.45,6.719 10.904,12.594 10.904,16.229 13.098,16.229 13.098,12.528 
				16.552,6.719 			"/>
		</g>
	</g>
	<g id="rotate-x">
		<g>
			<path d="M20.489,3.511C15.808-1.17,8.191-1.17,3.51,3.511c-4.572,4.571-4.676,11.94-0.318,16.645l-2.502,2.502l6.84-0.001l0-6.84
				l-2.482,2.482C1.713,14.621,1.819,8.916,5.367,5.368c3.657-3.657,9.608-3.657,13.265,0c3.657,3.658,3.657,9.608,0.001,13.265
				c-0.811,0.81-1.744,1.456-2.778,1.922l1.078,2.395c1.325-0.597,2.521-1.424,3.557-2.459C25.17,15.809,25.17,8.192,20.489,3.511z"
				/>
			<polygon points="13.208,11.439 16.139,7.21 14.006,7.21 12.032,10.279 10.02,7.21 7.836,7.21 10.735,11.34 7.638,15.739 
				9.759,15.739 11.931,12.514 14.102,15.739 16.362,15.739 			"/>
		</g>
	</g>
	<g id="rotate">
		<g>
			<path d="M20.489,3.511C15.808-1.17,8.191-1.17,3.51,3.511c-4.572,4.571-4.676,11.94-0.318,16.645l-2.502,2.502l6.84-0.001l0-6.84
				l-2.482,2.482C1.713,14.621,1.819,8.916,5.367,5.367c3.657-3.656,9.608-3.656,13.265,0c3.657,3.658,3.657,9.608,0.001,13.266
				c-0.811,0.81-1.744,1.456-2.778,1.922l1.078,2.395c1.325-0.597,2.521-1.424,3.557-2.459C25.17,15.809,25.17,8.192,20.489,3.511z"
				/>
		</g>
	</g>
	<g id="slide-z">
		<g>
			<path d="M24,11.99l-5.565-5.566l0.919,3.579h-3.871V8.361H8.362v1.643H4.647l0.919-3.579L0,11.99l5.566,5.567l-0.919-3.581h3.647
				v1.363h7.26v-1.363h3.799l-0.919,3.581L24,11.99z M14.511,14.221H9.368v-0.812l2.859-2.99H9.437V9.359h5.002v0.808l-2.857,2.993
				h2.93V14.221z"/>
			<rect x="11.087" y="17.814" width="1.826" height="6.166"/>
			<rect x="11.087" width="1.826" height="6.463"/>
		</g>
	</g>
	<g id="slide-y">
		<g>
			<path d="M23.827,12l-5.525-5.526l0.913,3.554h-3.233l1.036-1.588h-4.775l-0.324,0.671l-0.32-0.671H6.83l1.023,1.588H4.614
				l0.913-3.554L0,12l5.526,5.525l-0.912-3.553h5.285v1.438h4.033v-1.438h5.283l-0.913,3.553L23.827,12z M12.749,12.43v1.892h-1.76
				V12.47L8.862,9.478h1.901l1.106,1.796l1.115-1.796h1.892L12.749,12.43z"/>
			<rect x="11" y="17.829" width="1.826" height="6.171"/>
			<rect x="11" width="1.826" height="6.468"/>
		</g>
	</g>
	<g id="slide-x">
		<g>
			<path d="M23.634,12l-5.481-5.481l0.905,3.525h-3.188l-2.624-2.625l-1.501,1.501l-1.501-1.501l-2.626,2.625h-3.04l0.905-3.525
				L0,12l5.481,5.481l-0.905-3.525h3.04l2.626,2.626l1.501-1.501l1.5,1.501l2.626-2.626h3.188l-0.905,3.525L23.634,12z
				 M14.43,13.501l-1.185,1.186l-1.501-1.5l-1.501,1.5l-1.187-1.186L10.557,12l-1.501-1.501l1.187-1.185l1.5,1.5l1.5-1.5
				l1.186,1.185L12.929,12L14.43,13.501z"/>
			<g>
				<rect x="10.83" y="17.829" width="1.826" height="6.171"/>
				<rect x="10.83" width="1.826" height="6.468"/>
			</g>
		</g>
	</g>
	<g id="move-z">
		<g>
			<polygon points="24.001,11.614 19.18,6.793 19.18,10.145 4.82,10.145 4.82,6.793 1.469,10.145 1.457,10.145 1.457,10.157 
				0,11.614 1.457,13.07 1.457,13.083 1.469,13.083 4.82,16.434 4.82,13.083 19.18,13.083 19.18,16.434 			"/>
			<polygon points="15.361,6.806 10.92,6.806 15.244,1.129 15.244,0 8.756,0 8.756,1.444 12.971,1.444 8.64,7.117 8.64,8.25 
				15.361,8.25 			"/>
		</g>
	</g>
	<g id="move-y">
		<g>
			<polygon points="24.001,11.614 19.181,6.793 19.181,10.145 4.82,10.145 4.82,6.793 1.469,10.145 1.457,10.145 1.457,10.157 
				0,11.614 1.457,13.07 1.457,13.082 1.469,13.082 4.82,16.434 4.82,13.082 19.181,13.082 19.181,16.434 			"/>
			<polygon points="11.049,8.25 12.951,8.25 12.951,5.039 15.948,0 13.885,0 12.001,3.397 10.128,0 8.052,0 11.049,5.096 			"/>
		</g>
	</g>
	<g id="move-x">
		<g>
			<polygon points="24,11.548 19.181,6.727 19.181,10.079 4.82,10.079 4.82,6.727 0,11.548 4.82,16.368 4.82,13.017 19.181,13.017 
				19.181,16.368 			"/>
			<polygon points="9.832,8.251 11.933,5.13 14.033,8.251 16.221,8.251 13.168,4.091 16.004,0 13.94,0 12.031,2.968 10.084,0 
				7.972,0 10.777,3.995 7.781,8.251 			"/>
		</g>
	</g>
	<g id="move3">
		<path d="M6.754,15.194l-0.011-5.08C6.742,9.883,6.979,9.727,7.191,9.818l4.282,1.83c0.119,0.051,0.195,0.167,0.195,0.296
			l0.011,5.079c0,0.231-0.235,0.388-0.449,0.297l-4.281-1.83C6.831,15.439,6.754,15.322,6.754,15.194z M17.001,9.769
			c0.17,0,0.321,0.136,0.323,0.321l0.011,5.079c0,0.13-0.076,0.246-0.194,0.298l-4.273,1.85c-0.041,0.019-0.085,0.027-0.126,0.027
			c-0.171,0-0.323-0.137-0.323-0.321l-0.011-5.08c0-0.128,0.075-0.245,0.194-0.296l4.272-1.851
			C16.917,9.777,16.96,9.769,17.001,9.769L17.001,9.769z M11.97,6.417c0.043,0,0.088,0.009,0.13,0.027l4.504,1.986
			c0.256,0.113,0.258,0.475,0.002,0.589l-4.495,2.006c-0.042,0.019-0.086,0.028-0.131,0.028c-0.043,0-0.088-0.009-0.129-0.027
			L7.346,9.041C7.09,8.928,7.089,8.566,7.344,8.452l4.495-2.006C11.881,6.426,11.926,6.417,11.97,6.417L11.97,6.417z M13.005,21.081
			v-2.434H11v2.434H9.082L12.002,24l2.92-2.919H13.005z M21.081,10.996h-2.434V13h2.434v1.918L24,11.998l-2.919-2.92V10.996z
			 M10.997,2.919v2.434H13V2.919h1.918L11.998,0l-2.92,2.919H10.997z M2.919,13.004h2.434V11H2.919V9.082L0,12.002l2.919,2.92
			V13.004z"/>
	</g>
	<g id="move2">
		<path d="M23.891,11.685c-0.362-0.364-3.801-3.696-3.801-3.696s-0.462-0.461-0.461,0.151c0,0.61,0,1.584,0,1.584h-5.373V4.368
			c0,0,0.976,0,1.59,0.001c0.609-0.001,0.149-0.458,0.149-0.458S12.663,0.468,12.3,0.108c-0.262-0.26-0.512,0.029-0.512,0.029
			L8,3.824c0,0-0.46,0.436,0.04,0.436c0.504,0.001,1.719,0.001,1.719,0.001v5.464H4.372c0,0,0-0.974,0.001-1.586
			C4.372,7.531,3.912,7.989,3.912,7.989s-3.438,3.332-3.8,3.696c-0.265,0.261,0.026,0.51,0.026,0.51l3.686,3.788
			c0,0,0.436,0.463,0.436-0.043c0.005-0.501,0.005-1.717,0.005-1.717h5.494v5.518c0,0-1.215,0-1.72,0C7.54,19.74,8,20.175,8,20.175
			l3.788,3.685c0,0,0.248,0.296,0.512,0.032c0.362-0.363,3.691-3.805,3.691-3.805s0.462-0.458-0.148-0.455c-0.611,0-1.587,0-1.587,0
			v-5.407l5.483,0.003c0,0,0,1.213,0,1.715c0,0.504,0.436,0.042,0.436,0.042l3.687-3.788C23.861,12.195,24.152,11.945,23.891,11.685
			z"/>
		<g>
		</g>
		<g>
		</g>
		<g>
		</g>
		<g>
		</g>
		<g>
		</g>
		<g>
		</g>
		<g>
		</g>
		<g>
		</g>
		<g>
		</g>
		<g>
		</g>
		<g>
		</g>
		<g>
		</g>
		<g>
		</g>
		<g>
		</g>
		<g>
		</g>
	</g>
	<g id="move">
		<path d="M24,12l-4.82-4.82v3.351h-3.127c-0.434-1.189-1.377-2.131-2.564-2.564V4.82h3.352L12.021,0L7.199,4.82h3.352v3.146
			C9.363,8.4,8.421,9.342,7.986,10.531H4.82V7.18l-3.352,3.351H1.456v0.012L0,12l1.456,1.458v0.011h0.013L4.82,16.82v-3.353h3.158
			c0.43,1.198,1.377,2.149,2.574,2.585v3.127H7.199l3.353,3.352v0.052h0.052L12.021,24l1.416-1.417h0.053v-0.052l3.352-3.352h-3.352
			v-3.127c1.196-0.436,2.142-1.387,2.572-2.585h3.118v3.352L24,12z"/>
	</g>
	<g id="scale2">
		<path d="M0.578,0c0.712,0,7.383,0.107,7.383,0.107s0.906,0,0.304,0.603c-0.601,0.6-1.562,1.556-1.562,1.556
			s0.263,0.262,0.66,0.662c1.212,1.21,5.469,5.47,6.491,6.493c0.021,0.019,0.047,0.045,0.062,0.061
			c1.042,1.037,5.946,5.942,7.153,7.157c0.403,0.395,0.663,0.661,0.663,0.661s0.961-0.962,1.562-1.565
			c0.601-0.6,0.599,0.305,0.599,0.305S23.998,22.707,24,23.42c-0.002,0.518-0.533,0.473-0.533,0.473l-7.361,0.105
			c0,0-0.883,0.021-0.39-0.47c0.496-0.497,1.69-1.694,1.69-1.694s-0.287-0.288-0.735-0.735c-1.254-1.255-6.075-6.075-7.141-7.145
			c-0.043-0.024-0.071-0.058-0.08-0.074c-0.018-0.011-0.047-0.032-0.066-0.07c-1.045-1.046-5.227-5.224-6.484-6.479
			c-0.446-0.45-0.735-0.739-0.735-0.739S0.97,7.788,0.472,8.286C-0.022,8.777,0,7.891,0,7.891l0.1-7.357C0.1,0.533,0.061,0,0.578,0z
			"/>
		<path d="M23.422,0c-0.713,0-7.382,0.107-7.382,0.107s-0.907,0-0.304,0.603c0.603,0.6,1.561,1.556,1.561,1.556
			s-0.26,0.262-0.658,0.662c-1.214,1.21-5.473,5.47-6.492,6.493c-0.021,0.019-0.045,0.045-0.06,0.061
			c-1.042,1.037-5.945,5.942-7.159,7.157c-0.396,0.395-0.66,0.661-0.66,0.661s-0.957-0.962-1.559-1.565
			c-0.604-0.6-0.602,0.305-0.602,0.305S0.003,22.707,0,23.419c0.003,0.517,0.536,0.474,0.536,0.474l7.359,0.104
			c0,0,0.883,0.022,0.394-0.471c-0.498-0.495-1.696-1.692-1.696-1.692s0.292-0.288,0.737-0.735c1.253-1.255,6.072-6.075,7.143-7.145
			c0.043-0.026,0.069-0.06,0.079-0.074c0.014-0.011,0.045-0.032,0.067-0.07c1.042-1.047,5.224-5.225,6.484-6.48
			c0.444-0.449,0.731-0.738,0.731-0.738s1.196,1.196,1.694,1.695c0.496,0.491,0.469-0.395,0.469-0.395l-0.103-7.357
			C23.896,0.533,23.939,0,23.422,0z"/>
		<g>
		</g>
		<g>
		</g>
		<g>
		</g>
		<g>
		</g>
		<g>
		</g>
		<g>
		</g>
		<g>
		</g>
		<g>
		</g>
		<g>
		</g>
		<g>
		</g>
		<g>
		</g>
		<g>
		</g>
		<g>
		</g>
		<g>
		</g>
		<g>
		</g>
	</g>
	<g id="focus">
		<g>
			<path d="M18.545,15.372c0.047-0.043,0.087-0.123,0.087-0.326V8.962c0.002-0.035,0.005-0.156-0.023-0.243
				c-0.03-0.089-0.13-0.171-0.288-0.242l-6.092-3.054l-0.035-0.017c0,0-0.176-0.104-0.385,0c-0.208,0.104-6.1,3.052-6.1,3.052
				c-0.301,0.13-0.338,0.323-0.338,0.496l0.002,6.064c-0.004,0.027-0.021,0.161,0.056,0.296C5.507,15.45,5.646,15.5,5.651,15.5l0,0
				l6.076,3.037c0.02,0.013,0.126,0.077,0.27,0.077h0.007c0.145-0.003,0.255-0.066,0.256-0.067l6.085-3.044
				C18.399,15.479,18.49,15.432,18.545,15.372z M11.462,17.27l-5.076-2.537V9.777l5.076,2.537V17.27z M12.001,11.41L7.043,8.924
				L12,6.445l4.958,2.485L12.001,11.41z M17.616,14.732L12.54,17.27v-4.956l5.076-2.537V14.732L17.616,14.732z"/>
			<polygon points="18.219,0 18.219,1.952 22.049,1.952 22.049,5.782 24,5.782 24,0 			"/>
			<polygon points="1.952,1.952 5.782,1.952 5.782,0 0,0 0,5.782 1.952,5.782 			"/>
			<polygon points="1.952,18.219 0,18.219 0,24 5.782,24 5.782,22.048 1.952,22.048 			"/>
			<polygon points="22.049,22.048 18.219,22.048 18.219,24 24,24 24,18.219 22.049,18.219 			"/>
		</g>
	</g>
	<g id="scale-fit">
		<path d="M0,0v24h24V0H0z M1.723,1.655h4.771L5.058,3.091l3.447,3.437L6.606,8.437L3.159,4.989L1.723,6.426V1.655z M15.935,8.065
			v7.869H8.065V8.065H15.935z M6.494,22.345H1.723v-4.771l1.436,1.437l3.447-3.45l1.898,1.9l-3.447,3.448L6.494,22.345z
			 M22.276,22.345h-4.77l1.437-1.436l-3.448-3.448l1.898-1.9l3.447,3.45l1.436-1.437V22.345z M22.276,6.425l-1.436-1.437
			l-3.447,3.45l-1.898-1.898l3.448-3.45l-1.437-1.436h4.77V6.425z"/>
	</g>
	<g id="scale-z">
		<g>
			<path d="M0,0v6.48V24h17.52H24V0H0z M15.376,21.856H2.142V8.624h13.234V21.856z M21.856,21.856H17.52V6.48H2.142V2.142h19.717
				v19.714H21.856z"/>
			<polygon points="12.669,18.516 7.369,18.516 12.528,11.742 12.528,10.394 4.788,10.394 4.788,12.118 9.815,12.118 4.648,18.887 
				4.648,20.241 12.669,20.241 			"/>
		</g>
	</g>
	<g id="scale-y">
		<g>
			<path d="M0,0v6.481V24h17.52H24V0H0z M15.377,21.857H2.143V8.623h13.234V21.857z M21.857,21.857H17.52V6.481H2.143V2.142h19.716
				L21.857,21.857L21.857,21.857z"/>
			<polygon points="7.634,20.566 9.941,20.566 9.941,16.674 13.572,10.566 11.071,10.566 8.788,14.684 6.519,10.566 4.001,10.566 
				7.634,16.743 			"/>
		</g>
	</g>
	<g id="scale-x">
		<g>
			<path d="M0,0v6.519v17.619h17.52H24V0H0z M15.377,21.983H2.143V8.673h13.234V21.983z M21.857,21.983H17.52V6.519H2.143V2.154
				h19.717v19.829H21.857z"/>
			<polygon points="5.986,20.224 8.27,16.812 10.553,20.224 12.93,20.224 9.613,15.676 12.695,11.203 10.452,11.203 8.376,14.448 
				6.261,11.203 3.964,11.203 7.013,15.571 3.756,20.224 			"/>
		</g>
	</g>
	<g id="scale">
		<path d="M24,22.152v0.924c0,0.51-0.412,0.923-0.924,0.923h-0.923c-0.51,0-0.925-0.412-0.925-0.923
			c0-0.512,0.413-0.924,0.925-0.924c0-0.51,0.412-0.924,0.923-0.924C23.588,21.229,24,21.642,24,22.152z M23.076,10.116
			c-0.511,0-0.923,0.413-0.923,0.922v1.92c0,0.51,0.412,0.923,0.923,0.923c0.512,0,0.924-0.412,0.924-0.922v-1.92
			C24,10.529,23.588,10.116,23.076,10.116z M23.076,4.56c-0.511,0-0.923,0.414-0.923,0.923v1.92c0,0.51,0.412,0.923,0.923,0.923
			C23.588,8.326,24,7.912,24,7.402v-1.92C24,4.972,23.588,4.56,23.076,4.56z M23.076,15.672c-0.511,0-0.923,0.412-0.923,0.924v1.919
			c0,0.511,0.412,0.924,0.923,0.924c0.512,0,0.924-0.412,0.924-0.924v-1.919C24,16.084,23.588,15.672,23.076,15.672z M23.076,0
			h-0.923c-0.51,0-0.925,0.414-0.925,0.923s0.413,0.923,0.925,0.923c0,0.51,0.412,0.923,0.923,0.923C23.588,2.77,24,2.356,24,1.846
			V0.923C24,0.414,23.588,0,23.076,0z M16.597,1.846h1.919c0.511,0,0.925-0.413,0.925-0.923C19.44,0.413,19.028,0,18.516,0h-1.919
			c-0.511,0-0.923,0.414-0.923,0.923S16.086,1.846,16.597,1.846z M5.482,1.846h1.921c0.51,0,0.922-0.413,0.922-0.923
			C8.325,0.413,7.913,0,7.403,0H5.482C4.973,0,4.56,0.414,4.56,0.923S4.973,1.846,5.482,1.846z M11.04,1.846h1.921
			c0.51,0,0.922-0.413,0.922-0.923c0-0.51-0.412-0.922-0.922-0.922H11.04c-0.51,0-0.922,0.414-0.922,0.923S10.53,1.846,11.04,1.846z
			 M0.923,2.769c0.51,0,0.923-0.413,0.923-0.923c0.51,0,0.923-0.413,0.923-0.923C2.77,0.413,2.356,0,1.846,0H0.923
			C0.414,0,0,0.414,0,0.923v0.923C0,2.356,0.414,2.769,0.923,2.769z M0.923,8.325c0.51,0,0.923-0.413,0.923-0.923v-1.92
			c0-0.51-0.414-0.923-0.923-0.923S0,4.972,0,5.482v1.92C0,7.912,0.414,8.325,0.923,8.325z M18.516,22.152h-1.919
			c-0.511,0-0.923,0.412-0.923,0.924c0,0.511,0.412,0.923,0.923,0.923h1.919c0.511,0,0.925-0.412,0.925-0.923
			C19.44,22.564,19.028,22.152,18.516,22.152z M19.849,3.749l-5.71,0.713c-0.254,0.03-0.312,0.205-0.134,0.383l1.956,1.957
			L9.84,12.922H1.846v-1.883c0-0.51-0.413-0.922-0.923-0.922C0.414,10.117,0,10.529,0,11.039v1.92c0,0.164,0.053,0.311,0.128,0.442
			C0.053,13.534,0,13.681,0,13.845v2.751v1.919v3.638v0.924c0,0.51,0.414,0.923,0.923,0.923h0.923h3.636h1.92h2.752
			c0.163,0,0.309-0.054,0.442-0.128c0.131,0.073,0.277,0.127,0.442,0.127h1.921c0.51,0,0.922-0.412,0.922-0.923
			c0-0.512-0.412-0.924-0.922-0.924h-1.885v-7.992l6.123-6.122l1.953,1.955c0.182,0.179,0.353,0.12,0.385-0.132l0.712-5.712
			C20.282,3.898,20.103,3.717,19.849,3.749z"/>
	</g>
</g>
</svg>
